<?xml version="1.0" encoding="utf-8"?>
<!-- Generator: Adobe Illustrator 27.9.2, SVG Export Plug-In . SVG Version: 6.00 Build 0)  -->
<svg version="1.1" id="Calque_1" xmlns="http://www.w3.org/2000/svg" xmlns:xlink="http://www.w3.org/1999/xlink" x="0px" y="0px"
	 viewBox="0 0 942.7 278.9" style="enable-background:new 0 0 942.7 278.9;" xml:space="preserve">
<style type="text/css">
	.st0{fill:#FFFFFF;}
	.st1{fill:#1EA6B2;}
	.st2{fill:#3AE5FF;}
</style>
<path class="st0" d="M128.9,176.4c-0.7,4.6-2.5,8.7-5.4,12.3c-2.9,3.6-6.6,5.4-11.3,5.4c-5.8,0-9.8-2.1-11.9-6.3
	c-2.2-4.2-3-8.8-2.4-13.9c0.6-5,2.5-9.5,5.8-13.2c3.3-3.8,7.7-5.2,13.2-4.3c4.9,0.9,8.3,3.2,10.2,7.1
	C129,167.5,129.6,171.8,128.9,176.4z"/>
<path class="st0" d="M131.5,110.3c-0.4,4.5-2.1,8.6-5,12.3c-2.9,3.8-6.7,5.6-11.3,5.6c-5.8,0-9.7-1.9-11.9-5.6
	c-2.2-3.8-2.9-7.9-2.2-12.3c0.7-4.5,2.6-8.6,5.6-12.4c3-3.8,7-5.6,11.9-5.6c4.9,0,8.4,1.9,10.4,5.6
	C131.1,101.8,131.9,105.9,131.5,110.3z"/>
<path class="st0" d="M326,174.9c-1.3,7.1-3.8,13.6-7.4,19.7c-3.6,6.1-7.9,9.1-12.8,9.1c-3.8,0-6.6-1.4-8.7-4.3
	c-2-2.9-3.2-6.4-3.7-10.6c-0.4-4.2-0.2-8.8,0.9-13.9c1-5,2.5-9.7,4.3-13.9c1.9-4.2,4.2-7.7,6.9-10.6c2.7-2.9,5.8-4.3,9.3-4.3
	c5.5,0,9,3,10.6,9.1C327.1,161.2,327.3,167.8,326,174.9z"/>
<path class="st0" d="M500.5,174.9c-1.3,7.1-3.8,13.6-7.4,19.7c-3.6,6.1-7.9,9.1-12.8,9.1c-3.8,0-6.6-1.4-8.7-4.3
	c-2-2.9-3.2-6.4-3.7-10.6c-0.4-4.2-0.1-8.8,0.9-13.9c1-5,2.5-9.7,4.3-13.9c1.9-4.2,4.2-7.7,6.9-10.6c2.7-2.9,5.9-4.3,9.3-4.3
	c5.5,0,9,3,10.6,9.1C501.7,161.2,501.8,167.8,500.5,174.9z"/>
<path class="st0" d="M676.4,110.3c-0.4,4.5-2.1,8.6-5,12.3c-2.9,3.8-6.6,5.6-11.3,5.6c-5.8,0-9.7-1.9-11.9-5.6
	c-2.2-3.8-2.9-7.9-2.2-12.3c0.7-4.5,2.6-8.6,5.6-12.4c3-3.8,7-5.6,11.9-5.6c4.9,0,8.4,1.9,10.4,5.6
	C676,101.8,676.8,105.9,676.4,110.3z"/>
<path class="st0" d="M673.8,176.4c-0.7,4.6-2.5,8.7-5.4,12.3c-2.9,3.6-6.6,5.4-11.3,5.4c-5.8,0-9.8-2.1-11.9-6.3
	c-2.2-4.2-3-8.8-2.4-13.9c0.6-5,2.5-9.5,5.8-13.2c3.3-3.8,7.7-5.2,13.2-4.3c4.9,0.9,8.3,3.2,10.2,7.1
	C673.9,167.5,674.5,171.8,673.8,176.4z"/>
<g>
	<path class="st0" d="M839.8,276.9c-4.3,0-8.6-0.5-12.9-1.5c-6.6-1.5-12.1-4-16.4-7.5c-4.2-3.5-7.7-7.8-10.3-12.8
		c-2.5-4.9-4.4-10.3-5.4-15.9c-1-5.5-1.5-11.3-1.5-17.2c-0.3-4.9-0.3-10.1,0-15.3c0.3-5.1,0.7-10.4,1.3-15.7l2.2-17.8
		c0.3-3.3,0.4-6,0.4-7.8c0-1-0.5-3-2.7-6.5c-4.7-7-9.9-14.7-15.8-23.3c-5.4-7.9-10.6-16-15.4-23.9c-1-1.6-2-3.3-3-5
		c-0.6,2.6-1.4,5.2-2.2,7.7c-3.2,9.1-8,17.5-14.4,25.1c4.6,3.9,8.5,8.4,11.4,13.5c7.4,12.5,10,24.9,7.6,36.9
		c-2.4,11.8-7.7,22.8-15.8,32.5c-8.1,9.7-18.1,17.9-29.8,24.5c-11.7,6.6-23.1,10.8-34,12.6c-6.6,1.2-13.2,1.8-19.7,1.8
		c-6.1,0-12.3-0.5-18.3-1.6c-3.2,4.1-7.2,7.3-11.9,9.6c-4.9,2.4-10.3,3.9-16,4.5c-2.1,0.2-4.1,0.3-6.1,0.3c-10.8,0-20-3.5-27.3-10.4
		c-8.5-8-14.3-18.3-17.2-30.4c-3.2-13.1-4.5-26.6-3.7-40.2c0.2-4.3,0.5-8.6,0.7-12.8c-1.8,8.6-4.2,17-7.2,25.1
		c-4.5,12.6-10.8,24.1-18.7,34.3c-7.6,10.5-17,19-27.9,25.2c-10.9,6.2-22.4,10-34.3,11.3c-3,0.3-6,0.5-9,0.5
		c-8.9,0-17.8-1.5-26.6-4.5c-11.6-4-22.3-10.9-31.8-20.6c-8.8-9.4-15.9-20.1-21.2-32c-2-4.4-3.8-9-5.3-13.7
		c-4.5,12.4-10.8,23.8-18.5,33.8c-7.6,10.5-17,19-27.9,25.2c-10.9,6.2-22.4,10-34.3,11.3c-3,0.3-6,0.5-9,0.5
		c-8.9,0-17.8-1.5-26.5-4.5c-11.7-4-22.3-10.9-31.8-20.7c-8.8-9.4-15.9-20.1-21.2-32c-1.1-2.4-2.1-4.8-3-7.4
		c-2.1,3.5-4.5,7-7.2,10.2c-8.1,9.7-18.1,17.9-29.8,24.5c-11.7,6.6-23.1,10.8-34,12.6c-6.6,1.2-13.2,1.8-19.7,1.8
		c-6.1,0-12.3-0.5-18.3-1.6c-3.2,4.1-7.2,7.3-11.9,9.6c-4.9,2.4-10.3,3.9-16,4.5C70,273.9,68,274,66,274c-10.8,0-20-3.5-27.3-10.4
		c-8.5-8-14.3-18.3-17.2-30.4c-3.2-13.1-4.5-26.6-3.7-40.2c0.7-13.3,1.4-26.7,1.9-39.6l3-35.1l0.4-18.7l0-0.1
		c0.1-0.6,0.3-2.1-2.9-3.9c-3-1.7-5.6-3.4-7.7-5.2c-4.6-4.3-7.8-9.3-9.3-14.8C1.7,70.1,1.6,64.5,2.8,59C4,53.6,6.3,48.4,9.6,43.8
		c3.3-4.7,7.6-8.7,12.7-12c2.7-1.8,5.6-3.4,8.7-4.9c2.8-1.4,5.8-2.4,8.9-3c2.9-4.7,6.4-8.7,10.4-11.9C57.8,5.4,67.1,2,78,2
		c5.1,0,10.2,0.8,15.1,2.5c5,1.7,9.6,4.4,13.5,8c2.5,2.5,4,4.1,4.9,5.2c0.1,0.1,0.9,0.8,4.1,0.8h0.1l16.5,1.3
		c9.3,0.6,18.7,2.1,27.9,4.6c9.3,2.5,18,6.3,25.9,11.3c9.7,5.9,17.3,13.3,22.3,21.9c1.8,3.1,3.4,6.3,4.6,9.6
		c4.6-11.1,10.5-21.3,17.4-30.4c7.5-9.8,16.6-18,27.2-24.3c10.7-6.4,23.1-9.6,37-9.6c12.1,0,23.3,2.4,33.3,7.1
		c10,4.7,19,11,26.8,18.8c7.8,7.8,14.4,16.9,19.6,27.1c3.6,7,6.7,14.3,9.2,21.7c0.9-2.6,1.9-5.2,2.9-7.8c4.8-12.1,11-23.2,18.5-33
		c7.5-9.8,16.6-18,27.2-24.3c10.7-6.4,23.1-9.6,37-9.6c12.1,0,23.3,2.4,33.3,7.1c10,4.7,19,11,26.8,18.8
		c7.7,7.7,14.2,16.7,19.4,26.7c1.3-4.1,3.3-8.1,5.9-11.8c3.3-4.7,7.6-8.7,12.7-12c2.7-1.8,5.6-3.4,8.7-4.9c2.8-1.4,5.8-2.4,8.9-3
		c2.9-4.7,6.4-8.7,10.4-11.9c7.5-6.6,16.9-10,27.7-10c5.1,0,10.2,0.8,15.1,2.5c5,1.7,9.6,4.4,13.5,8c2.5,2.4,4,4.1,4.9,5.2
		c0.1,0.1,0.9,0.8,4.1,0.8h0.1l16.5,1.3c9.3,0.6,18.7,2.1,27.9,4.6c9.3,2.5,18,6.3,25.9,11.3c4.6,2.8,8.8,6,12.4,9.4
		c0.6-4.5,1.8-8.9,3.8-13.1c2.4-5.2,5.6-10,9.5-14c3.9-4,8.4-7.3,13.6-9.7c5.2-2.4,10.7-3.7,16.5-3.7c8.8,0,16.4,2.5,22.7,7.4
		c6.1,4.8,11.3,10.8,15.4,17.9c4.1,7,7.5,14.5,10.3,22.4c1.9,5.4,3.7,10.5,5.3,15.3c1.1-3.2,2.2-6.5,3.3-10
		c1.7-5.5,3.7-10.9,5.9-16.2c2.2-5.3,4.9-10.4,8-15.2c3.1-4.9,7-9.3,11.5-12.8c6.8-5.2,14.5-7.8,22.7-7.8c2.4,0,4.9,0.2,7.5,0.7
		c11.1,1.9,20.5,6.9,28,14.7c7.2,7.2,11.5,15.7,12.9,25.1c1.3,9.3,0.8,18.8-1.6,28.3c-2.3,9.3-5.9,18.7-10.6,27.7
		c-4.6,9-9.5,17.1-14.4,24.1c-5.8,8.6-11.9,16.8-18.2,24.3c-1.5,2.3-3.1,4.5-4.9,6.5c-1.3,1.4-1.9,3.1-1.6,5.1l0,0.1l0.9,19.9
		c0.9,10.6,1.3,21.9,1.3,33.7c0,11.9-2.2,23.2-6.7,33.5c-5.1,11.4-13.2,19.4-24,23.8C853.5,275.6,846.7,276.9,839.8,276.9
		L839.8,276.9z M763.9,50c-0.3,7.2,0.7,14.3,2.9,20.9c2.2,6.7,5.1,13.3,8.5,19.6c5.4,9.9,11.6,19.9,18.5,29.7
		c6.8,9.6,13.6,19.6,20.4,29.9l0.1,0.2l0.1,0.2c0.8,1.9,1.7,3.6,2.8,5c1.5,2,2,4.4,1.7,7.3l-3,26.4c-0.6,6.1-1.1,12.5-1.5,19
		c-0.4,6.3-0.4,12.8,0.2,19.2c0.3,7,1.9,13.3,4.8,19c2.7,5.3,7.7,8.3,15.1,9.1c1.4,0.2,2.9,0.3,4.4,0.3c3.3,0,6.8-0.4,10.3-1.3
		c4.9-1.2,8.8-3.6,11.7-7.3c3.8-4.9,6.1-10.5,7-16.8c0.8-6.4,1.4-12.9,1.7-19.3c0.3-5.1,0.3-10.4,0-15.6c-0.3-5.3-0.9-15.4-0.9-15.4
		v-0.1c0-1.9-0.3-4.1-0.8-6.7c-0.6-2.8-1-5.7-1.3-8.7c-0.3-3-0.3-5.9,0-8.5c0.3-2.9,1.4-5.2,3.1-7c5.1-6,10.1-12.3,14.8-18.7
		c4.7-6.4,9.4-13.1,14-19.7c5.7-8.2,10.9-17.5,15.4-27.6c4.5-9.9,6.3-20,5.5-30c-0.3-3.8-1.4-7.4-3.2-10.9c-1.9-3.5-4.3-6.5-7.3-8.9
		c-3-2.4-6.3-4.3-10-5.5c-1.8-0.6-3.8-0.9-5.7-0.9c-1.8,0-3.6,0.3-5.5,0.7c-3.1,0.8-5.8,2.4-8.2,4.9c-2.5,2.6-4.6,5.6-6.4,8.9
		c-1.8,3.4-3.4,6.9-4.6,10.5c-1.3,3.7-2.4,7-3.2,9.9c-3.4,9.6-6.8,19.5-10,29.3c-3.2,9.8-7.8,19.4-13.6,28.4l-1.6,2.5l-1.7-2.5
		c-5.3-7.7-9.4-16.7-12.2-26.8c-2.7-9.9-5.7-19.4-8.8-28.2c-1.4-3.4-3-7.4-4.8-12.2c-1.7-4.5-3.8-8.8-6.3-12.9
		c-2.5-4-5.4-7.4-8.7-10.1c-3.1-2.6-6.7-3.9-10.8-3.9c-6.1,0-11.1,2.5-15.4,7.7C766.9,38.5,764.5,44.1,763.9,50z M469.1,24.2
		c-11.6,0-22.1,3.3-31.1,9.8c-9.1,6.6-16.9,15.4-23.3,26c-6.4,10.8-11.4,23.3-14.9,37.2c-3.6,13.9-5.5,28.3-5.8,42.6
		c-0.3,14.4,0.9,28.7,3.7,42.7c2.7,13.9,7.1,26.4,13.2,37.1c6,10.7,13.8,19.4,23,26c9.1,6.5,20.3,9.8,33.1,9.8
		c17,0,31.5-5.6,43-16.8c11.7-11.3,20.6-25.7,26.6-42.7c6-17.2,9.1-36,9.4-56.1c0.3-20-2.4-38.9-7.9-56.1
		c-5.5-17.1-14.1-31.4-25.7-42.7C500.9,29.8,486.4,24.2,469.1,24.2z M294.5,24.2c-11.6,0-22.1,3.3-31.1,9.8
		c-9.1,6.6-17,15.4-23.3,26c-6.4,10.8-11.4,23.3-14.9,37.2c-3.6,13.9-5.5,28.3-5.8,42.6c-0.3,14.4,0.9,28.8,3.6,42.7
		c2.7,13.9,7.1,26.3,13.2,37.1c6,10.7,13.8,19.4,23,26c9.1,6.5,20.3,9.8,33.1,9.8c17,0,31.5-5.6,43-16.8
		c11.7-11.3,20.6-25.7,26.6-42.7c6-17.2,9.1-36.1,9.4-56.1c0.3-20.1-2.4-38.9-7.9-56.1C358,66.6,349.3,52.2,337.8,41
		C326.4,29.8,311.8,24.2,294.5,24.2z M584.5,46.2c-4.8,1.6-9,4.5-12.6,8.5c-2.8,3.3-4.2,6.6-4.1,9.6c0.1,3.2,1.1,6,2.9,8.4
		c1.8,2.5,4.4,4.5,7.7,6.1c3.3,1.6,6.9,2.4,10.6,2.4h2.2l-0.3,2.2c-1.4,12.6-2.4,25.4-3,38c-0.6,12.6-1.5,25.6-2.6,38.6
		c-0.6,9.9-1,20.2-1.3,30.6c-0.3,10.2,0.3,20.5,1.7,30.4c0.8,6.4,2.7,13,5.5,19.4c2.6,6.1,7,9.8,13.4,11.4c2.4,0.7,4.7,1,7.1,1
		c1.5,0,3-0.1,4.5-0.4c3.9-0.7,7.3-2.1,10.2-4.2c2.8-2.1,5.1-5,6.7-8.6c0.7-2.2,2.2-3.4,4.3-3.4c0.8,0,1.6,0.2,2.5,0.5
		c2.1,0.8,3.8,1.4,5.1,1.6c5.4,0.9,11,1.4,16.7,1.4c2.8,0,5.7-0.1,8.6-0.4c8.6-0.7,16.9-2.5,24.8-5.3c7.9-2.8,15.3-6.8,22-11.8
		c6.7-5,12.5-11.3,17.3-18.6c4.1-6.3,6.4-12.6,6.8-18.7c0.4-6.1-0.6-11.9-3.1-17.2c-2.5-5.3-6.3-10.1-11.4-14.2
		c-5.1-4.2-11.2-7.4-18.2-9.6l-4.8-1.5l4.6-2.2c5.8-2.8,11.3-6.7,16.3-11.7c5-5,9-10.7,12-17c2.9-6.2,4.7-12.8,5.2-19.5
		c0.5-6.5-0.6-13.1-3.3-19.4c-3.8-7.9-9.7-14.2-17.4-18.8c-7.9-4.6-16-8.1-24.1-10.4c-7.1-1.4-14.2-2.4-21.2-3
		c-7-0.6-14.2-0.9-21.3-0.9c-1.3,0-2.8,0.1-4.4,0.2c-1.6,0.2-3.2,0.2-4.7,0.2h-1.4l-2.3-5.7l0-0.1c-0.7-2.5-2.1-4.4-4-5.9l-0.1-0.1
		l-0.1-0.1c-2.1-2.1-4.3-3.4-6.5-4c-2.4-0.7-5.2-1-8.1-1c-4.5,0-8.7,1.2-12.3,3.6c-3.7,2.4-6.7,5.8-8.8,10l0,0.1l-0.1,0.1
		c-2.1,3.4-3.2,4.3-3.9,4.8c-0.6,0.4-1.8,0.9-5.5,1.7L584.5,46.2z M39.6,46.2c-4.8,1.6-9.1,4.5-12.6,8.5c-2.8,3.3-4.2,6.6-4.1,9.6
		c0.1,3.2,1.1,6,2.9,8.4c1.8,2.5,4.4,4.5,7.7,6.1c3.3,1.6,6.9,2.4,10.6,2.4h2.2l-0.3,2.2c-1.4,12.6-2.4,25.4-3,38
		c-0.6,12.6-1.5,25.6-2.6,38.6c-0.6,9.9-1,20.2-1.3,30.6C39,201,39.5,211.2,41,221.2c0.8,6.4,2.7,13,5.5,19.4
		c2.6,6.1,7,9.8,13.4,11.4c2.4,0.7,4.7,1,7.1,1c1.5,0,3-0.1,4.5-0.4c3.9-0.7,7.3-2.1,10.2-4.2c2.8-2.1,5.1-5,6.7-8.6
		c0.7-2.2,2.2-3.4,4.3-3.4c0.8,0,1.6,0.2,2.5,0.5c2.1,0.8,3.8,1.4,5.1,1.6c5.4,0.9,11,1.4,16.7,1.4c2.8,0,5.7-0.1,8.6-0.4
		c8.6-0.7,16.9-2.5,24.8-5.3c7.9-2.8,15.3-6.8,22-11.8c6.7-5,12.5-11.3,17.3-18.6c4.1-6.3,6.4-12.6,6.8-18.7
		c0.4-6.1-0.6-11.9-3.1-17.2c-2.4-5.3-6.3-10.1-11.4-14.2c-5.1-4.2-11.2-7.4-18.2-9.6l-4.8-1.5l4.6-2.2c5.8-2.8,11.3-6.7,16.3-11.7
		c5-5,9-10.7,12-17c2.9-6.2,4.7-12.8,5.2-19.5c0.5-6.5-0.6-13.1-3.3-19.4c-3.8-7.9-9.7-14.2-17.4-18.8c-7.9-4.6-16-8.1-24.1-10.4
		c-7.1-1.4-14.2-2.4-21.1-3c-7-0.6-14.2-0.9-21.3-0.9c-1.3,0-2.8,0.1-4.4,0.2c-1.6,0.2-3.2,0.2-4.7,0.2h-1.4l-2.3-5.7l0-0.1
		c-0.7-2.5-2.1-4.4-4-5.9l-0.1-0.1l-0.1-0.1c-2.1-2.1-4.3-3.4-6.5-4c-2.4-0.7-5.2-1-8.1-1c-4.5,0-8.7,1.2-12.3,3.6
		c-3.7,2.4-6.7,5.8-8.8,10l0,0.1l-0.1,0.1c-2.1,3.4-3.2,4.3-3.9,4.8c-0.6,0.4-1.8,0.9-5.5,1.7L39.6,46.2z M562.8,94.2
		c2.1,9.6,3.6,19.5,4.4,29.7l0.5-5.7l0.4-18.7l0-0.1c0.1-0.6,0.3-2.1-2.9-3.9C564.3,95.2,563.5,94.7,562.8,94.2z"/>
	<path class="st1" d="M622.9,4c4.9,0,9.8,0.8,14.5,2.4c4.8,1.6,9,4.1,12.8,7.6c2.3,2.3,3.9,4,4.8,5c0.9,1,2.8,1.5,5.6,1.5l16.5,1.3
		c9.2,0.6,18.4,2.1,27.5,4.5c9.1,2.5,17.5,6.1,25.3,11c5.9,3.6,11,7.7,15.1,12.3c0-0.3,0-0.7,0.1-1c0.3-5.5,1.6-10.8,3.9-15.8
		c2.3-5.1,5.3-9.5,9.1-13.4c3.8-3.9,8.1-7,13-9.3c4.9-2.3,10.1-3.5,15.6-3.5c8.4,0,15.5,2.3,21.4,6.9C814,18.2,819,23.9,823,30.9
		c4,6.9,7.4,14.3,10.2,22.1c2.7,7.8,5.1,14.7,7.2,20.8c1.7-4.9,3.5-10.1,5.2-15.6c1.7-5.5,3.7-10.8,5.8-16
		c2.2-5.2,4.8-10.2,7.8-14.9c3-4.8,6.7-8.9,11.1-12.3c6.5-4.9,13.6-7.4,21.5-7.4c2.3,0,4.7,0.2,7.1,0.6c10.7,1.9,19.6,6.6,26.9,14.1
		c6.9,6.9,11.1,14.9,12.4,24c1.3,9.1,0.8,18.3-1.5,27.5c-2.3,9.2-5.8,18.3-10.4,27.3c-4.6,9-9.4,16.9-14.3,23.8
		c-5.8,8.7-11.8,16.8-18.2,24.3c-1.4,2.3-3,4.4-4.8,6.3c-1.7,1.9-2.5,4.1-2.2,6.7l0.9,19.9c0.9,10.7,1.3,21.9,1.3,33.6
		c0,11.7-2.2,22.6-6.5,32.7c-4.9,11-12.6,18.6-23,22.7c-6.4,2.6-12.9,3.9-19.6,3.9c-4.1,0-8.3-0.5-12.5-1.5
		c-6.3-1.4-11.5-3.8-15.6-7.1c-4.1-3.3-7.3-7.4-9.8-12.1c-2.4-4.8-4.2-9.9-5.2-15.4c-1-5.5-1.5-11.1-1.5-16.9
		c-0.3-4.9-0.3-10,0-15.2c0.3-5.2,0.7-10.4,1.3-15.6l2.2-17.8c0.3-3.5,0.4-6.1,0.4-8c0-1.9-1-4.4-3-7.6
		c-5.2-7.8-10.5-15.6-15.8-23.4s-10.5-15.7-15.4-23.8c-2-3.2-3.9-6.4-5.7-9.7c-0.7,4.2-1.7,8.5-3.2,12.8c-3.3,9.5-8.5,18.2-15.4,26
		c5.2,4,9.4,8.8,12.6,14.3c7.2,12.1,9.7,24,7.4,35.5c-2.3,11.5-7.4,22.1-15.4,31.6c-8,9.5-17.7,17.5-29.2,24
		c-11.6,6.5-22.7,10.6-33.4,12.4c-6.5,1.2-13,1.7-19.4,1.7s-12.8-0.6-19.2-1.7c-3.2,4.3-7.1,7.6-11.9,10c-4.8,2.3-9.9,3.8-15.4,4.3
		c-2,0.2-4,0.3-5.9,0.3c-10.3,0-19-3.3-25.9-9.9c-8.2-7.8-13.8-17.6-16.7-29.5c-3.2-13-4.4-26.2-3.7-39.6c0.7-13.4,1.4-26.6,2-39.6
		l3-35.1l0.4-18.6c0.3-2.3-1-4.3-3.9-5.9c-2.5-1.4-4.7-2.8-6.6-4.3c3,11.7,4.9,23.9,5.7,36.8c0.9,13.4,0.4,26.7-1.5,39.9
		c-1.9,13.1-5.1,25.9-9.5,38.3c-4.5,12.4-10.6,23.7-18.4,33.8c-7.5,10.4-16.6,18.6-27.3,24.7c-10.7,6.1-21.9,9.7-33.6,11
		c-2.9,0.3-5.8,0.5-8.8,0.5c-8.7,0-17.4-1.5-25.9-4.4c-11.4-3.9-21.7-10.6-31-20.1c-8.7-9.2-15.6-19.7-20.8-31.4
		c-2.8-6.3-5.1-12.7-7.1-19.3c-0.6,1.8-1.2,3.5-1.8,5.2c-4.5,12.4-10.6,23.7-18.4,33.8c-7.5,10.4-16.6,18.6-27.3,24.7
		c-10.7,6.1-21.9,9.7-33.6,11c-2.9,0.3-5.8,0.5-8.8,0.5c-8.7,0-17.4-1.5-25.9-4.4c-11.4-3.9-21.7-10.6-31-20.1
		c-8.7-9.2-15.6-19.7-20.8-31.4c-1.7-3.7-3.1-7.5-4.5-11.4c-2.5,4.8-5.5,9.4-9.1,13.7c-8,9.5-17.7,17.5-29.2,24
		s-22.7,10.6-33.4,12.4c-6.5,1.2-13,1.7-19.4,1.7c-6.4,0-12.8-0.6-19.2-1.7c-3.2,4.3-7.1,7.6-11.9,10c-4.8,2.3-9.9,3.8-15.4,4.3
		c-2,0.2-4,0.3-5.9,0.3c-10.3,0-19-3.3-25.9-9.9c-8.2-7.8-13.8-17.6-16.7-29.5c-3.2-13-4.4-26.2-3.7-39.6s1.4-26.6,2-39.6l3-35.1
		l0.4-18.6c0.3-2.3-1-4.3-3.9-5.9c-2.9-1.6-5.4-3.2-7.4-5c-4.3-4-7.2-8.7-8.7-13.9c-1.4-5.2-1.6-10.4-0.4-15.6
		c1.1-5.2,3.3-10,6.5-14.5c3.2-4.5,7.2-8.3,12.1-11.5c2.6-1.7,5.4-3.3,8.5-4.8c3-1.4,6.1-2.4,9.3-3c2.9-4.9,6.3-8.9,10.4-12.1
		C58.8,7.2,67.6,4,78,4c4.9,0,9.8,0.8,14.5,2.4c4.8,1.6,9,4.1,12.8,7.6c2.3,2.3,3.9,4,4.8,5c0.9,1,2.8,1.5,5.6,1.5l16.5,1.3
		c9.2,0.6,18.4,2.1,27.5,4.5c9.1,2.5,17.5,6.1,25.3,11c9.5,5.8,16.8,12.9,21.7,21.2c2.7,4.6,4.8,9.4,6.2,14.4c0.3-0.8,0.6-1.6,1-2.5
		c4.8-12,10.8-22.8,18.2-32.5c7.4-9.7,16.2-17.6,26.6-23.8C269,8,281,4.9,294.5,4.9c11.8,0,22.7,2.3,32.5,6.9
		c9.8,4.6,18.5,10.8,26.2,18.4c7.6,7.7,14.1,16.5,19.3,26.6c4.5,8.8,8.2,17.9,11,27.2c1.4-4.5,3-9,4.8-13.5
		c4.8-12,10.8-22.8,18.2-32.5c7.4-9.7,16.2-17.6,26.6-23.8c10.4-6.2,22.4-9.3,36-9.3c11.8,0,22.7,2.3,32.5,6.9
		c9.8,4.6,18.6,10.8,26.2,18.4c7.7,7.7,14.1,16.5,19.3,26.6c0.8,1.5,1.5,3,2.2,4.5c0.1-0.6,0.2-1.3,0.4-1.9c1.2-5.2,3.3-10,6.5-14.5
		c3.2-4.5,7.2-8.3,12.1-11.5c2.6-1.7,5.4-3.3,8.5-4.8c3-1.4,6.1-2.4,9.3-3c2.9-4.9,6.3-8.9,10.4-12.1C603.7,7.2,612.5,4,622.9,4
		 M611.8,255c1.6,0,3.2-0.1,4.8-0.4c4.2-0.7,7.9-2.2,11-4.5c3.2-2.3,5.6-5.5,7.4-9.5c0.4-1.4,1.2-2.1,2.4-2.1c0.5,0,1.1,0.1,1.7,0.4
		c2.2,0.9,4,1.5,5.4,1.7c5.6,1,11.3,1.4,17,1.4c2.9,0,5.8-0.1,8.7-0.4c8.8-0.7,17.2-2.5,25.3-5.4c8.1-2.9,15.6-6.9,22.5-12.1
		c6.9-5.2,12.8-11.5,17.8-19.1c4.3-6.6,6.7-13.2,7.1-19.7c0.4-6.5-0.7-12.6-3.2-18.2c-2.6-5.6-6.6-10.6-11.9-14.9
		c-5.3-4.3-11.6-7.7-18.8-10c6.1-2.9,11.7-6.9,16.9-12.1c5.2-5.2,9.3-11,12.3-17.5c3-6.5,4.8-13.2,5.4-20.1
		c0.6-6.9-0.6-13.7-3.5-20.4c-4.1-8.4-10.1-14.9-18.2-19.7c-8.1-4.8-16.3-8.3-24.7-10.6c-7.2-1.4-14.4-2.5-21.4-3
		c-7.1-0.6-14.2-0.9-21.4-0.9c-1.5,0-3,0.1-4.6,0.2c-1.6,0.2-3.1,0.2-4.5,0.2l-1.7-4.3c-0.9-2.9-2.4-5.2-4.8-6.9
		c-2.3-2.3-4.8-3.8-7.4-4.5c-2.6-0.7-5.5-1.1-8.7-1.1c-4.9,0-9.4,1.3-13.4,3.9s-7.2,6.2-9.5,10.8c-1.4,2.3-2.5,3.7-3.2,4.1
		c-0.7,0.4-2.4,0.9-5,1.5l-7.8,2.6c-5.2,1.7-9.7,4.8-13.4,9.1c-3.2,3.8-4.7,7.4-4.6,11c0.1,3.6,1.2,6.8,3.2,9.5c2,2.8,4.8,5,8.4,6.7
		c3.6,1.7,7.4,2.6,11.5,2.6c-1.4,12.7-2.5,25.4-3,38.1c-0.6,12.7-1.5,25.6-2.6,38.6c-0.6,10.1-1,20.4-1.3,30.8
		c-0.3,10.4,0.3,20.7,1.7,30.8c0.9,6.7,2.7,13.3,5.6,19.9c2.9,6.7,7.8,10.8,14.7,12.6C606.7,254.6,609.3,255,611.8,255 M66.9,255
		c1.6,0,3.2-0.1,4.8-0.4c4.2-0.7,7.9-2.2,11.1-4.5c3.2-2.3,5.6-5.5,7.4-9.5c0.4-1.4,1.2-2.1,2.4-2.1c0.5,0,1.1,0.1,1.7,0.4
		c2.2,0.9,4,1.5,5.4,1.7c5.6,1,11.3,1.4,17,1.4c2.9,0,5.8-0.1,8.7-0.4c8.8-0.7,17.2-2.5,25.3-5.4c8.1-2.9,15.6-6.9,22.5-12.1
		c6.9-5.2,12.8-11.5,17.8-19.1c4.3-6.6,6.7-13.2,7.1-19.7c0.4-6.5-0.7-12.6-3.2-18.2c-2.6-5.6-6.6-10.6-11.9-14.9
		c-5.3-4.3-11.6-7.7-18.8-10c6.1-2.9,11.7-6.9,16.9-12.1c5.2-5.2,9.3-11,12.4-17.5c3-6.5,4.8-13.2,5.4-20.1
		c0.6-6.9-0.6-13.7-3.5-20.4c-4.1-8.4-10.1-14.9-18.2-19.7c-8.1-4.8-16.3-8.3-24.7-10.6c-7.2-1.4-14.4-2.5-21.4-3
		c-7.1-0.6-14.2-0.9-21.4-0.9c-1.5,0-3,0.1-4.5,0.2c-1.6,0.2-3.1,0.2-4.5,0.2l-1.7-4.3C97.9,31,96.3,28.7,94,27
		c-2.3-2.3-4.8-3.8-7.4-4.5c-2.6-0.7-5.5-1.1-8.7-1.1c-4.9,0-9.4,1.3-13.4,3.9c-4,2.6-7.2,6.2-9.5,10.8c-1.5,2.3-2.5,3.7-3.2,4.1
		c-0.7,0.4-2.4,0.9-5,1.5L39,44.3c-5.2,1.7-9.7,4.8-13.4,9.1c-3.2,3.8-4.7,7.4-4.5,11c0.1,3.6,1.2,6.8,3.2,9.5c2,2.8,4.8,5,8.4,6.7
		c3.6,1.7,7.4,2.6,11.5,2.6c-1.4,12.7-2.5,25.4-3,38.1c-0.6,12.7-1.5,25.6-2.6,38.6c-0.6,10.1-1,20.4-1.3,30.8
		c-0.3,10.4,0.3,20.7,1.7,30.8c0.9,6.7,2.7,13.3,5.6,19.9c2.9,6.7,7.8,10.8,14.7,12.6C61.8,254.6,64.3,255,66.9,255 M466.9,257.4
		c17.6,0,32.4-5.8,44.4-17.3c12-11.5,21-26.1,27.1-43.5c6.1-17.5,9.2-36.4,9.5-56.8c0.3-20.4-2.4-39.3-8-56.7s-14.4-32-26.2-43.5
		C501.9,28,487,22.2,469.1,22.2c-12.1,0-22.9,3.4-32.3,10.2C427.5,39.2,419.5,48,413,59c-6.5,11-11.5,23.5-15.2,37.7
		c-3.6,14.2-5.6,28.5-5.9,43.1c-0.3,14.6,0.9,29,3.7,43.1c2.7,14.2,7.2,26.7,13.4,37.7c6.2,11,14.1,19.9,23.6,26.6
		C442.3,254,453.7,257.4,466.9,257.4 M292.4,257.4c17.6,0,32.4-5.8,44.4-17.3c12-11.5,21-26.1,27.1-43.5c6.1-17.5,9.2-36.4,9.5-56.8
		c0.3-20.4-2.4-39.3-8-56.7c-5.6-17.5-14.4-32-26.2-43.5c-11.9-11.6-26.7-17.3-44.6-17.3c-12.1,0-22.9,3.4-32.3,10.2
		c-9.4,6.8-17.3,15.7-23.8,26.6c-6.5,11-11.6,23.5-15.2,37.7c-3.6,14.2-5.6,28.5-5.9,43.1c-0.3,14.6,0.9,29,3.7,43.1
		c2.7,14.2,7.2,26.7,13.4,37.7c6.2,11,14.1,19.9,23.6,26.6C267.7,254,279.1,257.4,292.4,257.4 M838.8,257.7c3.5,0,7.1-0.5,10.8-1.4
		c5.3-1.3,9.6-4,12.8-8c4-5.2,6.5-11.1,7.4-17.8c0.9-6.6,1.4-13.1,1.7-19.5c0.3-5.2,0.3-10.5,0-15.8c-0.3-5.3-0.6-10.5-0.9-15.4
		c0-2-0.3-4.4-0.9-7.1c-0.6-2.7-1-5.5-1.3-8.4c-0.3-2.9-0.3-5.6,0-8c0.3-2.5,1.1-4.4,2.6-5.8c5.2-6.1,10.2-12.4,15-18.9
		c4.8-6.5,9.4-13.1,14.1-19.7c5.8-8.4,11-17.7,15.6-27.9c4.6-10.2,6.5-20.6,5.6-31c-0.3-4-1.5-7.9-3.5-11.7c-2-3.8-4.6-6.9-7.8-9.5
		c-3.2-2.6-6.7-4.5-10.6-5.9c-2.1-0.7-4.2-1-6.4-1c-1.9,0-3.9,0.3-6,0.8c-3.5,0.9-6.5,2.7-9.1,5.4c-2.6,2.8-4.8,5.9-6.7,9.3
		c-1.9,3.5-3.5,7.1-4.8,10.8c-1.3,3.8-2.4,7.1-3.2,10c-3.5,9.8-6.8,19.6-10,29.2c-3.2,9.7-7.7,19-13.4,27.9
		c-5.2-7.5-9.2-16.2-11.9-26.2c-2.8-10-5.7-19.4-8.9-28.4c-1.5-3.5-3-7.5-4.8-12.1c-1.7-4.6-3.9-9-6.5-13.2
		c-2.6-4.2-5.6-7.7-9.1-10.6c-3.5-2.9-7.5-4.3-12.1-4.3c-6.6,0-12.3,2.8-16.9,8.4c-4.6,5.6-7.2,11.6-7.8,18
		c-0.3,7.5,0.7,14.7,3,21.7c2.3,6.9,5.2,13.6,8.7,19.9c5.5,10.1,11.7,20.1,18.6,29.9c6.9,9.8,13.7,19.8,20.4,29.9
		c0.9,2,1.9,3.8,3,5.4c1.2,1.6,1.6,3.5,1.3,5.8l-3,26.4c-0.6,6.3-1.1,12.7-1.5,19.1c-0.4,6.3-0.4,12.8,0.2,19.5
		c0.3,7.2,1.9,13.8,5,19.7c3,5.9,8.6,9.3,16.7,10.2C835.8,257.6,837.3,257.7,838.8,257.7 M199.7,142.9c0.1-2.9,0.2-5.8,0.4-8.6
		c-1.3,1.8-2.7,3.5-4.2,5.2C197.2,140.7,198.5,141.8,199.7,142.9 M622.9,0c-11.3,0-21.1,3.5-29,10.5c-4,3.1-7.4,7-10.4,11.6
		c-2.9,0.7-5.8,1.7-8.5,3c-3.2,1.5-6.2,3.2-8.9,5c-5.3,3.4-9.7,7.6-13.2,12.5c-1.8,2.6-3.4,5.3-4.6,8.1
		c-4.9-8.7-10.9-16.5-17.7-23.4c-7.9-7.9-17.1-14.4-27.3-19.2c-10.3-4.9-21.8-7.3-34.2-7.3c-14.2,0-27,3.3-38,9.9
		c-10.8,6.4-20.1,14.8-27.8,24.8c-7.5,9.9-13.8,21.2-18.7,33.4c-0.4,0.9-0.7,1.8-1.1,2.7c-2.2-5.7-4.7-11.3-7.5-16.7
		c-5.4-10.4-12.1-19.7-20-27.6C348.1,19.4,339,13,328.7,8.2c-10.3-4.9-21.8-7.3-34.2-7.3c-14.2,0-27,3.3-38,9.9
		c-10.8,6.4-20.1,14.8-27.8,24.8c-6.1,8-11.4,16.9-15.8,26.5c-0.9-1.9-1.9-3.7-2.9-5.6c-5.2-8.9-13-16.5-23-22.6
		c-8.1-5.1-17-9-26.4-11.5c-9.3-2.5-18.8-4.1-28.3-4.7L116,16.5l-0.2,0h-0.2c-1.7,0-2.5-0.2-2.8-0.3c-0.9-1.1-2.5-2.7-4.8-5
		l-0.1-0.1L108,11c-4.2-3.8-8.9-6.7-14.2-8.4C88.6,0.9,83.3,0,78,0C66.7,0,56.9,3.5,49,10.5c-4,3.1-7.4,7-10.4,11.6
		c-2.9,0.7-5.8,1.7-8.5,3c-3.2,1.5-6.2,3.2-8.9,5c-5.3,3.4-9.7,7.6-13.2,12.5c-3.5,4.9-5.9,10.3-7.1,16c-1.3,5.8-1.1,11.7,0.5,17.5
		C3,82,6.3,87.3,11.1,91.8l0.1,0.1l0.1,0.1c2.2,1.9,4.9,3.7,8,5.4c0.7,0.4,1.9,1.2,1.8,1.8l0,0.2l0,0.2l-0.4,18.5l-3,35l0,0.1l0,0.1
		c-0.6,12.9-1.2,26.2-1.9,39.6c-0.7,13.8,0.5,27.5,3.8,40.8c3,12.5,9,23.1,17.8,31.4c7.7,7.3,17.3,11,28.7,11c2.1,0,4.2-0.1,6.4-0.4
		c5.9-0.6,11.5-2.2,16.7-4.7c4.6-2.2,8.5-5.3,11.8-9.2c5.8,0.9,11.7,1.4,17.5,1.4c6.6,0,13.4-0.6,20.1-1.8
		c11.1-1.8,22.8-6.1,34.6-12.8c11.9-6.7,22.1-15.1,30.3-25c1.9-2.3,3.7-4.7,5.3-7.1c0.5,1.3,1.1,2.5,1.6,3.8
		c5.4,12.1,12.6,23,21.5,32.5l0,0l0,0c9.6,9.9,20.6,17.1,32.5,21.2c8.9,3,18.1,4.6,27.2,4.6c3,0,6.1-0.2,9.2-0.5
		c12.2-1.4,24-5.2,35.1-11.5c11.1-6.3,20.7-15,28.5-25.8c6.8-8.8,12.5-18.7,16.8-29.3c1.1,3,2.3,5.9,3.6,8.8
		c5.4,12.1,12.6,23,21.5,32.5l0,0l0,0c9.6,10,20.6,17.1,32.5,21.2c8.9,3,18.1,4.6,27.2,4.6c3,0,6.1-0.2,9.2-0.5
		c12.2-1.4,24-5.2,35.1-11.5c11.1-6.3,20.7-15,28.5-25.8c8-10.4,14.4-22.1,19-34.8c0.9-2.4,1.7-4.8,2.5-7.2c-0.1,11.8,1.2,23.6,4,35
		c3.1,12.5,9.1,23.1,17.8,31.4c7.7,7.3,17.3,11,28.7,11c2.1,0,4.2-0.1,6.4-0.4c5.9-0.6,11.5-2.2,16.7-4.7c4.6-2.2,8.5-5.3,11.8-9.2
		c5.8,0.9,11.7,1.4,17.5,1.4c6.6,0,13.4-0.6,20.1-1.8c11.1-1.8,22.8-6.1,34.6-12.8c11.9-6.7,22.1-15.1,30.3-25
		c8.3-10,13.8-21.2,16.2-33.4c2.5-12.5-0.1-25.4-7.9-38.4c-2.7-4.7-6.2-9-10.3-12.7c5.9-7.4,10.5-15.5,13.5-24.2
		c0.4-1.1,0.7-2.2,1.1-3.3c0.2,0.3,0.4,0.7,0.6,1c4.8,8,10,16.1,15.5,24c5.9,8.6,11,16.2,15.8,23.3c2.2,3.5,2.4,5,2.4,5.4
		c0,1.7-0.1,4.3-0.4,7.6l-2.2,17.7c-0.6,5.4-1,10.7-1.3,15.9c-0.3,5.3-0.3,10.5,0,15.5c0,6,0.5,11.9,1.6,17.5
		c1.1,5.8,2.9,11.4,5.6,16.5c2.7,5.2,6.3,9.7,10.8,13.4c4.5,3.7,10.3,6.4,17.2,7.9c4.4,1.1,8.9,1.6,13.4,1.6
		c7.1,0,14.2-1.4,21.1-4.2c11.3-4.6,19.8-12.9,25.1-24.8l0,0l0,0c4.5-10.5,6.8-22.1,6.8-34.3c0-11.8-0.4-23.1-1.3-33.8l-0.9-19.9
		l0-0.1l0-0.1c-0.2-1.4,0.2-2.5,1.1-3.6c1.8-2,3.5-4.2,5.1-6.6c6.3-7.5,12.5-15.7,18.2-24.4c5-7,9.9-15.2,14.6-24.3
		c4.7-9.2,8.4-18.6,10.7-28.1c2.4-9.7,3-19.5,1.6-29c-1.4-9.9-5.9-18.8-13.5-26.3c-7.8-8.1-17.5-13.2-29-15.2
		c-2.6-0.5-5.3-0.7-7.8-0.7c-8.7,0-16.7,2.7-23.9,8.2l0,0l0,0c-4.7,3.7-8.7,8.2-11.9,13.3c-3.1,4.9-5.9,10.2-8.1,15.5
		c-2.2,5.3-4.2,10.8-6,16.4c-0.5,1.5-0.9,2.9-1.4,4.3c-1.1-3.1-2.2-6.3-3.4-9.7c-2.8-8-6.4-15.7-10.5-22.8
		c-4.3-7.3-9.6-13.5-15.9-18.5c-6.6-5.2-14.7-7.8-23.9-7.8c-6.1,0-11.9,1.3-17.3,3.9c-5.4,2.5-10.1,5.9-14.2,10.2
		c-4,4.2-7.4,9.1-9.9,14.5c-1.5,3.2-2.6,6.6-3.3,10c-3-2.6-6.4-5-10-7.2c-8.1-5.1-17-9-26.4-11.5c-9.3-2.5-18.8-4.1-28.3-4.7
		l-16.4-1.3l-0.2,0h-0.2c-1.7,0-2.5-0.2-2.8-0.3c-0.9-1.1-2.5-2.7-4.8-5l-0.1-0.1l-0.1-0.1c-4.2-3.8-8.9-6.7-14.2-8.4
		C633.5,0.9,628.2,0,622.9,0L622.9,0z M592.8,45.5c3.8-0.8,5.2-1.5,6-1.9c1.4-0.8,2.7-2.4,4.6-5.4l0.1-0.2l0.1-0.2
		c2-4,4.7-7,8.1-9.3c3.4-2.2,7.1-3.3,11.3-3.3c2.8,0,5.3,0.3,7.6,0.9c1.9,0.5,3.8,1.7,5.6,3.5l0.2,0.2l0.2,0.2
		c1.6,1.2,2.7,2.8,3.3,4.9l0.1,0.2l0.1,0.2l1.7,4.3l1,2.5h2.7c1.6,0,3.2-0.1,4.9-0.2c1.5-0.1,2.9-0.2,4.2-0.2
		c7.1,0,14.2,0.3,21.1,0.9c6.8,0.6,13.8,1.5,20.9,2.9c8,2.2,15.9,5.6,23.6,10.2c7.3,4.3,12.9,10.4,16.6,17.9
		c2.6,6,3.6,12.2,3.1,18.4c-0.5,6.4-2.2,12.8-5,18.8c-2.8,6-6.7,11.6-11.6,16.4c-4.8,4.8-10.2,8.7-15.8,11.3l-9.1,4.3l9.6,3.1
		c6.7,2.1,12.6,5.3,17.5,9.3c4.8,3.9,8.5,8.5,10.8,13.5c2.3,5,3.3,10.5,2.9,16.3c-0.4,5.8-2.6,11.8-6.5,17.8
		c-4.6,7.1-10.3,13.2-16.8,18c-6.6,4.9-13.8,8.8-21.5,11.6c-7.7,2.8-15.9,4.5-24.3,5.2c-2.8,0.2-5.6,0.3-8.4,0.3
		c-5.5,0-11-0.5-16.3-1.4c-1.2-0.2-2.7-0.7-4.7-1.5c-1.1-0.4-2.2-0.7-3.2-0.7c-2.9,0-5.2,1.8-6.1,4.7c-1.4,3.3-3.4,5.8-5.9,7.7
		c-2.7,2-5.8,3.2-9.4,3.8c-1.4,0.2-2.8,0.4-4.1,0.4c-2.2,0-4.3-0.3-6.4-0.9l-0.1,0l-0.1,0c-5.7-1.4-9.6-4.8-12-10.3
		c-2.7-6.3-4.5-12.6-5.3-18.9l0,0l0,0c-1.4-9.8-2-19.9-1.7-30.1c0.3-10.4,0.7-20.7,1.3-30.6c1.2-13.1,2-26.1,2.6-38.7
		c0.6-12.5,1.6-25.3,3-37.9l0.5-4.5h-4.5c-3.4,0-6.7-0.7-9.7-2.2c-3-1.5-5.3-3.3-7-5.5c-1.6-2.1-2.4-4.5-2.5-7.3
		c-0.1-2.6,1.1-5.4,3.6-8.3c3.2-3.7,7.2-6.4,11.6-7.9L592.8,45.5L592.8,45.5z M47.8,45.5c3.8-0.8,5.2-1.5,6-1.9
		c1.4-0.8,2.7-2.4,4.6-5.4l0.1-0.2l0.1-0.2c2-4,4.7-7,8.1-9.3c3.4-2.2,7.1-3.3,11.3-3.3c2.8,0,5.3,0.3,7.6,0.9
		c1.9,0.5,3.8,1.7,5.6,3.5l0.2,0.2l0.2,0.2c1.6,1.2,2.7,2.8,3.3,4.9l0.1,0.2l0.1,0.2l1.7,4.3l1,2.5h2.7c1.6,0,3.2-0.1,4.9-0.2
		c1.5-0.1,2.9-0.2,4.2-0.2c7.1,0,14.2,0.3,21.1,0.9c6.8,0.6,13.8,1.5,20.8,2.9c8,2.2,15.9,5.6,23.6,10.2
		c7.3,4.3,12.9,10.4,16.6,17.9c2.6,6,3.6,12.2,3.1,18.4c-0.5,6.4-2.2,12.8-5,18.8c-2.8,6-6.7,11.6-11.6,16.4
		c-4.8,4.8-10.2,8.7-15.8,11.3l-9.1,4.3l9.6,3.1c6.7,2.1,12.6,5.3,17.5,9.3c4.8,3.9,8.5,8.5,10.8,13.5c2.3,5,3.3,10.5,2.9,16.3
		c-0.4,5.8-2.6,11.8-6.5,17.8c-4.6,7.1-10.3,13.2-16.8,18c-6.6,4.9-13.8,8.8-21.5,11.6c-7.7,2.8-15.9,4.5-24.3,5.2
		c-2.8,0.2-5.6,0.3-8.4,0.3c-5.5,0-11-0.5-16.3-1.4c-1.2-0.2-2.7-0.7-4.7-1.5c-1.1-0.4-2.2-0.7-3.2-0.7c-2.9,0-5.2,1.8-6.1,4.7
		c-1.4,3.3-3.4,5.8-5.9,7.7c-2.7,2-5.8,3.2-9.4,3.8c-1.4,0.2-2.8,0.4-4.1,0.4c-2.2,0-4.3-0.3-6.4-0.9l-0.1,0l-0.1,0
		c-5.7-1.4-9.6-4.8-12-10.3c-2.7-6.3-4.5-12.6-5.3-18.9l0,0l0,0c-1.4-9.8-2-19.9-1.7-30.1c0.3-10.4,0.7-20.7,1.3-30.6
		c1.2-13.1,2-26.1,2.6-38.7c0.6-12.5,1.6-25.3,3-37.9l0.5-4.5h-4.5c-3.4,0-6.7-0.7-9.8-2.2c-3-1.5-5.3-3.3-6.9-5.5
		c-1.6-2.1-2.4-4.5-2.5-7.3c-0.1-2.6,1.1-5.4,3.6-8.3c3.2-3.7,7.2-6.4,11.6-7.9L47.8,45.5L47.8,45.5z M466.9,253.4
		c-12.4,0-23.1-3.2-31.9-9.4c-9-6.4-16.6-14.9-22.4-25.4c-6-10.5-10.3-22.8-13-36.5c-2.7-13.8-3.9-28-3.6-42.3
		c0.3-14.2,2.2-28.4,5.7-42.2c3.5-13.7,8.4-26,14.7-36.6c6.2-10.4,13.8-19,22.7-25.4c8.6-6.3,18.7-9.4,29.9-9.4
		c17,0,30.6,5.3,41.8,16.2c11.3,11,19.8,25.1,25.2,41.9c5.5,17,8.1,35.6,7.8,55.5c-0.3,19.9-3.4,38.5-9.3,55.5
		c-5.8,16.8-14.6,30.9-26.1,42C497.3,248.1,483.6,253.4,466.9,253.4L466.9,253.4z M292.4,253.4c-12.4,0-23.1-3.2-31.9-9.4
		c-9-6.4-16.6-14.9-22.4-25.3c-6-10.6-10.3-22.8-13-36.5c-2.7-13.8-3.9-28-3.6-42.3c0.3-14.2,2.2-28.4,5.7-42.2
		c3.5-13.7,8.4-26,14.7-36.6c6.2-10.4,13.8-19,22.7-25.4c8.6-6.3,18.7-9.4,29.9-9.4c17,0,30.6,5.3,41.8,16.2
		c11.3,11,19.8,25.1,25.2,41.9c5.5,17,8.1,35.6,7.8,55.5c-0.3,19.8-3.4,38.5-9.3,55.5c-5.8,16.8-14.6,30.9-26.1,42
		C322.8,247.9,308.8,253.4,292.4,253.4L292.4,253.4z M765.9,50.2c0.5-5.5,2.8-10.7,6.9-15.7c3.9-4.7,8.4-7,13.8-7
		c3.7,0,6.8,1.1,9.6,3.4c3.1,2.6,5.9,5.8,8.3,9.6c2.4,3.9,4.5,8.2,6.2,12.5c1.8,4.8,3.4,8.8,4.8,12.2c3.1,8.7,6,18.1,8.8,28
		c2.8,10.3,7,19.6,12.5,27.4l3.4,4.9l3.2-5c5.9-9.2,10.6-18.9,13.9-28.9c3.2-9.8,6.6-19.6,9.9-29.2l0-0.1l0-0.1
		c0.8-2.8,1.9-6.1,3.2-9.8c1.2-3.5,2.7-7,4.5-10.2c1.7-3.1,3.7-6,6.1-8.5c2.1-2.2,4.4-3.6,7.2-4.3l0,0l0,0c1.7-0.4,3.4-0.7,4.9-0.7
		c1.7,0,3.5,0.3,5.1,0.8c3.4,1.1,6.6,2.9,9.4,5.2c2.7,2.3,5,5.1,6.8,8.3c1.7,3.2,2.8,6.6,3,10.1c0.8,9.7-1,19.5-5.3,29.1
		c-4.5,10-9.6,19.2-15.2,27.3c-4.6,6.6-9.3,13.2-14,19.6c-4.7,6.4-9.6,12.6-14.7,18.5c-2,2.1-3.2,4.8-3.6,8.1
		c-0.3,2.7-0.3,5.7,0,8.9c0.3,3,0.8,6,1.4,8.9c0.5,2.5,0.8,4.6,0.8,6.3v0.1l0,0.1c0.3,4.9,0.6,10,0.9,15.4c0.3,5.2,0.3,10.3,0,15.4
		c-0.3,6.4-0.9,12.8-1.7,19.2c-0.8,6-2.9,11.1-6.6,15.8c-2.6,3.3-6.1,5.5-10.6,6.6c-3.4,0.8-6.7,1.2-9.9,1.2c-1.4,0-2.8-0.1-4.1-0.2
		c-6.8-0.7-11.2-3.4-13.6-8c-2.8-5.4-4.3-11.4-4.5-18l0-0.1l0-0.1c-0.6-6.3-0.6-12.7-0.2-18.9c0.4-6.4,0.9-12.8,1.5-18.9l3-26.4
		c0.4-3.3-0.3-6.2-2-8.6c-1-1.4-1.9-2.9-2.6-4.6l-0.1-0.3l-0.2-0.3c-6.8-10.3-13.7-20.4-20.4-30c-6.9-9.7-13-19.6-18.4-29.5
		c-3.4-6.2-6.2-12.7-8.4-19.3C766.6,63.9,765.7,57.1,765.9,50.2L765.9,50.2z M566,100.2c-0.1-0.6-0.2-1.2-0.3-1.8
		c0.3,0.3,0.4,0.5,0.4,0.8l0,0.2l0,0.2L566,100.2L566,100.2z"/>
</g>
<g>
	<path class="st2" d="M838.8,258.2c-1.6,0-3.1-0.1-4.6-0.3c-8.2-0.9-14-4.4-17.1-10.4c-3.1-6-4.8-12.7-5-19.9
		c-0.6-6.5-0.7-13.1-0.2-19.5c0.4-6.5,0.9-12.9,1.5-19.1l3-26.4c0.3-2.2-0.1-4-1.2-5.5c-1.2-1.6-2.2-3.5-3.1-5.5
		c-6.7-10.2-13.6-20.3-20.3-29.8c-7-9.8-13.2-19.9-18.7-29.9c-3.5-6.4-6.4-13.1-8.7-20c-2.3-6.9-3.4-14.3-3.1-21.8
		c0.6-6.4,3.3-12.6,7.9-18.3c4.7-5.7,10.5-8.6,17.3-8.6c4.7,0,8.9,1.5,12.4,4.4c3.5,2.9,6.6,6.5,9.2,10.7c2.6,4.2,4.8,8.7,6.5,13.3
		c1.8,4.8,3.3,8.7,4.8,12.1c3.1,8.9,6.1,18.4,8.9,28.4c2.6,9.6,6.5,18.1,11.4,25.4c5.5-8.7,9.9-17.8,13-27.2
		c3.2-9.8,6.6-19.7,10-29.3c0.9-2.9,1.9-6.2,3.2-10c1.3-3.8,2.9-7.4,4.8-10.9c1.9-3.5,4.2-6.6,6.8-9.4c2.7-2.8,5.8-4.7,9.3-5.6
		c2.1-0.5,4.1-0.8,6.1-0.8c2.2,0,4.4,0.4,6.5,1.1c3.9,1.3,7.6,3.3,10.8,5.9c3.2,2.6,5.9,5.9,7.9,9.7c2,3.8,3.2,7.8,3.5,11.9
		c0.9,10.4-1,20.9-5.7,31.2c-4.6,10.2-9.9,19.7-15.6,28c-4.6,6.6-9.3,13.3-14.1,19.7c-4.8,6.5-9.8,12.8-15,18.9
		c-1.4,1.4-2.2,3.2-2.5,5.6c-0.3,2.4-0.3,5.1,0,7.9c0.3,2.9,0.7,5.7,1.3,8.4c0.6,2.8,0.9,5.2,0.9,7.3c0.3,4.9,0.6,10,0.9,15.4
		c0.3,5.3,0.3,10.7,0,15.9c-0.3,6.4-0.9,13-1.7,19.5c-0.9,6.7-3.4,12.7-7.5,18c-3.2,4.1-7.6,6.9-13.1,8.2
		C846,257.7,842.4,258.2,838.8,258.2z"/>
	<path class="st2" d="M786.6,23.5c4.6,0,8.7,1.5,12.1,4.3c3.5,2.9,6.5,6.4,9.1,10.6c2.6,4.2,4.8,8.6,6.5,13.2
		c1.7,4.6,3.3,8.7,4.8,12.1c3.2,9,6.1,18.4,8.9,28.4c2.7,10,6.7,18.7,11.9,26.2c5.8-9,10.2-18.3,13.4-27.9c3.2-9.7,6.5-19.4,10-29.2
		c0.9-2.9,1.9-6.2,3.2-10c1.3-3.8,2.9-7.4,4.8-10.8c1.9-3.5,4.1-6.6,6.7-9.3c2.6-2.7,5.6-4.5,9.1-5.4c2-0.5,4-0.8,6-0.8
		c2.2,0,4.3,0.3,6.4,1c3.9,1.3,7.4,3.2,10.6,5.9c3.2,2.6,5.8,5.8,7.8,9.5c2,3.8,3.2,7.7,3.5,11.7c0.9,10.4-1,20.7-5.6,31
		c-4.6,10.2-9.8,19.6-15.6,27.9c-4.6,6.6-9.3,13.2-14.1,19.7c-4.8,6.5-9.8,12.8-15,18.9c-1.5,1.4-2.3,3.4-2.6,5.8
		c-0.3,2.5-0.3,5.1,0,8s0.7,5.7,1.3,8.4c0.6,2.8,0.9,5.1,0.9,7.1c0.3,4.9,0.6,10,0.9,15.4c0.3,5.4,0.3,10.6,0,15.8
		c-0.3,6.4-0.9,12.9-1.7,19.5c-0.9,6.6-3.3,12.6-7.4,17.8c-3.2,4.1-7.4,6.7-12.8,8c-3.7,0.9-7.3,1.4-10.8,1.4
		c-1.5,0-3.1-0.1-4.6-0.3c-8.1-0.9-13.6-4.3-16.7-10.2c-3-5.9-4.7-12.5-5-19.7c-0.6-6.6-0.6-13.1-0.2-19.5
		c0.4-6.3,0.9-12.7,1.5-19.1l3-26.4c0.3-2.3-0.1-4.2-1.3-5.8c-1.2-1.6-2.2-3.4-3-5.4c-6.6-10.1-13.4-20.1-20.4-29.9
		c-6.9-9.8-13.2-19.8-18.6-29.9c-3.5-6.3-6.4-13-8.7-19.9c-2.3-6.9-3.3-14.1-3-21.7c0.6-6.4,3.2-12.3,7.8-18
		C774.3,26.3,780,23.5,786.6,23.5 M786.6,22.5c-6.9,0-12.9,3-17.7,8.8c-4.7,5.8-7.4,12-8,18.5l0,0l0,0c-0.3,7.6,0.7,15,3.1,22
		c2.3,6.9,5.2,13.7,8.7,20.1c5.4,10,11.7,20.1,18.7,30c6.7,9.5,13.5,19.5,20.3,29.8c0.9,2,1.9,3.9,3.1,5.5c1,1.4,1.4,3.1,1.1,5.1
		l-3,26.4c-0.6,6.2-1.1,12.6-1.5,19.1c-0.4,6.5-0.4,13.1,0.2,19.6c0.3,7.3,2,14.1,5.1,20.1c3.2,6.2,9,9.8,17.5,10.7
		c1.5,0.2,3.1,0.3,4.7,0.3c3.5,0,7.3-0.5,11-1.4c5.5-1.4,10-4.2,13.3-8.4c4.1-5.3,6.7-11.5,7.6-18.2c0.9-6.5,1.4-13.1,1.7-19.6
		c0.3-5.2,0.3-10.6,0-15.9c-0.3-5.3-0.6-10.5-0.9-15.4c0-2.1-0.3-4.5-0.9-7.3c-0.6-2.7-1-5.5-1.3-8.3c-0.3-2.8-0.3-5.4,0-7.8
		c0.3-2.3,1-4,2.3-5.2l0,0l0,0c5.2-6.1,10.2-12.4,15-18.9c4.7-6.5,9.5-13.1,14.1-19.7c5.8-8.4,11.1-17.8,15.7-28.1
		c4.7-10.4,6.6-21,5.7-31.5c-0.3-4.1-1.5-8.2-3.6-12.1c-2.1-3.8-4.8-7.2-8-9.8c-3.3-2.7-6.9-4.7-10.9-6c-2.2-0.7-4.4-1.1-6.7-1.1
		c-2,0-4.1,0.3-6.2,0.8c-3.6,0.9-6.8,2.8-9.6,5.7c-2.7,2.8-5,6-6.9,9.5c-1.9,3.5-3.5,7.2-4.8,11c-1.3,3.8-2.4,7.1-3.3,10
		c-3.4,9.6-6.7,19.4-10,29.2c-3,9.1-7.2,18-12.5,26.4c-4.7-7.1-8.4-15.4-10.9-24.6c-2.8-10-5.8-19.6-8.9-28.4l0,0l0,0
		c-1.4-3.4-3-7.3-4.7-12.1c-1.7-4.7-4-9.2-6.6-13.4c-2.7-4.3-5.8-7.9-9.3-10.9C795.8,24,791.5,22.5,786.6,22.5L786.6,22.5z"/>
</g>
<g>
	<path class="st2" d="M611.8,255.5c-2.6,0-5.2-0.4-7.7-1.1c-7-1.8-12.1-6.1-15-12.8c-2.9-6.7-4.8-13.4-5.7-20.1
		c-1.4-10.1-2-20.5-1.7-30.8c0.3-10.5,0.7-20.8,1.3-30.8c1.2-13,2-26,2.6-38.6c0.6-12.5,1.6-25.1,3-37.6c-3.9-0.1-7.6-1-11.1-2.6
		c-3.7-1.8-6.6-4.1-8.6-6.9c-2.1-2.8-3.2-6.1-3.3-9.8c-0.2-3.7,1.4-7.5,4.7-11.4c3.8-4.4,8.4-7.5,13.7-9.3l7.8-2.6
		c3.2-0.7,4.4-1.2,4.9-1.5c0.4-0.3,1.3-1.2,3.1-4c2.3-4.6,5.6-8.3,9.7-11c4.1-2.6,8.7-4,13.7-4c3.2,0,6.1,0.4,8.8,1.1
		c2.7,0.7,5.2,2.3,7.6,4.7c2.3,1.8,4,4.2,4.9,7.1l1.6,4c1.3,0,2.7-0.1,4.2-0.2c1.7-0.1,3.2-0.2,4.6-0.2c7.2,0,14.4,0.3,21.5,0.9
		c7.1,0.6,14.3,1.6,21.5,3c8.4,2.3,16.8,5.9,24.8,10.7c8.1,4.8,14.3,11.5,18.4,19.9c2.9,6.7,4.1,13.7,3.5,20.6
		c-0.6,7-2.4,13.8-5.5,20.3c-3,6.5-7.2,12.5-12.4,17.7c-4.9,4.9-10.2,8.8-15.9,11.7c6.8,2.3,12.8,5.5,17.8,9.7
		c5.4,4.4,9.4,9.5,12.1,15.1c2.6,5.7,3.7,11.9,3.3,18.4c-0.4,6.6-2.9,13.3-7.2,19.9c-4.9,7.5-10.9,14-17.9,19.2
		c-6.9,5.2-14.6,9.3-22.7,12.2c-8.1,2.9-16.7,4.7-25.5,5.4c-2.9,0.2-5.9,0.4-8.8,0.4c-5.8,0-11.6-0.5-17.1-1.5
		c-1.5-0.3-3.3-0.9-5.5-1.8c-0.6-0.2-1.1-0.4-1.5-0.4c-0.6,0-1.5,0.2-1.9,1.8c-1.8,4.2-4.3,7.4-7.5,9.8c-3.2,2.3-7,3.9-11.3,4.6
		C615.1,255.4,613.4,255.5,611.8,255.5z M658.9,156.7c-4,0-7.3,1.5-9.9,4.4c-3.2,3.7-5.2,8-5.7,12.9c-0.6,4.9,0.2,9.5,2.3,13.6
		c2.1,4.1,5.8,6,11.5,6c4.5,0,8.1-1.7,10.9-5.2c2.8-3.5,4.6-7.6,5.3-12.1c0.7-4.5,0.1-8.7-1.7-12.5c-1.8-3.7-5.1-6-9.8-6.9
		C660.8,156.8,659.8,156.7,658.9,156.7z M663.6,92.9c-4.8,0-8.6,1.8-11.5,5.4c-3,3.7-4.8,7.8-5.5,12.1c-0.7,4.3,0,8.4,2.1,12
		c2.1,3.6,5.8,5.4,11.5,5.4c4.4,0,8.1-1.8,10.9-5.4c2.8-3.7,4.5-7.7,4.9-12.1c0.4-4.3-0.4-8.4-2.3-12.1
		C671.6,94.6,668.4,92.9,663.6,92.9z"/>
	<path class="st2" d="M622.9,21.3c3.2,0,6.1,0.4,8.7,1.1c2.6,0.7,5,2.2,7.4,4.5c2.3,1.7,3.9,4,4.8,6.9l1.7,4.3
		c1.4,0,2.9-0.1,4.5-0.2c1.6-0.1,3.1-0.2,4.6-0.2c7.2,0,14.4,0.3,21.4,0.9s14.2,1.6,21.4,3c8.4,2.3,16.6,5.9,24.7,10.6
		c8.1,4.8,14.1,11.3,18.2,19.7c2.9,6.7,4,13.4,3.5,20.4c-0.6,6.9-2.4,13.7-5.4,20.1c-3,6.5-7.2,12.4-12.3,17.5
		c-5.2,5.2-10.8,9.2-16.9,12.1c7.2,2.3,13.5,5.6,18.8,10c5.3,4.3,9.3,9.3,11.9,14.9c2.6,5.6,3.7,11.7,3.2,18.2
		c-0.4,6.5-2.8,13.1-7.1,19.7c-4.9,7.5-10.8,13.9-17.8,19.1c-6.9,5.2-14.4,9.2-22.5,12.1c-8.1,2.9-16.5,4.7-25.3,5.4
		c-2.9,0.2-5.8,0.4-8.7,0.4c-5.8,0-11.5-0.5-17-1.4c-1.5-0.3-3.2-0.9-5.4-1.7c-0.6-0.3-1.2-0.4-1.7-0.4c-1.2,0-2,0.7-2.4,2.1
		c-1.7,4-4.2,7.2-7.4,9.5c-3.2,2.3-6.9,3.8-11,4.5c-1.6,0.3-3.2,0.4-4.8,0.4c-2.5,0-5.1-0.4-7.5-1.1c-6.9-1.7-11.8-5.9-14.7-12.6
		c-2.9-6.6-4.8-13.3-5.6-19.9c-1.4-10.1-2-20.3-1.7-30.8c0.3-10.4,0.7-20.6,1.3-30.8c1.1-13,2-25.8,2.6-38.6
		c0.6-12.7,1.6-25.4,3-38.1c-4,0-7.9-0.9-11.5-2.6c-3.6-1.7-6.4-4-8.4-6.7c-2-2.7-3.1-5.9-3.2-9.5c-0.1-3.6,1.4-7.3,4.6-11
		c3.8-4.3,8.2-7.4,13.4-9.1l7.8-2.6c2.6-0.6,4.3-1.1,5-1.5c0.7-0.4,1.8-1.8,3.2-4.1c2.3-4.6,5.5-8.2,9.5-10.8
		C613.5,22.6,618,21.3,622.9,21.3 M660.1,128.3c4.6,0,8.4-1.9,11.3-5.6c2.9-3.8,4.5-7.9,5-12.3c0.4-4.5-0.4-8.6-2.4-12.4
		c-2-3.8-5.5-5.6-10.4-5.6c-4.9,0-8.9,1.9-11.9,5.6c-3,3.8-4.9,7.9-5.6,12.4c-0.7,4.5,0,8.6,2.2,12.3
		C650.4,126.4,654.4,128.3,660.1,128.3 M657.1,194.2c4.6,0,8.4-1.8,11.3-5.4c2.9-3.6,4.7-7.7,5.4-12.3c0.7-4.6,0.1-8.9-1.7-12.8
		c-1.9-3.9-5.3-6.3-10.2-7.1c-1-0.2-2-0.2-3-0.2c-4.1,0-7.5,1.5-10.2,4.6c-3.3,3.8-5.3,8.2-5.8,13.2c-0.6,5.1,0.2,9.7,2.4,13.9
		C647.4,192.1,651.3,194.2,657.1,194.2 M622.9,20.3c-5.1,0-9.8,1.4-14,4.1c-4.2,2.7-7.5,6.4-9.9,11.2c-1.8,2.8-2.6,3.6-2.9,3.8
		c-0.4,0.2-1.4,0.7-4.7,1.4l-0.1,0l-0.1,0l-7.8,2.6c-5.3,1.8-10,4.9-13.9,9.4c-3.3,3.9-5,7.9-4.8,11.7c0.1,3.8,1.3,7.2,3.4,10.1
		c2.1,2.9,5.1,5.2,8.8,7c3.4,1.6,7,2.5,10.8,2.7c-1.4,12.3-2.4,24.8-2.9,37.1c-0.6,12.5-1.4,25.5-2.6,38.5c-0.6,10-1,20.4-1.3,30.8
		c-0.3,10.4,0.3,20.8,1.7,30.9c0.9,6.7,2.8,13.5,5.7,20.2c3,6.9,8.2,11.3,15.4,13.1c2.5,0.7,5.2,1.1,7.8,1.1c1.6,0,3.3-0.1,5-0.4
		c4.3-0.7,8.2-2.3,11.5-4.7c3.3-2.4,5.9-5.7,7.7-9.9l0-0.1l0-0.1c0.3-1.2,0.9-1.4,1.4-1.4c0.4,0,0.8,0.1,1.4,0.3
		c2.3,0.9,4.1,1.5,5.6,1.8c5.6,1,11.4,1.5,17.2,1.5c2.9,0,5.9-0.1,8.8-0.4c8.8-0.7,17.4-2.6,25.6-5.5c8.1-2.9,15.8-7,22.8-12.3
		c7-5.2,13-11.7,18-19.3c4.4-6.7,6.9-13.5,7.3-20.2c0.4-6.6-0.7-12.9-3.3-18.7c-2.6-5.7-6.8-10.9-12.2-15.3
		c-4.8-3.9-10.5-7.1-16.9-9.4c5.3-2.8,10.4-6.6,15-11.2c5.3-5.3,9.5-11.3,12.5-17.8c3.1-6.6,4.9-13.4,5.5-20.5
		c0.6-7-0.6-14.1-3.5-20.8c-4.1-8.6-10.4-15.3-18.6-20.2c-8.1-4.8-16.5-8.4-24.9-10.7l0,0l0,0c-7.2-1.4-14.5-2.5-21.6-3
		c-7.1-0.6-14.3-0.9-21.5-0.9c-1.4,0-2.9,0.1-4.6,0.2c-1.3,0.1-2.6,0.2-3.8,0.2l-1.5-3.7c-0.9-3-2.6-5.5-5-7.4c-2.4-2.4-5-4-7.8-4.7
		C629.1,20.7,626.1,20.3,622.9,20.3L622.9,20.3z M660.1,127.3c-5.4,0-9.1-1.7-11-5.1c-2-3.5-2.7-7.5-2-11.7
		c0.7-4.3,2.5-8.3,5.4-11.9c2.9-3.5,6.5-5.3,11.1-5.3c4.5,0,7.7,1.7,9.5,5.1c1.9,3.6,2.7,7.5,2.3,11.8c-0.4,4.3-2,8.2-4.8,11.8
		C667.9,125.6,664.5,127.3,660.1,127.3L660.1,127.3z M657.1,193.2c-5.4,0-9-1.9-11-5.7c-2.1-4-2.8-8.5-2.3-13.3
		c0.5-4.8,2.4-9.1,5.6-12.7c2.5-2.9,5.6-4.2,9.5-4.2c0.9,0,1.8,0.1,2.8,0.2c4.6,0.8,7.7,3,9.4,6.6c1.8,3.7,2.3,7.8,1.7,12.2
		c-0.7,4.4-2.5,8.4-5.2,11.9C664.9,191.5,661.5,193.2,657.1,193.2L657.1,193.2z"/>
</g>
<g>
	<path class="st2" d="M466.9,257.9c-13.3,0-24.9-3.5-34.5-10.3c-9.5-6.8-17.5-15.8-23.8-26.8c-6.2-11-10.7-23.7-13.5-37.8
		c-2.7-14.1-4-28.6-3.7-43.2c0.3-14.5,2.3-29.1,5.9-43.2c3.6-14.1,8.7-26.8,15.2-37.8c6.5-11,14.6-20,24-26.8
		c9.4-6.8,20.4-10.3,32.6-10.3c17.9,0,33.1,5.9,45,17.5c11.8,11.6,20.7,26.3,26.3,43.7c5.6,17.4,8.3,36.6,8,56.9
		c-0.3,20.3-3.5,39.5-9.6,56.9c-6.1,17.5-15.2,32.2-27.2,43.7C499.7,252,484.6,257.9,466.9,257.9z M489.5,146.6
		c-3.3,0-6.3,1.4-9,4.2c-2.7,2.8-5,6.4-6.8,10.5c-1.8,4.1-3.3,8.8-4.3,13.8c-1,5-1.3,9.6-0.9,13.7c0.4,4.1,1.6,7.6,3.6,10.4
		c1.9,2.8,4.6,4.1,8.3,4.1c4.7,0,8.8-3,12.3-8.8c3.6-6,6-12.6,7.3-19.5c1.3-7,1.1-13.5-0.4-19.5
		C498.1,149.4,494.8,146.6,489.5,146.6z"/>
	<path class="st2" d="M469.1,22.2c17.9,0,32.8,5.8,44.6,17.3c11.8,11.5,20.6,26.1,26.2,43.5c5.6,17.5,8.3,36.4,8,56.7
		c-0.3,20.4-3.5,39.3-9.5,56.8c-6.1,17.5-15.1,32-27.1,43.5c-12,11.5-26.8,17.3-44.4,17.3c-13.3,0-24.7-3.4-34.2-10.2
		c-9.5-6.8-17.4-15.7-23.6-26.6c-6.2-11-10.7-23.5-13.4-37.7c-2.8-14.1-4-28.5-3.7-43.1c0.3-14.6,2.2-28.9,5.8-43.1
		C401.5,82.5,406.5,70,413,59c6.5-11,14.4-19.8,23.8-26.6C446.2,25.6,457,22.2,469.1,22.2 M480.4,203.7c4.9,0,9.2-3,12.8-9.1
		c3.6-6.1,6.1-12.6,7.4-19.7c1.3-7.1,1.1-13.6-0.4-19.7c-1.6-6.1-5.1-9.1-10.6-9.1c-3.5,0-6.6,1.5-9.3,4.3c-2.7,2.9-5,6.4-6.9,10.6
		c-1.9,4.2-3.3,8.8-4.3,13.9c-1,5.1-1.3,9.7-0.9,13.9c0.4,4.2,1.7,7.7,3.7,10.6C473.7,202.2,476.6,203.7,480.4,203.7 M469.1,21.2
		c-12.3,0-23.3,3.5-32.9,10.4c-9.5,6.8-17.6,15.9-24.1,26.9c-6.5,11-11.7,23.8-15.3,37.9c-3.6,14.2-5.6,28.7-5.9,43.3
		c-0.3,14.6,1,29.2,3.7,43.3c2.7,14.2,7.3,27,13.5,38c6.3,11.1,14.3,20.1,23.9,27c9.7,6.9,21.4,10.4,34.8,10.4
		c17.8,0,33-5.9,45.1-17.6c12-11.6,21.2-26.4,27.3-43.9c6.1-17.5,9.3-36.7,9.6-57.1c0.3-20.4-2.4-39.6-8.1-57.1
		c-5.7-17.5-14.6-32.3-26.5-43.9C502.4,27.1,487.2,21.2,469.1,21.2L469.1,21.2z M480.4,202.7c-3.4,0-6-1.3-7.8-3.9
		c-1.9-2.7-3.1-6.1-3.5-10.1c-0.4-4.1-0.1-8.6,0.9-13.6c1-5,2.4-9.6,4.3-13.6c1.8-4.1,4.1-7.5,6.7-10.3c2.6-2.7,5.4-4,8.6-4
		c5,0,8.2,2.7,9.6,8.4c1.5,5.9,1.7,12.4,0.4,19.3c-1.3,6.9-3.7,13.4-7.2,19.4C488.8,199.9,484.9,202.7,480.4,202.7L480.4,202.7z"/>
</g>
<g>
	<path class="st2" d="M292.4,257.9c-13.3,0-24.9-3.5-34.5-10.3c-9.6-6.8-17.5-15.8-23.7-26.8c-6.2-11-10.8-23.7-13.5-37.8
		c-2.7-14.1-4-28.6-3.7-43.2c0.3-14.5,2.3-29.1,5.9-43.2c3.6-14.1,8.7-26.8,15.2-37.8c6.5-11,14.6-20,24-26.8
		c9.4-6.8,20.4-10.3,32.6-10.3c17.9,0,33.1,5.9,45,17.5c11.8,11.5,20.7,26.3,26.3,43.7c5.6,17.4,8.3,36.6,8,56.9
		c-0.3,20.3-3.5,39.5-9.6,56.9c-6.1,17.5-15.2,32.2-27.2,43.7C325.1,252,310.1,257.9,292.4,257.9z M314.9,146.6
		c-3.3,0-6.3,1.4-8.9,4.2c-2.7,2.8-5,6.4-6.8,10.5c-1.9,4.2-3.3,8.8-4.3,13.8c-1,5-1.3,9.6-0.9,13.7c0.4,4.1,1.6,7.6,3.6,10.4
		c1.9,2.8,4.6,4.1,8.3,4.1c4.7,0,8.9-3,12.4-8.8c3.6-6,6-12.6,7.3-19.5c1.3-7,1.1-13.5-0.4-19.5
		C323.5,149.4,320.2,146.6,314.9,146.6z"/>
	<path class="st2" d="M294.5,22.2c17.9,0,32.8,5.8,44.6,17.3C351,51.1,359.7,65.6,365.4,83c5.6,17.5,8.3,36.4,8,56.7
		c-0.3,20.4-3.5,39.3-9.5,56.8c-6.1,17.5-15.1,32-27.1,43.5s-26.8,17.3-44.4,17.3c-13.3,0-24.7-3.4-34.2-10.2
		c-9.5-6.8-17.4-15.7-23.6-26.6c-6.2-11-10.7-23.5-13.4-37.7c-2.8-14.1-4-28.5-3.7-43.1c0.3-14.6,2.2-28.9,5.9-43.1
		C226.9,82.5,232,70,238.5,59c6.5-11,14.4-19.8,23.8-26.6C271.7,25.6,282.4,22.2,294.5,22.2 M305.8,203.7c4.9,0,9.2-3,12.8-9.1
		c3.6-6.1,6.1-12.6,7.4-19.7c1.3-7.1,1.2-13.6-0.4-19.7c-1.6-6.1-5.1-9.1-10.6-9.1c-3.5,0-6.6,1.5-9.3,4.3
		c-2.8,2.9-5.1,6.4-6.9,10.6c-1.9,4.2-3.3,8.8-4.3,13.9c-1,5.1-1.3,9.7-0.9,13.9c0.4,4.2,1.7,7.7,3.7,10.6
		C299.2,202.2,302.1,203.7,305.8,203.7 M294.5,21.2c-12.3,0-23.3,3.5-32.9,10.4c-9.5,6.8-17.6,15.9-24.1,26.9
		c-6.5,11-11.7,23.8-15.3,37.9c-3.6,14.2-5.6,28.7-5.9,43.3c-0.3,14.6,1,29.2,3.7,43.3c2.7,14.2,7.3,27,13.5,38
		c6.2,11,14.3,20.1,23.9,27c9.7,6.9,21.4,10.4,34.8,10.4c17.8,0,33-5.9,45.1-17.6c12-11.6,21.2-26.4,27.3-43.9
		c6.1-17.5,9.3-36.7,9.6-57.1c0.3-20.4-2.4-39.6-8.1-57.1c-5.7-17.5-14.6-32.3-26.5-43.9C327.9,27.1,312.6,21.2,294.5,21.2
		L294.5,21.2z M305.8,202.7c-3.4,0-6-1.3-7.8-3.9c-1.9-2.7-3.1-6.1-3.5-10.1c-0.4-4.1-0.1-8.6,0.8-13.6c1-4.9,2.4-9.5,4.3-13.6
		c1.8-4.1,4.1-7.5,6.7-10.3c2.5-2.7,5.4-4,8.6-4c5,0,8.2,2.7,9.6,8.4c1.5,5.9,1.7,12.4,0.4,19.3c-1.3,6.9-3.7,13.4-7.2,19.4
		C314.3,199.8,310.3,202.7,305.8,202.7L305.8,202.7z"/>
</g>
<g>
	<path class="st2" d="M66.9,255.5c-2.6,0-5.2-0.4-7.7-1.1c-7-1.8-12.1-6.1-15-12.8c-2.9-6.7-4.8-13.4-5.7-20.1
		c-1.4-10.1-2-20.4-1.7-30.8c0.3-10.4,0.7-20.8,1.3-30.8c1.2-13,2-26,2.6-38.6c0.6-12.5,1.6-25.1,3-37.6c-3.9-0.1-7.6-1-11.1-2.6
		c-3.7-1.8-6.6-4.1-8.6-6.9c-2.1-2.8-3.2-6.1-3.3-9.8c-0.2-3.7,1.4-7.5,4.7-11.4c3.8-4.4,8.4-7.5,13.7-9.3l7.8-2.6
		c3.2-0.7,4.4-1.2,4.9-1.5c0.4-0.3,1.3-1.2,3.1-4c2.3-4.6,5.6-8.3,9.7-11c4.1-2.6,8.7-4,13.7-4c3.2,0,6.1,0.4,8.8,1.1
		c2.7,0.7,5.2,2.3,7.6,4.7c2.3,1.8,4,4.2,4.9,7.1l1.6,4c1.3,0,2.7-0.1,4.2-0.2c1.7-0.1,3.2-0.2,4.6-0.2c7.2,0,14.4,0.3,21.5,0.9
		c7.1,0.6,14.3,1.6,21.5,3c8.4,2.3,16.8,5.9,24.9,10.7c8.1,4.8,14.3,11.5,18.4,19.9c2.9,6.7,4.1,13.7,3.5,20.6
		c-0.6,7-2.4,13.8-5.5,20.3c-3,6.5-7.2,12.5-12.4,17.7c-4.9,4.9-10.2,8.8-15.9,11.7c6.8,2.3,12.8,5.5,17.8,9.7
		c5.4,4.4,9.4,9.5,12,15.1c2.6,5.7,3.7,11.9,3.3,18.4c-0.4,6.6-2.9,13.3-7.2,19.9c-4.9,7.5-10.9,14-17.9,19.2
		c-6.9,5.2-14.6,9.3-22.7,12.2c-8.1,2.9-16.7,4.7-25.5,5.4c-2.9,0.2-5.9,0.4-8.8,0.4c-5.8,0-11.6-0.5-17.1-1.5
		c-1.5-0.3-3.3-0.9-5.5-1.8c-0.6-0.2-1.1-0.4-1.5-0.4c-0.6,0-1.5,0.2-1.9,1.8c-1.8,4.2-4.3,7.4-7.5,9.8c-3.2,2.3-7,3.9-11.3,4.6
		C70.1,255.4,68.5,255.5,66.9,255.5z M114,156.7c-4,0-7.3,1.5-9.9,4.4c-3.2,3.7-5.2,8-5.7,12.9c-0.6,4.9,0.2,9.5,2.3,13.6
		c2.1,4.1,5.8,6,11.5,6c4.5,0,8.1-1.7,10.9-5.2c2.8-3.5,4.6-7.6,5.3-12.1c0.7-4.5,0.1-8.7-1.7-12.5c-1.8-3.7-5.1-6-9.8-6.9
		C115.9,156.8,114.9,156.7,114,156.7z M118.7,92.9c-4.8,0-8.6,1.8-11.5,5.4c-3,3.7-4.8,7.8-5.5,12.1c-0.7,4.3,0,8.4,2.1,12
		c2.1,3.6,5.8,5.4,11.5,5.4c4.5,0,8.1-1.8,10.9-5.4c2.8-3.7,4.4-7.7,4.9-12.1c0.4-4.3-0.4-8.4-2.3-12.1
		C126.7,94.7,123.4,92.9,118.7,92.9z"/>
	<path class="st2" d="M78,21.3c3.2,0,6.1,0.4,8.7,1.1c2.6,0.7,5,2.2,7.4,4.5c2.3,1.7,3.9,4,4.8,6.9l1.7,4.3c1.4,0,3-0.1,4.5-0.2
		c1.6-0.1,3.1-0.2,4.5-0.2c7.2,0,14.4,0.3,21.4,0.9s14.2,1.6,21.4,3c8.4,2.3,16.6,5.9,24.7,10.6c8.1,4.8,14.1,11.3,18.2,19.7
		c2.9,6.7,4,13.4,3.5,20.4c-0.6,6.9-2.4,13.7-5.4,20.1c-3,6.5-7.2,12.4-12.4,17.5c-5.2,5.2-10.8,9.2-16.9,12.1
		c7.2,2.3,13.5,5.6,18.8,10c5.3,4.3,9.3,9.3,11.9,14.9c2.6,5.6,3.7,11.7,3.2,18.2c-0.4,6.5-2.8,13.1-7.1,19.7
		c-4.9,7.5-10.8,13.9-17.8,19.1c-6.9,5.2-14.5,9.2-22.5,12.1c-8.1,2.9-16.5,4.7-25.3,5.4c-2.9,0.2-5.8,0.4-8.7,0.4
		c-5.8,0-11.5-0.5-17-1.4c-1.5-0.3-3.2-0.9-5.4-1.7c-0.6-0.3-1.2-0.4-1.7-0.4c-1.2,0-2,0.7-2.4,2.1c-1.7,4-4.2,7.2-7.4,9.5
		c-3.2,2.3-6.9,3.8-11.1,4.5c-1.6,0.3-3.2,0.4-4.8,0.4c-2.5,0-5.1-0.4-7.5-1.1c-6.9-1.7-11.8-5.9-14.7-12.6
		c-2.9-6.6-4.8-13.3-5.6-19.9c-1.5-10.1-2-20.3-1.7-30.8c0.3-10.4,0.7-20.6,1.3-30.8c1.1-13,2-25.8,2.6-38.6
		c0.6-12.7,1.6-25.4,3-38.1c-4,0-7.9-0.9-11.5-2.6c-3.6-1.7-6.4-4-8.4-6.7c-2-2.7-3.1-5.9-3.2-9.5c-0.1-3.6,1.4-7.3,4.5-11
		C29.3,49,33.8,46,39,44.3l7.8-2.6c2.6-0.6,4.3-1.1,5-1.5c0.7-0.4,1.8-1.8,3.2-4.1c2.3-4.6,5.5-8.2,9.5-10.8
		C68.6,22.6,73.1,21.3,78,21.3 M115.2,128.3c4.6,0,8.4-1.9,11.3-5.6c2.9-3.8,4.5-7.9,5-12.3c0.4-4.5-0.4-8.6-2.4-12.4
		c-2-3.8-5.5-5.6-10.4-5.6c-4.9,0-8.9,1.9-11.9,5.6c-3,3.8-4.9,7.9-5.6,12.4c-0.7,4.5,0,8.6,2.2,12.3
		C105.5,126.4,109.4,128.3,115.2,128.3 M112.2,194.2c4.6,0,8.4-1.8,11.3-5.4c2.9-3.6,4.7-7.7,5.4-12.3c0.7-4.6,0.1-8.9-1.7-12.8
		c-1.9-3.9-5.3-6.3-10.2-7.1c-1-0.2-2-0.2-3-0.2c-4.1,0-7.5,1.5-10.2,4.6c-3.3,3.8-5.3,8.2-5.8,13.2c-0.6,5.1,0.2,9.7,2.4,13.9
		C102.4,192.1,106.4,194.2,112.2,194.2 M78,20.3c-5.1,0-9.8,1.4-14,4.1c-4.2,2.7-7.5,6.4-9.9,11.2c-1.8,2.8-2.6,3.6-2.9,3.8
		c-0.4,0.2-1.4,0.7-4.7,1.4l-0.1,0l-0.1,0l-7.8,2.6c-5.3,1.8-10,4.9-13.9,9.4c-3.3,3.9-5,7.9-4.8,11.7c0.1,3.8,1.3,7.2,3.4,10.1
		c2.1,2.8,5,5.2,8.8,7c3.4,1.6,7,2.5,10.8,2.7c-1.4,12.3-2.4,24.8-2.9,37.1c-0.6,12.6-1.4,25.5-2.6,38.5c-0.6,10-1,20.4-1.3,30.8
		c-0.3,10.4,0.3,20.8,1.7,30.9c0.9,6.7,2.8,13.5,5.7,20.2c3,6.9,8.2,11.3,15.4,13.1c2.5,0.7,5.2,1.1,7.8,1.1c1.6,0,3.3-0.1,5-0.4
		c4.3-0.7,8.2-2.3,11.5-4.7c3.3-2.4,5.9-5.7,7.7-9.9l0-0.1l0-0.1c0.3-1.2,0.9-1.4,1.4-1.4c0.4,0,0.8,0.1,1.4,0.3
		c2.3,0.9,4.1,1.5,5.6,1.8c5.6,1,11.4,1.5,17.2,1.5c2.9,0,5.9-0.1,8.8-0.4c8.8-0.7,17.4-2.6,25.6-5.5c8.1-2.9,15.8-7,22.8-12.3
		c7-5.2,13-11.7,18-19.3c4.4-6.7,6.9-13.5,7.3-20.2c0.4-6.6-0.7-12.9-3.3-18.7c-2.6-5.7-6.7-10.9-12.2-15.3
		c-4.8-3.9-10.5-7.1-16.9-9.4c5.3-2.8,10.4-6.6,15-11.2c5.3-5.3,9.5-11.3,12.5-17.8c3.1-6.6,4.9-13.4,5.5-20.5
		c0.6-7-0.6-14.1-3.5-20.8c-4.1-8.6-10.4-15.3-18.6-20.2c-8.1-4.8-16.5-8.4-24.9-10.7l0,0l0,0c-7.2-1.4-14.5-2.5-21.6-3
		c-7.1-0.6-14.3-0.9-21.5-0.9c-1.4,0-2.9,0.1-4.6,0.2c-1.3,0.1-2.6,0.2-3.8,0.2l-1.5-3.7c-0.9-3-2.6-5.5-5-7.4c-2.4-2.4-5-4-7.8-4.7
		C84.2,20.7,81.2,20.3,78,20.3L78,20.3z M115.2,127.3c-5.4,0-9.1-1.7-11-5.1c-2-3.5-2.7-7.5-2-11.7c0.7-4.3,2.5-8.3,5.4-11.9
		c2.9-3.5,6.5-5.3,11.1-5.3c4.5,0,7.7,1.7,9.5,5.1c1.9,3.6,2.7,7.5,2.3,11.8c-0.4,4.3-2,8.2-4.8,11.8
		C123,125.6,119.6,127.3,115.2,127.3L115.2,127.3z M112.2,193.2c-5.4,0-9-1.9-11-5.7c-2.1-4-2.8-8.5-2.3-13.3
		c0.5-4.8,2.4-9.1,5.6-12.7c2.5-2.9,5.6-4.2,9.5-4.2c0.9,0,1.8,0.1,2.8,0.2c4.6,0.8,7.7,3,9.4,6.6c1.8,3.7,2.3,7.8,1.7,12.2
		c-0.7,4.4-2.5,8.4-5.2,11.9C120,191.5,116.5,193.2,112.2,193.2L112.2,193.2z"/>
</g>
</svg>
