<?xml version="1.0" encoding="utf-8"?>
<!-- Generator: Adobe Illustrator 27.9.2, SVG Export Plug-In . SVG Version: 6.00 Build 0)  -->
<svg version="1.1" xmlns="http://www.w3.org/2000/svg" xmlns:xlink="http://www.w3.org/1999/xlink" x="0px" y="0px"
	 viewBox="0 0 710 1429.2" style="enable-background:new 0 0 710 1429.2;" xml:space="preserve">
<style type="text/css">
	.st0{fill:#40B7D3;}
	.st1{fill:#3AE5FF;}
	.st2{fill:#EFEFEF;}
	.st3{fill:#915539;}
	.st4{fill:#FFFFFF;}
	.st5{fill:#FFFCF5;}
</style>
<g id="Calque_2">
</g>
<g id="Calque_1">
	<path d="M242,1246.3c-3.8,2.4-7.3,5.3-10.6,8.4c-11.3,10.1-23,23.3-38.4,23.1c-1.8,0-1.3-3.1,0.4-3c3.9,0.1,7.7-0.9,11.3-2.5
		c6.7-3.1,12.4-8.2,17.9-13.3c5.7-5.3,11.4-10.8,17.8-14.9C241.9,1242.8,243.5,1245.3,242,1246.3z"/>
	<path d="M278.1,1346.6c-0.5,0.5-1.5,0.6-2,0c-3.5-4.9-6.4-10.1-8.8-15.7c-8.3-19.7-9.4-42.9-2.3-63.2c0.6-1.8,3.3-1,2.7,0.8
		c-1.9,5.5-3.2,11.2-4,17c-2.5,20.6,2.5,42.4,14.3,58.9C278.5,1345.2,278.7,1346,278.1,1346.6z"/>
	<path d="M353.7,1281.2c-5.5,0-11.1-0.1-16.6-0.7c-8.8-1-17.6-3.6-24.6-9.6c-6.2-5.2-10.7-12.8-11.2-21.4c-0.1-1.9,2.7-1.9,2.8,0
		c0.2,4.4,1.8,8.6,4.1,12.2c10.1,15.8,29.5,16.4,45.5,16.5C355.4,1278.2,355.4,1281.2,353.7,1281.2z"/>
	<path d="M471.7,1258.3c3.7,2.9,7,6.2,10.2,9.6c10.6,11.3,21.1,25.7,37.8,27.6c1.9,0.2,1.9-2.8,0-3c-4.2-0.5-8.1-1.9-11.7-4
		c-6.7-3.9-12-9.7-17.2-15.3c-5.4-5.9-10.6-12-16.9-16.9C472.3,1255,470.1,1257.1,471.7,1258.3z"/>
	<path d="M418.5,1346.6c0.5,0.5,1.6,0.6,2.1,0c3.8-4.9,7-10.1,9.5-15.7c9-19.7,10.2-42.9,2.5-63.2c-0.7-1.8-3.6-1-2.9,0.8
		c2.1,5.5,3.5,11.2,4.3,17c2.7,20.6-2.8,42.4-15.5,58.9C418,1345.2,417.9,1346,418.5,1346.6z"/>
	<path d="M336.5,1281.2c6,0,12-0.1,18-0.7c9.6-1,19-3.6,26.7-9.6c6.7-5.2,11.6-12.8,12.1-21.4c0.1-1.9-2.9-1.9-3,0
		c-0.3,4.4-1.9,8.6-4.4,12.2c-11,15.8-32,16.4-49.4,16.5C334.6,1278.2,334.6,1281.2,336.5,1281.2z"/>
	<ellipse class="st0" cx="355" cy="1356.4" rx="355" ry="72.8"/>
	<path d="M475.9,1243.6c0,0,82.3,37,78.7,40.6c-3.7,3.7-93.3,78-93.3,78l-60.7,6.7c0,0-86-67.4-86-76.7s33.3-53.3,33.3-53.3
		L475.9,1243.6z"/>
	<g>
		<path d="M271.7,1312.9c7,13.4,21.4,21.4,34.3,28c7.8,4,15.7,7.8,23.3,12.3c8.4,4.9,16.6,10.3,24.4,16.1
			c7.8,5.8,15.3,12.2,22.4,18.9c6.5,6.2,12.7,12.8,20.5,17.4c17.5,10.1,37.6,3.4,53.7-6.3c8.6-5.1,16.7-11.1,25.6-15.8
			c7.3-3.9,15.1-6.8,23-9.1c15.9-4.7,32.4-7.3,48.5-11.4c15.6-4,31-9.5,43.7-19.6c6.7-5.3,13.6-12.2,14-21.3
			c0.4-9.5-6.1-17.8-11.6-24.9c-21.8-28.1-50.6-50.9-82.9-65.8c-8.2-3.8-16.7-6.8-25.2-9.9c-8.7-3.2-16.9-7.5-22.5-15.1
			c-5.5-7.5-8.7-16.7-10.7-25.7c-2.1-9.8-2.6-19.8-2.1-29.8c1.1-20.5,6.3-40.4,11.5-60.1c4.4-16.8,7.7-33.8,12.1-50.5l0,0
			c0-0.1,0.1-0.3,0.1-0.4c0.6-2.3-2.2-3.5-3.6-2.3c0,0,0,0,0,0c-0.2,0.1-0.3,0.3-0.4,0.5c0,0,0,0,0,0c-0.1,0.2-0.2,0.4-0.3,0.6
			c-0.7,2.7-1.4,5.5-2.1,8.2c-1.3,5.4-2.6,10.9-3.8,16.3c-1.8,8.4-3.7,16.7-5.9,25c-2.5,9.7-5.1,19.4-7.2,29.2
			c-4.2,19.4-6.7,39.5-3.5,59.3c1.5,9.1,4.2,18.3,8.6,26.5c4.4,8.1,10.8,14.5,19,18.6c8,4.1,16.8,6.5,25.1,9.8
			c8.2,3.3,16.3,7.2,24.1,11.6c15.3,8.5,29.6,18.9,42.4,30.8c6.5,6,12.6,12.4,18.3,19.1c2.8,3.3,5.5,6.7,8.1,10.2
			c2.8,3.8,5.5,7.8,7,12.2c1.5,4.6,1.4,9.2-1,13.5c-2.1,3.8-5.3,6.8-8.5,9.6c-5.9,5-12.7,9-19.8,12.2c-14.8,6.6-30.9,9.7-46.6,13.1
			c-16,3.4-32.1,7.1-46.8,14.3c-17.4,8.5-32.1,22.8-51.4,27.1c-9.1,2-18.3,1.2-26.5-3.4c-7.9-4.5-14-11.4-20.6-17.6
			c-14.1-13.2-29.6-24.8-46.2-34.5c-14-8.2-29.5-14.1-42.7-23.8c-5.7-4.2-10.9-9.3-14.1-15.6c-3.9-7.6-4-16.2-1.5-24.2
			c2.5-8.4,7.3-16.1,12.6-23c0,0,0,0,0,0c0.1-0.1,0.2-0.3,0.3-0.4c0.2-0.2,0.3-0.5,0.5-0.7c5.2-6.5,11.1-12.4,17.6-17.6
			c13.1-10.5,28.8-17.8,45.2-21.2c15.4-3.1,31.7-3.3,46.4-9.2c7-2.8,13.4-6.9,18.1-12.8c5.4-6.8,8.3-15.1,9.6-23.6
			c1.4-8.9,1.4-17.9,1.6-26.9c0.2-9.6,0.4-19.2,0.6-28.8c0.4-18,0.7-36,1.1-54.1c0-0.6,0-1.1,0-1.7c0.1-2.9-4.4-2.9-4.5,0
			c0,0.9,0,1.9-0.1,2.8c-0.2,8.8-0.4,17.5-0.5,26.3c-0.4,18.5-0.7,36.9-1.1,55.4c-0.3,16.9,0.4,37.1-12.3,50.1
			c-11,11.3-28,13.3-42.8,15.4c-5.2,0.7-10.4,1.4-15.5,2.4c-1.6,0.3-3.2,0.6-4.7,1c-1.3,0.3-2.6,0.6-3.8,1
			c-8.1,2.2-15.9,5.4-23.3,9.4c-0.1,0.1-0.2,0.1-0.3,0.2c-0.8,0.4-1.6,0.9-2.4,1.3c-12.3,7.1-23.3,16.6-32.1,27.8
			c-1.1,1.4-2.1,2.8-3.2,4.2c-0.1,0.1-0.1,0.2-0.2,0.3C270.4,1277.8,262.8,1296.1,271.7,1312.9z"/>
		<g>
			<path class="st1" d="M273.8,1286c2.5-8.4,7.3-16.1,12.6-23c0,0,0,0,0,0c0.1-0.1,0.2-0.3,0.3-0.4c0.2-0.2,0.3-0.5,0.5-0.7
				c5.2-6.5,11.1-12.4,17.6-17.6c13.1-10.5,28.8-17.8,45.2-21.2c15.4-3.1,31.7-3.3,46.4-9.2c7-2.8,13.4-6.9,18.1-12.8
				c5.4-6.8,8.3-15.1,9.6-23.6c1.4-8.9,1.4-17.9,1.6-26.9c0.2-9.6,0.4-19.2,0.6-28.8c0.4-18,0.7-36,1.1-54.1
				c14.8-4,28.7-10.5,39.8-20.8c-1.3,5.4-2.6,10.9-3.8,16.3c-1.8,8.4-3.7,16.7-5.9,25c-2.5,9.7-5.1,19.4-7.2,29.2
				c-4.2,19.4-6.7,39.5-3.5,59.3c1.5,9.1,4.2,18.3,8.6,26.5c4.4,8.1,10.8,14.5,19,18.6c8,4.1,16.8,6.5,25.1,9.8
				c8.2,3.3,16.3,7.2,24.1,11.6c15.3,8.5,29.6,18.9,42.4,30.8c6.5,6,12.6,12.4,18.3,19.1c2.8,3.3,5.5,6.7,8.1,10.2
				c2.8,3.8,5.5,7.8,7,12.2c1.5,4.6,1.4,9.2-1,13.5c-2.1,3.8-5.3,6.8-8.5,9.6c-5.9,5-12.7,9-19.8,12.2c-14.8,6.6-30.9,9.7-46.6,13.1
				c-16,3.4-32.1,7.1-46.8,14.3c-17.4,8.5-32.1,22.8-51.4,27.1c-9.1,2-18.3,1.2-26.5-3.4c-7.9-4.5-14-11.4-20.6-17.6
				c-14.1-13.2-29.6-24.8-46.2-34.5c-14-8.2-29.5-14.1-42.7-23.8c-5.7-4.2-10.9-9.3-14.1-15.6C271.5,1302.6,271.4,1294.1,273.8,1286
				z M471.7,1258.3c3.7,2.9,7,6.2,10.2,9.6c10.6,11.3,21.1,25.7,37.8,27.6c1.9,0.2,1.9-2.8,0-3c-4.2-0.5-8.1-1.9-11.7-4
				c-6.7-3.9-12-9.7-17.2-15.3c-5.4-5.9-10.6-12-16.9-16.9C472.3,1255,470.1,1257.1,471.7,1258.3z M418.5,1346.6
				c0.5,0.5,1.6,0.6,2.1,0c3.8-4.9,7-10.1,9.5-15.7c9-19.7,10.2-42.9,2.5-63.2c-0.7-1.8-3.6-1-2.9,0.8c2.1,5.5,3.5,11.2,4.3,17
				c2.7,20.6-2.8,42.4-15.5,58.9C418,1345.2,417.9,1346,418.5,1346.6z M336.5,1281.2c6,0,12-0.1,18-0.7c9.6-1,19-3.6,26.7-9.6
				c6.7-5.2,11.6-12.8,12.1-21.4c0.1-1.9-2.9-1.9-3,0c-0.3,4.4-1.9,8.6-4.4,12.2c-11,15.8-32,16.4-49.4,16.5
				C334.6,1278.2,334.6,1281.2,336.5,1281.2z"/>
		</g>
	</g>
	<path d="M307.3,1228.2c38.8,1.5,68.8,28.7,72,59.3c4,39-37.3,66.4-67.3,72.7c-29.1,6.1-53-6.6-70.7-16c-15.7-8.3-65.4-34.7-62-68.7
		c3.1-30.8,48.3-50,79.3-53.3C279.1,1220,296.3,1224.3,307.3,1228.2z"/>
	<path d="M416.7,1327.5c-8.4,12.6-22.6,18.8-35.4,23.9c-7.7,3.1-15.4,5.9-23,9.4c-8.4,3.9-16.6,8.3-24.6,13.2
		c-8,4.9-15.7,10.3-23.2,16.2c-6.8,5.4-13.5,11.3-21.3,14.9c-17.5,8-34.8-1.5-48.1-13.3c-7.1-6.3-13.7-13.4-21.1-19.3
		c-6.1-4.9-12.8-8.8-19.7-12.2c-13.9-6.9-28.6-11.6-42.7-17.9c-13.6-6-26.9-13.6-37.1-25.5c-5.4-6.2-10.7-14.1-9.7-23.4
		c1-9.7,8.1-17.2,14.2-23.7c24-25.6,53.5-45,85.2-55.8c8.1-2.8,16.3-4.7,24.5-6.8c8.4-2.1,16.5-5.4,22.8-12.4
		c6.2-6.9,10.4-15.7,13.5-24.7c3.3-9.6,5.2-19.7,6.2-29.9c2-20.9,0-41.7-1.9-62.4c-1.6-17.5-2.1-35.2-3.8-52.7l0,0
		c0-0.1,0-0.3,0-0.4c-0.2-2.4,2.5-3.3,3.7-1.9c0,0,0,0,0,0c0.1,0.1,0.2,0.3,0.3,0.5c0,0,0,0,0,0c0.1,0.2,0.1,0.4,0.2,0.7
		c0.3,2.9,0.5,5.7,0.7,8.6c0.4,5.7,0.8,11.3,1.1,17c0.5,8.7,1,17.4,1.8,26.1c0.9,10.2,1.9,20.3,2.4,30.5c1,20.2,0.5,40.9-5.3,60.5
		c-2.7,9.1-6.4,18-11.7,25.7c-5.2,7.6-12,13.3-20.1,16.4c-7.9,3.1-16.3,4.4-24.4,6.7c-8,2.3-15.9,5.2-23.6,8.6
		c-15.2,6.7-29.7,15.3-43.2,25.7c-6.8,5.2-13.2,10.9-19.4,16.9c-3.1,3-6,6.1-8.9,9.3c-3.1,3.4-6.2,7.1-8.2,11.5
		c-2.1,4.4-2.6,9.2-1.1,13.8c1.4,4.1,3.9,7.6,6.4,10.8c4.7,5.9,10.3,10.8,16.4,14.9c12.5,8.6,26.8,13.8,40.7,19.3
		c14.1,5.6,28.3,11.3,40.7,20.5c14.7,10.8,26,27.2,43.1,34.1c8,3.2,16.6,3.6,24.7-0.1c7.8-3.6,14.4-9.7,21.3-15.1
		c14.7-11.5,30.6-21.3,47.2-29c14-6.5,29-10.5,42.4-18.6c5.8-3.5,11.3-8,15.1-14c4.6-7.2,5.9-15.8,4.8-24.3
		c-1.1-8.8-4.4-17.2-8.2-24.9c0,0,0,0,0-0.1c-0.1-0.1-0.2-0.3-0.2-0.4c-0.1-0.3-0.3-0.5-0.4-0.8c-3.8-7.3-8.3-14-13.5-20.1
		c-10.5-12.3-23.7-21.8-38.2-27.3c-13.6-5.2-28.4-7.4-41-15.4c-6-3.7-11.2-8.7-14.7-15.3c-4-7.6-5.4-16.4-5.4-25.2
		c0-9.2,1.3-18.3,2.4-27.4c1.2-9.7,2.4-19.5,3.6-29.2c2.3-18.3,4.5-36.6,6.8-54.9c0.1-0.6,0.1-1.1,0.2-1.7c0.4-2.9,4.5-2.3,4.1,0.6
		c-0.1,1-0.2,1.9-0.4,2.9c-1.1,8.9-2.2,17.8-3.3,26.7c-2.3,18.7-4.6,37.5-7,56.3c-2.1,17.2-5.7,37.5,4.1,52.3
		c8.4,12.8,23.6,17.1,36.9,21.2c4.6,1.4,9.3,2.8,13.8,4.5c1.4,0.5,2.8,1,4.2,1.6c1.1,0.5,2.2,1,3.4,1.5c7.1,3.3,13.7,7.6,19.9,12.5
		c0.1,0.1,0.2,0.1,0.2,0.2c0.7,0.5,1.3,1.1,2,1.7c10.2,8.8,18.9,19.8,25.4,32.3c0.8,1.5,1.6,3.1,2.3,4.6c0,0.1,0.1,0.2,0.2,0.3
		C422.9,1292.1,427.2,1311.7,416.7,1327.5z"/>
	<g>
		<path class="st1" d="M418.6,1300c-1.1-8.8-4.4-17.2-8.2-24.9c0,0,0,0,0-0.1c-0.1-0.1-0.2-0.3-0.2-0.4c-0.1-0.3-0.3-0.5-0.4-0.8
			c-3.8-7.3-8.3-14-13.5-20.1c-10.5-12.3-23.7-21.8-38.2-27.3c-13.6-5.2-28.4-7.4-41-15.4c-6-3.7-11.2-8.7-14.7-15.3
			c-4-7.6-5.4-16.4-5.4-25.2c0-9.2,1.3-18.3,2.4-27.4c1.2-9.7,2.4-19.5,3.6-29.2c2.3-18.3,4.5-36.6,6.8-54.9
			c-12.9-6-24.7-14.3-33.4-26.2c0.4,5.7,0.8,11.3,1.1,17c0.5,8.7,1,17.4,1.8,26.1c0.9,10.2,1.9,20.3,2.4,30.5
			c1,20.2,0.5,40.9-5.3,60.5c-2.7,9.1-6.4,18-11.7,25.7c-5.2,7.6-12,13.3-20.1,16.4c-7.9,3.1-16.3,4.4-24.4,6.7
			c-8,2.3-15.9,5.2-23.6,8.6c-15.2,6.7-29.7,15.3-43.2,25.7c-6.8,5.2-13.2,10.9-19.4,16.9c-3.1,3-6,6.1-8.9,9.3
			c-3.1,3.4-6.2,7.1-8.2,11.5c-2.1,4.4-2.6,9.2-1.1,13.8c1.4,4.1,3.9,7.6,6.4,10.8c4.7,5.9,10.3,10.8,16.4,14.9
			c12.5,8.6,26.8,13.8,40.7,19.3c14.1,5.6,28.3,11.3,40.7,20.5c14.7,10.8,26,27.2,43.1,34.1c8,3.2,16.6,3.6,24.7-0.1
			c7.8-3.6,14.4-9.7,21.3-15.1c14.7-11.5,30.6-21.3,47.2-29c14-6.5,29-10.5,42.4-18.6c5.8-3.5,11.3-8,15.1-14
			C418.4,1317.1,419.7,1308.4,418.6,1300z M242,1246.3c-3.8,2.4-7.3,5.3-10.6,8.4c-11.3,10.1-23,23.3-38.4,23.1
			c-1.8,0-1.3-3.1,0.4-3c3.9,0.1,7.7-0.9,11.3-2.5c6.7-3.1,12.4-8.2,17.9-13.3c5.7-5.3,11.4-10.8,17.8-14.9
			C241.9,1242.8,243.5,1245.3,242,1246.3z M277.8,1342.6c-0.6,0.5-1.6,0.4-1.9-0.3c-2.7-5.4-4.9-11.1-6.4-17.1
			c-5.3-21.1-3.1-44.7,6.8-64.3c0.9-1.7,3.4-0.6,2.5,1.2c-2.7,5.3-4.8,10.9-6.4,16.6c-5.5,20.5-3.6,43.3,5.7,61.7
			C278.4,1341.2,278.5,1342,277.8,1342.6z M362,1287c-5.5-0.8-11-1.7-16.3-3.1c-8.6-2.3-16.9-6.1-23-13.2c-5.4-6.2-8.8-14.4-8-23.2
			c0.2-2,2.9-1.6,2.7,0.4c-0.4,4.5,0.5,8.9,2.3,12.9c7.7,17.5,26.9,20.8,42.7,23.1C364.2,1284.2,363.8,1287.3,362,1287z"/>
	</g>
	<path d="M195.3,238.7c0.1,0.1,0.2,0.3,0.3,0.4c1.6,1.9,3.7,3.1,6.1,3.9c6.8,2.1,14.6,1.3,21.5,0.4c9.9-1.3,19.7-3.5,29.4-6
		c5.1-1.3,10.1-2.7,15.1-4.1c4.4-1.3,9-2.4,13.3-4.1c8.6-3.3,16.5-8.1,24.5-12.4c2.1-1.1,4.2-2.3,6.3-3.4c1.5-0.8,3-1.5,4.5-2.2
		c4.4-2.1,9-3.7,13.9-4.3c12.5-1.5,24.7,2.3,36.7,4.9c11.6,2.5,24.3,4.5,35.6,0c8.8-3.4,17-10.4,19.2-19.9
		c2.3-10.1-2.8-19.5-3.4-29.4c-0.2-4.6,1-8.6,4.6-11.7c0.2-0.2,0.4-0.3,0.6-0.5c0.1-0.1,0.2-0.1,0.2-0.2c1.7-1.4,3.6-2.6,5.1-4.1
		c1.6-1.6,3.1-3.4,4.2-5.3c0.4-0.6,0.8-1.3,1.1-2c3.7-7.4,4.2-16.5,1.2-24.2c-0.2-0.5-0.4-1.1-0.7-1.6c0,0,0,0,0,0
		c-3.6-7.8-10.6-13.3-19.1-15.2c-8.9-1.9-18.7,0-25.6,6.1c-1.8,1.6-3.5,3.7-5.3,5.6c-0.4,0.4-0.9,0.9-1.4,1.3
		c-1.2,1-2.6,1.9-4.2,2.3c-2.8,0.7-5.7,0.1-8.5-0.4c-3-0.6-6.1-1.3-9.1-2c-11.9-2.5-24.5-4.6-36.3-0.6c-2.7,0.9-5.3,2.1-8.1,2.7
		c-2.4,0.5-4.9,0-7.2-0.8c-4.9-1.7-9-5-13.9-6.8c-16-6.1-32.7,8.2-34.5,24c-0.3,2.3-0.2,4.6,0.2,6.8c1.6,8.9,7.5,15.9,15.1,20.2
		c5.6,3.2,12.1,4.9,18.4,4.8c2.6,0,5.2-0.4,7.7-1c2.5-0.7,1.8-4.1-0.3-4.4c-0.3,0-0.6,0-0.9,0.1c-3.7,1-7.6,1.2-11.4,0.7
		c-3.8-0.6-7.7-1.9-11.1-3.8c-0.2-0.1-0.4-0.2-0.6-0.3c-3.4-2-6.3-4.7-8.6-7.9c-2.2-3.2-3.8-6.9-4.1-10.8c-0.3-4.1,0.6-8.2,2.6-11.9
		c3.7-7,10.9-12.9,19.1-13.2c9.8-0.4,16.8,8.5,26.5,9.1h0c1.6,0.1,3.1-0.1,4.6-0.4c3.9-0.9,7.6-2.7,11.5-3.6
		c5.7-1.3,11.5-1.2,17.3-0.6c5.9,0.7,11.7,2,17.5,3.2c5.2,1.1,11,3,16.2,1.2c0.2-0.1,0.5-0.2,0.7-0.3c2-0.8,3.7-2.1,5.2-3.6
		c1.9-1.9,3.7-4,5.7-5.9c3.1-2.8,6.9-4.5,11-5.3c7.8-1.6,16.6,0.5,22.3,6.2c5.9,5.8,7.8,14.7,6.1,22.6c-0.4,1.9-1.1,3.9-1.9,5.7
		c-0.1,0.2-0.2,0.4-0.3,0.6c0,0,0,0,0,0c-0.8,1.6-1.8,3.1-3,4.4c-1.7,1.9-3.7,3.4-5.7,5c-1.9,1.5-3.7,3.1-5,5.2
		c-0.5,0.8-0.9,1.7-1.3,2.5c-3.1,7.8,0.3,16.9,1.9,24.7c0.9,4.4,1.4,9,0,13.4c-1.3,4.1-4.1,7.6-7.4,10.4c-7.9,6.6-18.4,8-28.4,7
		c-12.2-1.1-23.9-5.3-36.1-6.9c-5.9-0.8-11.9-1-17.9,0.1c-4.2,0.7-8.2,2.2-12.1,4c-8.2,3.8-16,8.5-24,12.7c-3.6,1.9-7.2,3.8-11,5.3
		c-4.1,1.6-8.4,2.7-12.6,3.9c-9.6,2.8-19.3,5.4-29.1,7.5c-8.4,1.8-16.9,3.4-25.5,3.6c-1.7,0-3.4,0-5-0.1c-1.5-0.1-2.4-0.2-4-0.6
		c-0.6-0.2-1.3-0.4-1.9-0.6c-0.1,0-0.1-0.1-0.2-0.1c0,0,0,0,0,0s0,0,0,0c0,0-0.1-0.1-0.2-0.1c-0.2-0.1-0.3-0.2-0.5-0.3
		c-0.1,0-0.1-0.1-0.2-0.1c-0.3-0.2-0.5-0.3-0.8-0.5c-0.1,0-0.1-0.1-0.2-0.1c0,0,0,0-0.1-0.1c-0.2-0.2-0.3-0.3-0.5-0.5
		c-0.1-0.1-0.2-0.3-0.3-0.4c0,0,0,0,0,0c-0.8-0.9-1.9-1.3-3-0.6C195.2,236.2,194.6,237.8,195.3,238.7z"/>
	<path d="M189.8,238.7c1.8,0.8,3.9,0.7,5.8,0.4c0.7-0.1,1.4-0.3,2.1-0.4c1.1-0.2,2.3-0.5,3.4-0.8c8.4-2,16.7-5,24.9-7.8
		c12.4-4.3,24.6-8.9,36.8-13.7c9.6-3.8,19.3-7.6,28.6-12.1c1.9-0.9,3.7-1.9,5.5-2.9c4.5-2.4,9.1-4.5,13.8-6.5c9.4-4,19.1-7.2,29-10
		c18.6-5.4,39.4-10.7,58.2-3.2c1.1,0.4,2.5-0.5,2.8-1.6c0.3-1.3-0.4-2.3-1.6-2.8c-4.5-1.8-9.2-2.9-14-3.4
		c-9.9-1.2-19.9,0.1-29.6,2.2c-9.9,2.1-19.6,5-29.2,8.2c-9.7,3.2-19.3,7-28.5,11.6c-4.2,2.1-8.3,4.4-12.6,6.3
		c-10,4.5-20.2,8.6-30.7,12.6c-12.1,4.6-24.2,9.1-36.5,13.2c-4.9,1.6-9.8,3.2-14.8,4.6c-1.9,0.5-3.8,1-5.6,1.4
		c-0.7,0.2-1.5,0.3-2.2,0.4c-0.2,0-0.4,0.1-0.6,0.1c-0.1,0-0.7,0.1-0.8,0.1c-0.5,0.1-1.1,0.1-1.6,0c-1.6-0.2-1.9-1.2-1.8-2.6
		c0.2-1.6,0.9-3.2,1.7-4.5c0.2-0.4,0.5-0.8,0.8-1.2c0.1-0.1,0.4-0.5,0.5-0.6c0.5-0.6,1.1-1.2,1.7-1.7c0.7-0.6,1.4-1.3,2.1-1.9
		c0.4-0.4,0.9-0.7,1.3-1.1c0.2-0.1,0.3-0.3,0.5-0.4c0,0,0,0,0,0l0,0c0.1-0.1,0.3-0.3,0.4-0.3c2-1.5,4-2.9,6-4.2
		c10.5-7,21.5-13,32.6-19c10.7-5.8,21.5-11.4,32.3-17.2c3.5-1.9,7-3.7,10.3-5.8c7.7-4.8,16.1-8.5,23.2-14.2c3.6-2.9,6.8-6.3,9.6-10
		c2.4-3.2,4.6-6.7,5.8-10.6c2.2-7.3,1.9-15.5-0.6-22.8c-0.3-1-0.8-2-1.2-3c-0.5-1.1-2.1-1.4-3.1-0.8c-1.1,0.7-1.3,2-0.8,3.1
		c0.2,0.4,0.3,0.7,0.5,1.1c1.5,3.6,2.1,7.5,2.2,11.3c0.1,3.9-0.5,7.8-1.9,11.5c-1.4,3.7-4,7.1-6.5,10c-1.6,1.9-3.4,3.7-5.2,5.3
		c-1.6,1.5-3.4,2.8-5.2,4c-0.7,0.5-1.5,1-2.2,1.4c-3.5,2.2-7.2,4.1-10.8,6.1c-4.2,2.3-8.2,5-12.4,7.3c-4.6,2.5-9.2,4.9-13.8,7.4
		c-11.6,6.1-23.2,12.2-34.6,18.6c-9.9,5.6-20,11.3-28.8,18.4c-3.5,2.8-6.5,6-8.1,10.3C185.5,232.3,185.8,236.9,189.8,238.7z"/>
	<path d="M384.1,138.6c1.4,3.2,3.4,6.1,5.9,8.5c6.6,6.3,16.3,8.9,25,6.8c3-0.7,5.9-1.9,8.4-3.8c0.1-0.1,0.2-0.1,0.2-0.2
		c0.8-0.7,1.2-1.8,0.6-2.9c-0.5-0.9-1.9-1.5-2.9-0.9c-0.1,0-0.1,0.1-0.1,0.1c-2.5,1.8-5.2,3-8.3,3.6c-10.1,2-20.5-3.8-24.7-13
		c0,0,0,0,0-0.1c-0.1-0.2-0.2-0.3-0.2-0.5c-0.1-0.1-0.1-0.2-0.2-0.3c-0.6-0.9-2.1-1-2.9-0.5C383.8,136.2,383.7,137.5,384.1,138.6z"
		/>
	<path d="M210.9,866.9c1.2,5.4,2.6,10.7,4,16c0.5,1.9,1.1,3.7,1.6,5.6c3.6,12.5,7.1,25,8.2,38.1c1.6,19.1-0.1,38.4,2.5,57.4
		c3,21.6,13.2,40.1,28.2,54.3c1.3,1.2,2.6,2.5,4,3.6c4.1,3.5,8.5,6.7,13.1,9.6c1.6,1,3.2,1.9,4.8,2.8c2.2,1.2,4.5,2.4,6.8,3.5
		c33.2,15.8,72.9,17.7,109.1,15.3c9.8-0.7,19.9-1.9,29.6-4.2c1.5-0.3,3-0.7,4.5-1.1c14.8-4,28.7-10.5,39.8-20.8
		c2.2-2.1,4.4-4.3,6.3-6.6l0,0c0.6-0.8,1.3-1.5,1.9-2.3c10.9-14.1,16.6-31.7,20.8-48.9c4.5-18.3,6.8-37.1,7.6-55.9
		c0.6-14.8,0.3-29.6-0.6-44.3c-0.2-3.9-0.5-7.8-0.8-11.7v0c-4.8-58.4-18.1-116.2-21.2-174.8c-1-19.8-0.8-39.7,1.1-59.5
		c2-20.9,5.5-41.6,7.1-62.6c0.6-7.9,0.8-15.9,1.1-23.8c0.1-2.7,0.2-5.4,0.4-8.1c0.6-10.1,1.8-20.1,4.6-29.9
		c5.2-17.7,14.5-33.9,19.4-51.7c0.2-0.7,0.4-1.4,0.6-2.1c0.1-0.3,0.2-0.6,0.2-0.9c4.8-19.3,5.4-39.5,6.1-59.3
		c0.8-21.7,1.2-43.5,1.2-65.2c-0.1-42.8-1.9-85.6-5.4-128.2c-4.9-59.3-14.3-134.4-77.5-159.7c-28.2-11.3-63-12.9-92.4-5.1
		c-25.6,6.8-47.2,23-55.9,48.5c-0.2,0.6-0.4,1.2-0.6,1.8c-0.9,2.8,3.5,3.9,4.3,1.2c0.2-0.8,0.5-1.5,0.8-2.3
		c4.3-12.2,11.9-22.9,22.3-30.7c22.4-16.9,52.9-20.1,80-18c18,1.4,36.1,5.5,51.9,14.5c13.4,7.6,24.5,18.7,32.9,31.7
		c16.6,25.7,23,56.9,26.7,86.9c4.7,38.9,6.6,78.4,7.7,117.6c1.2,41.2,0.9,82.6-1.3,123.8c-0.8,14.7-2.3,29.1-5.9,43.2
		c-0.6,2.2-1.2,4.4-1.9,6.6c-0.9,2.8-1.8,5.6-2.9,8.3c-6.9,17.8-15.4,34.6-18.1,53.7c-2.7,19.2-2,38.8-4,58.1
		c-2.1,20.2-5.4,40.3-6.9,60.6c-2.8,37.3,0.8,74.7,5.8,111.7c9.9,73.6,26.9,149.8,9.2,223.5c-4.3,17.8-10.1,36.3-22.1,50.5
		c0,0,0,0,0,0c0,0-0.1,0.1-0.1,0.1c-0.1,0.1-0.2,0.2-0.3,0.3c0,0,0,0,0,0c-10.1,11.7-23.8,19.4-38.4,23.9c-15.5,4.9-31.8,6.6-48,7.1
		c-18.6,0.5-37.4-0.1-55.8-3c-33.7-5.4-68-20.9-85.7-51.6c-9.5-16.6-11.3-35.4-11.6-54.2c-0.3-18.8-0.1-37.3-4.5-55.7
		c-4.7-19.3-11.1-37.8-13.6-57.6c-2.4-18.9-2.5-38-0.8-57c3.3-38.9,13.7-76.9,26.5-113.7c12.8-36.6,27.8-72.4,40.9-108.9
		c13.3-37,23.8-74.7,29.1-113.8c0.4-2.8,0.7-5.5,1.1-8.3c0.2-1.8,0.4-3.6,0.6-5.4c3.9-35.1,4.9-70.5,5.4-105.8
		c0.6-40.9,1.1-81.9,1.6-122.8c0-0.1,0-0.1,0-0.2c-0.1-2.7-4.4-2.6-4.5,0.2c0,0.7,0,1.4,0,2.1c-0.3,20.1-0.5,40.3-0.8,60.5
		c-1.1,83.4,0.8,168-22.6,248.9c-1.7,5.7-3.4,11.4-5.2,17.1c-0.6,1.9-1.2,3.8-1.8,5.6c-22.6,68.7-55.2,134.1-69.1,205.5
		C204.8,789.1,202.7,828.7,210.9,866.9z"/>
	<g>
		<g>
			<path d="M344.2,4.5c2.9,0,2.9-4.5,0-4.5C341.3,0,341.3,4.5,344.2,4.5L344.2,4.5z"/>
		</g>
	</g>
	<path d="M305.4,442.3c1,1.1,2.1,2.1,3.3,3c0.4,0.3,0.8,0.6,1.2,0.9c7.4,4.9,17.7,7.3,26.4,5.1c4.8-1.2,8.7-4.4,12.1-7.8
		c3.9-4,7.1-8.7,10-13.5c6.9-11.3,13.3-22.9,19.9-34.4c3.1-5.4,6.2-10.9,9.5-16.2c2.9-4.6,6.2-9.1,10.7-12.2
		c16.5-11.6,38.5,1,47.8,16c6.2,9.9,9.4,21.3,12,32.6c2.7,11.2,4.7,22.7,9.2,33.3c4.1,9.6,10.7,18.5,20.8,22.3
		c6.5,2.5,14.2,2.7,20.5-0.3c2.3-1.1,4.3-2.5,6.1-4.4c0.6-0.7,0.7-1.4,0.6-2.1c-0.4-1.5-2.4-2.6-3.7-1.1c-0.3,0.4-0.7,0.7-1,1.1
		c-1.2,1.1-2.5,2-4,2.7c-7.9,3.7-18.1,1-24.4-4.5c-8.1-7.1-12-17.6-14.8-27.8c-3-11.1-5-22.5-8.4-33.6c-3.2-10.4-7.8-21-15.6-28.9
		c-6.7-6.9-15.6-12.2-25.1-13.7c-4.6-0.7-9.3-0.7-13.9,0.6c-4.9,1.4-9.3,4.2-12.9,7.8c-4,3.9-7,8.7-9.8,13.5
		c-3.3,5.6-6.5,11.2-9.7,16.8c-3.4,5.8-6.7,11.6-10,17.4c-3,5.3-6,10.6-9.3,15.7c-3,4.6-6.3,9-10.5,12.5c-3.2,2.7-6.5,4.3-10.8,4.5
		c-4.4,0.2-8.8-0.6-13-2c-3.4-1.2-6.7-3-9.2-5.6c-0.3-0.2-0.5-0.5-0.7-0.8C306.7,437,303.5,440.1,305.4,442.3z"/>
	<g>
		<path class="st1" d="M192.4,234.8c0.5,0.1,1.1,0,1.6,0c0.2,0,0.7-0.1,0.8-0.1c0.2,0,0.4-0.1,0.6-0.1c0.7-0.1,1.5-0.3,2.2-0.4
			c1.9-0.4,3.8-0.9,5.6-1.4c5-1.4,9.9-3,14.8-4.6c12.3-4.1,24.4-8.6,36.5-13.2c10.5-4,20.7-8.1,30.7-12.6c4.3-1.9,8.4-4.2,12.6-6.3
			c9.2-4.6,18.8-8.3,28.5-11.6c9.6-3.2,19.3-6.1,29.2-8.2c9.7-2.1,19.7-3.4,29.6-2.2c4.8,0.6,9.5,1.6,14,3.4
			c1.1,0.4,1.9,1.5,1.6,2.8c-0.3,1.1-1.6,2-2.8,1.6c-18.9-7.5-39.6-2.2-58.2,3.2c-9.8,2.9-19.5,6.1-29,10c-4.7,2-9.3,4.2-13.8,6.5
			c-1.8,1-3.6,2-5.5,2.9c-9.3,4.5-19,8.3-28.6,12.1c-12.2,4.8-24.4,9.4-36.8,13.7c-8.2,2.8-16.4,5.8-24.9,7.8
			c0.2,0.1,0.3,0.2,0.5,0.3c0.1,0,0.2,0.1,0.2,0.1c0,0,0,0,0,0s0,0,0,0c0,0,0.1,0,0.2,0.1c0.6,0.2,1.2,0.4,1.9,0.6
			c1.6,0.4,2.5,0.5,4,0.6c1.7,0.1,3.4,0.2,5,0.1c8.6-0.2,17.1-1.8,25.5-3.6c9.8-2.1,19.5-4.7,29.1-7.5c4.2-1.2,8.5-2.3,12.6-3.9
			c3.8-1.5,7.4-3.4,11-5.3c8-4.2,15.8-8.9,24-12.7c3.9-1.8,7.9-3.3,12.1-4c5.9-1,11.9-0.9,17.9-0.1c12.1,1.6,23.8,5.8,36.1,6.9
			c10,0.9,20.5-0.4,28.4-7c3.3-2.8,6.1-6.3,7.4-10.4c1.4-4.4,0.9-9,0-13.4c-1.6-7.8-5-16.9-1.9-24.7c-8.7,2.1-18.4-0.5-25-6.8
			c-2.5-2.4-4.6-5.3-5.9-8.5c-3.8-6.5-4.5-14.5-2.8-21.8c-5.2,1.8-11,0-16.2-1.2c-5.8-1.3-11.6-2.6-17.5-3.2
			c-5.7-0.6-11.6-0.7-17.3,0.6c-3.9,0.9-7.6,2.8-11.5,3.6c2.6,7.2,2.8,15.4,0.6,22.8c-1.2,3.9-3.4,7.4-5.8,10.6
			c-2.8,3.7-6,7.1-9.6,10c-7.1,5.7-15.5,9.4-23.2,14.2c-3.4,2.1-6.9,4-10.3,5.8c-10.7,5.8-21.6,11.4-32.3,17.2
			c-11.1,6-22.1,12-32.6,19c-2,1.4-4.1,2.8-6,4.2c-0.1,0-0.3,0.2-0.4,0.3l0,0c0,0,0,0,0,0c-0.2,0.1-0.3,0.3-0.5,0.4
			c-0.4,0.3-0.9,0.7-1.3,1.1c-0.7,0.6-1.4,1.2-2.1,1.9c-0.6,0.6-1.1,1.1-1.7,1.7c-0.1,0.1-0.4,0.5-0.5,0.6c-0.3,0.4-0.6,0.8-0.8,1.2
			c-0.8,1.4-1.6,2.9-1.7,4.5C190.5,233.6,190.9,234.6,192.4,234.8z"/>
	</g>
	<path d="M384.1,138.6c1.4,2.3,4.8,0.5,4.1-1.7c0,0,0,0,0-0.1c-0.1-0.2-0.2-0.3-0.2-0.5c-0.1-0.1-0.1-0.2-0.2-0.3
		c-3.9-6.8-3.7-16-0.7-23.1c0.1-0.2,0.1-0.3,0.2-0.5c0.5-1.1,0.3-2.4-0.8-3.1c-0.5-0.3-1.2-0.4-1.8-0.2c-0.5,0.2-1,0.5-1.2,1
		c0,0.1-0.1,0.2-0.1,0.3c-0.9,2-1.6,4.2-2.1,6.4C379.7,124.2,380.3,132.2,384.1,138.6z"/>
	<g>
		<path class="st2" d="M437.4,105.5c3.4,8.5,3.7,18.5,0.1,27c-0.9,2.1-1.9,4.1-3.2,6c-0.3,0.7-0.7,1.4-1.1,2
			c-1.2,1.9-2.6,3.8-4.2,5.3c-1.6,1.5-3.4,2.8-5.1,4.1c-0.1,0.1-0.2,0.1-0.2,0.2c-0.2,0.2-0.4,0.3-0.6,0.5
			c-3.6,3.1-4.8,7.1-4.6,11.7c0.5,9.9,5.7,19.4,3.4,29.4c-2.2,9.5-10.4,16.4-19.2,19.9c-11.3,4.5-24.1,2.5-35.6,0
			c-12-2.6-24.3-6.4-36.7-4.9c-4.8,0.6-9.4,2.2-13.9,4.3c0,0.1,0,0.1,0,0.2c-0.5,40.9-1,81.9-1.6,122.8
			c-0.5,35.3-1.5,70.7-5.4,105.8c2.6,2.6,5.9,4.3,9.2,5.6c4.1,1.5,8.6,2.3,13,2c4.2-0.2,7.6-1.8,10.8-4.5c4.2-3.5,7.6-7.9,10.5-12.5
			c3.3-5.1,6.2-10.4,9.3-15.7c3.4-5.8,6.7-11.6,10-17.4c3.2-5.6,6.4-11.2,9.7-16.8c2.8-4.8,5.9-9.6,9.8-13.5c3.6-3.6,8-6.4,12.9-7.8
			c4.5-1.3,9.3-1.4,13.9-0.6c9.5,1.5,18.5,6.8,25.1,13.7c7.7,7.9,12.3,18.4,15.6,28.9c3.4,11,5.4,22.4,8.4,33.6
			c2.7,10.2,6.6,20.7,14.8,27.8c6.3,5.6,16.5,8.2,24.4,4.5c1.5-0.7,2.8-1.6,4-2.7c3.6-14.1,5.1-28.5,5.9-43.2
			c2.2-41.2,2.4-82.6,1.3-123.8c-1.1-39.2-3-78.6-7.7-117.6c-3.7-30-10.1-61.2-26.7-86.9c-8.3-13-19.4-24.1-32.9-31.7
			c-15.8-9-34-13-51.9-14.5c-27.2-2.2-57.6,1.1-80,18c-10.4,7.9-18,18.5-22.3,30.7c3.6,0.7,7.3,1.7,10.8,2.7
			c5.5,1.5,10.9,2.4,16.6,2.5c5.6,0.1,11.1-0.3,16.7-0.7c5.6-0.4,11.2-0.8,16.9-0.6c2.9,0.1,5.8,0.4,8.6,0.9
			c2.7,0.5,5.4,1.3,8.2,1.5c4.7,0.3,8.1-1.9,11.4-5c3.2-3,6.3-6.4,10.3-8.5c7.3-3.8,16.3-3.9,23.9-0.9c3.9,1.5,7.5,3.8,10.5,6.8
			C433.4,97.4,435.7,101.4,437.4,105.5z"/>
	</g>
	<g>
		<path class="st1" d="M261.7,128.8c1.8-15.8,18.5-30.1,34.5-24c4.8,1.8,9,5.1,13.9,6.8c2.3,0.8,4.8,1.2,7.2,0.8
			c2.8-0.5,5.4-1.8,8.1-2.7c11.8-4,24.5-1.9,36.3,0.6c3,0.6,6.1,1.3,9.1,2c2.7,0.6,5.7,1.2,8.5,0.4c1.6-0.4,2.9-1.3,4.2-2.3
			c0-0.1,0.1-0.2,0.1-0.3c0.2-0.5,0.7-0.8,1.2-1c1.8-1.8,3.5-4,5.3-5.6c7-6,16.7-8,25.6-6.1c8.5,1.8,15.5,7.4,19.1,15.2
			c-1.5-7.9-6-15.2-13.1-19.3c-6.4-3.7-14.3-4.7-21.3-2.2c-7.8,2.8-11.8,11-19.4,14.1c-5.1,2-10.2,0.5-15.3-0.5
			c-5.2-0.9-10.5-1-15.7-0.8c-10.6,0.4-21.3,2-31.9,0.9c-5.3-0.5-10.4-1.9-15.6-3.3c-5-1.4-10.1-2.7-15.4-2.7
			c-8,0.1-15.6,4.2-20.4,10.5C262.5,115.1,260.9,121.9,261.7,128.8z"/>
	</g>
	<path d="M277,155.9c0.1,0,0.2,0.1,0.3,0.1c2.5,0.7,3.7-2.6,2.1-3.9c-0.2-0.2-0.4-0.3-0.6-0.3c-0.1,0-0.2-0.1-0.2-0.1
		c-1.7-0.5-3.3-1.2-4.8-2.1c-6.4-3.9-10.2-11.1-11.6-18.3c-0.2-0.8-0.3-1.6-0.4-2.4c-0.8-6.9,0.8-13.7,5.1-19.4
		c4.9-6.3,12.4-10.5,20.4-10.5c5.2,0,10.3,1.3,15.4,2.7c5.1,1.4,10.2,2.7,15.6,3.3c10.6,1.1,21.3-0.6,31.9-0.9
		c5.2-0.2,10.5-0.1,15.7,0.8c5.1,0.9,10.2,2.5,15.3,0.5c7.6-3.1,11.6-11.3,19.4-14.1c7-2.5,14.9-1.5,21.3,2.2
		c7.1,4.1,11.6,11.4,13.1,19.3c0,0,0,0,0,0c1.6,8.1,0.2,16.8-4.5,23.5c0,0,0,0.1-0.1,0.1c-0.1,0.1-0.2,0.3-0.2,0.5c0,0,0,0,0,0
		c-0.3,0.9,0.2,2.1,1.1,2.6c1.1,0.7,2.4,0.2,3.1-0.8c0,0,0-0.1,0.1-0.1c1.3-1.9,2.3-3.9,3.2-6c3.5-8.5,3.3-18.5-0.1-27
		c-1.7-4.1-4-8.1-7.1-11.3c-3-3-6.6-5.3-10.5-6.8c-7.6-3-16.6-3-23.9,0.9c-4,2.1-7,5.4-10.3,8.5c-3.3,3.1-6.7,5.3-11.4,5
		c-2.8-0.2-5.5-1-8.2-1.5c-2.8-0.5-5.7-0.8-8.6-0.9c-5.6-0.2-11.3,0.2-16.9,0.6c-5.5,0.4-11.1,0.8-16.7,0.7
		c-5.7-0.1-11.1-1-16.6-2.5c-3.6-0.9-7.2-2-10.8-2.7c-1.5-0.3-3-0.6-4.5-0.7c-5-0.6-10-0.4-14.9,1.5c-8.3,3.2-14.9,9.8-18.2,18.1
		C253,129.5,260.8,151.1,277,155.9z"/>
	<g>
		<path class="st3" d="M481.3,702.3c3.1,58.6,16.4,116.4,21.2,174.8v0c11.5,23.5,24.7,46.2,34.4,70.6c2.6,6.5,4.9,13.2,6.9,19.9
			c4.7-0.6,7.8-4.6,9.9-8.8c2.8-5.7,3.9-12,5.1-18.2c2.8-14.3,4.9-28.8,6.4-43.3c3-29,3.6-58.2,1.9-87.4c-1.7-29.3-5.8-58.5-12-87.2
			c-6.2-28.8-14.7-57.1-25.2-84.6c-10.4-27.2-23-53.7-37.5-78.9c-0.6-1-1.2-2-1.7-3c-0.3,7.9-0.5,15.9-1.1,23.8
			c-1.6,20.9-5.1,41.7-7.1,62.6C480.5,662.5,480.3,682.4,481.3,702.3z"/>
	</g>
	<path d="M486.8,549.9c1.3,2.1,2.5,4.3,3.8,6.4c0.6,1,1.2,2,1.7,3c14.5,25.3,27.1,51.7,37.5,78.9c10.5,27.5,19,55.8,25.2,84.6
		c6.2,28.7,10.3,57.9,12,87.2c1.7,29.1,1.2,58.4-1.9,87.4c-1.5,14.5-3.7,28.9-6.4,43.3c-1.2,6.1-2.2,12.5-5.1,18.2
		c-2.1,4.2-5.2,8.2-9.9,8.8c-2-6.8-4.3-13.4-6.9-19.9c-9.6-24.4-22.8-47.1-34.4-70.6v0c-0.1-0.2-0.2-0.3-0.3-0.5
		c-1.3-2.6-5.2-0.3-3.9,2.3c1.6,3.3,3.3,6.7,5,10c1.7,3.4,3.5,6.8,5.2,10.2c12,23.2,24.1,46.3,31.3,71.5c0.3,1,1.2,1.6,2.2,1.7
		c2.7,0.1,5.4-0.5,7.7-1.9c4.9-3,7.7-8.4,9.6-13.6c2.3-6.3,3.3-13.1,4.5-19.7c2.7-14.6,4.7-29.4,6.1-44.2c2.8-29.9,3.1-60,0.9-89.9
		c-2.1-29.9-6.7-59.7-13.4-88.9c-6.8-29.4-15.9-58.2-27.1-86.2c-11.1-27.5-24.3-54.2-39.5-79.6c-0.1-0.2-0.2-0.4-0.3-0.5
		C489.2,545.2,485.3,547.5,486.8,549.9z"/>
	<g>
		<path class="st3" d="M177.7,920.2c7.1,4.5,11.9-3.4,15.5-8.4c4.5-6.4,9.5-12.5,14.3-18.7c2.6-3.3,5.1-6.7,7.5-10.2
			c-1.5-5.3-2.9-10.6-4-16c-8.2-38.2-6.1-77.8,1.4-115.9c13.9-71.4,46.5-136.8,69.1-205.5c-24.6,10.9-42.4,33-54.9,56.2
			c-14.6,27.1-23.2,56.9-28.7,87.1c-5.6,30.8-8,62.1-10.3,93.2c-2.4,31.3-4.7,62.8-10,93.8c-1.3,7.8-3,15.6-4.6,23.4
			C171.4,906.3,170.5,915.6,177.7,920.2z"/>
	</g>
	<path d="M170.9,919.9c4.2,5.6,11.8,8.3,17.9,3.9c3-2.1,5.1-5.2,7.1-8.2c2.4-3.5,5-7,7.7-10.4c4.3-5.5,8.8-11,12.9-16.7
		c0.8-1.1,1.6-2.2,2.3-3.3c1.6-2.4-2.3-4.6-3.9-2.3c0,0,0,0,0,0c-2.4,3.5-4.9,6.9-7.5,10.2c-4.8,6.2-9.8,12.2-14.3,18.7
		c-3.5,5-8.3,13-15.5,8.4c-7.2-4.5-6.2-13.9-4.8-21c1.6-7.8,3.3-15.5,4.6-23.4c5.3-31,7.6-62.4,10-93.8c2.4-31.2,4.7-62.4,10.3-93.2
		c5.5-30.1,14.2-60,28.7-87.1c12.5-23.2,30.3-45.3,54.9-56.2c1.2-0.6,2.5-1.1,3.8-1.6c2.7-1,1.5-5.4-1.2-4.3
		c-0.2,0.1-0.5,0.2-0.7,0.3c-3,1.2-6,2.5-8.9,4c-26.4,13.8-44.4,39.4-56.9,65.7c-13.8,29-21.6,60.4-26.4,92.1
		c-4.9,32.3-6.9,64.9-9.5,97.5c-2.6,32.7-5.9,65.3-12.8,97.4C167.2,904.2,165.8,913.1,170.9,919.9z"/>
	<g>
		<path class="st4" d="M387.2,113c1.9-1.9,3.7-4,5.7-5.9c3.1-2.8,6.9-4.5,11-5.3c7.8-1.6,16.6,0.5,22.3,6.2
			c5.9,5.8,7.8,14.7,6.1,22.6c-0.4,1.9-1.1,3.9-1.9,5.7c0,0,0,0.1-0.1,0.1c-0.1,0.1-0.2,0.3-0.2,0.5c0,0,0,0,0,0
			c-0.8,1.6-1.8,3.1-3,4.4c-1.7,1.9-3.7,3.4-5.7,5c-0.1,0-0.1,0.1-0.1,0.1c-2.5,1.8-5.2,3-8.3,3.6c-10.1,2-20.5-3.8-24.7-13
			c0,0,0,0,0-0.1c-0.1-0.2-0.2-0.3-0.2-0.5c-0.1-0.1-0.1-0.2-0.2-0.3C384,129.3,384.2,120.1,387.2,113z M408.4,134.4
			c4.8,0,8.7-3.9,8.7-8.7c0-4.8-3.9-8.7-8.7-8.7c-4.8,0-8.7,3.9-8.7,8.7C399.7,130.5,403.6,134.4,408.4,134.4z"/>
	</g>
	<path d="M399.7,125.7c0,4.8,3.9,8.7,8.7,8.7c4.8,0,8.7-3.9,8.7-8.7c0-4.8-3.9-8.7-8.7-8.7C403.6,117,399.7,120.9,399.7,125.7z"/>
	<g>
		<path class="st4" d="M268.6,121.2c3.7-7,10.9-12.9,19.1-13.2c9.8-0.4,16.8,8.5,26.5,9.1h0c1.5,3.6,2.1,7.5,2.2,11.3
			c0.1,3.9-0.5,7.8-1.9,11.5c-1.4,3.7-4,7.1-6.5,10c-1.6,1.9-3.4,3.7-5.2,5.3c-0.3,0-0.6,0-0.9,0.1c-3.7,1-7.6,1.2-11.4,0.7
			c-3.8-0.6-7.7-1.9-11.1-3.8c-0.2-0.2-0.4-0.3-0.6-0.3c-3.4-2-6.3-4.7-8.6-7.9c-2.2-3.2-3.8-6.9-4.1-10.8
			C265.8,128.9,266.7,124.8,268.6,121.2z M290.8,140.8c4.8,0,8.7-3.9,8.7-8.7c0-4.8-3.9-8.7-8.7-8.7c-4.8,0-8.7,3.9-8.7,8.7
			C282.1,136.9,286,140.8,290.8,140.8z"/>
	</g>
	<path d="M282.1,132.1c0,4.8,3.9,8.7,8.7,8.7c4.8,0,8.7-3.9,8.7-8.7c0-4.8-3.9-8.7-8.7-8.7C286,123.4,282.1,127.3,282.1,132.1z"/>
	<g>
		<path class="st5" d="M212,846.9c2.5,19.8,8.9,38.3,13.6,57.6c4.4,18.4,4.2,36.9,4.5,55.7c0.3,18.7,2.1,37.6,11.6,54.2
			c17.6,30.7,52,46.2,85.7,51.6c18.4,3,37.2,3.5,55.8,3c16.2-0.5,32.5-2.2,48-7.1c14.6-4.6,28.3-12.3,38.4-23.9c0,0,0,0,0,0
			c0.1-0.2,0.2-0.3,0.4-0.5c0,0,0,0,0,0c12-14.2,17.8-32.7,22.1-50.5c17.7-73.8,0.7-150-9.2-223.5c-5-37-8.6-74.4-5.8-111.7
			c1.5-20.3,4.8-40.4,6.9-60.6c2-19.3,1.3-38.9,4-58.1c2.7-19.1,11.2-35.9,18.1-53.7c1.1-2.8,2-5.5,2.9-8.3c-6.3,3-14,2.8-20.5,0.3
			c-10-3.8-16.7-12.7-20.8-22.3c-4.5-10.6-6.6-22.1-9.2-33.3c-2.7-11.3-5.8-22.7-12-32.6c-9.3-15-31.2-27.5-47.8-16
			c-4.5,3.1-7.8,7.7-10.7,12.2c-3.3,5.3-6.4,10.8-9.5,16.2c-6.6,11.5-13,23.1-19.9,34.4c-2.9,4.8-6.1,9.5-10,13.5
			c-3.4,3.4-7.4,6.7-12.1,7.8c-8.7,2.1-19-0.2-26.4-5.1c-0.4-0.3-0.8-0.6-1.2-0.9c-0.3,2.8-0.7,5.5-1.1,8.3
			c-5.3,39-15.8,76.7-29.1,113.8c-13.1,36.5-28.1,72.3-40.9,108.9c-12.8,36.8-23.2,74.8-26.5,113.7C209.6,808.9,209.6,828,212,846.9
			z"/>
	</g>
</g>
</svg>
