<?xml version="1.0" encoding="utf-8"?>
<!-- Generator: Adobe Illustrator 27.9.2, SVG Export Plug-In . SVG Version: 6.00 Build 0)  -->
<svg version="1.1" xmlns="http://www.w3.org/2000/svg" xmlns:xlink="http://www.w3.org/1999/xlink" x="0px" y="0px"
	 viewBox="0 0 942.7 816.2" style="enable-background:new 0 0 942.7 816.2;" xml:space="preserve">
<style type="text/css">
	.st0{fill:#FFFCF5;}
	.st1{fill:#915539;}
	.st2{fill:#EFEFEF;}
	.st3{fill:#3AE5FF;}
	.st4{fill:#FFFFFF;}
	.st5{fill:#209959;}
	.st6{fill:#1EA6B2;}
	.st7{fill:#21C171;}
</style>
<g id="Calque_6">
</g>
<g id="Calque_5">
	<path d="M612.2,173.9c-1.2,2.2-3.3,5.4-2.4,8.1c0.9,2.7,4.6,2.6,6.9,2.7c6.9,0.1,13.8,0.2,20.7,0.3c1.2,0,2.1,1.7,1.1,2.6
		c-4.7,4.1-9.3,8.4-13.6,13c-3.7,3.9-7.3,8-10.7,12.2c-1.5,1.9-3,3.8-4,6c-0.7,1.6-1.5,3.9-0.6,5.6c1.1,2.3,4.1,2,6.2,1.7
		c2.9-0.4,5.8-0.9,8.7-1.4c6-1,11.9-1.9,17.8-2.9c1.5-0.2,2.4,1.3,1.5,2.5c-3.9,5-8.5,9.5-13.3,13.7c-4.8,4.2-10,8.3-15.1,12.5
		c-1,0.8-2,1.6-2.9,2.4c-4.4,3.7-8.6,7.5-12.4,11.6c-0.9,0.9-1.7,1.9-2.5,2.9c-1.9,2.3-3.7,4.7-5.2,7.2c-0.6,1.1-1.3,2.1-1.8,3.2
		c-1.2,2.2-2.1,4.5-2.9,6.9c5.8,0.2,11.5-0.9,16.8-3.4c1.7-0.8,3.3,1.7,1.5,2.6c-5,2.4-10,4.9-14.9,7.4c-16.6,8.6-33,18.9-44.1,34.3
		c4,1.8,8.2,2.7,12.7,2.6c1.2,0,2.1,1.7,1.1,2.6c-6.7,5.5-13.4,10.9-20.2,16.4c-1.1,0.9-2.3,1.9-3.4,2.8c-4.6,3.7-9.1,7.4-13.7,11.1
		c-1.5,1.2-3.6-0.9-2.1-2.1c5.3-4.3,10.5-8.5,15.8-12.8c1.1-0.9,2.3-1.9,3.4-2.8c5-4.1,10.1-8.2,15.1-12.3c-4.1-0.4-8-1.6-11.6-3.6
		c-0.7-0.4-1-1.4-0.5-2.1c3.2-4.6,6.8-8.9,10.8-12.8c10.9-10.5,24-18.2,37.5-25.1c-2,0.2-4,0.2-6.1,0c-0.9-0.1-1.7-0.9-1.5-1.9
		c0.9-3,2-5.9,3.4-8.6c0.6-1.1,1.2-2.2,1.8-3.2c0.9-1.6,2-3.1,3.1-4.6c0.7-1,1.5-1.9,2.2-2.9c0.8-1,1.6-2,2.5-2.9
		c3.9-4.4,8.2-8.3,12.7-12.1c1-0.8,1.9-1.6,2.9-2.4c9.1-7.5,18.6-14.7,26.4-23.6c-6.3,1-12.5,2-18.8,3c-4.5,0.7-11.4,2.5-13.6-3.2
		c-1.6-4.2,1.2-9.1,3.7-12.3c7-9,14.8-17.3,23.2-24.9c-2.9,0-5.8-0.1-8.7-0.1c-3.7-0.1-7.5,0.2-11.1-0.3c-2.7-0.3-5.4-1.4-6.6-4
		c-1.2-2.9-0.1-6.2,1.2-8.8c5.5-11,14.2-20.1,22.9-28.6c2.2-2.2,4.4-4.3,6.6-6.4c2.1-2,4.6-4,6.2-6.3c0.6-0.9,1.6-2.4,1.1-3.5
		c-0.6-1.4-2.8-0.8-3.9-0.7c-3.6,0.5-7.1,1.1-10.7,1.7s-7.1,1.1-10.7,1.7c-3.1,0.5-6.2,1.2-9.3,1c-5.3-0.2-9.5-3.6-9.6-9.1
		c-0.1-5.8,3.5-11,6.5-15.6c2.8-4.3,5.9-8.4,9.1-12.4c-6.7,1.8-13.4,3.5-20.1,5.3c-4.9,1.3-12.6,4.4-16.1-1.1
		c-2.9-4.7-0.5-11.7,0.8-16.5c2.9-11.2,7.6-21.9,13.8-31.6c-5.3,2.5-10.3,5.8-15.6,8.3c-5.4,2.6-11.2,4.4-17.3,3.4
		c-5.9-1-10.6-4.8-14-9.6c-7.7-10.9-6.9-24.7-10.6-37.1c-4.3,6.5-9.2,12.5-14.7,18c-5.4,5.4-11.5,10.4-18.1,14.3
		c-6.4,3.8-14.3,6.7-21.7,4.3c-7-2.3-11.8-8.6-15.9-14.5c-4.1-5.8-7.7-12-10.8-18.4c-1.9,6.8-4.2,13.7-7.9,19.8
		C441.5,52,428,60.1,415.1,54.2c-11.8-5.4-16.5-17.9-19.5-29.8c-2.1,7.2-4.3,14.4-6.4,21.7c-2,6.8-3.6,13.9-6.5,20.4
		c-2.3,5.4-6.2,10.3-12.1,11.9c-6.1,1.7-12.9-0.2-18-3.8c-4.6-3.2-8.2-7.7-11.5-12.2c-0.8,7.4,0.8,14.8,2.6,22
		c1.9,7.5,4,14.9,4.4,22.6c0.3,6.1-0.7,12.8-4.8,17.6c-4.9,5.9-12.4,5.1-18.8,2.4c-5.5-2.3-10.7-5.5-15.2-9.4
		c1.7,7.1,4.5,13.8,8,20.3c3.8,7.1,8.3,13.8,12.7,20.5c4.3,6.6,8.9,13.2,12.3,20.3c2.8,5.8,4.3,14.5-3,17.8c-4.4,2-9.6,0.5-14-1.7
		c10.6,21.1,21.1,42.1,31.7,63.2c0.5,1-0.1,2.2-1.3,2.2c-6.1,0.3-12,1.8-17.5,4.3c12.1,10.6,23.6,21.8,34.4,33.7
		c1.1,1.2,2.2,2.5,3.3,3.7c5.5,6.2,10.9,12.6,16.1,19.1c1.2,1.5-0.9,3.6-2.1,2.1c-4.6-5.8-9.3-11.4-14.2-16.9
		c-1.1-1.3-2.2-2.5-3.4-3.8c-11.9-13.2-24.5-25.6-37.9-37.2c-0.7-0.6-0.5-1.9,0.3-2.4c5.8-3,12.1-4.9,18.6-5.5
		c-11-21.9-22-43.8-32.9-65.7c-0.6-1.2,0.7-2.9,2-2c4.5,3,14.5,8.3,18.4,1.6c1.8-3.2,0.6-7.2-0.8-10.3c-1.5-3.3-3.4-6.4-5.2-9.4
		c-3.8-6.3-7.9-12.3-11.9-18.5c-7.8-12.1-15.1-24.8-17.4-39.2c-0.2-1.4,1.4-2.6,2.5-1.5c5.7,5.7,12.9,10.6,20.7,13
		c3.3,1,7,1.3,10-0.7c2.3-1.5,4-4,4.9-6.6c2.3-6.1,1.6-12.9,0.5-19.2c-2.6-13.5-8.4-27-5.4-40.9c0.3-1.4,2.1-1.3,2.7-0.4
		c4.1,5.9,8.5,12.1,14.9,15.7c5.2,2.8,11.9,3.7,17,0.3c4.6-3.1,6.8-8.7,8.4-13.8c4.4-13.8,8.3-27.9,12.4-41.8c0.4-1.4,2.5-1.5,2.9,0
		c1.8,7.6,3.5,15.4,7.5,22.3c3,5,7.4,9.5,12.9,11.6c5.9,2.2,12.2,1.2,17.5-2c12-7.1,15.9-21.1,19.4-33.7c0.3-1.1,2.2-1.6,2.7-0.4
		c3.5,8,7.9,15.6,13,22.7c4,5.5,8.7,11.6,15.8,12.9c7.5,1.4,15-2.8,20.9-7c11.9-8.3,22.1-19.1,29.7-31.4c0.7-1.2,2.3-0.8,2.7,0.4
		c2.9,7.6,3.5,15.7,5.1,23.5c2.2,10.9,8.3,24.3,21.2,24.3c5.9,0,11.4-2.8,16.4-5.5c5.4-2.9,10.6-6.1,16.4-8.2
		c1.2-0.4,2.4,1.2,1.7,2.2c-3.8,5.5-7.2,11.4-10,17.5c-2.5,5.5-4.5,11.1-6,16.9c-0.8,2.8-1.5,5.7-1.9,8.5c-0.3,2.1-0.6,5.1,1.1,6.8
		c2,2,5.3,1,7.6,0.4c3.3-0.9,6.6-1.7,9.9-2.6c6.5-1.7,13-3.4,19.5-5.1c1.5-0.4,2.4,1.4,1.5,2.5c-4.9,5.6-9.4,11.6-13.4,17.9
		c-2.5,4-7.3,11.6-2.9,15.9c2.1,2,5.2,2,7.9,1.7c3.2-0.3,6.4-0.9,9.6-1.4c3.3-0.5,6.7-1.1,10-1.6c3.2-0.5,6.5-1.3,9.8-1.5
		c2.2-0.1,4.5,0.8,5.2,3.1c0.6,2.2-0.5,4.5-1.7,6.2c-1.5,2.1-3.7,3.9-5.5,5.8c-2.1,2-4.2,4-6.2,6C626.3,155.1,618,163.6,612.2,173.9
		z"/>
	<path d="M588.6,155.4c-3.4,2.2-6.7,4.7-9.8,7.4c-0.2,0.2-0.5,0.4-0.7,0.7c-0.3,0.2-0.5,0.4-0.8,0.7c-0.6,0.5-1.1,1-1.7,1.6
		c-0.2,0.2-0.5,0.4-0.7,0.7c-0.2,0.2-0.5,0.5-0.7,0.7c-0.3,0.3-0.6,0.6-0.9,0.9c-0.5,0.4-0.9,0.9-1.3,1.3c-0.4,0.4-0.8,0.9-1.2,1.3
		c-0.1,0.1-0.2,0.3-0.4,0.4c0,0-0.1,0-0.1,0.1c-0.4,0.5-0.9,1-1.4,1.6c-0.2,0.2-0.4,0.4-0.6,0.7c0,0,0,0,0,0h0
		c-0.8,0.9-1.6,1.8-2.2,2.8c-1,1.4-1.8,3-2,4.6c-0.1,0.4-0.1,0.8,0,1.2c0.1,1,0.6,1.9,1.5,2.6c0.4,0.3,0.8,0.5,1.3,0.6h0
		c0.5,0.1,0.9,0.1,1.3-0.1c0,0,0.1,0,0.1,0c0,0,0,0,0,0c0.1-0.1,0.2-0.1,0.3-0.2c0.5-0.4,1-0.5,1.5-0.3c0.3,0.1,0.6,0.3,0.8,0.6
		c0.4,0.5,0.4,1.2-0.2,1.8c-0.2,0.2-0.4,0.3-0.6,0.5c-0.6,0.5-1.2,1.1-1.8,1.7c-1.9,1.7-3.7,3.4-5.6,5.2c-0.6,0.6-1.3,1.2-1.9,1.8
		c-0.1,0.1-0.2,0.2-0.3,0.3c-0.9,0.9-1.8,1.8-2.7,2.7c-0.2,0.2-0.5,0.5-0.8,0.8c-1.2,1.3-2.5,2.6-3.7,3.9c-0.2,0.2-0.4,0.5-0.6,0.7
		c-0.2,0.2-0.4,0.5-0.6,0.7c-1.8,2-3.4,4.1-5,6.3c-0.1,0.1-0.2,0.2-0.3,0.4c-0.6,0.8-1.2,1.6-1.7,2.5c-0.1,0.2-0.2,0.3-0.3,0.5
		c-0.8,1.2-1.5,2.4-2.2,3.6c-0.2,0.3-0.3,0.6-0.5,0.8c-0.2,0.3-0.3,0.6-0.5,0.8c-2.4,4.7-4.3,9.6-5.3,14.9c-0.3,1.9-3.2,1.1-2.9-0.8
		c0.8-4.4,2.2-8.7,4.1-12.8c0.4-1,0.9-1.9,1.4-2.8c0.1-0.3,0.3-0.6,0.5-0.8c0.1-0.3,0.3-0.6,0.5-0.8c0.8-1.4,1.6-2.8,2.6-4.2
		c0.6-1,1.3-2,2-3c1.8-2.4,3.7-4.8,5.7-7c0.2-0.2,0.4-0.5,0.6-0.7c0.2-0.2,0.4-0.5,0.7-0.7c0.6-0.6,1.1-1.2,1.7-1.9c1-1,2-2,3-3.1
		c1.3-1.3,2.6-2.6,4-3.9c0.7-0.7,1.4-1.3,2.1-2c0.9-0.9,1.9-1.8,2.9-2.6c-1-0.4-1.9-1-2.6-1.9h0c0,0,0,0,0,0
		c-1.2-1.4-1.7-2.9-1.7-4.4c0-2.2,1-4.5,2.4-6.6c0.4-0.6,0.8-1.1,1.2-1.7c0.3-0.4,0.7-0.9,1-1.3c0.8-1,1.7-2,2.5-2.9
		c0-0.1,0.1-0.1,0.2-0.2c0.1-0.1,0.1-0.2,0.2-0.2c0.3-0.3,0.6-0.7,0.9-1c0.4-0.4,0.8-0.8,1.2-1.2c0,0,0-0.1,0.1-0.1
		c0.5-0.5,1-1.1,1.5-1.6c0.2-0.2,0.5-0.5,0.7-0.7c0.2-0.2,0.4-0.4,0.7-0.7c0.2-0.2,0.3-0.3,0.5-0.5c0.3-0.3,0.6-0.5,0.8-0.7
		c0.3-0.3,0.5-0.5,0.8-0.7c2.9-2.6,6-5,9.3-7.2c-2.1-1.2-4.5-2.1-6.7-3.1c-5.1-2.1-10.2-5.3-10.4-11.4c-0.2-6,4.5-10.6,7-15.8
		c-8.3-0.8-17.2-0.5-23.9-6.2c-4.1-3.5-6.1-9.6-4.2-14.5c-6.6,2.2-13.5,3.3-20.5,2.9c-4.4-0.2-8.8-0.9-13-2.2
		c-2-0.6-4.3-1.9-5.3-3.7c-10.9,8.1-26.7,8.9-38.3,1.5c-5.3,5-12.5,7.9-19.8,8.2c-5.9,0.2-13.4-1.3-17.6-5.8
		c-0.5,2.2-1.3,4.4-2.5,6.4c-3.2,5.6-8.6,9.9-14.9,11.4c-5.7,1.4-11.9,0.6-17.1-2.2c-0.2,8.2-0.5,16.8-4.8,23.9
		c-3.3,5.4-8.9,9.7-15.1,10.2c5.6,5.8,10.5,12.1,14.7,18.9c0.7,1.2,1.4,2.4,2.1,3.6c3.1,5.5,5.8,11.3,8,17.2
		c0.7,1.8-2.2,2.6-2.9,0.8c-1.8-5-4-9.8-6.5-14.5c-0.7-1.3-1.4-2.5-2.1-3.8c-5-8.4-11.1-16.1-18.1-22.9c-1.1-1.1,0.1-2.8,1.5-2.5
		c6.9,1.5,13.4-3.7,16.5-9.5c3.9-7.3,3.6-16.1,3.9-24.1c0-1,1.3-2,2.3-1.3c6.2,4.3,14.7,5.1,21.5,1.6c6.4-3.3,10.8-10.1,11.3-17.3
		c0.1-1.8,2.3-1.9,2.9-0.4c1.3,3.2,4.9,5,8,6c3.2,1,6.5,1.4,9.8,1.2c6.7-0.4,13.1-3.3,17.8-8.1c0.4-0.5,1.3-0.6,1.8-0.2
		c11.3,7.8,27.6,6.9,37.9-2.3c1.3-1.2,3.1,0.3,2.4,1.8c-0.6,1.1,1.7,2.3,2.5,2.6c1.6,0.7,3.4,1,5.1,1.4c3.6,0.8,7.2,1.1,10.8,1.1
		c7.3,0,14.7-1.5,21.4-4.5c1.8-0.8,3.1,1.4,1.5,2.6c-2.3,1.7-3.1,4.9-2.7,7.6c0.5,3.2,2.5,5.8,5.2,7.6c6.7,4.4,15.1,3.7,22.8,4.6
		c0.9,0.1,1.8,0.9,1.4,1.9c-1.4,3.8-3.8,7-5.7,10.5c-1.7,3-2.8,6.5-0.9,9.7c1.6,2.6,4.7,4,7.4,5.2c3.1,1.3,6.4,2.5,9.2,4.5
		C589.5,153.4,589.6,154.7,588.6,155.4z"/>
	<path d="M331.6,81.5c-4.6-2.6-10.2-1.5-14.6,0.9c-2.3,1.3-3.7,3.2-3.9,5.8c-0.2,2.2,0.3,4.8,1,6.9c0.8,2.2,2.3,4.1,4.7,4.3
		c2.8,0.3,5.5-1.3,8.2-1.8c2.7-0.4,5.6-0.2,7.7,1.6c1.7,1.4,2.7,3.6,1.9,5.8c-0.9,2.4-3.4,4.1-5.9,4.4c-3.2,0.3-6.2-1-8.7-2.8
		c-1.6-1.1-3.1,1.5-1.5,2.6c4.2,2.9,10,4.6,14.7,1.8c4-2.4,6.2-7.6,3.4-11.8c-3-4.6-8.8-5.3-13.8-4.1c-2.1,0.5-5.8,2.7-7.4,0.3
		c-0.5-0.8-0.7-1.9-0.9-2.9c-0.3-1.2-0.5-2.5-0.4-3.7c0.1-3,3.1-4.3,5.6-5.1c2.8-0.9,5.8-1.1,8.4,0.4
		C331.7,85,333.2,82.4,331.6,81.5L331.6,81.5z"/>
	<path d="M338.9,114.2C329.1,98.6,321.1,82,315,64.6c-0.6-1.8-3.5-1-2.9,0.8c6.1,17.6,14.3,34.5,24.2,50.3
		C337.4,117.4,340,115.8,338.9,114.2L338.9,114.2z"/>
	<path d="M437.1,13.7c-5.6-2-11.5-0.6-16.9,1.3c-2.2,0.8-5.1,1.4-6.4,3.5c-1.3,2-0.4,4.3,1.4,5.7c2.1,1.7,5,2.7,7.5,3.6
		c2.8,1.1,5.6,1.9,8.5,2.6c1.8,0.5,5.8,1.9,4.6,4.5c-0.5,1.1-1.7,1.8-2.6,2.5c-1.1,0.8-2.2,1.7-3.5,2.2c-4.6,2-10.2,0.3-13.3-3.6
		c-1.2-1.5-3.3,0.6-2.1,2.1c2.8,3.6,7.6,5.6,12.2,5.2c2.5-0.2,4.7-1,6.8-2.4c2-1.3,4.8-3.1,5.5-5.5c0.7-2.4-0.6-4.8-2.5-6.2
		c-2.2-1.6-5.2-2-7.7-2.8c-3-0.9-5.9-2-8.7-3.3c-1.1-0.5-2.5-1-3.3-2c-0.8-0.9,0-1.6,0.8-2.1c1.3-0.7,2.8-1.1,4.1-1.6
		c1.6-0.5,3.2-1,4.8-1.4c3.4-0.8,6.8-0.9,10,0.3C438.2,17.3,438.9,14.4,437.1,13.7L437.1,13.7z"/>
	<path d="M429.2,45.1c-4.9-14.2,1.1-29.1,1-43.6c0-1.9-3-1.9-3,0c0.1,14.8-5.9,29.9-0.9,44.4C426.9,47.7,429.8,46.9,429.2,45.1
		L429.2,45.1z"/>
	<path d="M585.4,32.7c-1.8-4-6.5-5.1-10.5-5.2c-2.9-0.1-5.9,0.1-8.7,0.6c-2.1,0.4-4.8,0.7-6.2,2.5c-3.7,4.4,4.9,8.4,7.8,9.7
		c2.2,1.1,4.7,1.6,6.8,2.8c0.9,0.5,1.6,1.1,1.6,2.2c-0.1,1.3-1.1,2.2-2.1,2.8c-2.6,1.5-6,2.1-9,2.1c-0.8,0-7.5-0.1-6.9-1.8
		c0.7-1.8-2.2-2.6-2.9-0.8c-0.9,2.2,1.1,4,3,4.8c2.5,1,5.7,1,8.3,0.8c4.5-0.4,11.9-1.9,12.5-7.5c0.2-2.4-1.3-4.3-3.3-5.3
		c-2.4-1.2-4.9-1.8-7.3-3c-1.2-0.6-2.3-1.2-3.4-2c-0.7-0.5-2.7-1.4-2.9-2.4c-0.3-1.6,5.3-2.1,6.3-2.3c4.2-0.6,12.2-1.4,14.4,3.5
		C583.6,36,586.2,34.5,585.4,32.7L585.4,32.7z"/>
	<path d="M564.8,57c-0.2-3.5,1.2-6.8,3-9.8c1.8-3.2,3.9-6.3,5.8-9.5c3.9-6.6,7.5-13.5,10.9-20.4c0.8-1.7-1.8-3.3-2.6-1.5
		c-3.5,7.2-7.3,14.3-11.4,21.2c-3.6,6.1-9,12.5-8.7,20C561.9,58.9,564.9,58.9,564.8,57L564.8,57z"/>
	<path d="M634.4,116.6c2.2,0.3,3.3-2.5,3.4-4.3c0.1-1.9-0.7-3.8-2-5.2c-3-3.4-8.6-3.5-12.8-3c-1.9,0.2-4,0.9-5.2,2.6
		c-1.3,1.8-1,4.2,0.2,6c1.4,2.2,3.8,3.2,5.4,5.2c1.3,1.6,1.3,3.7-1.1,4c-2.1,0.3-4.6-0.3-6.7-1c-2.1-0.6-3.9-1.6-4.8-3.7
		c-0.3-0.8-1.4-0.9-2.1-0.5c-0.8,0.4-0.9,1.3-0.5,2.1c1.5,3.4,5.2,4.9,8.6,5.6c3.2,0.7,8.1,1.5,9.9-2c0.9-1.8,0.5-4-0.6-5.7
		c-1.2-1.9-3.3-2.9-4.8-4.5c-1.3-1.3-2.1-3.5-0.1-4.5c1.6-0.8,3.6-0.7,5.4-0.6c2.3,0,4.9,0.3,6.6,1.9c0.7,0.7,1.2,1.5,1.4,2.4
		c0.1,0.4,0.1,2.3-0.3,2.3C632.5,113.4,632.5,116.4,634.4,116.6L634.4,116.6z"/>
	<path d="M612.3,125.7c1-2.3,3.2-3.6,5.3-4.9c2.5-1.5,4.8-3.3,6.9-5.3c3.3-3.1,6.6-8.3,11.6-8.7c1.9-0.2,1.9-3.2,0-3
		c-5.8,0.5-9.3,5.2-13.1,9c-2.3,2.3-4.9,4.1-7.6,5.8c-2.3,1.4-4.6,3-5.7,5.6C608.9,125.9,611.5,127.5,612.3,125.7L612.3,125.7z"/>
	<path d="M316.2,157.5c-4.6,1.4-8.9,4.1-12,7.7c-1.5,1.7-2.9,4.1-1.6,6.3c1,1.8,3.4,2.6,5.3,2.9c4.1,0.6,8.1-0.9,12-1.7
		c1.9-0.4,3.9-0.7,5.7-0.2c0.8,0.2,1.8,0.5,2.5,1.2c0.9,1,0.2,2-0.6,2.9c-3.5,3.6-9.2,3.6-13.9,3.2c-1.9-0.2-1.9,2.8,0,3
		c4.4,0.4,9,0.3,13-1.8c1.9-1,3.9-2.6,4.7-4.7c0.9-2.3-0.3-4.4-2.3-5.6c-3.6-2.1-8-1.3-11.9-0.3c-2,0.5-4,1.1-6,1.2
		c-1.7,0.1-4.3,0.2-5.6-1.1c-1.6-1.6,2.9-5.2,4.1-6.1c2.2-1.8,4.8-3.1,7.5-3.9C318.9,159.9,318.1,157,316.2,157.5L316.2,157.5z"/>
	<path d="M327.4,184.2c-8.6-9.3-17-18.7-25.3-28.2c-1.3-1.5-3.4,0.7-2.1,2.1c8.3,9.6,16.7,19,25.3,28.2
		C326.6,187.7,328.7,185.6,327.4,184.2L327.4,184.2z"/>
	<path d="M643.6,209.5c0.1-3.9-3-6.8-6.5-7.9c-3-1-7.5-1.4-10.3,0.5c-1.4,0.9-2.2,2.4-2.1,4.1c0.1,1.9,1.3,3.5,2.8,4.6
		c1.4,1.1,3.1,1.7,4.5,2.7c0.3,0.2,1.4,1,1.4,1.4c0,0.6-1.6,1.3-2.1,1.5c-3.8,1.7-8-0.3-9.6-4c-0.3-0.7-1.4-0.9-2.1-0.5
		c-0.8,0.4-0.9,1.3-0.5,2.1c1.4,3.2,4.5,5.6,8,6c1.8,0.2,3.6,0,5.2-0.7c1.6-0.6,3.5-1.8,4-3.5c0.5-1.8-0.9-3.4-2.2-4.4
		c-1.3-1-2.9-1.6-4.3-2.6c-1.1-0.7-2.7-2.3-1.7-3.7c0.7-1,2.5-1.2,3.6-1.2c3.5-0.1,9.2,1.2,9.1,5.7
		C640.6,211.4,643.6,211.4,643.6,209.5L643.6,209.5z"/>
	<path d="M622,220.4c7.1-8.6,13.5-17.7,19.2-27.3c1-1.7-1.6-3.2-2.6-1.5c-5.5,9.4-11.8,18.3-18.7,26.7
		C618.7,219.7,620.8,221.9,622,220.4L622,220.4z"/>
</g>
<g id="Calque_2">
	<g>
		<path class="st0" d="M566.6,690.8L394.7,754c2.6-19.6,5.8-39.1,8.4-58.4c4-29.4,6.8-59.2,4.6-88.9c-1.2-16.1-3.8-32.1-5.5-48.2
			c-1.6-15.4-1-30.9-3.2-46.3c-2.1-15.2-8.9-28.6-14.4-42.7c-0.8-2.2-1.6-4.4-2.3-6.6c5,2.4,11.2,2.2,16.3,0.2
			c8-3.1,13.3-10.1,16.5-17.8c3.6-8.5,5.2-17.6,7.3-26.5c2.1-9,4.6-18,9.6-25.9c7.4-11.9,24.9-21.9,38-12.7c3.6,2.5,6.2,6.1,8.5,9.7
			c2.7,4.2,5.1,8.6,7.6,12.9c5.3,9.1,10.4,18.4,15.9,27.4c2.3,3.8,4.9,7.5,8,10.7c2.7,2.7,5.9,5.3,9.7,6.3c6.9,1.7,15.1-0.2,21-4.1
			c0.3-0.2,0.7-0.5,1-0.7c0.3,2.2,0.5,4.4,0.8,6.6c4.2,31.1,12.6,61.1,23.1,90.6c10.4,29.1,22.4,57.6,32.6,86.7
			c10.2,29.3,18.4,59.5,21.1,90.5C620.5,729.1,567.6,678.3,566.6,690.8z"/>
	</g>
	<g>
		<path class="st1" d="M404.4,646.9c-1.9,35.9-8.6,71.4-13.4,107.1h-55.6c0.1-7.1,0.3-14.2,0.7-21.3c1.4-23.3,4.6-46.6,9.6-69.4
			c5-22.9,11.7-45.4,20.1-67.3c8.3-21.7,18.3-42.7,29.9-62.8c0.5-0.8,0.9-1.6,1.4-2.4c0.3,6.3,0.4,12.7,0.9,19
			c1.2,16.7,4,33.2,5.6,49.8C405.1,615.3,405.2,631.1,404.4,646.9z"/>
	</g>
	<g>
		<path class="st1" d="M623.2,754c1.9-22.8-0.2-45.9-4.6-68.3c-11.1-56.8-37-108.9-55.1-163.6c19.6,8.7,33.8,26.3,43.7,44.8
			c11.6,21.6,18.5,45.3,22.9,69.3c4.5,24.5,6.4,49.4,8.2,74.2c1.1,14.6,2.2,29.1,3.7,43.6H623.2z"/>
	</g>
	<g>
		<path class="st2" d="M439.4,171.7c-2.7,6.8-2.9,14.8-0.1,21.5c0.7,1.7,1.5,3.3,2.6,4.8c0.3,0.5,0.5,1.1,0.9,1.6
			c0.9,1.5,2.1,3,3.4,4.2c1.3,1.2,2.7,2.2,4.1,3.3c0.1,0.1,0.1,0.1,0.2,0.2c0.2,0.1,0.3,0.3,0.5,0.4c2.8,2.5,3.8,5.6,3.6,9.3
			c-0.4,7.9-4.5,15.4-2.7,23.4c1.8,7.6,8.3,13.1,15.3,15.8c9,3.6,19.2,2,28.4,0c9.6-2.1,19.3-5.1,29.3-3.9c3.9,0.5,7.5,1.8,11,3.4
			c0,0,0,0.1,0,0.2c0.4,32.6,0.8,65.2,1.3,97.8c0.4,28.1,1.2,56.3,4.3,84.3c-2,2-4.7,3.4-7.4,4.4c-3.3,1.2-6.8,1.8-10.3,1.6
			c-3.4-0.2-6-1.4-8.6-3.6c-3.4-2.8-6-6.3-8.4-10c-2.6-4.1-5-8.3-7.4-12.5c-2.7-4.6-5.3-9.2-8-13.8c-2.6-4.5-5.1-8.9-7.7-13.4
			c-2.2-3.8-4.7-7.6-7.8-10.8c-2.9-2.9-6.4-5.1-10.3-6.2c-3.6-1-7.4-1.1-11-0.5c-7.6,1.2-14.7,5.4-20,10.9
			c-6.2,6.3-9.8,14.7-12.4,23c-2.7,8.8-4.3,17.8-6.7,26.7c-2.2,8.1-5.3,16.4-11.8,22.1c-5,4.4-13.2,6.5-19.5,3.6
			c-1.2-0.5-2.2-1.3-3.2-2.1c-2.9-11.2-4.1-22.7-4.7-34.4c-1.7-32.8-1.9-65.7-1-98.6c0.9-31.2,2.4-62.6,6.2-93.6
			c2.9-23.9,8-48.7,21.2-69.2c6.6-10.3,15.5-19.1,26.2-25.2c12.6-7.2,27-10.4,41.3-11.5c21.6-1.7,45.9,0.9,63.7,14.3
			c8.3,6.3,14.3,14.7,17.8,24.5c-2.9,0.6-5.8,1.4-8.6,2.1c-4.3,1.2-8.7,1.9-13.2,2c-4.4,0.1-8.8-0.2-13.3-0.6
			c-4.5-0.3-8.9-0.6-13.4-0.5c-2.3,0.1-4.6,0.3-6.8,0.7c-2.2,0.4-4.3,1-6.5,1.2c-3.7,0.3-6.5-1.5-9.1-4c-2.6-2.4-5-5.1-8.2-6.7
			c-5.8-3.1-12.9-3.1-19-0.7c-3.1,1.2-6,3-8.4,5.4C442.6,165.3,440.7,168.4,439.4,171.7z"/>
	</g>
	<g>
		<path class="st3" d="M579.2,190.3c-1.4-12.6-14.7-24-27.5-19.1c-3.8,1.5-7.2,4-11.1,5.4c-1.8,0.7-3.8,1-5.7,0.6
			c-2.2-0.4-4.3-1.4-6.5-2.1c-9.4-3.2-19.5-1.5-28.9,0.5c-2.4,0.5-4.8,1.1-7.2,1.6c-2.2,0.5-4.5,0.9-6.7,0.4c-1.3-0.3-2.3-1-3.3-1.8
			c0-0.1-0.1-0.2-0.1-0.2c-0.2-0.4-0.6-0.7-1-0.8l0,0c-1.4-1.5-2.7-3.2-4.2-4.4c-5.6-4.8-13.3-6.4-20.4-4.8
			c-6.7,1.5-12.3,5.9-15.2,12.1c1.2-6.3,4.8-12.1,10.4-15.4c5.1-2.9,11.4-3.8,17-1.8c6.2,2.3,9.4,8.8,15.4,11.2
			c4,1.6,8.1,0.4,12.2-0.4c4.1-0.8,8.3-0.8,12.5-0.7c8.5,0.3,16.9,1.6,25.4,0.7c4.2-0.4,8.3-1.5,12.4-2.6c4-1.1,8-2.1,12.2-2.1
			c6.4,0,12.4,3.3,16.3,8.4C578.6,179.3,579.9,184.8,579.2,190.3z"/>
	</g>
	<g>
		<g>
			<path class="st4" d="M573.7,184.2c-2.9-5.6-8.7-10.3-15.2-10.5c-7.8-0.3-13.4,6.8-21.1,7.3h0c-1.2,2.9-1.7,5.9-1.7,9
				c0,3.1,0.4,6.2,1.5,9.1c1.1,2.9,3.2,5.6,5.2,8c1.3,1.5,2.7,2.9,4.2,4.2c0.2,0,0.4,0,0.7,0.1c3,0.8,6.1,1,9.1,0.5
				c3.1-0.5,6.1-1.5,8.9-3.1c0.2-0.1,0.3-0.2,0.5-0.3c2.7-1.6,5.1-3.7,6.8-6.3c1.8-2.5,3-5.5,3.3-8.6
				C576,190.4,575.3,187.1,573.7,184.2z M556.1,199.8c-3.8,0-6.9-3.1-6.9-6.9c0-3.8,3.1-6.9,6.9-6.9c3.8,0,6.9,3.1,6.9,6.9
				C563,196.7,559.9,199.8,556.1,199.8z"/>
		</g>
	</g>
	<g>
		<g>
			<path class="st4" d="M479.3,177.7c-1.6-1.5-2.9-3.2-4.5-4.7c-2.4-2.2-5.5-3.6-8.8-4.2c-6.2-1.3-13.2,0.4-17.8,4.9
				c-4.7,4.6-6.2,11.7-4.8,18c0.3,1.6,0.9,3.1,1.5,4.5c0,0,0,0,0,0.1c0.1,0.1,0.2,0.3,0.2,0.4c0,0,0,0,0,0c0.7,1.3,1.4,2.4,2.4,3.5
				c1.3,1.5,3,2.7,4.5,4c0,0,0.1,0,0.1,0.1c2,1.4,4.2,2.4,6.6,2.9c8,1.6,16.3-3,19.7-10.3c0,0,0,0,0-0.1c0.1-0.1,0.1-0.3,0.2-0.4
				c0-0.1,0.1-0.2,0.1-0.2C481.9,190.6,481.8,183.4,479.3,177.7z M462.5,194.7c-3.8,0-6.9-3.1-6.9-6.9c0-3.8,3.1-6.9,6.9-6.9
				c3.8,0,6.9,3.1,6.9,6.9C469.4,191.6,466.3,194.7,462.5,194.7z"/>
		</g>
	</g>
	<g>
		<path class="st3" d="M634.4,274.7c-0.4,0-0.8,0-1.3,0c-0.1,0-0.2,0-0.4,0c0,0-0.1,0-0.1,0c0,0-0.1,0-0.1,0c0,0,0,0,0,0
			c-0.2,0-0.4-0.1-0.6-0.1c-0.6-0.1-1.2-0.2-1.8-0.4c-1.5-0.3-3-0.7-4.5-1.2c-4-1.1-7.9-2.4-11.8-3.7c-9.8-3.3-19.4-6.8-29-10.5
			c-8.3-3.2-16.5-6.4-24.5-10c-3.4-1.5-6.7-3.4-10-5c-7.3-3.6-14.9-6.6-22.7-9.2c-7.6-2.5-15.4-4.8-23.2-6.5
			c-7.7-1.6-15.7-2.7-23.6-1.8c-3.8,0.5-7.5,1.3-11.1,2.7c-0.9,0.4-1.5,1.2-1.3,2.2c0.2,0.9,1.3,1.6,2.2,1.3
			c15-5.9,31.5-1.8,46.4,2.6c7.8,2.3,15.6,4.8,23.1,8c3.7,1.6,7.4,3.3,11,5.2c1.5,0.8,2.9,1.6,4.4,2.3c7.4,3.6,15.1,6.6,22.7,9.6
			c9.7,3.8,19.5,7.5,29.3,10.9c6.5,2.3,13.1,4.7,19.8,6.3c-0.1,0.1-0.3,0.1-0.4,0.2c-0.1,0-0.1,0.1-0.2,0.1c0,0,0,0,0,0l0,0
			c0,0-0.1,0-0.1,0c-0.5,0.2-1,0.3-1.5,0.5c-1.3,0.3-2,0.4-3.2,0.5c-1.3,0.1-2.7,0.1-4,0.1c-6.8-0.1-13.6-1.4-20.3-2.9
			c-7.8-1.7-15.5-3.8-23.2-6c-3.4-1-6.8-1.8-10-3.1c-3-1.2-5.9-2.7-8.7-4.2c-6.4-3.4-12.6-7.1-19.1-10.1c-3.1-1.4-6.3-2.6-9.6-3.2
			c-4.7-0.8-9.5-0.7-14.2-0.1c-9.7,1.3-19,4.6-28.7,5.5c-7.9,0.7-16.3-0.3-22.6-5.6c-2.6-2.2-4.8-5-5.8-8.3c-1.1-3.5-0.7-7.2,0-10.7
			c1.3-6.2,4-13.5,1.5-19.7c6.9,1.6,14.6-0.4,19.9-5.4c2-1.9,3.6-4.2,4.7-6.8c3-5.1,3.6-11.5,2.2-17.4c4.2,1.4,8.8,0,12.9-0.9
			c4.6-1,9.2-2,13.9-2.6c4.6-0.5,9.2-0.6,13.7,0.5c3.1,0.7,6,2.2,9.1,2.9c-2,5.8-2.2,12.3-0.5,18.1c0.9,3.1,2.7,5.9,4.6,8.4
			c2.2,2.9,4.8,5.6,7.6,8c5.6,4.6,12.3,7.5,18.5,11.3c2.7,1.7,5.5,3.2,8.2,4.6c8.5,4.6,17.2,9,25.7,13.7c8.8,4.8,17.6,9.6,25.9,15.1
			c1.6,1.1,3.2,2.2,4.8,3.4c0,0,0.2,0.1,0.3,0.2c0,0,0,0,0,0l0,0c0.1,0.1,0.3,0.2,0.4,0.3c0.4,0.3,0.7,0.6,1,0.8
			c0.6,0.5,1.1,1,1.7,1.5c0.5,0.4,0.9,0.9,1.3,1.4c0.1,0.1,0.3,0.4,0.4,0.5c0,0,0,0,0,0c0.2,0.3,0.4,0.6,0.6,1
			c0.7,1.1,1.3,2.3,1.4,3.6C636,273.7,635.7,274.5,634.4,274.7z"/>
	</g>
	<path d="M632.1,277.8c-0.1,0.1-0.2,0.2-0.3,0.3c-1.2,1.5-2.9,2.5-4.8,3.1c-5.4,1.7-11.6,1-17.1,0.3c-6.5-0.9-13-2.2-19.4-3.8
		c-1-0.2-2-0.5-3-0.7c-0.3-0.1-0.7-0.2-1-0.2c-4-1-8-2.1-12-3.3c-3.5-1-7.2-1.9-10.6-3.2c-6.8-2.6-13.1-6.4-19.5-9.9
		c-1.7-0.9-3.3-1.8-5-2.7c-1.2-0.6-2.4-1.2-3.6-1.8c-3.5-1.6-7.2-2.9-11-3.4c-9.9-1.2-19.7,1.8-29.2,3.9c-9.2,2-19.3,3.6-28.4,0
		c-7-2.7-13.5-8.3-15.2-15.8c-1.5-6.3,0.8-12.3,2-18.4c0.1-0.3,0.1-0.6,0.2-0.9c0.1-0.3,0.1-0.6,0.2-0.9c0.2-1,0.3-2.1,0.3-3.1
		c0.2-3.7-0.8-6.9-3.6-9.3c-0.1-0.1-0.3-0.3-0.5-0.4c-0.1,0-0.1-0.1-0.2-0.2c-1.4-1.1-2.8-2.1-4.1-3.3c-1.3-1.2-2.4-2.7-3.4-4.2
		c-0.2-0.3-0.3-0.5-0.5-0.8c-0.1-0.2-0.3-0.5-0.4-0.7c0,0,0,0,0,0c-3-5.9-3.4-13.2-1-19.3c0.2-0.4,0.4-0.8,0.5-1.2c0,0,0,0,0,0
		c2.9-6.2,8.5-10.6,15.2-12.1c1.2-0.3,2.4-0.4,3.7-0.5c0.5,0,1.1-0.1,1.7-0.1s1.1,0,1.6,0.1c3.5,0.2,7,1.2,10,2.9
		c0.6,0.3,1.1,0.7,1.7,1.1c0.1,0,0.1,0.1,0.2,0.1c0.5,0.4,1.1,0.8,1.6,1.2c1.5,1.3,2.8,3,4.2,4.4l0,0c0.4,0.4,0.7,0.7,1.1,1
		c0.5,0.4,1,0.8,1.6,1.1c0.4,0.2,0.8,0.4,1.2,0.5c0.2,0.1,0.4,0.1,0.6,0.2c0.2,0,0.3,0.1,0.5,0.1c0.2,0,0.4,0.1,0.5,0.1
		c1.9,0.2,3.8-0.2,5.7-0.6c0.2,0,0.5-0.1,0.7-0.2c0.3-0.1,0.6-0.1,1-0.2c0.3-0.1,0.6-0.1,0.9-0.2c1.5-0.3,3.1-0.7,4.6-1
		c8.5-1.8,17.5-3.3,26-1.3c0.3,0.1,0.6,0.2,0.9,0.2c0.3,0.1,0.6,0.2,0.9,0.3c0.3,0.1,0.7,0.2,1,0.3c2.2,0.7,4.2,1.7,6.5,2.1
		c2,0.4,3.9,0,5.7-0.6c2.9-1,5.5-2.8,8.3-4.2c0.5-0.2,1-0.5,1.5-0.7c0.4-0.2,0.8-0.4,1.2-0.5c0.1,0,0.2-0.1,0.3-0.1v0
		c3.1-1.1,6.2-1.3,9.2-0.7c1.5,0.3,3,0.8,4.4,1.4c0.5,0.2,1.1,0.5,1.6,0.8c0.4,0.2,0.8,0.4,1.1,0.7h0c0.6,0.4,1.3,0.9,1.9,1.3
		c2.8,2.2,5.2,5.1,6.8,8.3c1.2,2.3,2,4.9,2.3,7.4c0.2,1.8,0.2,3.6-0.2,5.4c-0.1,0.7-0.3,1.4-0.5,2.1c-1.5,5.5-5.2,10-9.9,13.1
		c-0.5,0.3-1,0.6-1.5,0.9c0,0-0.1,0.1-0.1,0.1c-0.4,0.2-0.9,0.5-1.3,0.7c-4.1,2.1-8.8,3.2-13.3,3.1c-2.1,0-4.2-0.3-6.2-0.8
		c-0.4-0.1-0.7-0.3-1-0.6c-0.7-1-0.1-2.7,1.2-2.9c0.2,0,0.4,0,0.7,0.1c0,0,0,0,0,0c2.9,0.8,6,0.9,9.1,0.5c1.3-0.2,2.6-0.5,3.9-0.9
		c0.5-0.1,0.9-0.3,1.4-0.5c0.4-0.2,0.9-0.3,1.3-0.5c0.8-0.3,1.6-0.7,2.3-1.1c0.1-0.1,0.3-0.2,0.4-0.3c1.6-0.9,3-2,4.3-3.3
		c0.6-0.6,1.2-1.2,1.7-1.8c0.3-0.4,0.6-0.8,0.9-1.2c0.4-0.6,0.8-1.2,1.2-1.9c0.9-1.6,1.6-3.4,1.9-5.2c0.1-0.5,0.2-1.1,0.2-1.6
		c0.2-2.6-0.2-5.3-1.2-7.7c-0.2-0.6-0.5-1.2-0.8-1.7c-0.5-1-1.2-2-1.9-3c-0.5-0.7-1.1-1.3-1.7-1.9c-0.6-0.6-1.2-1.2-1.9-1.7
		c-0.7-0.6-1.4-1.1-2.2-1.5c-0.8-0.5-1.8-1-2.7-1.3c-0.4-0.2-0.8-0.3-1.2-0.4c-1.2-0.4-2.4-0.6-3.7-0.6c-0.3,0-0.7,0-1,0
		c-3,0.1-5.6,1.2-8.2,2.6v0c-0.4,0.2-0.8,0.4-1.3,0.7c-0.4,0.2-0.8,0.4-1.2,0.7c-3,1.6-6,3.1-9.4,3.4h0c-1.2,0.1-2.5-0.1-3.7-0.3
		c-2.5-0.5-4.9-1.6-7.3-2.4c-0.3-0.1-0.6-0.2-0.9-0.3c-0.3-0.1-0.6-0.2-0.9-0.2c0,0,0,0-0.1,0c-4.5-1-9.1-1-13.7-0.5
		c-4.7,0.5-9.3,1.6-13.9,2.6c-0.3,0.1-0.6,0.1-0.9,0.2c-0.3,0.1-0.6,0.2-0.9,0.2c-0.3,0.1-0.6,0.2-0.9,0.2c-2.4,0.5-4.8,1-7.2,0.9
		c-0.3,0-0.7-0.1-1-0.1c-0.3,0-0.7-0.1-1-0.2c-0.3-0.1-0.6-0.2-0.9-0.3h0c-0.2-0.1-0.4-0.1-0.5-0.2c-1.6-0.7-2.9-1.7-4.1-2.9
		c-1.4-1.4-2.7-2.9-4.1-4.2c-0.2-0.1-0.3-0.3-0.5-0.4c-0.2-0.1-0.3-0.3-0.5-0.4c-0.3-0.2-0.6-0.5-0.9-0.7c-1.5-1.1-3.2-1.9-4.9-2.5
		c-0.8-0.3-1.6-0.5-2.4-0.7c-2.2-0.5-4.6-0.5-6.9-0.2c-0.5,0.1-1,0.2-1.5,0.2c-0.5,0.1-1,0.2-1.5,0.4c-3,0.8-5.7,2.3-7.9,4.5
		c-4.7,4.6-6.2,11.7-4.8,18c0.3,1.5,0.9,3.1,1.5,4.5c0.1,0.2,0.2,0.3,0.2,0.5c0,0,0,0,0,0c0.6,1.3,1.4,2.4,2.4,3.5
		c1.3,1.5,3,2.7,4.5,4c1.5,1.2,2.9,2.5,4,4.1c0.4,0.7,0.8,1.3,1,2c1.3,3.2,1.2,6.6,0.6,10.1c0,0.3-0.1,0.6-0.2,1
		c-0.1,0.3-0.1,0.6-0.2,1c-0.6,2.6-1.3,5.2-1.8,7.7c-0.7,3.5-1.1,7.2,0,10.7c1,3.3,3.2,6.1,5.9,8.3c6.3,5.3,14.6,6.4,22.6,5.6
		c9.7-0.9,19.1-4.2,28.7-5.5c4.7-0.6,9.5-0.8,14.2,0.1c3.4,0.6,6.5,1.8,9.6,3.2c6.6,3,12.8,6.7,19.1,10.1c2.8,1.5,5.7,3,8.7,4.2
		c3.2,1.3,6.7,2.1,10,3.1c4.9,1.4,9.8,2.8,14.7,4c1,0.2,2,0.5,3,0.7c1.8,0.4,3.6,0.8,5.4,1.2c6.7,1.4,13.4,2.7,20.3,2.9
		c1.3,0,2.7,0,4-0.1c1.2-0.1,1.9-0.2,3.2-0.5c0.5-0.1,1-0.3,1.5-0.5c0.1,0,0.1,0,0.1,0l0,0c0,0,0,0,0,0c0,0,0.1,0,0.2-0.1
		c0.1-0.1,0.3-0.1,0.4-0.2c0,0,0.1,0,0.1-0.1c0.2-0.1,0.4-0.2,0.6-0.4c0,0,0.1,0,0.1-0.1c0,0,0,0,0,0c0,0,0,0,0.1-0.1
		c0.1-0.1,0.3-0.2,0.4-0.4c0.1,0,0.2-0.3,0.3-0.3c0,0,0,0,0,0c0.6-0.7,1.5-1.1,2.4-0.6C632.3,275.8,632.7,277,632.1,277.8z"/>
	<path d="M636.5,277.8c-1.5,0.7-3.1,0.6-4.7,0.3c-0.6-0.1-1.1-0.2-1.7-0.3c-0.9-0.2-1.8-0.4-2.7-0.6c-6.7-1.6-13.3-4-19.8-6.2
		c-3.4-1.2-6.8-2.4-10.1-3.6c-1-0.3-2-0.7-2.9-1.1c-5.4-2-10.9-4.1-16.2-6.2c-7.6-3-15.3-6-22.7-9.6c-1.5-0.7-2.9-1.5-4.4-2.3
		c-3.6-1.9-7.3-3.6-11-5.2c-7.5-3.2-15.2-5.7-23.1-8c-14.8-4.3-31.4-8.5-46.4-2.6c-0.9,0.4-2-0.4-2.2-1.2c-0.3-1,0.4-1.8,1.2-2.2
		c3.6-1.4,7.3-2.3,11.1-2.7c7.9-0.9,15.9,0.1,23.6,1.8c7.8,1.7,15.6,4,23.2,6.5c7.7,2.6,15.4,5.6,22.7,9.2c3.3,1.7,6.6,3.5,10,5
		c8,3.6,16.1,6.8,24.5,10c4,1.6,8.1,3.1,12.2,4.6c1,0.4,2,0.7,3,1.1c4.6,1.7,9.2,3.3,13.9,4.9c3.9,1.3,7.8,2.6,11.8,3.7
		c1.5,0.4,3,0.8,4.5,1.2c0.6,0.1,1.2,0.2,1.8,0.3c0.2,0,0.4,0.1,0.6,0.1c0,0,0,0,0,0c0,0,0.1,0,0.1,0c0,0,0.1,0,0.1,0
		c0.2,0,0.3,0,0.4,0c0.4,0,0.8,0.1,1.2,0c1.2-0.2,1.5-0.9,1.4-2c-0.1-1.3-0.7-2.5-1.4-3.6c-0.2-0.3-0.4-0.7-0.6-1c0,0,0,0,0,0
		c-0.1-0.1-0.3-0.4-0.4-0.5c-0.4-0.5-0.9-0.9-1.3-1.4c-0.6-0.5-1.1-1-1.7-1.5c-0.3-0.3-0.7-0.6-1-0.8c-0.1-0.1-0.3-0.2-0.4-0.3l0,0
		c0,0,0,0-0.1,0c-0.1-0.1-0.2-0.2-0.3-0.2c-1.6-1.2-3.2-2.3-4.8-3.4c-3.7-2.5-7.5-4.8-11.4-7c-0.9-0.5-1.8-1-2.7-1.6
		c-3.9-2.2-7.9-4.4-11.8-6.5c-8.5-4.6-17.2-9-25.7-13.7c-2.8-1.5-5.6-3-8.2-4.6c-2.4-1.5-5-2.9-7.5-4.3c-0.5-0.3-1-0.5-1.4-0.8
		c-0.5-0.3-1-0.6-1.5-0.9c-2.8-1.6-5.5-3.3-8-5.3c-0.2-0.1-0.3-0.3-0.5-0.4c-0.8-0.6-1.6-1.3-2.3-2.1c-1.8-1.7-3.4-3.5-4.8-5.5
		c-1.9-2.6-3.7-5.3-4.6-8.5c-1.8-5.8-1.5-12.3,0.5-18.1c0.3-0.8,0.6-1.6,1-2.4c0.4-0.9,1.7-1.1,2.5-0.6c0.9,0.5,1.1,1.6,0.6,2.5
		c-0.1,0.3-0.3,0.6-0.4,0.9c-1.2,2.8-1.7,5.9-1.7,9c-0.1,3.1,0.4,6.2,1.5,9.1c1.1,2.9,3.2,5.6,5.2,8c0.8,0.9,1.6,1.8,2.4,2.6
		c0.6,0.6,1.2,1.1,1.8,1.7c0.2,0.1,0.3,0.3,0.5,0.4c1.2,1,2.4,1.9,3.6,2.8c0.6,0.4,1.2,0.8,1.8,1.1c2.3,1.4,4.6,2.7,6.9,3.9
		c0.4,0.2,0.8,0.4,1.2,0.6c0.2,0.1,0.3,0.2,0.5,0.3c0.2,0.1,0.4,0.2,0.6,0.3c3.1,1.8,6.1,3.7,9.3,5.5c3.6,2,7.3,3.9,10.9,5.9
		c9.2,4.9,18.4,9.7,27.5,14.8c1.1,0.6,2.2,1.2,3.3,1.8c0.9,0.5,1.8,1.1,2.8,1.6c5.9,3.4,11.7,7,16.9,11.2c2.8,2.3,5.2,4.8,6.5,8.2
		C639.9,272.7,639.7,276.4,636.5,277.8z"/>
	<path d="M481.8,198.1c-1.1,2.6-2.7,4.9-4.7,6.8c-5.3,5-13,7.1-19.9,5.4c-2.4-0.6-4.7-1.6-6.7-3c-0.1,0-0.1-0.1-0.2-0.2
		c-0.7-0.6-0.9-1.5-0.4-2.3c0.4-0.7,1.6-1.2,2.3-0.7c0,0,0.1,0,0.1,0.1c2,1.4,4.2,2.4,6.6,2.9c8,1.6,16.3-3,19.7-10.3c0,0,0,0,0-0.1
		c0.1-0.1,0.1-0.3,0.2-0.4c0-0.1,0.1-0.2,0.1-0.2c0.5-0.7,1.6-0.8,2.3-0.4C482.1,196.2,482.2,197.2,481.8,198.1z"/>
	<path class="st5" d="M543.9,327.4c3.6,2,7.5,3.2,11.6,3.6c-5,4.1-10.1,8.2-15.1,12.3c-0.1-12.5-0.2-25-0.4-37.5
		c-0.2-16.1-0.4-32.1-0.6-48.1c1.7,0.9,3.4,1.8,5,2.7c6.4,3.5,12.7,7.3,19.5,9.9c3.4,1.3,7.1,2.2,10.6,3.2c4,1.1,8,2.2,12,3.3
		c0.3,0.1,0.7,0.2,1,0.2c-1.4,2.8-2.5,5.6-3.4,8.6c-0.3,1,0.5,1.8,1.5,1.9c2,0.2,4.1,0.2,6.1,0c-13.5,6.9-26.6,14.6-37.5,25.1
		c-4,3.9-7.6,8.2-10.8,12.8C542.9,326,543.2,327.1,543.9,327.4z"/>
	<path d="M623.2,754h-3.6c1.1-12.4,0.9-24.9-0.2-37.3c-2.7-31-10.9-61.2-21.1-90.5c-10.2-29.2-22.2-57.7-32.6-86.7
		c-10.6-29.5-18.9-59.5-23.1-90.6c-0.3-2.2-0.6-4.4-0.9-6.6c-0.2-1.4-0.3-2.9-0.5-4.3c-3.1-28-3.9-56.1-4.3-84.3
		c0-1.3,0-2.6-0.1-3.9c0-1.3,0-2.5,0-3.8c-0.5-30-0.8-60.1-1.2-90.1c0,0,0-0.1,0-0.2c0.1-2.2,3.5-2.1,3.6,0.2c0,0.6,0,1.1,0,1.6
		c0.2,16,0.4,32.1,0.6,48.1c0.2,12.5,0.2,25,0.4,37.5c0,1.3,0,2.5,0.1,3.8c0.7,52.9,2.8,105.8,17.6,156.9c1.3,4.6,2.7,9.1,4.2,13.6
		c0.5,1.5,1,3,1.5,4.5c18,54.7,44,106.8,55.1,163.6C623,708.1,625.1,731.2,623.2,754z"/>
	<path d="M555.5,165.9c-0.2,0.3-0.5,0.6-0.9,0.8c0,0,0,0,0,0c-0.4,0.2-1,0.2-1.4,0.1c-0.5-0.2-0.9-0.5-1.1-1.2
		c-0.2-0.6-0.4-1.2-0.6-1.8c-0.3-0.9-0.6-1.7-1-2.6c-0.2-0.4-0.4-0.9-0.6-1.3c-0.1-0.2-0.2-0.3-0.2-0.5c-0.2-0.5-0.4-1-0.7-1.5
		c-0.1-0.1-0.1-0.2-0.2-0.4c-0.3-0.6-0.6-1.2-0.9-1.7c-0.2-0.3-0.3-0.6-0.5-0.9c-0.2-0.3-0.3-0.6-0.5-0.9c-0.2-0.3-0.4-0.7-0.6-1
		c-0.2-0.4-0.5-0.7-0.7-1.1c-0.2-0.3-0.5-0.7-0.7-1c-0.2-0.3-0.4-0.6-0.7-1c-0.3-0.3-0.5-0.7-0.8-1c-0.2-0.3-0.5-0.7-0.8-1
		c-0.5-0.6-0.9-1.2-1.5-1.7c-0.4-0.5-0.8-0.9-1.3-1.4c-0.2-0.2-0.4-0.4-0.6-0.6c-0.1-0.1-0.2-0.2-0.3-0.3c-0.3-0.3-0.6-0.6-0.9-0.9
		c-0.5-0.5-0.9-0.9-1.4-1.3c-0.5-0.4-0.9-0.8-1.4-1.2c-0.1,0-0.1-0.1-0.2-0.1c-0.5-0.4-1-0.8-1.5-1.1c-17.8-13.4-42.1-16-63.7-14.3
		c-14.3,1.1-28.8,4.4-41.3,11.5c-10.7,6.1-19.5,14.9-26.2,25.2c-0.4,0.6-0.8,1.3-1.2,1.9c-1.3,2-2.4,4.1-3.5,6.3
		c-0.3,0.5-0.5,1-0.8,1.5c-0.1,0.1-0.1,0.2-0.2,0.4c-0.3,0.6-0.6,1.2-0.9,1.9c-0.2,0.5-0.5,1-0.7,1.5c-0.2,0.3-0.3,0.7-0.5,1
		c0,0,0,0.1,0,0.1c-0.5,1.2-1,2.3-1.5,3.5c0,0.1-0.1,0.2-0.1,0.4c-0.3,0.8-0.6,1.5-0.9,2.3c-0.1,0.3-0.3,0.7-0.4,1
		c-0.2,0.5-0.4,1.1-0.6,1.6c-0.2,0.4-0.3,0.8-0.4,1.3c-0.3,0.8-0.5,1.5-0.8,2.3c-0.1,0.4-0.3,0.8-0.4,1.2c-0.2,0.7-0.4,1.4-0.6,2.1
		c0,0.1-0.1,0.3-0.1,0.4c-0.3,1-0.6,2-0.9,3.1c-0.3,1-0.6,2-0.8,3c0,0.1-0.1,0.2-0.1,0.3c-0.3,1-0.5,2-0.8,3.1c0,0,0,0,0,0.1
		c-0.2,1.1-0.5,2.1-0.7,3.2c0,0,0,0,0,0.1c-0.5,2.1-0.9,4.1-1.3,6.2c-0.1,0.6-0.2,1.1-0.3,1.7c-0.3,1.7-0.6,3.4-0.9,5
		c-0.5,3.2-1,6.5-1.4,9.7c-0.1,1.1-0.3,2.2-0.4,3.2c-0.5,3.9-0.9,7.9-1.3,11.8c-0.1,1.1-0.2,2.3-0.3,3.4c-0.2,1.4-0.3,2.8-0.4,4.2
		c-0.1,1.3-0.2,2.6-0.4,3.9c-0.1,1.5-0.3,3-0.4,4.5c-0.1,0.9-0.2,1.9-0.2,2.8c-0.1,1.6-0.2,3.2-0.4,4.8c-0.3,3.6-0.5,7.1-0.7,10.7
		c-0.1,2.2-0.3,4.3-0.4,6.5c-0.1,1.1-0.1,2.1-0.2,3.2c-0.1,2.1-0.2,4.2-0.3,6.3c-0.1,3-0.3,5.9-0.4,8.9c-0.1,1.5-0.1,2.9-0.2,4.3
		c0,0.2,0,0.5,0,0.7c-0.1,2.8-0.2,5.6-0.3,8.4c-0.1,3-0.2,6.1-0.3,9.1c-0.9,32.9-0.7,65.8,1,98.6c0.6,11.7,1.8,23.2,4.7,34.4
		c0.5,1.8,1,3.5,1.5,5.2c0.7,2.2,1.5,4.4,2.3,6.6c5.5,14.2,12.3,27.5,14.4,42.7c2.1,15.3,1.6,30.9,3.2,46.3
		c1.6,16.1,4.3,32.1,5.5,48.2c2.2,29.7-0.7,59.5-4.6,88.9c-2.6,19.3-5.8,38.8-8.4,58.4H391c4.8-35.7,11.5-71.2,13.4-107.1
		c0.8-15.8,0.7-31.6-0.9-47.4c-1.6-16.6-4.4-33.2-5.6-49.8c-0.5-6.3-0.6-12.6-0.9-19c-0.1-2.2-0.2-4.3-0.3-6.5
		c-0.5-8-1.4-16-3.7-23.8c-4.1-14.1-11.5-27-15.5-41.2c-0.2-0.5-0.3-1.1-0.4-1.6c-0.1-0.2-0.1-0.5-0.2-0.7
		c-3.8-15.4-4.3-31.4-4.9-47.2c-0.7-17.3-1-34.6-0.9-51.9c0-18.4,0.5-36.9,1.3-55.3c0.1-1.4,0.1-2.8,0.2-4.2
		c0.7-14.2,1.6-28.4,2.8-42.5c2.1-25.6,5.3-55,15.8-79.7c0.5-1.1,1-2.2,1.5-3.3c8.9-19.3,22.7-35.5,44.4-44.2
		c22.5-9,50.1-10.3,73.5-4c16.9,4.5,31.6,14.2,40.1,28.9c0.2,0.3,0.4,0.6,0.5,0.9c0.2,0.3,0.3,0.6,0.5,0.9c1.3,2.5,2.5,5.1,3.4,7.9
		c0.2,0.5,0.3,1,0.5,1.4c0,0,0,0,0,0C555.8,165.1,555.7,165.6,555.5,165.9z"/>
	<path d="M544.5,439.9c-0.8,0.9-1.7,1.7-2.6,2.4c-0.3,0.2-0.7,0.5-1,0.7c-5.9,3.9-14.1,5.8-21,4.1c-3.8-0.9-7-3.5-9.7-6.3
		c-3.1-3.2-5.7-6.9-8-10.7c-5.5-9-10.6-18.2-15.9-27.4c-2.5-4.3-4.9-8.7-7.6-12.9c-2.3-3.6-4.9-7.3-8.5-9.7
		c-13.2-9.2-30.6,0.8-38,12.7c-4.9,7.9-7.4,17-9.6,25.9c-2.1,8.9-3.7,18.1-7.3,26.5c-3.3,7.7-8.5,14.7-16.5,17.8
		c-5.2,2-11.3,2.1-16.3-0.2c-1.8-0.8-3.4-2-4.9-3.5c-0.5-0.5-0.6-1.1-0.4-1.6c0.3-1.2,1.9-2.1,3-0.9c0.3,0.3,0.5,0.6,0.8,0.8
		c0.9,0.9,2,1.6,3.2,2.1c6.3,2.9,14.4,0.8,19.5-3.6c6.5-5.7,9.6-14,11.8-22.1c2.4-8.9,3.9-17.9,6.7-26.7c2.6-8.3,6.2-16.7,12.4-23
		c5.3-5.5,12.4-9.7,20-10.9c3.7-0.6,7.4-0.5,11,0.5c3.9,1.1,7.4,3.3,10.3,6.2c3.2,3.1,5.6,7,7.8,10.8c2.6,4.5,5.2,8.9,7.7,13.4
		c2.7,4.6,5.3,9.2,8,13.8c2.4,4.2,4.8,8.4,7.4,12.5c2.4,3.7,5,7.2,8.4,10c2.6,2.2,5.2,3.4,8.6,3.6c3.5,0.2,7-0.4,10.3-1.6
		c2.7-1,5.3-2.4,7.4-4.4c0.2-0.2,0.4-0.4,0.6-0.6C543.5,435.6,546,438.2,544.5,439.9z"/>
	<path d="M481.8,198.1c-1.1,1.8-3.8,0.4-3.3-1.3c0,0,0,0,0-0.1c0.1-0.1,0.1-0.3,0.2-0.4c0-0.1,0.1-0.2,0.1-0.2
		c3.1-5.4,3-12.7,0.5-18.4c-0.1-0.1-0.1-0.3-0.2-0.4c-0.4-0.9-0.3-1.9,0.6-2.5c0.4-0.2,1-0.3,1.4-0.2l0,0c0.4,0.1,0.8,0.4,1,0.8
		c0,0.1,0.1,0.2,0.1,0.2c0.7,1.6,1.3,3.3,1.7,5.1h0C485.3,186.6,484.8,193,481.8,198.1z"/>
	<path d="M567.1,211.8c-0.1,0-0.2,0.1-0.3,0.1c-2,0.5-2.9-2.1-1.6-3.1c0.2-0.1,0.3-0.2,0.5-0.3c0.1,0,0.1-0.1,0.2-0.1
		c1.4-0.4,2.6-0.9,3.8-1.7c5.1-3.1,8.1-8.9,9.2-14.6c0.1-0.6,0.2-1.3,0.3-1.9c0.7-5.5-0.6-10.9-4-15.4c-3.9-5.1-9.9-8.3-16.3-8.4
		c-4.2,0-8.2,1-12.2,2.1c-4.1,1.1-8.2,2.2-12.4,2.6c-8.5,0.9-16.9-0.4-25.4-0.7c-4.2-0.1-8.4-0.1-12.5,0.7c-4.1,0.7-8.2,2-12.2,0.4
		c-6.1-2.4-9.3-9-15.4-11.2c-5.5-2-11.9-1.2-17,1.8c-5.7,3.3-9.2,9.1-10.4,15.4c0,0,0,0,0,0c-1.3,6.4-0.1,13.4,3.6,18.7
		c0,0,0,0,0,0.1c0.1,0.1,0.2,0.3,0.2,0.4c0,0,0,0,0,0c0.2,0.8-0.2,1.6-0.8,2c-0.9,0.5-1.9,0.2-2.5-0.6c0,0,0,0,0,0
		c-1-1.5-1.9-3.1-2.6-4.8c-2.8-6.8-2.6-14.8,0.1-21.5c1.3-3.3,3.1-6.4,5.7-9c2.4-2.4,5.2-4.2,8.4-5.4c6.1-2.4,13.2-2.4,19,0.7
		c3.2,1.7,5.6,4.3,8.2,6.7c2.6,2.4,5.4,4.2,9.1,4c2.2-0.2,4.3-0.8,6.5-1.2c2.3-0.4,4.6-0.6,6.8-0.7c4.5-0.2,9,0.1,13.4,0.5
		c4.4,0.3,8.8,0.7,13.3,0.6c4.5-0.1,8.8-0.8,13.2-2c2.8-0.7,5.7-1.6,8.6-2.1c1.2-0.2,2.4-0.4,3.6-0.6c4-0.5,8-0.3,11.9,1.2
		c6.6,2.6,11.9,7.8,14.5,14.4C586.2,190.8,580,208,567.1,211.8z"/>
	<path d="M400.1,525.6c-1,1.7-2,3.4-3,5.1c-0.5,0.8-0.9,1.6-1.4,2.4c-11.6,20.1-21.6,41.2-29.9,62.8c-8.4,21.9-15.1,44.4-20.1,67.3
		c-5,22.8-8.2,46.1-9.6,69.4c-0.4,7.1-0.7,14.2-0.7,21.3h-3.6c0.1-9,0.5-18,1.1-27c1.7-23.8,5.3-47.5,10.7-70.8
		c5.4-23.4,12.6-46.3,21.6-68.6c8.8-21.9,19.3-43.1,31.5-63.4c0.1-0.1,0.2-0.3,0.3-0.4C398.2,521.8,401.3,523.6,400.1,525.6z"/>
	<circle cx="462.5" cy="187.8" r="6.9"/>
	<circle cx="556.1" cy="192.9" r="6.9"/>
	<path d="M645.8,754h-3.6c-1.5-14.5-2.6-29.1-3.7-43.6c-1.9-24.8-3.8-49.7-8.2-74.2c-4.4-24-11.3-47.8-22.9-69.3
		c-9.9-18.5-24.1-36.1-43.7-44.8c-1-0.5-2-0.9-3-1.3c-2.1-0.8-1.2-4.3,1-3.5c0.2,0.1,0.4,0.2,0.6,0.2c2.4,0.9,4.8,2,7,3.2
		c21,10.9,35.4,31.4,45.3,52.3c11,23.1,17.2,48.1,21,73.3c3.9,25.7,5.5,51.7,7.5,77.6C643.8,734,644.7,744,645.8,754z"/>
</g>
<g id="Calque_1">
	<path class="st4" d="M128.9,713.7c-0.7,4.6-2.5,8.7-5.4,12.3c-2.9,3.6-6.6,5.4-11.3,5.4c-5.8,0-9.8-2.1-11.9-6.3
		c-2.2-4.2-3-8.8-2.4-13.9c0.6-5,2.5-9.5,5.8-13.2c3.3-3.8,7.7-5.2,13.2-4.3c4.9,0.9,8.3,3.2,10.2,7.1
		C129,704.8,129.6,709.1,128.9,713.7z"/>
	<path class="st4" d="M131.5,647.7c-0.4,4.5-2.1,8.6-5,12.3c-2.9,3.8-6.7,5.6-11.3,5.6c-5.8,0-9.7-1.9-11.9-5.6
		c-2.2-3.8-2.9-7.9-2.2-12.3c0.7-4.5,2.6-8.6,5.6-12.4c3-3.8,7-5.6,11.9-5.6c4.9,0,8.4,1.9,10.4,5.6
		C131.1,639.1,131.9,643.2,131.5,647.7z"/>
	<path class="st4" d="M326,712.2c-1.3,7.1-3.8,13.6-7.4,19.7c-3.6,6.1-7.9,9.1-12.8,9.1c-3.8,0-6.6-1.4-8.7-4.3
		c-2-2.9-3.2-6.4-3.7-10.6c-0.4-4.2-0.2-8.8,0.9-13.9c1-5,2.5-9.7,4.3-13.9c1.9-4.2,4.2-7.7,6.9-10.6c2.7-2.9,5.8-4.3,9.3-4.3
		c5.5,0,9,3,10.6,9.1C327.1,698.5,327.3,705.1,326,712.2z"/>
	<path class="st4" d="M500.5,712.2c-1.3,7.1-3.8,13.6-7.4,19.7c-3.6,6.1-7.9,9.1-12.8,9.1c-3.8,0-6.6-1.4-8.7-4.3
		c-2-2.9-3.2-6.4-3.7-10.6c-0.4-4.2-0.1-8.8,0.9-13.9c1-5,2.5-9.7,4.3-13.9c1.9-4.2,4.2-7.7,6.9-10.6c2.7-2.9,5.9-4.3,9.3-4.3
		c5.5,0,9,3,10.6,9.1C501.7,698.5,501.8,705.1,500.5,712.2z"/>
	<path class="st4" d="M676.4,647.7c-0.4,4.5-2.1,8.6-5,12.3c-2.9,3.8-6.6,5.6-11.3,5.6c-5.8,0-9.7-1.9-11.9-5.6
		c-2.2-3.8-2.9-7.9-2.2-12.3c0.7-4.5,2.6-8.6,5.6-12.4c3-3.8,7-5.6,11.9-5.6c4.9,0,8.4,1.9,10.4,5.6
		C676,639.1,676.8,643.2,676.4,647.7z"/>
	<path class="st4" d="M673.8,713.7c-0.7,4.6-2.5,8.7-5.4,12.3c-2.9,3.6-6.6,5.4-11.3,5.4c-5.8,0-9.8-2.1-11.9-6.3
		c-2.2-4.2-3-8.8-2.4-13.9c0.6-5,2.5-9.5,5.8-13.2c3.3-3.8,7.7-5.2,13.2-4.3c4.9,0.9,8.3,3.2,10.2,7.1
		C673.9,704.8,674.5,709.1,673.8,713.7z"/>
	<g>
		<path class="st4" d="M839.8,814.2c-4.3,0-8.6-0.5-12.9-1.5c-6.6-1.5-12.1-4-16.4-7.5c-4.2-3.5-7.7-7.8-10.3-12.8
			c-2.5-4.9-4.4-10.3-5.4-15.9c-1-5.5-1.5-11.3-1.5-17.2c-0.3-4.9-0.3-10.1,0-15.3c0.3-5.1,0.7-10.4,1.3-15.7l2.2-17.8
			c0.3-3.4,0.4-6,0.4-7.8c0-1-0.5-3-2.7-6.5c-4.7-7-9.8-14.7-15.8-23.3c-5.4-7.9-10.6-16-15.4-23.9c-1-1.6-2-3.3-3-5
			c-0.6,2.6-1.4,5.2-2.2,7.7c-3.2,9.1-8,17.5-14.4,25.1c4.6,3.9,8.5,8.4,11.4,13.5c7.4,12.5,10,24.9,7.6,36.9
			c-2.4,11.8-7.7,22.8-15.8,32.5c-8.1,9.7-18.1,17.9-29.8,24.5c-11.7,6.6-23.1,10.8-34,12.6c-6.6,1.2-13.2,1.8-19.7,1.8
			c-6.1,0-12.3-0.5-18.3-1.6c-3.2,4.1-7.2,7.3-11.9,9.6c-4.9,2.4-10.3,3.9-16,4.5c-2.1,0.2-4.1,0.3-6.1,0.3
			c-10.8,0-20-3.5-27.3-10.4c-8.5-8-14.3-18.3-17.2-30.4c-3.2-13.1-4.5-26.6-3.7-40.2c0.2-4.3,0.5-8.6,0.7-12.8
			c-1.8,8.6-4.2,17-7.2,25.1c-4.5,12.6-10.8,24.1-18.7,34.3c-7.6,10.5-17,19-27.9,25.2c-10.9,6.2-22.4,10-34.3,11.3
			c-3,0.3-6,0.5-9,0.5c-8.9,0-17.8-1.5-26.6-4.5c-11.7-4-22.3-10.9-31.8-20.7c-8.8-9.4-15.9-20.1-21.2-32c-2-4.4-3.8-9-5.3-13.7
			c-4.5,12.4-10.8,23.8-18.5,33.8c-7.6,10.5-17,19-27.9,25.2c-10.9,6.2-22.4,10-34.3,11.3c-3,0.3-6,0.5-9,0.5
			c-8.9,0-17.8-1.5-26.5-4.5c-11.7-4-22.4-10.9-31.8-20.7c-8.8-9.4-15.9-20.1-21.2-32c-1.1-2.4-2.1-4.8-3-7.4
			c-2.1,3.5-4.5,7-7.2,10.2c-8.1,9.7-18.1,17.9-29.8,24.5c-11.7,6.6-23.1,10.8-34,12.6c-6.6,1.2-13.2,1.8-19.7,1.8
			c-6.1,0-12.3-0.5-18.3-1.6c-3.2,4.1-7.2,7.3-11.9,9.6c-4.9,2.4-10.3,3.9-16,4.5c-2.1,0.2-4.1,0.3-6.1,0.3
			c-10.8,0-20-3.5-27.3-10.4c-8.5-8-14.3-18.3-17.2-30.4c-3.2-13.1-4.5-26.6-3.7-40.2c0.7-13.3,1.4-26.7,1.9-39.6l3-35.1l0.4-18.7
			l0-0.1c0.1-0.6,0.3-2.1-2.9-3.9c-3-1.7-5.6-3.4-7.7-5.2c-4.6-4.3-7.8-9.3-9.3-14.8c-1.5-5.5-1.7-11.1-0.5-16.6
			c1.2-5.4,3.5-10.6,6.8-15.2c3.3-4.7,7.6-8.7,12.7-12c2.7-1.8,5.6-3.4,8.7-4.9c2.8-1.4,5.8-2.4,8.9-3c2.9-4.7,6.4-8.7,10.4-11.9
			c7.5-6.6,16.9-10,27.7-10c5.1,0,10.2,0.8,15.1,2.5c5,1.7,9.6,4.4,13.5,8c2.5,2.4,4,4.1,4.9,5.2c0.1,0.1,0.9,0.8,4.1,0.8h0.1
			l16.5,1.3c9.3,0.6,18.7,2.1,27.9,4.6c9.3,2.5,18,6.3,25.9,11.3c9.7,5.9,17.3,13.3,22.3,21.9c1.8,3.1,3.4,6.3,4.6,9.6
			c4.6-11.1,10.5-21.3,17.4-30.4c7.5-9.8,16.6-18,27.2-24.3c10.7-6.4,23.1-9.6,37-9.6c12.1,0,23.3,2.4,33.3,7.1
			c10,4.7,19,11,26.8,18.8c7.8,7.8,14.4,16.9,19.6,27.1c3.6,7,6.7,14.3,9.2,21.7c0.9-2.6,1.9-5.2,2.9-7.8c4.8-12.1,11-23.2,18.5-33
			c7.5-9.8,16.6-18,27.2-24.3c10.7-6.4,23.1-9.6,37-9.6c12.1,0,23.3,2.4,33.3,7.1c10,4.7,19,11,26.8,18.8
			c7.7,7.7,14.2,16.7,19.4,26.7c1.3-4.1,3.3-8.1,5.9-11.8c3.3-4.7,7.6-8.7,12.7-12c2.7-1.8,5.6-3.4,8.7-4.9c2.8-1.4,5.8-2.4,8.9-3
			c2.9-4.7,6.4-8.7,10.4-11.9c7.5-6.6,16.9-10,27.7-10c5.1,0,10.2,0.8,15.1,2.5c5,1.7,9.6,4.4,13.5,8c2.5,2.4,4,4.1,4.9,5.2
			c0.1,0.1,0.9,0.8,4.1,0.8h0.1l16.5,1.3c9.3,0.6,18.7,2.1,27.9,4.6c9.3,2.5,18,6.3,25.9,11.3c4.6,2.8,8.8,6,12.4,9.4
			c0.6-4.5,1.8-8.9,3.8-13.1c2.4-5.2,5.6-10,9.5-14c3.9-4,8.4-7.3,13.6-9.7c5.2-2.4,10.7-3.7,16.5-3.7c8.8,0,16.4,2.5,22.7,7.4
			c6.1,4.8,11.3,10.8,15.4,17.9c4.1,7,7.5,14.5,10.3,22.4c1.9,5.4,3.7,10.5,5.3,15.3c1.1-3.2,2.2-6.5,3.3-10
			c1.7-5.5,3.7-10.9,5.9-16.2c2.2-5.3,4.9-10.4,8-15.2c3.1-4.9,7-9.3,11.5-12.8c6.8-5.2,14.5-7.8,22.7-7.8c2.4,0,4.9,0.2,7.5,0.7
			c11.1,1.9,20.5,6.9,28,14.7c7.2,7.2,11.5,15.7,12.9,25.1c1.3,9.3,0.8,18.8-1.6,28.3c-2.3,9.3-5.9,18.7-10.6,27.7
			c-4.6,9-9.5,17.1-14.4,24.1c-5.8,8.6-11.9,16.8-18.2,24.3c-1.5,2.3-3.1,4.5-4.9,6.5c-1.3,1.4-1.9,3.1-1.6,5.1l0,0.1l0.9,19.9
			c0.9,10.6,1.3,21.9,1.3,33.7c0,11.9-2.2,23.2-6.7,33.5c-5.1,11.4-13.2,19.4-24,23.8C853.5,812.9,846.7,814.2,839.8,814.2z
			 M763.9,587.4c-0.3,7.2,0.7,14.3,2.9,20.9c2.2,6.7,5.1,13.3,8.5,19.6c5.4,9.9,11.6,19.9,18.5,29.7c6.8,9.6,13.6,19.6,20.4,29.9
			l0.1,0.2l0.1,0.2c0.8,1.9,1.7,3.6,2.8,5c1.5,2,2,4.4,1.7,7.3l-3,26.4c-0.6,6.1-1.1,12.5-1.5,19c-0.4,6.3-0.4,12.8,0.2,19.2
			c0.3,7,1.9,13.3,4.8,19c2.7,5.3,7.7,8.3,15.1,9.1c1.4,0.2,2.9,0.3,4.4,0.3c3.3,0,6.8-0.4,10.3-1.3c4.9-1.2,8.8-3.6,11.7-7.3
			c3.8-4.9,6.1-10.5,7-16.8c0.8-6.4,1.4-12.9,1.7-19.3c0.3-5.1,0.3-10.4,0-15.6c-0.3-5.3-0.9-15.4-0.9-15.4v-0.1
			c0-1.9-0.3-4.1-0.8-6.7c-0.6-2.8-1-5.7-1.3-8.7c-0.3-3-0.3-5.9,0-8.5c0.3-2.9,1.4-5.2,3.1-7c5.1-6,10.1-12.3,14.8-18.7
			c4.7-6.4,9.5-13.1,14-19.7c5.7-8.2,10.9-17.5,15.4-27.6c4.5-9.9,6.3-20,5.5-30c-0.3-3.8-1.4-7.4-3.2-10.9
			c-1.9-3.5-4.3-6.5-7.3-8.9c-3-2.4-6.3-4.3-10-5.5c-1.8-0.6-3.8-0.9-5.7-0.9c-1.8,0-3.6,0.3-5.5,0.7c-3.1,0.8-5.8,2.4-8.2,4.9
			c-2.5,2.6-4.6,5.6-6.4,8.9c-1.8,3.4-3.4,6.9-4.6,10.5c-1.3,3.7-2.4,7-3.2,9.9c-3.4,9.6-6.8,19.5-10,29.3
			c-3.2,9.8-7.8,19.4-13.6,28.4l-1.6,2.5l-1.7-2.5c-5.3-7.7-9.4-16.7-12.2-26.8c-2.7-9.9-5.7-19.4-8.8-28.2c-1.4-3.4-3-7.4-4.8-12.2
			c-1.7-4.5-3.8-8.8-6.3-12.9c-2.5-4-5.4-7.4-8.7-10.1c-3.1-2.6-6.7-3.9-10.8-3.9c-6.1,0-11.1,2.5-15.4,7.7
			C766.9,575.8,764.5,581.5,763.9,587.4z M469.1,561.5c-11.6,0-22.1,3.3-31.1,9.8c-9.1,6.6-17,15.4-23.3,26
			c-6.4,10.8-11.4,23.3-14.9,37.2c-3.6,13.9-5.5,28.3-5.8,42.6c-0.3,14.4,0.9,28.7,3.7,42.7c2.7,13.9,7.1,26.4,13.2,37.1
			c6,10.7,13.8,19.4,23,26c9.1,6.5,20.3,9.8,33.1,9.8c17,0,31.5-5.6,43-16.8c11.7-11.3,20.6-25.7,26.6-42.7c6-17.2,9.1-36,9.4-56.1
			c0.3-20-2.4-38.9-7.9-56.1c-5.5-17.1-14.1-31.4-25.7-42.7C500.9,567.1,486.4,561.5,469.1,561.5z M294.5,561.5
			c-11.6,0-22.1,3.3-31.1,9.8c-9.1,6.6-17,15.4-23.3,26c-6.4,10.8-11.4,23.3-14.9,37.2c-3.6,13.9-5.5,28.3-5.8,42.6
			c-0.3,14.4,0.9,28.8,3.6,42.7c2.7,13.9,7.1,26.3,13.2,37.1c6,10.7,13.8,19.4,23,26c9.1,6.5,20.3,9.8,33.1,9.8
			c17,0,31.5-5.6,43-16.8c11.7-11.3,20.6-25.7,26.6-42.7c6-17.2,9.1-36.1,9.4-56.1c0.3-20.1-2.4-38.9-7.9-56.1
			c-5.5-17.1-14.1-31.5-25.7-42.7C326.4,567.1,311.8,561.5,294.5,561.5z M584.5,583.5c-4.8,1.6-9,4.5-12.6,8.5
			c-2.8,3.3-4.2,6.6-4.1,9.6c0.1,3.2,1.1,6,2.9,8.4c1.8,2.5,4.4,4.5,7.7,6.1c3.3,1.6,6.9,2.4,10.6,2.4h2.2l-0.3,2.2
			c-1.4,12.6-2.4,25.4-3,38c-0.6,12.6-1.5,25.6-2.6,38.6c-0.6,9.9-1,20.2-1.3,30.6c-0.3,10.2,0.3,20.5,1.7,30.4
			c0.8,6.4,2.7,13,5.5,19.4c2.6,6.1,7,9.8,13.4,11.4c2.4,0.7,4.7,1,7.1,1c1.5,0,3-0.1,4.5-0.4c3.9-0.7,7.3-2.1,10.2-4.2
			c2.8-2.1,5.1-5,6.7-8.6c0.7-2.2,2.2-3.4,4.3-3.4c0.8,0,1.6,0.2,2.5,0.5c2.1,0.8,3.8,1.4,5.1,1.6c5.4,0.9,11,1.4,16.7,1.4
			c2.8,0,5.7-0.1,8.6-0.4c8.6-0.7,16.9-2.5,24.8-5.3c7.9-2.8,15.3-6.8,22-11.8c6.7-5,12.5-11.3,17.3-18.6c4.1-6.3,6.4-12.6,6.8-18.7
			c0.4-6.1-0.6-11.9-3.1-17.2c-2.5-5.3-6.3-10.1-11.4-14.2c-5.1-4.2-11.2-7.4-18.2-9.6l-4.8-1.5l4.6-2.2c5.8-2.8,11.3-6.7,16.3-11.7
			c5-5,9-10.7,12-17c2.9-6.2,4.7-12.8,5.2-19.5c0.5-6.5-0.6-13.1-3.3-19.4c-3.8-7.9-9.7-14.2-17.4-18.8c-7.9-4.6-16-8.1-24.1-10.4
			c-7.1-1.4-14.2-2.4-21.2-3c-7-0.6-14.2-0.9-21.3-0.9c-1.3,0-2.8,0.1-4.4,0.2c-1.6,0.2-3.2,0.2-4.7,0.2h-1.4l-2.3-5.7l0-0.1
			c-0.7-2.5-2.1-4.4-4-5.9l-0.1-0.1l-0.1-0.1c-2.1-2.1-4.3-3.4-6.5-4c-2.4-0.7-5.2-1-8.1-1c-4.5,0-8.7,1.2-12.3,3.6
			c-3.7,2.4-6.7,5.8-8.8,10l0,0.1l-0.1,0.1c-2.1,3.4-3.2,4.3-3.9,4.8c-0.6,0.4-1.8,0.9-5.5,1.7L584.5,583.5z M39.6,583.5
			c-4.8,1.6-9,4.5-12.6,8.5c-2.8,3.3-4.2,6.6-4.1,9.6c0.1,3.2,1.1,6,2.9,8.4c1.8,2.5,4.4,4.5,7.7,6.1c3.3,1.6,6.9,2.4,10.6,2.4h2.2
			l-0.3,2.2c-1.4,12.6-2.4,25.4-3,38c-0.6,12.6-1.5,25.6-2.6,38.6c-0.6,9.9-1,20.2-1.3,30.6c-0.3,10.2,0.3,20.5,1.7,30.4
			c0.8,6.4,2.7,13,5.5,19.4c2.6,6.1,7,9.8,13.4,11.4c2.4,0.7,4.7,1,7.1,1c1.5,0,3-0.1,4.5-0.4c3.9-0.7,7.3-2.1,10.2-4.2
			c2.8-2.1,5.1-5,6.7-8.6c0.7-2.2,2.2-3.4,4.3-3.4c0.8,0,1.6,0.2,2.5,0.5c2.1,0.8,3.8,1.4,5.1,1.6c5.4,0.9,11,1.4,16.7,1.4
			c2.8,0,5.7-0.1,8.6-0.4c8.6-0.7,16.9-2.5,24.8-5.3c7.9-2.8,15.3-6.8,22-11.8c6.7-5,12.5-11.3,17.3-18.6c4.1-6.3,6.4-12.6,6.8-18.7
			c0.4-6.1-0.6-11.9-3.1-17.2c-2.4-5.3-6.3-10.1-11.4-14.2c-5.1-4.2-11.2-7.4-18.2-9.6l-4.8-1.5l4.6-2.2c5.8-2.8,11.3-6.7,16.3-11.7
			c5-5,9-10.7,12-17c2.9-6.2,4.7-12.8,5.2-19.5c0.5-6.5-0.6-13.1-3.3-19.4c-3.8-7.9-9.7-14.2-17.4-18.8c-7.9-4.6-16-8.1-24.1-10.4
			c-7.1-1.4-14.2-2.4-21.1-3c-7-0.6-14.2-0.9-21.3-0.9c-1.3,0-2.8,0.1-4.4,0.2c-1.6,0.2-3.2,0.2-4.7,0.2h-1.4l-2.3-5.7l0-0.1
			c-0.7-2.5-2.1-4.4-4-5.9l-0.1-0.1l-0.1-0.1c-2.1-2.1-4.3-3.4-6.5-4c-2.4-0.7-5.2-1-8.1-1c-4.5,0-8.7,1.2-12.3,3.6
			c-3.7,2.4-6.7,5.8-8.8,10l0,0.1l-0.1,0.1c-2.1,3.4-3.2,4.3-3.9,4.8c-0.6,0.4-1.8,0.9-5.5,1.7L39.6,583.5z M562.8,631.5
			c2.1,9.6,3.6,19.5,4.4,29.7l0.5-5.7l0.4-18.7l0-0.1c0.1-0.6,0.3-2.1-2.9-3.9C564.3,632.5,563.5,632,562.8,631.5z"/>
		<path class="st6" d="M622.9,541.3c4.9,0,9.8,0.8,14.5,2.4c4.8,1.6,9,4.1,12.8,7.6c2.3,2.3,3.9,4,4.8,5c0.9,1,2.8,1.5,5.6,1.5
			l16.5,1.3c9.2,0.6,18.4,2.1,27.5,4.5c9.1,2.5,17.6,6.1,25.3,11c5.9,3.6,11,7.7,15.1,12.3c0-0.3,0-0.7,0.1-1
			c0.3-5.5,1.6-10.8,3.9-15.8c2.3-5.1,5.3-9.5,9.1-13.4c3.8-3.9,8.1-7,13-9.3c4.9-2.3,10.1-3.5,15.6-3.5c8.4,0,15.5,2.3,21.4,6.9
			c5.9,4.6,10.9,10.4,14.9,17.3c4,6.9,7.4,14.3,10.2,22.1c2.7,7.8,5.1,14.7,7.2,20.8c1.7-4.9,3.5-10.1,5.2-15.6
			c1.7-5.5,3.7-10.8,5.8-16c2.2-5.2,4.8-10.2,7.8-14.9c3-4.8,6.7-8.9,11.1-12.3c6.5-4.9,13.6-7.4,21.5-7.4c2.3,0,4.7,0.2,7.1,0.6
			c10.7,1.9,19.6,6.6,26.9,14.1c6.9,6.9,11.1,14.9,12.4,24c1.3,9.1,0.8,18.3-1.5,27.5c-2.3,9.2-5.8,18.3-10.4,27.3
			c-4.6,9-9.4,16.9-14.3,23.8c-5.8,8.7-11.8,16.8-18.2,24.3c-1.4,2.3-3,4.4-4.8,6.3c-1.7,1.9-2.5,4.1-2.2,6.7l0.9,19.9
			c0.9,10.7,1.3,21.9,1.3,33.6c0,11.7-2.2,22.6-6.5,32.7c-4.9,11-12.6,18.6-23,22.7c-6.4,2.6-12.9,3.9-19.6,3.9
			c-4.1,0-8.3-0.5-12.5-1.5c-6.4-1.4-11.6-3.8-15.6-7.1c-4.1-3.3-7.3-7.4-9.8-12.1c-2.4-4.8-4.2-9.9-5.2-15.4
			c-1-5.5-1.5-11.1-1.5-16.9c-0.3-4.9-0.3-10,0-15.2c0.3-5.2,0.7-10.4,1.3-15.6l2.2-17.8c0.3-3.5,0.4-6.1,0.4-8c0-1.9-1-4.4-3-7.6
			c-5.2-7.8-10.5-15.6-15.8-23.4c-5.3-7.8-10.5-15.7-15.4-23.8c-2-3.2-3.9-6.4-5.7-9.7c-0.7,4.2-1.7,8.5-3.2,12.8
			c-3.3,9.5-8.5,18.2-15.4,26c5.2,4,9.4,8.8,12.6,14.3c7.2,12.1,9.7,24,7.4,35.5c-2.3,11.5-7.4,22.1-15.4,31.6
			c-7.9,9.5-17.7,17.5-29.2,24s-22.7,10.6-33.4,12.4c-6.5,1.2-13,1.7-19.4,1.7s-12.8-0.6-19.2-1.7c-3.2,4.3-7.1,7.6-11.9,10
			c-4.8,2.3-9.9,3.8-15.4,4.3c-2,0.2-4,0.3-5.9,0.3c-10.3,0-19-3.3-25.9-9.9c-8.2-7.8-13.8-17.6-16.7-29.5
			c-3.2-13-4.4-26.2-3.7-39.6c0.7-13.4,1.4-26.6,2-39.6l3-35.1L570,637c0.3-2.3-1-4.3-3.9-5.8c-2.5-1.4-4.7-2.8-6.6-4.3
			c3,11.7,4.9,23.9,5.7,36.8c0.9,13.4,0.4,26.7-1.5,39.9c-1.9,13.1-5.1,25.9-9.5,38.3c-4.5,12.4-10.6,23.7-18.4,33.8
			c-7.5,10.4-16.6,18.6-27.3,24.7c-10.7,6.1-21.9,9.7-33.6,11c-2.9,0.3-5.8,0.5-8.8,0.5c-8.7,0-17.4-1.5-25.9-4.4
			c-11.4-3.9-21.7-10.6-31-20.1c-8.7-9.2-15.6-19.7-20.8-31.4c-2.8-6.3-5.1-12.7-7.1-19.3c-0.6,1.8-1.2,3.5-1.8,5.2
			c-4.5,12.4-10.6,23.7-18.4,33.8c-7.5,10.4-16.6,18.6-27.3,24.7c-10.7,6.1-21.9,9.7-33.6,11c-2.9,0.3-5.8,0.5-8.8,0.5
			c-8.7,0-17.4-1.5-25.9-4.4c-11.4-3.9-21.7-10.6-31-20.1c-8.7-9.2-15.6-19.7-20.8-31.4c-1.7-3.7-3.1-7.5-4.5-11.4
			c-2.4,4.8-5.5,9.4-9.1,13.7c-7.9,9.5-17.7,17.5-29.2,24s-22.7,10.6-33.3,12.4c-6.5,1.2-13,1.7-19.4,1.7c-6.4,0-12.8-0.6-19.2-1.7
			c-3.2,4.3-7.1,7.6-11.9,10c-4.8,2.3-9.9,3.8-15.4,4.3c-2,0.2-4,0.3-5.9,0.3c-10.3,0-19-3.3-25.9-9.9c-8.2-7.8-13.8-17.6-16.7-29.5
			c-3.2-13-4.4-26.2-3.7-39.6s1.4-26.6,2-39.6l3-35.1l0.4-18.6c0.3-2.3-1-4.3-3.9-5.8c-2.9-1.6-5.3-3.2-7.4-5
			c-4.3-4-7.2-8.7-8.7-13.9c-1.4-5.2-1.6-10.4-0.4-15.6c1.2-5.2,3.3-10,6.5-14.5c3.2-4.5,7.2-8.3,12.1-11.5c2.6-1.7,5.4-3.3,8.4-4.8
			c3-1.4,6.1-2.4,9.3-3c2.9-4.9,6.4-8.9,10.4-12.1c7.2-6.3,16-9.5,26.4-9.5c4.9,0,9.8,0.8,14.5,2.4c4.8,1.6,9,4.1,12.8,7.6
			c2.3,2.3,3.9,4,4.8,5c0.9,1,2.8,1.5,5.6,1.5l16.5,1.3c9.2,0.6,18.4,2.1,27.5,4.5c9.1,2.5,17.6,6.1,25.3,11
			c9.5,5.8,16.8,12.8,21.7,21.2c2.7,4.6,4.8,9.4,6.2,14.4c0.3-0.8,0.6-1.6,1-2.5c4.8-12,10.8-22.8,18.2-32.5
			c7.4-9.7,16.2-17.6,26.6-23.8c10.4-6.2,22.4-9.3,36-9.3c11.8,0,22.7,2.3,32.5,6.9c9.8,4.6,18.5,10.8,26.2,18.4
			c7.6,7.7,14.1,16.5,19.3,26.6c4.5,8.8,8.2,17.9,11,27.2c1.4-4.5,3-9,4.8-13.5c4.8-12,10.8-22.8,18.2-32.5
			c7.4-9.7,16.2-17.6,26.6-23.8c10.4-6.2,22.4-9.3,36-9.3c11.8,0,22.7,2.3,32.5,6.9c9.8,4.6,18.6,10.8,26.2,18.4
			c7.7,7.7,14.1,16.5,19.3,26.6c0.8,1.5,1.5,3,2.2,4.5c0.1-0.6,0.2-1.3,0.4-1.9c1.2-5.2,3.3-10,6.5-14.5c3.2-4.5,7.2-8.3,12.1-11.5
			c2.6-1.7,5.4-3.3,8.5-4.8c3-1.4,6.1-2.4,9.3-3c2.9-4.9,6.3-8.9,10.4-12.1C603.7,544.5,612.5,541.3,622.9,541.3 M611.8,792.3
			c1.6,0,3.2-0.1,4.8-0.4c4.2-0.7,7.9-2.2,11-4.5c3.2-2.3,5.6-5.5,7.4-9.5c0.4-1.4,1.2-2.1,2.4-2.1c0.5,0,1.1,0.1,1.7,0.4
			c2.2,0.9,4,1.5,5.4,1.7c5.6,1,11.3,1.4,17,1.4c2.9,0,5.8-0.1,8.7-0.4c8.8-0.7,17.2-2.5,25.3-5.4c8.1-2.9,15.6-6.9,22.5-12.1
			c6.9-5.2,12.8-11.5,17.8-19.1c4.3-6.6,6.7-13.2,7.1-19.7c0.4-6.5-0.7-12.6-3.2-18.2c-2.6-5.6-6.6-10.6-11.9-14.9
			c-5.3-4.3-11.6-7.7-18.8-10c6.1-2.9,11.7-6.9,16.9-12.1c5.2-5.2,9.3-11,12.4-17.5c3-6.5,4.8-13.2,5.4-20.1s-0.6-13.7-3.5-20.4
			c-4.1-8.4-10.1-14.9-18.2-19.7c-8.1-4.8-16.3-8.3-24.7-10.6c-7.2-1.4-14.4-2.5-21.4-3s-14.2-0.9-21.4-0.9c-1.4,0-3,0.1-4.6,0.2
			c-1.6,0.2-3.1,0.2-4.5,0.2l-1.7-4.3c-0.9-2.9-2.4-5.2-4.8-6.9c-2.3-2.3-4.8-3.8-7.4-4.5c-2.6-0.7-5.5-1.1-8.7-1.1
			c-4.9,0-9.4,1.3-13.4,3.9c-4,2.6-7.2,6.2-9.5,10.8c-1.4,2.3-2.5,3.7-3.2,4.1c-0.7,0.4-2.4,0.9-5,1.5l-7.8,2.6
			c-5.2,1.7-9.7,4.8-13.4,9.1c-3.2,3.8-4.7,7.4-4.6,11c0.1,3.6,1.2,6.8,3.2,9.5c2,2.8,4.8,5,8.4,6.7c3.6,1.7,7.4,2.6,11.5,2.6
			c-1.4,12.7-2.5,25.4-3,38.1c-0.6,12.7-1.5,25.6-2.6,38.6c-0.6,10.1-1,20.4-1.3,30.8c-0.3,10.4,0.3,20.7,1.7,30.8
			c0.9,6.7,2.7,13.3,5.6,19.9c2.9,6.7,7.8,10.8,14.7,12.6C606.7,792,609.3,792.3,611.8,792.3 M66.9,792.3c1.6,0,3.2-0.1,4.8-0.4
			c4.2-0.7,7.9-2.2,11.1-4.5c3.2-2.3,5.6-5.5,7.4-9.5c0.4-1.4,1.2-2.1,2.4-2.1c0.5,0,1.1,0.1,1.7,0.4c2.2,0.9,4,1.5,5.4,1.7
			c5.6,1,11.3,1.4,17,1.4c2.9,0,5.8-0.1,8.7-0.4c8.8-0.7,17.2-2.5,25.3-5.4c8.1-2.9,15.6-6.9,22.5-12.1c6.9-5.2,12.8-11.5,17.8-19.1
			c4.3-6.6,6.7-13.2,7.1-19.7c0.4-6.5-0.7-12.6-3.2-18.2c-2.6-5.6-6.6-10.6-11.9-14.9s-11.6-7.7-18.8-10c6.1-2.9,11.7-6.9,16.9-12.1
			c5.2-5.2,9.3-11,12.4-17.5c3-6.5,4.8-13.2,5.4-20.1s-0.6-13.7-3.5-20.4c-4.1-8.4-10.1-14.9-18.2-19.7c-8.1-4.8-16.3-8.3-24.7-10.6
			c-7.2-1.4-14.4-2.5-21.4-3c-7.1-0.6-14.2-0.9-21.4-0.9c-1.4,0-3,0.1-4.5,0.2c-1.6,0.2-3.1,0.2-4.5,0.2l-1.7-4.3
			c-0.9-2.9-2.5-5.2-4.8-6.9c-2.3-2.3-4.8-3.8-7.4-4.5c-2.6-0.7-5.5-1.1-8.7-1.1c-4.9,0-9.4,1.3-13.4,3.9c-4,2.6-7.2,6.2-9.5,10.8
			c-1.5,2.3-2.5,3.7-3.2,4.1c-0.7,0.4-2.4,0.9-5,1.5l-7.8,2.6c-5.2,1.7-9.7,4.8-13.4,9.1c-3.2,3.8-4.7,7.4-4.5,11
			c0.1,3.6,1.2,6.8,3.2,9.5c2,2.8,4.8,5,8.4,6.7c3.6,1.7,7.4,2.6,11.5,2.6c-1.4,12.7-2.4,25.4-3,38.1c-0.6,12.7-1.4,25.6-2.6,38.6
			c-0.6,10.1-1,20.4-1.3,30.8c-0.3,10.4,0.3,20.7,1.7,30.8c0.9,6.7,2.7,13.3,5.6,19.9c2.9,6.7,7.8,10.8,14.7,12.6
			C61.8,792,64.3,792.3,66.9,792.3 M466.9,794.7c17.6,0,32.4-5.8,44.4-17.3c12-11.5,21-26.1,27.1-43.5c6.1-17.5,9.2-36.4,9.5-56.8
			c0.3-20.4-2.4-39.3-8-56.7c-5.6-17.5-14.4-32-26.2-43.5c-11.8-11.5-26.7-17.3-44.6-17.3c-12.1,0-22.9,3.4-32.3,10.2
			c-9.4,6.8-17.3,15.7-23.8,26.6c-6.5,11-11.6,23.5-15.2,37.7c-3.6,14.2-5.6,28.5-5.8,43.1c-0.3,14.6,0.9,29,3.7,43.1
			c2.7,14.2,7.2,26.7,13.4,37.7c6.2,11,14.1,19.9,23.6,26.6C442.3,791.3,453.7,794.7,466.9,794.7 M292.4,794.7
			c17.6,0,32.4-5.8,44.4-17.3s21-26.1,27.1-43.5c6.1-17.5,9.2-36.4,9.5-56.8c0.3-20.4-2.4-39.3-8-56.7c-5.6-17.5-14.4-32-26.2-43.5
			c-11.8-11.5-26.7-17.3-44.6-17.3c-12.1,0-22.9,3.4-32.3,10.2c-9.4,6.8-17.3,15.7-23.8,26.6c-6.5,11-11.6,23.5-15.2,37.7
			c-3.6,14.2-5.6,28.5-5.9,43.1c-0.3,14.6,0.9,29,3.7,43.1c2.7,14.2,7.2,26.7,13.4,37.7c6.2,11,14.1,19.9,23.6,26.6
			C267.7,791.3,279.1,794.7,292.4,794.7 M838.8,795c3.5,0,7.1-0.5,10.8-1.4c5.3-1.3,9.6-4,12.8-8c4-5.2,6.5-11.1,7.4-17.8
			c0.9-6.6,1.4-13.1,1.7-19.5c0.3-5.2,0.3-10.5,0-15.8c-0.3-5.3-0.6-10.5-0.9-15.4c0-2-0.3-4.4-0.9-7.1c-0.6-2.7-1-5.5-1.3-8.4
			s-0.3-5.6,0-8c0.3-2.5,1.1-4.4,2.6-5.8c5.2-6.1,10.2-12.4,14.9-18.9c4.8-6.5,9.4-13.1,14.1-19.7c5.8-8.4,11-17.7,15.6-27.9
			c4.6-10.2,6.5-20.6,5.6-31c-0.3-4-1.5-7.9-3.5-11.7c-2-3.8-4.6-6.9-7.8-9.5c-3.2-2.6-6.7-4.5-10.6-5.9c-2.1-0.7-4.2-1-6.4-1
			c-1.9,0-3.9,0.3-6,0.8c-3.5,0.9-6.5,2.7-9.1,5.4c-2.6,2.8-4.8,5.9-6.7,9.3c-1.9,3.5-3.5,7.1-4.8,10.8c-1.3,3.8-2.4,7.1-3.2,10
			c-3.5,9.8-6.8,19.6-10,29.2c-3.2,9.7-7.7,19-13.4,27.9c-5.2-7.5-9.2-16.2-11.9-26.2c-2.8-10-5.7-19.4-8.9-28.4
			c-1.5-3.5-3-7.5-4.8-12.1c-1.7-4.6-3.9-9-6.5-13.2c-2.6-4.2-5.6-7.7-9.1-10.6c-3.5-2.9-7.5-4.3-12.1-4.3c-6.6,0-12.3,2.8-16.9,8.4
			c-4.6,5.6-7.2,11.6-7.8,18c-0.3,7.5,0.7,14.7,3,21.7c2.3,6.9,5.2,13.6,8.7,19.9c5.5,10.1,11.7,20.1,18.6,29.9
			c6.9,9.8,13.7,19.8,20.4,29.9c0.9,2,1.9,3.8,3,5.4c1.2,1.6,1.6,3.5,1.3,5.8l-3,26.4c-0.6,6.3-1.1,12.7-1.5,19.1
			c-0.4,6.3-0.4,12.8,0.2,19.5c0.3,7.2,1.9,13.8,5,19.7c3,5.9,8.6,9.3,16.7,10.2C835.8,794.9,837.3,795,838.8,795 M199.7,680.3
			c0.1-2.9,0.2-5.8,0.4-8.6c-1.3,1.8-2.7,3.5-4.2,5.2C197.2,678,198.5,679.1,199.7,680.3 M622.9,537.3c-11.3,0-21.1,3.5-29,10.5
			c-4,3.1-7.4,7-10.4,11.6c-2.9,0.7-5.8,1.7-8.5,3c-3.2,1.5-6.2,3.2-8.9,5c-5.3,3.4-9.7,7.6-13.2,12.5c-1.8,2.6-3.4,5.3-4.6,8.1
			c-4.9-8.7-10.9-16.5-17.7-23.4c-7.9-7.9-17.1-14.4-27.3-19.2c-10.3-4.9-21.8-7.3-34.2-7.3c-14.2,0-27,3.3-38,9.9
			c-10.8,6.4-20.1,14.8-27.8,24.8c-7.5,9.9-13.8,21.2-18.7,33.4c-0.4,0.9-0.7,1.8-1.1,2.7c-2.2-5.7-4.7-11.3-7.5-16.7
			c-5.4-10.4-12.1-19.7-20-27.6c-7.9-7.9-17.1-14.4-27.3-19.2c-10.3-4.9-21.8-7.3-34.2-7.3c-14.2,0-27,3.3-38,9.9
			c-10.8,6.4-20.1,14.8-27.8,24.8c-6.1,8-11.4,16.9-15.8,26.5c-0.9-1.9-1.9-3.7-2.9-5.6c-5.2-8.9-13-16.5-23-22.6
			c-8.1-5.1-17-9-26.4-11.5c-9.3-2.5-18.8-4.1-28.3-4.7l-16.4-1.3l-0.2,0h-0.2c-1.7,0-2.5-0.2-2.8-0.3c-0.9-1.1-2.5-2.7-4.8-5
			l-0.1-0.1l-0.1-0.1c-4.2-3.8-8.9-6.7-14.2-8.4c-5.1-1.7-10.4-2.6-15.8-2.6c-11.3,0-21.1,3.5-29,10.5c-4,3.1-7.4,7-10.4,11.6
			c-2.9,0.7-5.8,1.7-8.5,3c-3.2,1.5-6.2,3.2-8.9,5c-5.3,3.4-9.7,7.6-13.2,12.5c-3.5,4.9-5.9,10.3-7.1,16c-1.3,5.8-1.1,11.7,0.5,17.5
			c1.6,5.9,4.9,11.2,9.8,15.7l0.1,0.1l0.1,0.1c2.2,1.9,4.9,3.7,8,5.4c0.7,0.4,1.9,1.2,1.8,1.8l0,0.2l0,0.2l-0.4,18.5l-3,35l0,0.1
			l0,0.1c-0.6,12.9-1.2,26.2-1.9,39.6c-0.7,13.8,0.5,27.5,3.8,40.8c3,12.5,9,23.1,17.8,31.4c7.7,7.3,17.3,11,28.7,11
			c2.1,0,4.2-0.1,6.4-0.4c5.9-0.6,11.5-2.2,16.7-4.7c4.6-2.2,8.5-5.3,11.8-9.2c5.8,0.9,11.7,1.4,17.5,1.4c6.6,0,13.4-0.6,20.1-1.8
			c11.1-1.8,22.8-6.1,34.6-12.8c11.9-6.7,22.1-15.1,30.3-25c1.9-2.3,3.7-4.7,5.3-7.1c0.5,1.3,1.1,2.5,1.6,3.8
			c5.4,12.1,12.6,23,21.5,32.5l0,0l0,0c9.6,9.9,20.6,17.1,32.5,21.2c8.9,3,18.1,4.6,27.2,4.6c3,0,6.1-0.2,9.2-0.5
			c12.2-1.4,24-5.2,35.1-11.5c11.1-6.3,20.7-15,28.5-25.8c6.8-8.8,12.5-18.7,16.8-29.3c1.1,3,2.3,5.9,3.6,8.8
			c5.4,12.1,12.6,23,21.5,32.5l0,0l0,0c9.6,9.9,20.6,17.1,32.5,21.2c8.9,3,18.1,4.6,27.2,4.6c3,0,6.1-0.2,9.2-0.5
			c12.2-1.4,24-5.2,35.1-11.5c11.1-6.3,20.7-15,28.5-25.8c8-10.4,14.4-22.1,19-34.8c0.9-2.4,1.7-4.8,2.5-7.2
			c-0.1,11.8,1.2,23.6,4,35c3.1,12.5,9.1,23.1,17.8,31.4c7.7,7.3,17.3,11,28.7,11c2.1,0,4.2-0.1,6.4-0.4c5.9-0.6,11.5-2.2,16.7-4.7
			c4.6-2.2,8.5-5.3,11.8-9.2c5.8,0.9,11.7,1.4,17.5,1.4c6.6,0,13.4-0.6,20.1-1.8c11.1-1.8,22.8-6.1,34.6-12.8
			c11.9-6.7,22.1-15.1,30.3-25c8.3-10,13.8-21.2,16.2-33.4c2.5-12.5-0.1-25.4-7.9-38.4c-2.7-4.7-6.2-9-10.3-12.7
			c5.9-7.4,10.5-15.5,13.5-24.2c0.4-1.1,0.7-2.2,1.1-3.3c0.2,0.3,0.4,0.7,0.6,1c4.8,8,10,16.1,15.5,24c5.9,8.6,11,16.2,15.8,23.3
			c2.2,3.5,2.4,5,2.4,5.4c0,1.7-0.1,4.3-0.4,7.6l-2.2,17.7c-0.6,5.4-1,10.7-1.3,15.9c-0.3,5.3-0.3,10.5,0,15.5
			c0,6,0.5,11.9,1.6,17.5c1.1,5.8,2.9,11.4,5.6,16.5c2.7,5.2,6.3,9.7,10.8,13.4c4.5,3.7,10.3,6.4,17.2,7.9c4.4,1.1,8.9,1.6,13.4,1.6
			c7.1,0,14.2-1.4,21.1-4.2c11.3-4.6,19.8-12.9,25.1-24.8l0,0l0,0c4.5-10.5,6.8-22.1,6.8-34.3c0-11.8-0.4-23.1-1.3-33.8l-0.9-19.9
			l0-0.1l0-0.1c-0.2-1.4,0.2-2.5,1.1-3.6c1.8-2,3.5-4.2,5.1-6.6c6.3-7.5,12.5-15.7,18.3-24.4c5-7,9.9-15.2,14.5-24.3
			c4.7-9.2,8.4-18.6,10.7-28.1c2.4-9.7,3-19.5,1.6-29c-1.4-9.9-5.9-18.8-13.5-26.3c-7.8-8.1-17.5-13.2-29-15.2
			c-2.6-0.5-5.3-0.7-7.8-0.7c-8.7,0-16.7,2.7-23.9,8.2l0,0l0,0c-4.7,3.7-8.7,8.2-11.9,13.3c-3.1,4.9-5.9,10.2-8.1,15.5
			c-2.2,5.3-4.2,10.8-6,16.4c-0.5,1.5-0.9,2.9-1.4,4.3c-1.1-3.1-2.2-6.3-3.4-9.7c-2.8-8-6.4-15.7-10.5-22.8
			c-4.3-7.3-9.6-13.5-15.9-18.5c-6.6-5.2-14.7-7.8-23.9-7.8c-6.1,0-11.9,1.3-17.3,3.9c-5.4,2.5-10.1,5.9-14.2,10.2
			c-4,4.2-7.4,9.1-9.9,14.5c-1.5,3.2-2.6,6.6-3.3,10c-3-2.6-6.4-5-10-7.2c-8.1-5.1-16.9-9-26.4-11.5c-9.3-2.5-18.8-4.1-28.3-4.7
			l-16.4-1.3l-0.2,0h-0.2c-1.7,0-2.5-0.2-2.8-0.3c-0.9-1.1-2.5-2.7-4.8-5l-0.1-0.1l-0.1-0.1c-4.2-3.8-8.9-6.7-14.2-8.4
			C633.5,538.2,628.2,537.3,622.9,537.3L622.9,537.3z M592.8,582.9c3.8-0.8,5.2-1.5,6-1.9c1.4-0.8,2.7-2.4,4.6-5.4l0.1-0.2l0.1-0.2
			c2-4,4.7-7,8.1-9.3c3.4-2.2,7.1-3.3,11.3-3.3c2.8,0,5.3,0.3,7.6,0.9c1.9,0.5,3.8,1.7,5.6,3.5l0.2,0.2l0.2,0.2
			c1.6,1.2,2.7,2.8,3.3,4.9l0.1,0.2l0.1,0.2l1.7,4.3l1,2.5h2.7c1.6,0,3.2-0.1,4.9-0.2c1.5-0.1,2.9-0.2,4.2-0.2
			c7.1,0,14.2,0.3,21.1,0.9c6.8,0.6,13.8,1.5,20.9,2.9c8,2.2,15.9,5.6,23.6,10.2c7.3,4.3,12.9,10.4,16.6,17.9
			c2.6,6,3.6,12.2,3.1,18.4c-0.5,6.4-2.2,12.8-5,18.8c-2.8,6-6.7,11.6-11.6,16.4c-4.8,4.8-10.2,8.7-15.8,11.3l-9.1,4.3l9.6,3.1
			c6.7,2.1,12.6,5.3,17.5,9.3c4.8,3.9,8.5,8.5,10.8,13.5c2.3,5,3.3,10.5,2.9,16.3c-0.4,5.8-2.6,11.8-6.5,17.8
			c-4.6,7.1-10.3,13.2-16.8,18c-6.6,4.9-13.8,8.8-21.5,11.6c-7.7,2.8-15.9,4.5-24.3,5.2c-2.8,0.2-5.6,0.3-8.4,0.3
			c-5.5,0-11-0.5-16.3-1.4c-1.2-0.2-2.7-0.7-4.7-1.5c-1.1-0.4-2.2-0.7-3.2-0.7c-2.9,0-5.2,1.8-6.1,4.7c-1.4,3.3-3.4,5.8-5.9,7.7
			c-2.7,2-5.8,3.2-9.4,3.8c-1.4,0.2-2.8,0.4-4.1,0.4c-2.2,0-4.3-0.3-6.4-0.9l-0.1,0l-0.1,0c-5.7-1.4-9.6-4.8-12-10.3
			c-2.7-6.3-4.5-12.6-5.3-18.9l0,0l0,0c-1.4-9.8-2-19.9-1.7-30.1c0.3-10.4,0.7-20.7,1.3-30.6c1.2-13.1,2-26.1,2.6-38.7
			c0.6-12.5,1.6-25.3,3-37.9l0.5-4.5h-4.5c-3.4,0-6.7-0.7-9.7-2.2c-3-1.5-5.3-3.3-7-5.5c-1.6-2.1-2.4-4.5-2.5-7.3
			c-0.1-2.6,1.1-5.4,3.6-8.3c3.2-3.7,7.2-6.4,11.6-7.9L592.8,582.9L592.8,582.9z M47.8,582.9c3.8-0.8,5.2-1.5,6-1.9
			c1.4-0.8,2.7-2.4,4.6-5.4l0.1-0.2l0.1-0.2c2-4,4.7-7,8.1-9.3c3.4-2.2,7.1-3.3,11.3-3.3c2.8,0,5.3,0.3,7.6,0.9
			c1.9,0.5,3.8,1.7,5.6,3.5l0.2,0.2l0.2,0.2c1.6,1.2,2.7,2.8,3.3,4.9l0.1,0.2l0.1,0.2l1.7,4.3l1,2.5h2.7c1.6,0,3.2-0.1,4.9-0.2
			c1.5-0.1,2.9-0.2,4.2-0.2c7.1,0,14.2,0.3,21.1,0.9c6.8,0.6,13.8,1.5,20.8,2.9c8,2.2,15.9,5.6,23.6,10.2
			c7.3,4.3,12.9,10.4,16.6,17.9c2.6,6,3.6,12.2,3.1,18.4c-0.5,6.4-2.2,12.8-5,18.8c-2.8,6-6.7,11.6-11.6,16.4
			c-4.8,4.8-10.2,8.7-15.8,11.3l-9.1,4.3l9.6,3.1c6.7,2.1,12.6,5.3,17.5,9.3c4.9,3.9,8.5,8.5,10.8,13.5c2.3,5,3.3,10.5,2.9,16.3
			c-0.4,5.8-2.6,11.8-6.5,17.8c-4.6,7.1-10.3,13.2-16.8,18c-6.6,4.9-13.8,8.8-21.5,11.6c-7.7,2.8-15.9,4.5-24.3,5.2
			c-2.8,0.2-5.6,0.3-8.4,0.3c-5.5,0-11-0.5-16.3-1.4c-1.2-0.2-2.7-0.7-4.7-1.5c-1.1-0.4-2.2-0.7-3.2-0.7c-2.9,0-5.2,1.8-6.1,4.7
			c-1.4,3.3-3.4,5.8-5.9,7.7c-2.7,2-5.8,3.2-9.4,3.8c-1.4,0.2-2.8,0.4-4.1,0.4c-2.2,0-4.3-0.3-6.4-0.9l-0.1,0l-0.1,0
			c-5.7-1.4-9.6-4.8-12-10.3c-2.7-6.3-4.5-12.6-5.3-18.9l0,0l0,0c-1.4-9.8-2-19.9-1.7-30.1c0.3-10.4,0.7-20.7,1.3-30.6
			c1.2-13.1,2-26.1,2.6-38.7c0.6-12.5,1.6-25.3,3-37.9l0.5-4.5h-4.5c-3.4,0-6.7-0.7-9.8-2.2c-3-1.5-5.3-3.3-6.9-5.5
			c-1.6-2.1-2.4-4.5-2.5-7.3c-0.1-2.6,1.1-5.4,3.6-8.3c3.2-3.7,7.2-6.4,11.6-7.9L47.8,582.9L47.8,582.9z M466.9,790.7
			c-12.4,0-23.1-3.2-31.9-9.4c-9-6.4-16.6-14.9-22.4-25.4c-6-10.5-10.3-22.8-13-36.5c-2.7-13.8-3.9-28-3.6-42.3
			c0.3-14.2,2.2-28.4,5.7-42.2c3.5-13.7,8.4-26,14.7-36.6c6.2-10.4,13.8-19,22.7-25.4c8.6-6.3,18.7-9.4,29.9-9.4
			c17,0,30.6,5.3,41.8,16.2c11.3,11,19.8,25.1,25.2,41.9c5.5,17,8.1,35.6,7.8,55.5c-0.3,19.9-3.4,38.5-9.3,55.5
			c-5.8,16.8-14.6,30.9-26.1,42C497.3,785.4,483.6,790.7,466.9,790.7L466.9,790.7z M292.4,790.7c-12.4,0-23.1-3.2-31.9-9.4
			c-9-6.4-16.6-14.9-22.4-25.3c-6-10.6-10.3-22.8-13-36.5c-2.7-13.8-3.9-28-3.6-42.3c0.3-14.2,2.2-28.4,5.7-42.2
			c3.5-13.7,8.4-26,14.7-36.6c6.2-10.4,13.8-19,22.7-25.4c8.6-6.3,18.7-9.4,29.9-9.4c17,0,30.6,5.3,41.8,16.2
			c11.3,11,19.8,25.1,25.2,41.9c5.5,17,8.1,35.6,7.8,55.5c-0.3,19.8-3.4,38.5-9.3,55.5c-5.8,16.8-14.6,30.9-26.1,42
			C322.8,785.3,308.8,790.7,292.4,790.7L292.4,790.7z M765.9,587.5c0.5-5.5,2.8-10.7,6.9-15.7c3.9-4.7,8.4-7,13.8-7
			c3.7,0,6.8,1.1,9.6,3.4c3.1,2.6,5.9,5.8,8.3,9.6c2.4,3.9,4.5,8.2,6.2,12.5c1.8,4.8,3.4,8.8,4.8,12.2c3.1,8.7,6,18.1,8.8,28
			c2.8,10.3,7,19.6,12.5,27.4l3.4,4.9l3.2-5c5.9-9.2,10.6-18.9,13.9-28.9c3.2-9.8,6.6-19.6,9.9-29.2l0-0.1l0-0.1
			c0.8-2.8,1.9-6.1,3.2-9.8c1.2-3.5,2.7-7,4.5-10.2c1.7-3.1,3.7-6,6.1-8.5c2.1-2.2,4.4-3.6,7.2-4.3l0,0l0,0c1.7-0.4,3.4-0.7,4.9-0.7
			c1.7,0,3.5,0.3,5.1,0.8c3.4,1.1,6.6,2.9,9.4,5.2c2.7,2.3,5,5.1,6.8,8.3c1.7,3.2,2.8,6.6,3,10.1c0.8,9.7-1,19.5-5.3,29.1
			c-4.5,10-9.6,19.2-15.2,27.3c-4.6,6.6-9.3,13.2-14,19.6c-4.7,6.4-9.6,12.6-14.7,18.5c-2,2.1-3.2,4.8-3.6,8.1
			c-0.3,2.7-0.3,5.7,0,8.9c0.3,3,0.8,6,1.4,8.9c0.5,2.5,0.8,4.6,0.8,6.3v0.1l0,0.1c0.3,4.9,0.6,10,0.9,15.4c0.3,5.2,0.3,10.3,0,15.4
			c-0.3,6.4-0.9,12.8-1.7,19.2c-0.8,6-2.9,11.1-6.6,15.8c-2.6,3.3-6.1,5.5-10.6,6.6c-3.4,0.8-6.7,1.2-9.9,1.2
			c-1.4,0-2.8-0.1-4.1-0.2c-6.8-0.7-11.2-3.4-13.6-8c-2.8-5.4-4.3-11.4-4.5-18l0-0.1l0-0.1c-0.6-6.3-0.6-12.7-0.2-18.9
			c0.4-6.4,0.9-12.8,1.5-18.9l3-26.4c0.4-3.3-0.3-6.2-2-8.6c-1-1.4-1.9-2.9-2.6-4.6l-0.1-0.3l-0.2-0.3c-6.8-10.3-13.7-20.4-20.4-30
			c-6.9-9.7-13-19.6-18.4-29.5c-3.4-6.2-6.2-12.7-8.4-19.3C766.6,601.2,765.7,594.4,765.9,587.5L765.9,587.5z M566,637.5
			c-0.1-0.6-0.2-1.2-0.3-1.8c0.3,0.3,0.4,0.5,0.4,0.8l0,0.2l0,0.2L566,637.5L566,637.5z"/>
	</g>
	<g>
		<path class="st3" d="M838.8,795.5c-1.6,0-3.1-0.1-4.6-0.3c-8.2-0.9-14-4.4-17.1-10.4c-3.1-6-4.8-12.7-5-19.9
			c-0.6-6.5-0.7-13.1-0.2-19.5c0.4-6.5,0.9-12.9,1.5-19.1l3-26.4c0.3-2.2-0.1-4-1.2-5.5c-1.2-1.6-2.2-3.5-3.1-5.5
			c-6.7-10.2-13.6-20.2-20.3-29.8c-7-9.8-13.2-19.9-18.7-29.9c-3.5-6.4-6.4-13.1-8.7-20c-2.3-6.9-3.4-14.3-3.1-21.8
			c0.6-6.4,3.2-12.6,7.9-18.3c4.7-5.7,10.5-8.6,17.3-8.6c4.7,0,8.9,1.5,12.4,4.4c3.5,2.9,6.6,6.5,9.2,10.7c2.6,4.2,4.8,8.7,6.5,13.3
			c1.8,4.8,3.3,8.7,4.8,12.1c3.1,8.9,6.1,18.4,8.9,28.4c2.6,9.6,6.5,18.1,11.4,25.4c5.5-8.7,9.9-17.8,13-27.2
			c3.2-9.8,6.6-19.7,10-29.2c0.9-2.9,1.9-6.2,3.2-10c1.3-3.8,2.9-7.4,4.8-10.9c1.9-3.5,4.2-6.6,6.8-9.4c2.7-2.8,5.8-4.7,9.3-5.6
			c2.1-0.5,4.1-0.8,6.1-0.8c2.2,0,4.4,0.4,6.5,1.1c3.9,1.3,7.6,3.3,10.8,5.9c3.2,2.6,5.9,5.9,7.9,9.7c2,3.8,3.2,7.8,3.5,11.9
			c0.9,10.4-1,20.9-5.7,31.2c-4.6,10.2-9.9,19.7-15.6,28c-4.6,6.6-9.3,13.3-14.1,19.7c-4.8,6.5-9.8,12.8-15,18.9
			c-1.4,1.4-2.2,3.2-2.5,5.6c-0.3,2.4-0.3,5.1,0,7.9c0.3,2.9,0.7,5.7,1.3,8.4c0.6,2.8,0.9,5.2,0.9,7.3c0.3,4.9,0.6,10,0.9,15.4
			c0.3,5.3,0.3,10.7,0,15.9c-0.3,6.4-0.9,13-1.7,19.5c-0.9,6.7-3.4,12.7-7.5,18c-3.2,4.1-7.6,6.9-13.1,8.2
			C846,795,842.3,795.5,838.8,795.5z"/>
		<path class="st3" d="M786.6,560.8c4.6,0,8.7,1.5,12.1,4.3c3.5,2.9,6.5,6.4,9.1,10.6c2.6,4.2,4.8,8.6,6.5,13.2
			c1.7,4.6,3.3,8.7,4.8,12.1c3.2,9,6.1,18.4,8.9,28.4c2.7,10,6.7,18.7,11.9,26.2c5.8-9,10.2-18.3,13.4-27.9
			c3.2-9.7,6.5-19.4,10-29.2c0.9-2.9,1.9-6.2,3.2-10c1.3-3.8,2.9-7.4,4.8-10.8c1.9-3.5,4.1-6.6,6.7-9.3c2.6-2.7,5.6-4.5,9.1-5.4
			c2-0.5,4-0.8,6-0.8c2.2,0,4.3,0.3,6.4,1c3.9,1.3,7.4,3.2,10.6,5.9c3.2,2.6,5.8,5.8,7.8,9.5c2,3.8,3.2,7.7,3.5,11.7
			c0.9,10.4-1,20.7-5.6,31c-4.6,10.2-9.8,19.6-15.6,27.9c-4.6,6.6-9.3,13.2-14.1,19.7c-4.8,6.5-9.8,12.8-14.9,18.9
			c-1.5,1.4-2.3,3.4-2.6,5.8c-0.3,2.5-0.3,5.1,0,8s0.7,5.7,1.3,8.4c0.6,2.8,0.9,5.1,0.9,7.1c0.3,4.9,0.6,10,0.9,15.4
			c0.3,5.4,0.3,10.6,0,15.8c-0.3,6.4-0.9,12.9-1.7,19.5c-0.9,6.6-3.3,12.6-7.4,17.8c-3.2,4.1-7.4,6.7-12.8,8
			c-3.7,0.9-7.3,1.4-10.8,1.4c-1.5,0-3.1-0.1-4.6-0.3c-8.1-0.9-13.6-4.3-16.7-10.2c-3-5.9-4.7-12.5-5-19.7
			c-0.6-6.6-0.6-13.1-0.2-19.5c0.4-6.3,0.9-12.7,1.5-19.1l3-26.4c0.3-2.3-0.1-4.2-1.3-5.8c-1.2-1.6-2.2-3.4-3-5.4
			c-6.6-10.1-13.4-20.1-20.4-29.9c-6.9-9.8-13.1-19.8-18.6-29.9c-3.5-6.3-6.4-13-8.7-19.9c-2.3-6.9-3.3-14.1-3-21.7
			c0.6-6.4,3.2-12.3,7.8-18C774.3,563.6,780,560.8,786.6,560.8 M786.6,559.8c-6.9,0-12.9,3-17.7,8.8c-4.7,5.8-7.4,12-8,18.5l0,0l0,0
			c-0.3,7.6,0.7,15,3.1,22c2.3,6.9,5.2,13.7,8.7,20.1c5.4,10,11.7,20.1,18.7,30c6.7,9.5,13.5,19.5,20.3,29.8c0.9,2,1.9,3.9,3.1,5.5
			c1,1.4,1.4,3.1,1.1,5.1l-3,26.4c-0.6,6.2-1.1,12.6-1.5,19.1c-0.4,6.5-0.4,13.1,0.2,19.6c0.3,7.3,2,14.1,5.1,20.1
			c3.2,6.2,9,9.8,17.5,10.7c1.5,0.2,3.1,0.3,4.7,0.3c3.5,0,7.3-0.5,11-1.4c5.5-1.4,10-4.2,13.3-8.4c4.1-5.3,6.7-11.5,7.6-18.2
			c0.9-6.5,1.4-13.1,1.7-19.6c0.3-5.2,0.3-10.6,0-15.9c-0.3-5.3-0.6-10.5-0.9-15.4c0-2.1-0.3-4.5-0.9-7.3c-0.6-2.7-1-5.5-1.3-8.3
			c-0.3-2.8-0.3-5.4,0-7.8c0.3-2.3,1-4,2.3-5.2l0,0l0,0c5.2-6.1,10.2-12.4,15-18.9c4.7-6.5,9.5-13.1,14.1-19.7
			c5.8-8.4,11.1-17.8,15.7-28.1c4.7-10.4,6.6-21,5.7-31.5c-0.3-4.1-1.5-8.2-3.6-12.1c-2.1-3.8-4.8-7.2-8-9.8
			c-3.3-2.7-6.9-4.7-10.9-6c-2.2-0.7-4.4-1.1-6.7-1.1c-2,0-4.1,0.3-6.2,0.8c-3.6,0.9-6.8,2.8-9.6,5.7c-2.7,2.8-5,6-6.9,9.5
			c-1.9,3.5-3.5,7.2-4.8,11c-1.3,3.8-2.4,7.1-3.3,10c-3.4,9.6-6.7,19.4-10,29.2c-3,9.1-7.2,18-12.5,26.4
			c-4.7-7.1-8.4-15.4-10.9-24.6c-2.8-10-5.8-19.6-8.9-28.4l0,0l0,0c-1.4-3.4-3-7.3-4.7-12.1c-1.7-4.7-4-9.2-6.6-13.4
			c-2.7-4.3-5.8-7.9-9.3-10.9C795.8,561.3,791.5,559.8,786.6,559.8L786.6,559.8z"/>
	</g>
	<g>
		<path class="st3" d="M611.8,792.8c-2.6,0-5.2-0.4-7.7-1.1c-7-1.8-12.1-6.1-15-12.8c-2.9-6.7-4.8-13.4-5.7-20.1
			c-1.4-10.1-2-20.5-1.7-30.8c0.3-10.5,0.7-20.8,1.3-30.8c1.2-13,2-26,2.6-38.6c0.6-12.5,1.6-25.1,3-37.6c-3.9-0.1-7.6-1-11.1-2.6
			c-3.7-1.8-6.6-4.1-8.6-6.9c-2.1-2.8-3.2-6.1-3.3-9.8c-0.2-3.7,1.4-7.5,4.7-11.4c3.8-4.4,8.4-7.5,13.7-9.3l7.8-2.6
			c3.2-0.7,4.4-1.2,4.9-1.5c0.4-0.3,1.3-1.2,3.1-4c2.3-4.6,5.6-8.3,9.7-11c4.1-2.6,8.7-4,13.7-4c3.2,0,6.1,0.4,8.8,1.1
			c2.7,0.7,5.2,2.3,7.6,4.7c2.3,1.8,4,4.2,4.9,7.1l1.6,4c1.3,0,2.7-0.1,4.2-0.2c1.7-0.1,3.2-0.2,4.6-0.2c7.2,0,14.4,0.3,21.5,0.9
			c7.1,0.6,14.3,1.6,21.5,3c8.4,2.3,16.8,5.9,24.8,10.7c8.1,4.8,14.3,11.5,18.4,19.9c2.9,6.7,4.1,13.7,3.5,20.6
			c-0.6,7-2.4,13.8-5.5,20.3c-3,6.5-7.2,12.5-12.4,17.7c-4.9,4.9-10.2,8.8-15.9,11.7c6.8,2.3,12.8,5.5,17.8,9.7
			c5.4,4.4,9.4,9.5,12.1,15.1c2.6,5.7,3.7,11.9,3.3,18.4c-0.4,6.6-2.9,13.3-7.2,19.9c-4.9,7.5-11,14-17.9,19.2
			c-6.9,5.2-14.6,9.3-22.7,12.2c-8.1,2.9-16.7,4.7-25.5,5.4c-2.9,0.2-5.9,0.4-8.8,0.4c0,0,0,0,0,0c-5.8,0-11.5-0.5-17.1-1.5
			c-1.5-0.3-3.3-0.9-5.5-1.8c-0.6-0.2-1.1-0.4-1.5-0.4c-0.6,0-1.5,0.2-1.9,1.8c-1.8,4.2-4.3,7.4-7.5,9.8c-3.2,2.3-7,3.9-11.3,4.6
			C615.1,792.7,613.4,792.8,611.8,792.8z M658.9,694c-4,0-7.3,1.5-9.9,4.4c-3.2,3.7-5.2,8-5.7,12.9c-0.6,4.9,0.2,9.5,2.3,13.6
			c2.1,4.1,5.8,6,11.5,6c4.5,0,8.1-1.7,10.9-5.2c2.8-3.5,4.6-7.6,5.3-12.1c0.7-4.5,0.1-8.7-1.7-12.5c-1.8-3.7-5.1-6-9.8-6.9
			C660.8,694.1,659.8,694,658.9,694z M663.6,630.2c-4.8,0-8.6,1.8-11.5,5.4c-3,3.7-4.8,7.8-5.5,12.1c-0.7,4.3,0,8.4,2.1,12
			c2.1,3.6,5.8,5.4,11.5,5.4c4.4,0,8.1-1.8,10.9-5.4c2.8-3.7,4.5-7.7,4.9-12.1c0.4-4.3-0.4-8.4-2.3-12.1
			C671.6,631.9,668.4,630.2,663.6,630.2z"/>
		<path class="st3" d="M622.9,558.6c3.2,0,6.1,0.4,8.7,1.1c2.6,0.7,5.1,2.2,7.4,4.5c2.3,1.7,3.9,4,4.8,6.9l1.7,4.3
			c1.4,0,2.9-0.1,4.5-0.2c1.6-0.1,3.1-0.2,4.6-0.2c7.2,0,14.4,0.3,21.4,0.9s14.2,1.6,21.4,3c8.4,2.3,16.6,5.9,24.7,10.6
			c8.1,4.8,14.1,11.3,18.2,19.7c2.9,6.7,4,13.4,3.5,20.4c-0.6,6.9-2.4,13.7-5.4,20.1c-3,6.5-7.2,12.4-12.4,17.5
			c-5.2,5.2-10.8,9.2-16.9,12.1c7.2,2.3,13.5,5.6,18.8,10c5.3,4.3,9.3,9.3,11.9,14.9c2.6,5.6,3.7,11.7,3.2,18.2
			c-0.4,6.5-2.8,13.1-7.1,19.7c-4.9,7.5-10.8,13.9-17.8,19.1c-6.9,5.2-14.4,9.2-22.5,12.1c-8.1,2.9-16.5,4.7-25.3,5.4
			c-2.9,0.2-5.8,0.4-8.7,0.4c-5.8,0-11.5-0.5-17-1.4c-1.4-0.3-3.2-0.9-5.4-1.7c-0.6-0.3-1.2-0.4-1.7-0.4c-1.2,0-2,0.7-2.4,2.1
			c-1.7,4-4.2,7.2-7.4,9.5c-3.2,2.3-6.9,3.8-11,4.5c-1.6,0.3-3.2,0.4-4.8,0.4c-2.5,0-5.1-0.4-7.5-1.1c-6.9-1.7-11.8-5.9-14.7-12.6
			c-2.9-6.6-4.8-13.3-5.6-19.9c-1.4-10.1-2-20.3-1.7-30.8c0.3-10.4,0.7-20.6,1.3-30.8c1.1-13,2-25.8,2.6-38.6
			c0.6-12.7,1.6-25.4,3-38.1c-4,0-7.9-0.9-11.5-2.6c-3.6-1.7-6.4-4-8.4-6.7c-2-2.7-3.1-5.9-3.2-9.5c-0.1-3.6,1.4-7.3,4.6-11
			c3.8-4.3,8.2-7.4,13.4-9.1l7.8-2.6c2.6-0.6,4.3-1.1,5-1.5c0.7-0.4,1.8-1.8,3.2-4.1c2.3-4.6,5.5-8.2,9.5-10.8
			C613.5,559.9,618,558.6,622.9,558.6 M660.1,665.6c4.6,0,8.4-1.9,11.3-5.6c2.9-3.8,4.5-7.9,5-12.3c0.4-4.5-0.4-8.6-2.4-12.4
			c-2-3.8-5.5-5.6-10.4-5.6c-4.9,0-8.9,1.9-11.9,5.6c-3,3.8-4.9,7.9-5.6,12.4c-0.7,4.5,0,8.6,2.2,12.3
			C650.4,663.8,654.4,665.6,660.1,665.6 M657.1,731.5c4.6,0,8.4-1.8,11.3-5.4c2.9-3.6,4.7-7.7,5.4-12.3c0.7-4.6,0.1-8.9-1.7-12.8
			c-1.9-3.9-5.3-6.3-10.2-7.1c-1-0.2-2-0.2-3-0.2c-4.1,0-7.5,1.5-10.2,4.6c-3.3,3.8-5.3,8.2-5.8,13.2c-0.6,5.1,0.2,9.7,2.4,13.9
			C647.4,729.4,651.3,731.5,657.1,731.5 M622.9,557.6c-5.1,0-9.8,1.4-14,4.1c-4.2,2.7-7.5,6.4-9.9,11.2c-1.8,2.8-2.6,3.6-2.9,3.8
			c-0.4,0.2-1.4,0.7-4.7,1.4l-0.1,0l-0.1,0l-7.8,2.6c-5.3,1.8-10,4.9-13.9,9.4c-3.3,3.9-5,7.9-4.8,11.7c0.1,3.8,1.3,7.2,3.4,10.1
			c2.1,2.9,5.1,5.2,8.8,7c3.4,1.6,7,2.5,10.8,2.7c-1.4,12.3-2.4,24.8-2.9,37.1c-0.6,12.5-1.4,25.5-2.6,38.5c-0.6,10-1,20.4-1.3,30.8
			c-0.3,10.4,0.3,20.8,1.7,30.9c0.9,6.7,2.8,13.5,5.7,20.2c3,6.9,8.2,11.3,15.4,13.1c2.5,0.7,5.2,1.1,7.8,1.1c1.6,0,3.3-0.1,5-0.4
			c4.3-0.7,8.2-2.3,11.5-4.7c3.3-2.4,5.9-5.7,7.7-9.9l0-0.1l0-0.1c0.3-1.2,0.9-1.4,1.4-1.4c0.4,0,0.8,0.1,1.4,0.3
			c2.3,0.9,4.1,1.5,5.6,1.8c5.6,1,11.4,1.5,17.2,1.5c2.9,0,5.9-0.1,8.8-0.4c8.8-0.7,17.4-2.6,25.6-5.5c8.1-2.9,15.8-7,22.8-12.3
			c7-5.2,13-11.7,18-19.3c4.4-6.7,6.9-13.5,7.3-20.2c0.4-6.6-0.7-12.9-3.3-18.7c-2.6-5.7-6.8-10.9-12.2-15.3
			c-4.8-3.9-10.5-7.1-16.9-9.4c5.3-2.8,10.4-6.6,15-11.2c5.3-5.3,9.5-11.3,12.5-17.8c3.1-6.6,4.9-13.4,5.5-20.5
			c0.6-7-0.6-14.1-3.5-20.8c-4.1-8.6-10.4-15.3-18.6-20.2c-8.1-4.8-16.5-8.4-24.9-10.7l0,0l0,0c-7.2-1.4-14.5-2.5-21.6-3
			c-7.1-0.6-14.3-0.9-21.5-0.9c-1.4,0-2.9,0.1-4.6,0.2c-1.3,0.1-2.6,0.2-3.8,0.2l-1.5-3.7c-0.9-3-2.6-5.5-5-7.4
			c-2.4-2.4-5-4-7.8-4.7C629.1,558,626.1,557.6,622.9,557.6L622.9,557.6z M660.1,664.6c-5.4,0-9.1-1.7-11-5.1c-2-3.5-2.7-7.5-2-11.7
			c0.7-4.3,2.5-8.3,5.4-11.9c2.9-3.5,6.5-5.3,11.1-5.3c4.5,0,7.7,1.7,9.5,5.1c1.9,3.6,2.7,7.5,2.3,11.8c-0.4,4.3-2,8.2-4.8,11.8
			C667.9,662.9,664.5,664.6,660.1,664.6L660.1,664.6z M657.1,730.5c-5.4,0-9-1.9-11-5.7c-2.1-4-2.8-8.5-2.3-13.3
			c0.5-4.8,2.4-9.1,5.6-12.7c2.5-2.9,5.6-4.2,9.5-4.2c0.9,0,1.8,0.1,2.8,0.2c4.6,0.8,7.7,3,9.4,6.6c1.8,3.7,2.3,7.8,1.7,12.2
			c-0.7,4.4-2.5,8.4-5.2,11.9C664.9,728.8,661.5,730.5,657.1,730.5L657.1,730.5z"/>
	</g>
	<g>
		<path class="st3" d="M466.9,795.2c-13.3,0-24.9-3.5-34.5-10.3c-9.5-6.8-17.5-15.8-23.8-26.8c-6.2-11-10.7-23.7-13.5-37.8
			c-2.7-14.1-4-28.6-3.7-43.2c0.3-14.5,2.3-29.1,5.9-43.2c3.6-14.1,8.7-26.8,15.2-37.8c6.5-11,14.6-20,24-26.8
			c9.4-6.8,20.4-10.3,32.6-10.3c17.9,0,33.1,5.9,45,17.5c11.8,11.6,20.7,26.3,26.3,43.7c5.6,17.4,8.3,36.6,8,56.9
			c-0.3,20.3-3.5,39.5-9.6,56.9c-6.1,17.5-15.2,32.2-27.2,43.7C499.7,789.3,484.6,795.2,466.9,795.2z M489.5,683.9
			c-3.3,0-6.3,1.4-9,4.2c-2.7,2.8-5,6.4-6.8,10.5c-1.9,4.1-3.3,8.8-4.3,13.8c-1,5-1.3,9.6-0.9,13.7c0.4,4.1,1.6,7.6,3.6,10.4
			c1.9,2.8,4.6,4.1,8.3,4.1c4.7,0,8.8-3,12.3-8.8c3.6-6,6-12.6,7.3-19.5c1.3-7,1.1-13.5-0.4-19.5
			C498.1,686.7,494.8,683.9,489.5,683.9z"/>
		<path class="st3" d="M469.1,559.5c17.9,0,32.8,5.8,44.6,17.3c11.8,11.5,20.6,26.1,26.2,43.5c5.6,17.5,8.3,36.4,8,56.7
			c-0.3,20.4-3.5,39.3-9.5,56.8c-6.1,17.5-15.1,32-27.1,43.5c-12,11.5-26.8,17.3-44.4,17.3c-13.3,0-24.7-3.4-34.2-10.2
			c-9.5-6.8-17.4-15.7-23.6-26.6c-6.2-11-10.7-23.5-13.4-37.7c-2.8-14.1-4-28.5-3.7-43.1c0.3-14.6,2.2-28.9,5.8-43.1
			c3.6-14.1,8.7-26.7,15.2-37.7c6.5-11,14.4-19.8,23.8-26.6C446.2,562.9,457,559.5,469.1,559.5 M480.4,741c4.9,0,9.2-3,12.8-9.1
			c3.6-6.1,6.1-12.6,7.4-19.7c1.3-7.1,1.1-13.6-0.4-19.7c-1.6-6.1-5.1-9.1-10.6-9.1c-3.5,0-6.6,1.5-9.3,4.3c-2.7,2.9-5,6.4-6.9,10.6
			c-1.9,4.2-3.3,8.8-4.3,13.9c-1,5.1-1.3,9.7-0.9,13.9c0.4,4.2,1.7,7.7,3.7,10.6C473.7,739.6,476.6,741,480.4,741 M469.1,558.5
			c-12.3,0-23.3,3.5-32.9,10.4c-9.5,6.8-17.6,15.9-24.1,26.9c-6.5,11-11.7,23.8-15.3,37.9c-3.6,14.2-5.6,28.7-5.9,43.3
			c-0.3,14.6,1,29.2,3.7,43.3c2.7,14.2,7.3,27,13.5,38c6.3,11.1,14.3,20.1,23.9,27c9.7,6.9,21.4,10.4,34.8,10.4
			c17.8,0,33-5.9,45.1-17.6c12-11.6,21.2-26.4,27.3-43.9c6.1-17.5,9.3-36.7,9.6-57.1c0.3-20.4-2.4-39.6-8.1-57.1
			c-5.7-17.5-14.6-32.3-26.5-43.9C502.4,564.4,487.2,558.5,469.1,558.5L469.1,558.5z M480.4,740c-3.4,0-6-1.3-7.8-3.9
			c-1.9-2.7-3.1-6.1-3.5-10.1c-0.4-4.1-0.1-8.6,0.9-13.6c1-5,2.4-9.6,4.3-13.6c1.8-4.1,4.1-7.5,6.7-10.3c2.6-2.7,5.4-4,8.6-4
			c5,0,8.2,2.7,9.6,8.4c1.5,5.9,1.7,12.4,0.4,19.3c-1.3,6.9-3.7,13.4-7.2,19.4C488.8,737.2,484.9,740,480.4,740L480.4,740z"/>
	</g>
	<g>
		<path class="st3" d="M292.4,795.2c-13.3,0-24.9-3.5-34.5-10.3c-9.6-6.8-17.5-15.8-23.7-26.8c-6.2-11-10.8-23.7-13.5-37.8
			c-2.7-14.1-4-28.6-3.7-43.2c0.3-14.5,2.3-29.1,5.9-43.2c3.6-14.1,8.7-26.8,15.2-37.8c6.5-11,14.6-20,24-26.8
			c9.4-6.8,20.4-10.3,32.6-10.3c17.9,0,33.1,5.9,45,17.5c11.8,11.5,20.7,26.3,26.3,43.7c5.6,17.4,8.3,36.6,8,56.9
			c-0.3,20.3-3.5,39.5-9.6,56.9c-6.1,17.5-15.2,32.2-27.2,43.7C325.1,789.3,310.1,795.2,292.4,795.2z M314.9,683.9
			c-3.3,0-6.3,1.4-8.9,4.2c-2.7,2.8-5,6.4-6.8,10.5c-1.9,4.1-3.3,8.8-4.3,13.8c-1,5-1.3,9.6-0.9,13.7c0.4,4.1,1.6,7.6,3.6,10.4
			c1.9,2.8,4.6,4.1,8.3,4.1c4.7,0,8.9-3,12.4-8.8c3.6-6,6-12.6,7.3-19.5c1.3-7,1.1-13.5-0.4-19.5
			C323.5,686.7,320.2,683.9,314.9,683.9z"/>
		<path class="st3" d="M294.5,559.5c17.9,0,32.8,5.8,44.6,17.3c11.8,11.5,20.6,26.1,26.2,43.5c5.6,17.5,8.3,36.4,8,56.7
			c-0.3,20.4-3.5,39.3-9.5,56.8c-6.1,17.5-15.1,32-27.1,43.5s-26.8,17.3-44.4,17.3c-13.3,0-24.7-3.4-34.2-10.2
			c-9.5-6.8-17.4-15.7-23.6-26.6c-6.2-11-10.7-23.5-13.4-37.7c-2.8-14.1-4-28.5-3.7-43.1c0.3-14.6,2.2-28.9,5.9-43.1
			c3.6-14.1,8.7-26.7,15.2-37.7c6.5-11,14.4-19.8,23.8-26.6C271.7,562.9,282.4,559.5,294.5,559.5 M305.8,741c4.9,0,9.2-3,12.8-9.1
			c3.6-6.1,6.1-12.6,7.4-19.7c1.3-7.1,1.2-13.6-0.4-19.7c-1.6-6.1-5.1-9.1-10.6-9.1c-3.5,0-6.6,1.5-9.3,4.3
			c-2.8,2.9-5.1,6.4-6.9,10.6c-1.9,4.2-3.3,8.8-4.3,13.9c-1,5.1-1.3,9.7-0.9,13.9c0.4,4.2,1.7,7.7,3.7,10.6
			C299.2,739.6,302.1,741,305.8,741 M294.5,558.5c-12.3,0-23.3,3.5-32.9,10.4c-9.5,6.8-17.6,15.9-24.1,26.9
			c-6.5,11-11.7,23.8-15.3,37.9c-3.6,14.2-5.6,28.7-5.9,43.3c-0.3,14.6,1,29.2,3.7,43.3c2.7,14.2,7.3,27,13.5,38
			c6.2,11,14.3,20.1,23.9,27c9.7,6.9,21.4,10.4,34.8,10.4c17.8,0,33-5.9,45.1-17.6c12-11.6,21.2-26.4,27.3-43.9
			c6.1-17.5,9.3-36.7,9.6-57.1c0.3-20.4-2.4-39.6-8.1-57.1c-5.7-17.5-14.6-32.3-26.5-43.9C327.9,564.4,312.6,558.5,294.5,558.5
			L294.5,558.5z M305.8,740c-3.4,0-6-1.3-7.8-3.9c-1.9-2.7-3.1-6.1-3.5-10.1c-0.4-4.1-0.1-8.6,0.8-13.6c1-4.9,2.4-9.5,4.3-13.6
			c1.8-4.1,4.1-7.5,6.7-10.3c2.5-2.7,5.4-4,8.6-4c5,0,8.2,2.7,9.6,8.4c1.5,5.9,1.7,12.4,0.4,19.3c-1.3,6.9-3.7,13.4-7.2,19.4
			C314.3,737.1,310.3,740,305.8,740L305.8,740z"/>
	</g>
	<g>
		<path class="st3" d="M66.9,792.8c-2.6,0-5.2-0.4-7.7-1.1c-7-1.8-12.1-6.1-15-12.8c-2.9-6.7-4.8-13.4-5.7-20.1
			c-1.4-10.1-2-20.4-1.7-30.8c0.3-10.4,0.7-20.8,1.3-30.8c1.2-13,2-26,2.6-38.6c0.6-12.5,1.6-25.1,3-37.6c-3.9-0.1-7.6-1-11.1-2.6
			c-3.7-1.8-6.6-4.1-8.6-6.9c-2.1-2.8-3.2-6.1-3.3-9.8c-0.2-3.7,1.4-7.5,4.7-11.4c3.8-4.4,8.4-7.5,13.7-9.3l7.8-2.6
			c3.2-0.7,4.4-1.2,4.9-1.5c0.4-0.3,1.3-1.2,3.1-4c2.3-4.6,5.6-8.3,9.7-11c4.1-2.6,8.7-4,13.7-4c3.2,0,6.1,0.4,8.8,1.1
			c2.7,0.7,5.2,2.3,7.6,4.7c2.3,1.8,4,4.2,4.9,7.1l1.6,4c1.3,0,2.7-0.1,4.2-0.2c1.7-0.1,3.2-0.2,4.6-0.2c7.2,0,14.4,0.3,21.5,0.9
			c7.1,0.6,14.3,1.6,21.5,3c8.4,2.3,16.8,5.9,24.9,10.7c8.1,4.8,14.3,11.5,18.4,19.9c2.9,6.7,4.1,13.7,3.5,20.6
			c-0.6,7-2.4,13.8-5.5,20.3c-3,6.5-7.2,12.5-12.4,17.7c-4.9,4.9-10.2,8.8-15.9,11.7c6.8,2.3,12.8,5.5,17.8,9.7
			c5.4,4.4,9.4,9.5,12,15.1c2.6,5.7,3.7,11.9,3.3,18.4c-0.4,6.6-2.9,13.3-7.2,19.9c-4.9,7.5-11,14-17.9,19.2
			c-6.9,5.2-14.6,9.3-22.7,12.2c-8.1,2.9-16.7,4.7-25.5,5.4c-2.9,0.2-5.9,0.4-8.8,0.4c0,0,0,0,0,0c-5.8,0-11.6-0.5-17.1-1.5
			c-1.5-0.3-3.3-0.9-5.5-1.8c-0.6-0.2-1.1-0.4-1.5-0.4c-0.6,0-1.5,0.2-1.9,1.8c-1.8,4.2-4.3,7.5-7.5,9.8c-3.2,2.3-7,3.9-11.3,4.6
			C70.1,792.7,68.5,792.8,66.9,792.8z M114,694c-4,0-7.3,1.5-9.9,4.4c-3.2,3.7-5.2,8-5.7,12.9c-0.6,4.9,0.2,9.5,2.3,13.6
			c2.1,4.1,5.8,6,11.5,6c4.5,0,8.1-1.7,10.9-5.2c2.8-3.5,4.6-7.6,5.3-12.1c0.7-4.5,0.1-8.7-1.7-12.5c-1.8-3.7-5.1-6-9.8-6.9
			C115.9,694.1,114.9,694,114,694z M118.7,630.2c-4.8,0-8.6,1.8-11.5,5.4c-3,3.7-4.8,7.8-5.5,12.1c-0.7,4.3,0,8.4,2.1,12
			c2.1,3.6,5.8,5.4,11.5,5.4c4.5,0,8.1-1.8,10.9-5.4c2.8-3.7,4.4-7.7,4.9-12.1c0.4-4.3-0.4-8.4-2.3-12.1
			C126.7,632,123.4,630.2,118.7,630.2z"/>
		<path class="st3" d="M78,558.6c3.2,0,6.1,0.4,8.7,1.1c2.6,0.7,5,2.2,7.4,4.5c2.3,1.7,3.9,4,4.8,6.9l1.7,4.3c1.4,0,2.9-0.1,4.5-0.2
			c1.6-0.1,3.1-0.2,4.5-0.2c7.2,0,14.4,0.3,21.4,0.9c7.1,0.6,14.2,1.6,21.4,3c8.4,2.3,16.6,5.9,24.7,10.6
			c8.1,4.8,14.1,11.3,18.2,19.7c2.9,6.7,4,13.4,3.5,20.4c-0.6,6.9-2.4,13.7-5.4,20.1c-3,6.5-7.2,12.4-12.4,17.5
			c-5.2,5.2-10.8,9.2-16.9,12.1c7.2,2.3,13.5,5.6,18.8,10s9.3,9.3,11.9,14.9c2.6,5.6,3.7,11.7,3.2,18.2c-0.4,6.5-2.8,13.1-7.1,19.7
			c-4.9,7.5-10.8,13.9-17.8,19.1c-6.9,5.2-14.5,9.2-22.5,12.1c-8.1,2.9-16.5,4.7-25.3,5.4c-2.9,0.2-5.8,0.4-8.7,0.4
			c-5.8,0-11.5-0.5-17-1.4c-1.5-0.3-3.2-0.9-5.4-1.7c-0.6-0.3-1.2-0.4-1.7-0.4c-1.2,0-2,0.7-2.4,2.1c-1.7,4-4.2,7.2-7.4,9.5
			c-3.2,2.3-6.9,3.8-11.1,4.5c-1.6,0.3-3.2,0.4-4.8,0.4c-2.5,0-5.1-0.4-7.5-1.1c-6.9-1.7-11.8-5.9-14.7-12.6
			c-2.9-6.6-4.8-13.3-5.6-19.9c-1.4-10.1-2-20.3-1.7-30.8c0.3-10.4,0.7-20.6,1.3-30.8c1.1-13,2-25.8,2.6-38.6
			c0.6-12.7,1.6-25.4,3-38.1c-4,0-7.9-0.9-11.5-2.6c-3.6-1.7-6.4-4-8.4-6.7c-2-2.7-3.1-5.9-3.2-9.5c-0.2-3.6,1.4-7.3,4.5-11
			c3.8-4.3,8.2-7.4,13.4-9.1l7.8-2.6c2.6-0.6,4.3-1.1,5-1.5c0.7-0.4,1.8-1.8,3.2-4.1c2.3-4.6,5.5-8.2,9.5-10.8
			C68.6,559.9,73.1,558.6,78,558.6 M115.2,665.6c4.6,0,8.4-1.9,11.3-5.6c2.9-3.8,4.5-7.9,5-12.3c0.4-4.5-0.4-8.6-2.4-12.4
			c-2-3.8-5.5-5.6-10.4-5.6c-4.9,0-8.9,1.9-11.9,5.6c-3,3.8-4.9,7.9-5.6,12.4c-0.7,4.5,0,8.6,2.2,12.3
			C105.5,663.8,109.4,665.6,115.2,665.6 M112.2,731.5c4.6,0,8.4-1.8,11.3-5.4c2.9-3.6,4.7-7.7,5.4-12.3c0.7-4.6,0.1-8.9-1.7-12.8
			c-1.9-3.9-5.3-6.3-10.2-7.1c-1-0.2-2-0.2-3-0.2c-4.1,0-7.5,1.5-10.2,4.6c-3.3,3.8-5.3,8.2-5.8,13.2c-0.6,5.1,0.2,9.7,2.4,13.9
			C102.4,729.4,106.4,731.5,112.2,731.5 M78,557.6c-5.1,0-9.8,1.4-14,4.1c-4.2,2.7-7.5,6.4-9.9,11.2c-1.8,2.8-2.6,3.6-2.9,3.8
			c-0.4,0.2-1.4,0.7-4.7,1.4l-0.1,0l-0.1,0l-7.8,2.6c-5.3,1.8-10,4.9-13.9,9.4c-3.3,3.9-5,7.9-4.8,11.7c0.1,3.8,1.3,7.2,3.4,10.1
			c2.1,2.8,5,5.2,8.8,7c3.4,1.6,7,2.5,10.8,2.7c-1.4,12.3-2.4,24.8-2.9,37.1c-0.6,12.6-1.4,25.5-2.6,38.5c-0.6,10-1,20.4-1.3,30.8
			c-0.3,10.4,0.3,20.8,1.7,30.9c0.9,6.7,2.8,13.5,5.7,20.2c3,6.9,8.2,11.3,15.4,13.1c2.5,0.7,5.2,1.1,7.8,1.1c1.6,0,3.3-0.1,5-0.4
			c4.3-0.7,8.2-2.3,11.5-4.7c3.3-2.4,5.9-5.7,7.7-9.9l0-0.1l0-0.1c0.3-1.2,0.9-1.4,1.4-1.4c0.4,0,0.8,0.1,1.4,0.3
			c2.3,0.9,4.1,1.5,5.6,1.8c5.6,1,11.4,1.5,17.2,1.5c2.9,0,5.9-0.1,8.8-0.4c8.8-0.7,17.4-2.6,25.6-5.5c8.1-2.9,15.8-7,22.8-12.3
			c7-5.2,13-11.7,18-19.3c4.4-6.7,6.9-13.5,7.3-20.2c0.4-6.6-0.7-12.9-3.3-18.7c-2.6-5.7-6.7-10.9-12.2-15.3
			c-4.8-3.9-10.5-7.1-16.9-9.4c5.3-2.8,10.4-6.6,15-11.2c5.3-5.3,9.5-11.3,12.5-17.8c3.1-6.6,4.9-13.4,5.5-20.5
			c0.6-7-0.6-14.1-3.5-20.8c-4.1-8.6-10.4-15.3-18.6-20.2c-8.1-4.8-16.5-8.4-24.9-10.7l0,0l0,0c-7.2-1.4-14.5-2.5-21.6-3
			c-7.1-0.6-14.3-0.9-21.5-0.9c-1.4,0-2.9,0.1-4.6,0.2c-1.3,0.1-2.6,0.2-3.8,0.2l-1.5-3.7c-0.9-3-2.6-5.5-5-7.4
			c-2.4-2.4-5-4-7.8-4.7C84.2,558,81.2,557.6,78,557.6L78,557.6z M115.2,664.6c-5.4,0-9.1-1.7-11-5.1c-2-3.5-2.7-7.5-2-11.7
			c0.7-4.3,2.5-8.3,5.4-11.9c2.9-3.5,6.5-5.3,11.1-5.3c4.5,0,7.7,1.7,9.5,5.1c1.9,3.6,2.7,7.5,2.3,11.8c-0.4,4.3-2,8.2-4.8,11.8
			C123,662.9,119.5,664.6,115.2,664.6L115.2,664.6z M112.2,730.5c-5.4,0-9-1.9-11-5.7c-2.1-4-2.8-8.5-2.3-13.3
			c0.5-4.8,2.4-9.1,5.6-12.7c2.5-2.9,5.6-4.2,9.5-4.2c0.9,0,1.8,0.1,2.8,0.2c4.6,0.8,7.7,3,9.4,6.6c1.8,3.7,2.3,7.8,1.7,12.2
			c-0.7,4.4-2.5,8.4-5.2,11.9C120,728.8,116.5,730.5,112.2,730.5L112.2,730.5z"/>
	</g>
</g>
<g id="Calque_3">
</g>
<g id="Calque_4">
	<g>
		<ellipse class="st5" cx="552.9" cy="187.9" rx="28.7" ry="33.6"/>
		<path d="M581.4,178.6c0-0.1,0-0.1,0-0.2c0,0,0,0,0,0c-0.3-1.3-0.7-2.7-1.2-4c0,0,0,0,0,0c-1.2-3.2-2.7-6.1-4.6-8.7
			c-0.6-0.8-1.2-1.6-1.9-2.4c-0.2-0.3-0.5-0.6-0.8-0.8c-0.4-0.4-0.8-0.8-1.2-1.2c-0.4-0.4-0.8-0.8-1.2-1.1c-4.9-4.2-11-6.8-17.6-6.8
			c-0.7,0-1.5,0-2.2,0.1c-1.3,0.1-2.5,0.3-3.7,0.6c-7.5,1.8-14,6.8-18.3,13.9c-0.7,1.1-1.3,2.3-1.9,3.6c-0.4,0.9-0.8,1.8-1.2,2.8
			c-0.4,1.1-0.8,2.3-1.1,3.4c-0.8,3.2-1.3,6.6-1.3,10.2c0,13.3,6.5,24.9,16,30.6c0.9,0.5,1.8,1,2.7,1.4c3.4,1.6,7.1,2.4,11,2.4
			c1.2,0,2.4-0.1,3.6-0.3c1.8-0.2,3.5-0.7,5.2-1.3c4.7-1.7,8.9-4.8,12.3-8.8c0.4-0.4,0.7-0.9,1.1-1.3c0.4-0.5,0.7-0.9,1-1.4
			c2.5-3.6,4.3-7.7,5.4-12.3c0,0,0,0,0,0c0.3-1.1,0.5-2.2,0.6-3.4c0,0,0,0,0,0c0.2-1.5,0.4-3.1,0.4-4.7c0,0,0,0,0,0c0-0.4,0-0.7,0-1
			C582.5,184.6,582.1,181.5,581.4,178.6z M580.6,187.9c0,3.2-0.4,6.3-1.1,9.3c-0.9,3.5-2.2,6.8-4,9.7c0,0,0,0,0,0
			c-0.8,1.2-1.6,2.4-2.5,3.5c-0.3,0.4-0.7,0.8-1,1.2c-0.3,0.4-0.7,0.8-1.1,1.1c-3.3,3.3-7.2,5.7-11.5,6.9c-1.9,0.5-3.8,0.9-5.9,0.9
			c-0.2,0-0.4,0-0.6,0c-3.5,0-6.9-0.8-10-2.2c-0.9-0.4-1.8-0.9-2.7-1.4c-8.9-5.4-15-16.4-15-29c0-3.4,0.4-6.6,1.2-9.7
			c0.3-1.2,0.7-2.3,1.1-3.4c0.4-1.1,0.9-2.2,1.4-3.3c0.6-1.3,1.3-2.5,2.1-3.7c4.1-6.2,10.1-10.6,17-12.1c1.2-0.2,2.5-0.4,3.7-0.5
			c0.4,0,0.8,0,1.1,0c5.3,0,10.2,1.8,14.5,4.8c0.4,0.3,0.8,0.6,1.2,0.9c0.4,0.3,0.8,0.7,1.2,1c0.9,0.8,1.8,1.7,2.6,2.6
			c0.7,0.8,1.3,1.6,1.9,2.4c0.9,1.2,1.6,2.5,2.3,3.9c0.1,0.2,0.2,0.3,0.2,0.5c1.2,2.4,2.2,5,2.8,7.8c0.5,2,0.8,4.1,0.9,6.3
			C580.5,186.2,580.6,187,580.6,187.9z"/>
	</g>
	<ellipse class="st7" cx="568.6" cy="186.4" rx="22.1" ry="25.4"/>
	<path d="M578.7,162.7c-1-0.6-1.9-1-3-1.4c-1.7-0.6-3.5-1.1-5.3-1.2c-0.5,0-1.1-0.1-1.6-0.1c-0.1,0-0.2,0-0.3,0c-0.4,0-0.8,0-1.3,0
		c-3.3,0.2-6.5,1.2-9.3,2.9c-0.8,0.5-1.7,1-2.4,1.7c-0.8,0.6-1.6,1.3-2.4,2.1c-0.1,0.1-0.2,0.2-0.3,0.4v0c-1.5,1.6-2.8,3.4-3.9,5.3
		c-0.9,1.6-1.6,3.3-2.2,5.2c-0.9,2.8-1.3,5.7-1.3,8.8c0,6.1,1.8,11.7,4.9,16.2c0.6,0.9,1.2,1.7,1.9,2.5c2.2,2.5,4.9,4.6,7.9,5.9
		c1.7,0.8,3.6,1.3,5.5,1.6c0.9,0.1,1.9,0.2,2.9,0.2c0.8,0,1.5,0,2.3-0.1c0.5,0,1-0.1,1.6-0.2c0.5-0.1,1.1-0.2,1.6-0.4
		c10.1-2.8,17.7-13.2,17.7-25.6C591.7,176,586.4,167,578.7,162.7z M574.5,209.9c-0.5,0.2-1,0.3-1.6,0.5c-1,0.2-2.1,0.4-3.2,0.5h0
		c-0.4,0-0.7,0-1,0h-0.1c-1.4,0-2.7-0.2-4-0.4c-0.6-0.1-1.2-0.3-1.7-0.5c-3.6-1.1-6.8-3.4-9.3-6.3c-0.7-0.8-1.3-1.6-1.9-2.5
		c-2.7-4.1-4.3-9.2-4.3-14.7c0-3.6,0.7-7,1.9-10.2v0c0.7-1.9,1.7-3.6,2.8-5.2v0c1.2-1.7,2.6-3.2,4.1-4.4c1.8-1.5,3.7-2.7,5.9-3.5h0
		c2.1-0.8,4.2-1.2,6.5-1.2c0.4,0,0.7,0,1.1,0c0.5,0,1.1,0.1,1.6,0.2h0c0.5,0.1,1.1,0.2,1.6,0.3c0.4,0.1,0.9,0.2,1.3,0.3
		c1.1,0.3,2.1,0.8,3.1,1.3c7.4,3.8,12.5,12.4,12.5,22.3c0,10.5-5.7,19.4-13.7,22.9C575.5,209.5,575,209.7,574.5,209.9L574.5,209.9z"
		/>
	<path class="st7" d="M585.1,154.1c-3.2,2.2-6.3,4.6-9.3,7.2c-1.7-0.6-3.5-1.1-5.3-1.2c-4.9-4.2-11-6.8-17.6-6.8
		c-0.7,0-1.5,0-2.2,0.1c-8.5-14.7-23.1-24.4-40.1-28.9c-23.4-6.2-51-5-73.5,4c-21.8,8.7-35.5,24.8-44.4,44.2
		c-4.2-6.8-9.1-13.1-14.7-18.9c6.3-0.5,11.9-4.8,15.1-10.2c4.3-7.1,4.6-15.8,4.8-23.9c5.2,2.8,11.4,3.6,17.1,2.2
		c6.3-1.5,11.7-5.8,14.9-11.4c1.1-2,2-4.2,2.5-6.4c4.2,4.5,11.7,6,17.6,5.8c7.3-0.3,14.5-3.2,19.8-8.2c11.5,7.4,27.3,6.6,38.3-1.5
		c1,1.8,3.3,3.1,5.3,3.7c4.2,1.3,8.6,2,13,2.2c7,0.3,13.9-0.7,20.5-2.9c-1.9,4.9,0.1,11,4.2,14.5c6.7,5.7,15.6,5.4,23.9,6.2
		c-2.5,5.2-7.2,9.8-7,15.8c0.2,6.1,5.3,9.3,10.4,11.4C580.6,152,582.9,152.9,585.1,154.1z"/>
	<path class="st5" d="M644.1,133.2c-1.6,2.4-4.1,4.3-6.2,6.3c-2.2,2.1-4.4,4.3-6.6,6.4c-8.7,8.5-17.4,17.6-22.9,28.6
		c-1.3,2.6-2.4,5.9-1.2,8.8c1.2,2.7,3.8,3.7,6.6,4c3.7,0.4,7.4,0.2,11.1,0.3c2.9,0,5.8,0.1,8.7,0.1c-8.4,7.6-16.2,16-23.2,24.9
		c-2.5,3.2-5.3,8.1-3.7,12.3c2.1,5.7,9,3.9,13.6,3.2c6.3-1,12.5-2,18.8-3c-7.8,8.9-17.3,16-26.4,23.6c-1.1-0.6-2.2-1.2-3.3-1.8
		c-9.1-5.1-18.3-9.9-27.5-14.8c-3.6-1.9-7.3-3.9-10.9-5.9c-3.1-1.7-6.2-3.7-9.3-5.5c4.7-1.7,8.9-4.8,12.3-8.8
		c10.1-2.8,17.7-13.2,17.7-25.6c0-10.4-5.3-19.4-12.9-23.7c3.1-2.7,6.4-5.1,9.8-7.4c1-0.7,0.9-1.9,0-2.6c-2.8-2-6-3.1-9.2-4.5
		c-2.7-1.2-5.8-2.5-7.4-5.2c-1.9-3.2-0.8-6.7,0.9-9.7c1.9-3.5,4.4-6.7,5.7-10.5c0.4-1-0.6-1.8-1.4-1.9c-7.6-1-16.1-0.2-22.8-4.6
		c-2.7-1.8-4.7-4.4-5.2-7.6c-0.4-2.7,0.3-5.9,2.7-7.6c1.6-1.1,0.3-3.4-1.5-2.6c-6.7,3-14,4.5-21.4,4.5c-3.6,0-7.3-0.3-10.8-1.1
		c-1.7-0.4-3.5-0.7-5.1-1.4c-0.8-0.3-3-1.5-2.5-2.6c0.8-1.5-1.1-3-2.4-1.8c-10.2,9.2-26.6,10.1-37.9,2.3c-0.5-0.4-1.4-0.2-1.8,0.2
		c-4.7,4.8-11.1,7.7-17.8,8.1c-3.3,0.2-6.6-0.2-9.8-1.2c-3.1-1-6.7-2.8-8-6c-0.6-1.5-2.8-1.4-2.9,0.4c-0.5,7.2-4.9,14-11.3,17.3
		c-6.8,3.5-15.3,2.7-21.5-1.6c-1-0.7-2.2,0.2-2.3,1.3c-0.2,8,0,16.8-3.9,24.1c-3.1,5.8-9.6,10.9-16.5,9.5c-1.4-0.3-2.6,1.4-1.5,2.5
		c7,6.8,13.1,14.5,18.1,22.9c-10.5,24.7-13.7,54-15.8,79.7c-1.2,14.2-2.1,28.3-2.8,42.5c-10.8-11.8-22.3-23.1-34.4-33.7
		c5.5-2.5,11.4-4,17.5-4.3c1.2-0.1,1.8-1.2,1.3-2.2c-10.6-21.1-21.1-42.1-31.7-63.2c4.4,2.2,9.6,3.7,14,1.7c7.2-3.3,5.7-12,3-17.8
		c-3.4-7.1-8-13.7-12.3-20.3c-4.4-6.7-8.9-13.4-12.7-20.5c-3.5-6.4-6.3-13.2-8-20.3c4.5,3.9,9.7,7.1,15.2,9.4
		c6.5,2.7,13.9,3.4,18.8-2.4c4.1-4.8,5.1-11.5,4.8-17.6c-0.4-7.7-2.5-15.2-4.4-22.6c-1.8-7.2-3.4-14.6-2.6-22
		c3.3,4.6,6.8,9,11.5,12.2c5.1,3.6,11.9,5.5,18,3.8c5.9-1.7,9.7-6.6,12.1-11.9c2.9-6.5,4.5-13.6,6.5-20.4c2.1-7.2,4.3-14.5,6.4-21.7
		c3,11.9,7.7,24.4,19.5,29.8c12.9,6,26.5-2.2,33.4-13.3c3.8-6.1,6-12.9,7.9-19.8c3.1,6.4,6.7,12.6,10.8,18.4
		c4.1,5.8,8.8,12.1,15.9,14.5c7.4,2.5,15.3-0.5,21.7-4.3c6.6-3.9,12.6-9,18.1-14.3c5.5-5.4,10.5-11.5,14.7-18
		c3.8,12.3,2.9,26.1,10.6,37.1c3.3,4.8,8.1,8.6,14,9.6c6,1,11.9-0.8,17.3-3.4c5.3-2.5,10.3-5.8,15.6-8.3
		c-6.2,9.8-10.8,20.5-13.8,31.6c-1.3,4.8-3.7,11.9-0.8,16.5c3.5,5.5,11.2,2.4,16.1,1.1c6.7-1.8,13.4-3.5,20.1-5.3
		c-3.2,4-6.3,8.1-9.1,12.4c-3.1,4.6-6.6,9.8-6.5,15.6c0.1,5.5,4.3,8.9,9.6,9.1c3.1,0.1,6.2-0.6,9.3-1c3.6-0.6,7.1-1.1,10.7-1.7
		s7.1-1.1,10.7-1.7c1.1-0.2,3.3-0.8,3.9,0.7C645.6,130.8,644.7,132.3,644.1,133.2z"/>
	<path d="M581.5,176.3c-3-5-8.9-8.1-14.7-7.5c-3,0.3-6,1.4-8.2,3.6c-2.1,2.1-3.2,5.2-2.3,8.2c0.8,2.9,3.2,5.2,6.3,5.3
		c1.8,0.1,3.5-0.7,5.2-0.9c1.6-0.2,3.2-0.1,4.7,0.3c2.4,0.6,5.5,2.1,6.2,4.5c0.4,1.2,0.1,2.2-0.6,3.3c-0.7,1-1.8,1.9-2.9,2.5
		c-3.1,1.8-6.8,2.7-10.3,2.4c-1.3-0.1-2.9-0.4-3.9-1.4c-0.5-0.4-0.8-1-0.9-1.6c-0.1-0.5-0.1-1,0.1-1.4c1.2-2.2-2.1-4.1-3.3-1.9
		c-1.7,3.1-0.2,6.9,2.7,8.7c3,1.9,6.8,1.7,10.2,1.2c3.4-0.6,6.8-1.9,9.5-4.1c2.5-2.1,4.2-5.3,3.2-8.6c-1-3.3-4-5.4-7.1-6.6
		c-3.4-1.3-7.1-1.3-10.6-0.4c-0.8,0.2-1.6,0.4-2.5,0.3c-0.5-0.1-0.7-0.2-1.1-0.5c0.2,0.2-0.1-0.1-0.1-0.1c-0.1-0.1-0.2-0.2-0.3-0.4
		c0,0-0.2-0.3-0.1-0.1c-0.1-0.1-0.1-0.2-0.2-0.3c-0.3-0.5-0.5-0.9-0.6-1.6c0,0.2,0-0.4,0-0.5c0-0.2,0-0.3,0-0.5c0-0.4-0.1,0.4,0-0.2
		c0.1-0.7,0.3-1,0.6-1.6c0.7-1.1,1.7-1.9,2.8-2.5c5.1-2.7,11.9-0.3,14.9,4.6C579.4,180.3,582.8,178.4,581.5,176.3L581.5,176.3z"/>
	<path d="M572,206.4c-1.5-10.7-2.1-21.5-1.8-32.3c0.1-3.1,0.3-6.1,0.5-9.2c0.1-1.2-1.8-1.2-1.9,0c-0.9,10.9-0.8,21.9,0.2,32.8
		c0.3,3.1,0.7,6.2,1.1,9.3C570.3,208.2,572.2,207.6,572,206.4L572,206.4z"/>
	<g>
		<g>
			<ellipse class="st5" cx="457.9" cy="187.9" rx="28.7" ry="33.6"/>
			<path d="M457.9,222.4c-16.3,0-29.6-15.5-29.6-34.5s13.3-34.5,29.6-34.5s29.6,15.5,29.6,34.5S474.2,222.4,457.9,222.4z
				 M457.9,155.3c-15.3,0-27.7,14.6-27.7,32.6s12.4,32.6,27.7,32.6s27.7-14.6,27.7-32.6S473.1,155.3,457.9,155.3z"/>
		</g>
		<g>
			<ellipse class="st7" cx="473.6" cy="186.4" rx="22.1" ry="25.4"/>
			<path d="M473.6,212.8c-12.7,0-23.1-11.8-23.1-26.4c0-14.5,10.4-26.4,23.1-26.4c12.7,0,23.1,11.8,23.1,26.4
				C496.7,200.9,486.3,212.8,473.6,212.8z M473.6,162c-11.7,0-21.2,11-21.2,24.4c0,13.5,9.5,24.4,21.2,24.4
				c11.7,0,21.2-11,21.2-24.4C494.8,172.9,485.3,162,473.6,162z"/>
		</g>
		<path d="M486.5,176.3c-3-5-8.9-8.1-14.7-7.5c-3,0.3-6,1.4-8.2,3.6c-2.1,2.1-3.2,5.2-2.3,8.2c0.8,2.9,3.2,5.2,6.3,5.3
			c1.8,0.1,3.5-0.7,5.2-0.9c1.6-0.2,3.2-0.1,4.7,0.3c2.4,0.6,5.5,2.1,6.2,4.5c0.4,1.2,0.1,2.2-0.6,3.3c-0.7,1-1.8,1.9-2.9,2.5
			c-3.1,1.8-6.8,2.7-10.3,2.4c-1.3-0.1-2.9-0.4-3.9-1.4c-0.5-0.4-0.8-1-0.9-1.6c-0.1-0.5-0.1-1,0.1-1.4c1.2-2.2-2.1-4.1-3.3-1.9
			c-1.7,3.1-0.2,6.9,2.7,8.7c3,1.9,6.8,1.7,10.2,1.2c3.4-0.6,6.8-1.9,9.5-4.1c2.5-2.1,4.2-5.3,3.2-8.6c-1-3.3-4-5.4-7.1-6.6
			c-3.4-1.3-7.1-1.3-10.6-0.4c-0.8,0.2-1.6,0.4-2.5,0.3c-0.5-0.1-0.7-0.2-1.1-0.5c0.2,0.2-0.1-0.1-0.1-0.1c-0.1-0.1-0.2-0.2-0.3-0.4
			c0,0-0.2-0.3-0.1-0.1c-0.1-0.1-0.1-0.2-0.2-0.3c-0.3-0.5-0.5-0.9-0.6-1.6c0,0.2,0-0.4,0-0.5c0-0.2,0-0.3,0-0.5
			c0-0.4-0.1,0.4,0-0.2c0.1-0.7,0.3-1,0.6-1.6c0.7-1.1,1.7-1.9,2.8-2.5c5.1-2.7,11.9-0.3,14.9,4.6
			C484.4,180.3,487.8,178.4,486.5,176.3L486.5,176.3z"/>
		<path d="M477,206.4c-1.5-10.7-2.1-21.5-1.8-32.3c0.1-3.1,0.3-6.1,0.5-9.2c0.1-1.2-1.8-1.2-1.9,0c-0.9,10.9-0.8,21.9,0.2,32.8
			c0.3,3.1,0.7,6.2,1.1,9.3C475.3,208.2,477.2,207.6,477,206.4L477,206.4z"/>
	</g>
</g>
<g id="Calque_7">
</g>
</svg>
