<?xml version="1.0" encoding="utf-8"?>
<!-- Generator: Adobe Illustrator 27.9.2, SVG Export Plug-In . SVG Version: 6.00 Build 0)  -->
<svg version="1.1" id="Calque_1" xmlns="http://www.w3.org/2000/svg" xmlns:xlink="http://www.w3.org/1999/xlink" x="0px" y="0px"
	 viewBox="0 0 394.3 795.4" style="enable-background:new 0 0 394.3 795.4;" xml:space="preserve">
<style type="text/css">
	.st0{fill:#FFFCF5;}
	.st1{fill:#915539;}
	.st2{fill:#EFEFEF;}
	.st3{fill:#3AE5FF;}
	.st4{fill:#FFFFFF;}
</style>
<g>
	<path class="st0" d="M361.5,795.4H78.9c3.3-24.6,7.3-49.2,10.6-73.4c5-37,8.6-74.4,5.8-111.7c-1.5-20.3-4.8-40.4-6.9-60.6
		c-2-19.3-1.3-38.9-4-58.1c-2.7-19.1-11.2-35.9-18.1-53.7c-1.1-2.8-2-5.5-2.9-8.3c6.3,3,14,2.8,20.5,0.3c10-3.8,16.6-12.7,20.8-22.3
		c4.5-10.6,6.6-22.1,9.2-33.3c2.7-11.3,5.8-22.7,12-32.6c9.3-15,31.2-27.5,47.8-16c4.5,3.1,7.8,7.7,10.7,12.2
		c3.3,5.3,6.4,10.8,9.5,16.2c6.6,11.5,13.1,23.1,19.9,34.4c2.9,4.8,6.1,9.5,10,13.5c3.4,3.4,7.3,6.7,12.1,7.8
		c8.7,2.2,19-0.2,26.4-5.1c0.4-0.3,0.8-0.6,1.3-0.9c0.3,2.8,0.7,5.5,1.1,8.3c5.3,39,15.8,76.7,29,113.8
		c13.1,36.5,28.1,72.3,40.9,108.9c12.8,36.8,23.2,74.8,26.5,113.7C362.6,764.1,362.8,779.8,361.5,795.4z"/>
</g>
<g>
	<path class="st1" d="M91.2,660.9c-2.4,45.1-10.8,89.7-16.8,134.5H4.5c0.1-8.9,0.4-17.9,0.9-26.8c1.7-29.3,5.8-58.5,12-87.2
		c6.2-28.8,14.7-57.1,25.2-84.6c10.4-27.2,23-53.7,37.5-78.9c0.6-1,1.2-2,1.7-3c0.3,8,0.5,15.9,1.1,23.8c1.6,20.9,5,41.7,7.1,62.6
		C92,621.2,92.2,641,91.2,660.9z"/>
</g>
<g>
	<path class="st1" d="M366,795.4c2.3-28.6-0.2-57.6-5.7-85.8c-13.9-71.4-46.5-136.8-69.2-205.5c24.6,10.9,42.4,33,54.9,56.2
		c14.6,27.1,23.3,56.9,28.8,87.1c5.6,30.8,8,62.1,10.3,93.2c1.4,18.3,2.8,36.6,4.7,54.8H366z"/>
</g>
<g>
	<path class="st2" d="M135.1,64.1c-3.4,8.5-3.7,18.5-0.1,27c0.9,2.1,1.9,4.1,3.2,6c0.3,0.7,0.7,1.3,1.1,2c1.2,1.9,2.6,3.8,4.2,5.3
		c1.6,1.5,3.4,2.8,5.1,4.2c0.1,0.1,0.2,0.1,0.2,0.2c0.2,0.2,0.4,0.3,0.6,0.5c3.6,3.1,4.8,7.1,4.6,11.7c-0.5,9.9-5.7,19.4-3.4,29.4
		c2.2,9.5,10.4,16.5,19.2,19.9c11.3,4.5,24.1,2.5,35.6,0c12-2.6,24.3-6.4,36.7-4.9c4.8,0.6,9.4,2.2,13.9,4.3c0,0.1,0,0.1,0,0.2
		c0.5,40.9,1,81.9,1.6,122.8c0.5,35.3,1.5,70.7,5.4,105.8c-2.5,2.6-5.9,4.3-9.2,5.5c-4.1,1.5-8.6,2.3-13,2
		c-4.2-0.2-7.5-1.8-10.8-4.5c-4.2-3.5-7.6-7.9-10.5-12.5c-3.3-5.1-6.2-10.4-9.3-15.7c-3.4-5.8-6.7-11.6-10-17.4
		c-3.2-5.6-6.5-11.2-9.7-16.8c-2.8-4.8-5.9-9.6-9.8-13.5c-3.6-3.6-8-6.4-12.9-7.8c-4.5-1.3-9.2-1.4-13.9-0.6
		c-9.5,1.5-18.5,6.8-25.1,13.7c-7.7,7.9-12.3,18.5-15.5,28.9c-3.4,11-5.4,22.4-8.4,33.5c-2.7,10.1-6.6,20.6-14.8,27.8
		c-6.3,5.5-16.5,8.2-24.4,4.5c-1.5-0.7-2.8-1.6-4-2.7c-3.6-14.1-5.2-28.5-5.9-43.2c-2.2-41.2-2.4-82.6-1.3-123.8
		c1.1-39.2,3-78.6,7.8-117.6c3.7-30,10.1-61.2,26.7-86.9c8.3-13,19.4-24,32.9-31.7c15.8-9,33.9-13,51.9-14.5
		c27.2-2.2,57.6,1.1,80,18c10.4,7.9,18,18.5,22.3,30.7c-3.6,0.7-7.3,1.7-10.8,2.7c-5.5,1.5-10.9,2.4-16.6,2.5
		c-5.6,0.1-11.1-0.3-16.7-0.7c-5.6-0.4-11.2-0.8-16.9-0.6c-2.9,0.1-5.8,0.4-8.6,0.9c-2.7,0.5-5.4,1.3-8.2,1.5
		c-4.7,0.3-8.1-1.9-11.4-5c-3.2-3-6.3-6.4-10.3-8.5c-7.3-3.8-16.2-3.9-23.8-0.9c-3.9,1.5-7.5,3.8-10.5,6.8
		C139.1,56,136.8,60,135.1,64.1z"/>
</g>
<g>
	<path class="st3" d="M310.8,87.4c-1.8-15.8-18.5-30.1-34.5-24c-4.8,1.8-9,5.1-13.9,6.8c-2.3,0.8-4.7,1.2-7.2,0.8
		c-2.8-0.5-5.4-1.8-8.1-2.7c-11.8-4-24.5-1.9-36.3,0.6c-3,0.6-6,1.3-9.1,2c-2.7,0.6-5.7,1.2-8.5,0.5c-1.6-0.4-2.9-1.2-4.2-2.3
		c0-0.1-0.1-0.2-0.1-0.3c-0.2-0.5-0.7-0.8-1.3-1l0,0c-1.8-1.8-3.4-4-5.3-5.6c-7-6-16.7-8-25.7-6.1c-8.5,1.8-15.5,7.4-19.1,15.2
		c1.5-7.9,6-15.2,13.1-19.3c6.4-3.7,14.3-4.7,21.3-2.2c7.8,2.8,11.8,11,19.4,14.1c5,2,10.2,0.5,15.3-0.5c5.2-1,10.5-1,15.7-0.8
		c10.6,0.4,21.3,2,31.9,0.9c5.3-0.5,10.4-1.9,15.5-3.3c5-1.4,10.1-2.7,15.3-2.7c8,0.1,15.6,4.2,20.5,10.5
		C310,73.7,311.6,80.5,310.8,87.4z"/>
</g>
<g>
	<g>
		<path class="st4" d="M303.8,79.8c-3.7-7-10.9-12.9-19.1-13.2c-9.8-0.4-16.8,8.5-26.5,9.1h-0.1c-1.5,3.6-2.1,7.5-2.2,11.3
			c-0.1,3.9,0.5,7.8,1.9,11.5c1.4,3.7,4,7.1,6.5,10c1.6,1.9,3.4,3.7,5.2,5.3c0.3,0,0.6,0,0.9,0.1c3.7,1,7.6,1.2,11.4,0.6
			c3.9-0.6,7.7-1.9,11.1-3.9c0.2-0.1,0.4-0.2,0.6-0.3c3.4-2,6.3-4.7,8.6-7.9c2.2-3.2,3.8-6.9,4.1-10.8
			C306.7,87.5,305.8,83.4,303.8,79.8z M281.7,99.4c-4.8,0-8.7-3.9-8.7-8.7c0-4.8,3.9-8.7,8.7-8.7c4.8,0,8.7,3.9,8.7,8.7
			C290.4,95.5,286.5,99.4,281.7,99.4z"/>
	</g>
</g>
<g>
	<g>
		<path class="st4" d="M185.3,71.6c-2-1.9-3.7-4-5.7-5.9c-3.1-2.8-7-4.5-11-5.3c-7.8-1.6-16.6,0.5-22.3,6.2
			c-5.9,5.8-7.8,14.7-6.1,22.6c0.4,2,1.1,3.9,1.9,5.7c0,0,0,0.1,0.1,0.1c0.1,0.2,0.2,0.3,0.2,0.5c0,0,0,0,0,0c0.8,1.6,1.8,3.1,3,4.4
			c1.7,1.9,3.7,3.4,5.7,5c0,0,0.1,0,0.1,0.1c2.5,1.8,5.3,3,8.3,3.6c10.1,2,20.5-3.8,24.7-13c0,0,0,0,0-0.1c0.1-0.2,0.2-0.3,0.2-0.5
			c0-0.1,0.1-0.2,0.2-0.3C188.5,87.9,188.3,78.7,185.3,71.6z M164.1,93c-4.8,0-8.7-3.9-8.7-8.7c0-4.8,3.9-8.7,8.7-8.7
			c4.8,0,8.7,3.9,8.7,8.7C172.8,89.1,168.9,93,164.1,93z"/>
	</g>
</g>
<g>
	<path class="st3" d="M380,193.4c-0.5,0.1-1,0-1.6,0c-0.1,0-0.3,0-0.5,0c0,0-0.1,0-0.1,0c0,0-0.1,0-0.1,0c0,0,0,0,0,0
		c-0.2,0-0.5-0.1-0.7-0.1c-0.7-0.1-1.5-0.3-2.2-0.4c-1.9-0.4-3.8-0.9-5.7-1.5c-5-1.4-9.9-3-14.8-4.6c-12.3-4.1-24.4-8.6-36.5-13.2
		c-10.5-4-20.7-8.1-30.7-12.6c-4.3-1.9-8.4-4.2-12.6-6.3c-9.2-4.6-18.7-8.3-28.5-11.6c-9.6-3.2-19.3-6.1-29.2-8.2
		c-9.7-2.1-19.7-3.4-29.6-2.2c-4.8,0.6-9.5,1.6-14,3.4c-1.1,0.5-1.9,1.5-1.6,2.8c0.3,1.1,1.6,2,2.8,1.6c18.9-7.5,39.6-2.2,58.2,3.2
		c9.8,2.9,19.5,6.1,29,10c4.7,2,9.3,4.1,13.8,6.5c1.8,1,3.6,2,5.5,2.9c9.3,4.5,19,8.3,28.5,12.1c12.2,4.8,24.4,9.4,36.8,13.7
		c8.2,2.8,16.4,5.8,24.9,7.9c-0.2,0.1-0.3,0.2-0.5,0.3c-0.1,0-0.2,0.1-0.2,0.1c0,0,0,0,0,0l0,0c0,0-0.1,0-0.2,0
		c-0.6,0.2-1.2,0.4-1.9,0.6c-1.6,0.4-2.5,0.5-4,0.6c-1.7,0.1-3.4,0.2-5,0.1c-8.6-0.2-17.1-1.8-25.5-3.6c-9.8-2.1-19.5-4.7-29.2-7.5
		c-4.2-1.2-8.5-2.3-12.6-3.9c-3.8-1.5-7.4-3.4-11-5.3c-8-4.2-15.8-8.9-24-12.7c-3.9-1.8-7.9-3.3-12.1-4c-5.9-1-11.9-0.9-17.9-0.1
		c-12.1,1.6-23.8,5.8-36.1,6.9c-10,0.9-20.5-0.4-28.4-7c-3.3-2.8-6-6.3-7.3-10.4c-1.4-4.4-0.9-9,0-13.4c1.6-7.8,5-16.9,1.9-24.7
		c8.7,2.1,18.4-0.5,25-6.8c2.5-2.4,4.6-5.3,5.9-8.5c3.8-6.5,4.5-14.5,2.8-21.8c5.2,1.8,11.1,0,16.2-1.2c5.8-1.3,11.6-2.6,17.5-3.2
		c5.7-0.6,11.6-0.7,17.3,0.6c3.9,0.9,7.6,2.8,11.5,3.6c-2.6,7.2-2.8,15.4-0.6,22.8c1.2,3.9,3.3,7.4,5.8,10.6c2.8,3.7,6,7.1,9.6,10
		c7.1,5.7,15.5,9.4,23.2,14.2c3.4,2.1,6.8,4,10.3,5.8c10.7,5.8,21.6,11.4,32.3,17.2c11,6,22.1,12,32.6,19c2,1.4,4.1,2.8,6,4.2
		c0,0,0.2,0.2,0.3,0.3c0,0,0,0,0.1,0l0,0c0.2,0.1,0.3,0.3,0.5,0.4c0.4,0.3,0.9,0.7,1.3,1.1c0.7,0.6,1.4,1.2,2.1,1.9
		c0.6,0.6,1.1,1.1,1.7,1.7c0.1,0.1,0.4,0.5,0.5,0.6c0,0,0,0,0,0c0.3,0.4,0.5,0.8,0.8,1.2c0.8,1.4,1.6,2.9,1.7,4.5
		C382,192.2,381.6,193.2,380,193.4z"/>
</g>
<path d="M377.2,197.3c-0.1,0.1-0.2,0.3-0.3,0.4c-1.6,1.9-3.7,3.1-6.1,3.9c-6.8,2.1-14.6,1.3-21.5,0.4c-9.9-1.3-19.7-3.5-29.4-6
	c-5-1.3-10.1-2.7-15.1-4.1c-4.4-1.3-9-2.4-13.3-4.1c-8.5-3.3-16.5-8.1-24.5-12.4c-2.1-1.1-4.2-2.3-6.3-3.4c-1.5-0.8-3-1.5-4.5-2.2
	c-4.4-2.1-9-3.7-13.9-4.3c-12.5-1.5-24.7,2.3-36.7,4.9c-11.5,2.5-24.3,4.5-35.6,0c-8.8-3.5-17-10.4-19.2-19.9
	c-2.3-10.1,2.8-19.5,3.4-29.4c0.3-4.6-1-8.6-4.6-11.7c-0.2-0.2-0.4-0.3-0.6-0.5c-0.1-0.1-0.2-0.1-0.2-0.2c-1.7-1.4-3.5-2.6-5.1-4.2
	c-1.6-1.6-3.1-3.4-4.2-5.3c-0.4-0.6-0.7-1.3-1-1.9c0,0,0,0,0,0c-3.7-7.4-4.2-16.6-1.3-24.3c0.2-0.5,0.4-1.1,0.7-1.6c0,0,0,0,0,0
	c3.6-7.8,10.6-13.3,19.1-15.2c8.9-1.9,18.7,0,25.7,6.1c1.8,1.6,3.5,3.7,5.3,5.6l0,0c0.5,0.5,0.9,0.9,1.4,1.3c1.2,1,2.6,1.9,4.2,2.3
	c2.8,0.7,5.7,0.1,8.5-0.5c3-0.6,6-1.3,9.1-2c11.9-2.5,24.5-4.6,36.3-0.6c2.7,0.9,5.3,2.1,8.1,2.7c2.5,0.5,4.9,0.1,7.2-0.8
	c4.9-1.7,9.1-5,13.9-6.8c16-6.1,32.7,8.2,34.5,24c0.3,2.3,0.2,4.5-0.2,6.8c-1.6,8.9-7.5,15.9-15.1,20.2c-5.6,3.2-12,4.9-18.4,4.8
	c-2.6,0-5.2-0.4-7.7-1c-2.5-0.7-1.8-4.2,0.3-4.4c0.3,0,0.6,0,0.9,0.1c3.7,1,7.6,1.2,11.4,0.6c3.9-0.6,7.7-1.9,11.1-3.9
	c0.2-0.1,0.4-0.2,0.6-0.3c3.4-2,6.3-4.7,8.6-7.9c2.2-3.2,3.8-6.9,4.1-10.8c0.3-4.1-0.6-8.2-2.6-11.9c-3.7-7-10.9-12.9-19.1-13.2
	c-9.8-0.4-16.8,8.5-26.5,9.1h-0.1c-1.6,0.1-3.1-0.1-4.6-0.4c-3.9-0.9-7.6-2.7-11.5-3.6c-5.7-1.3-11.5-1.2-17.3-0.6
	c-5.9,0.7-11.7,2-17.5,3.2c-5.2,1.1-11,3-16.2,1.2h0c-0.2-0.1-0.4-0.2-0.7-0.3c-2-0.8-3.7-2.1-5.2-3.6c-2-1.9-3.7-4-5.7-5.9
	c-3.1-2.8-7-4.5-11-5.3c-7.8-1.6-16.6,0.5-22.3,6.2c-5.9,5.8-7.8,14.7-6.1,22.6c0.4,2,1.1,3.9,1.9,5.7c0.1,0.2,0.2,0.4,0.3,0.6
	c0,0,0,0,0,0c0.8,1.6,1.8,3.1,3,4.4c1.7,1.9,3.7,3.4,5.7,5c1.9,1.5,3.7,3.1,5,5.2c0.5,0.8,1,1.7,1.3,2.5c3.1,7.8-0.3,16.9-1.9,24.7
	c-0.9,4.4-1.4,9,0,13.4c1.3,4.1,4,7.6,7.3,10.4c7.9,6.6,18.4,8,28.4,7c12.2-1.1,23.9-5.3,36.1-6.9c5.9-0.8,11.9-1,17.9,0.1
	c4.2,0.7,8.2,2.2,12.1,4c8.2,3.8,16,8.5,24,12.7c3.6,1.9,7.2,3.8,11,5.3c4.1,1.6,8.4,2.7,12.6,3.9c9.6,2.8,19.3,5.4,29.2,7.5
	c8.3,1.8,16.9,3.4,25.5,3.6c1.7,0,3.4,0,5-0.1c1.5-0.1,2.4-0.2,4-0.6c0.7-0.2,1.3-0.4,1.9-0.6c0.1,0,0.1,0,0.2,0l0,0c0,0,0,0,0,0
	c0,0,0.1,0,0.2-0.1c0.2-0.1,0.3-0.2,0.5-0.3c0.1,0,0.1-0.1,0.2-0.1c0.3-0.1,0.5-0.3,0.8-0.5c0.1,0,0.1-0.1,0.1-0.1c0,0,0,0,0,0
	c0,0,0-0.1,0.1-0.1c0.2-0.2,0.3-0.3,0.5-0.5c0.1-0.1,0.3-0.3,0.4-0.4c0,0-0.1,0.1-0.1,0.2c0.7-1,1.9-1.5,3.1-0.8
	C377.3,194.8,377.9,196.4,377.2,197.3z"/>
<path d="M382.7,197.3c-1.8,0.8-3.9,0.7-5.8,0.4c-0.7-0.1-1.4-0.3-2.1-0.4c-1.1-0.2-2.3-0.5-3.4-0.8c-8.4-2-16.7-5-24.9-7.9
	c-12.4-4.3-24.6-8.9-36.8-13.7c-9.6-3.8-19.2-7.6-28.5-12.1c-1.9-0.9-3.7-1.9-5.5-2.9c-4.5-2.4-9.1-4.5-13.8-6.5
	c-9.4-4-19.2-7.2-29-10c-18.6-5.4-39.4-10.7-58.2-3.2c-1.1,0.5-2.5-0.5-2.8-1.6c-0.3-1.3,0.4-2.3,1.6-2.8c4.5-1.8,9.2-2.8,14-3.4
	c9.9-1.2,19.9,0.1,29.6,2.2c9.9,2.1,19.6,5,29.2,8.2c9.7,3.2,19.3,7,28.5,11.6c4.2,2.1,8.3,4.4,12.6,6.3c10,4.5,20.2,8.5,30.7,12.6
	c12.1,4.6,24.2,9.1,36.5,13.2c4.9,1.6,9.8,3.2,14.8,4.6c1.9,0.5,3.8,1,5.7,1.5c0.7,0.2,1.5,0.3,2.2,0.4c0.2,0,0.5,0.1,0.7,0.1
	c0,0,0,0,0,0c0,0,0.1,0,0.1,0c0,0,0.1,0,0.1,0c0.2,0,0.4,0,0.5,0c0.5,0,1.1,0.1,1.6,0c1.6-0.2,1.9-1.2,1.8-2.6
	c-0.1-1.6-0.9-3.2-1.7-4.5c-0.3-0.4-0.5-0.8-0.8-1.2c0,0,0,0,0,0c-0.1-0.1-0.4-0.5-0.5-0.6c-0.5-0.6-1.1-1.2-1.7-1.7
	c-0.7-0.6-1.4-1.3-2.1-1.9c-0.4-0.4-0.9-0.7-1.3-1.1c-0.2-0.1-0.3-0.3-0.5-0.4l0,0c0,0,0,0-0.1,0c-0.1-0.1-0.3-0.2-0.3-0.3
	c-2-1.5-4-2.9-6-4.2c-10.5-7-21.5-13-32.6-19c-10.7-5.8-21.5-11.4-32.3-17.2c-3.5-1.9-7-3.7-10.3-5.8c-7.7-4.8-16.1-8.5-23.2-14.2
	c-3.6-2.9-6.8-6.3-9.6-10c-2.4-3.2-4.6-6.7-5.8-10.6c-2.2-7.3-2-15.5,0.6-22.8c0.4-1,0.8-2,1.2-3c0.5-1.1,2.1-1.4,3.1-0.8
	c1.1,0.7,1.3,2,0.8,3.1c-0.2,0.4-0.3,0.7-0.5,1.1c-1.5,3.6-2.1,7.5-2.2,11.3c-0.1,3.9,0.5,7.8,1.9,11.5c1.4,3.7,4,7.1,6.5,10
	c1.6,1.9,3.4,3.7,5.2,5.3c1.6,1.5,3.4,2.8,5.2,4c0.7,0.5,1.5,1,2.2,1.4c3.5,2.2,7.2,4.1,10.8,6.1c4.2,2.4,8.2,5,12.4,7.3
	c4.5,2.5,9.2,4.9,13.7,7.4c11.6,6.1,23.2,12.2,34.5,18.6c9.9,5.6,20,11.2,28.8,18.4c3.5,2.9,6.5,6,8.1,10.3
	C386.9,190.9,386.7,195.5,382.7,197.3z"/>
<path d="M188.3,97.2c-1.4,3.2-3.4,6.1-5.9,8.5c-6.6,6.3-16.3,8.9-25,6.8c-3-0.7-5.9-2-8.5-3.8c-0.1-0.1-0.2-0.1-0.2-0.2
	c-0.8-0.7-1.2-1.9-0.6-2.9c0.6-0.9,2-1.5,3-0.9c0,0,0.1,0,0.1,0.1c2.5,1.8,5.3,3,8.3,3.6c10.1,2,20.5-3.8,24.7-13c0,0,0,0,0-0.1
	c0.1-0.2,0.2-0.3,0.2-0.5c0-0.1,0.1-0.2,0.2-0.3c0.6-0.9,2-1,2.9-0.5C188.7,94.8,188.8,96.1,188.3,97.2z"/>
<g>
	<path d="M366,795.4h-4.5c1.3-15.6,1.1-31.3-0.2-46.9c-3.3-38.9-13.7-76.9-26.5-113.7c-12.8-36.6-27.8-72.4-40.9-108.9
		c-13.3-37-23.8-74.7-29-113.8c-0.4-2.8-0.7-5.5-1.1-8.3c-0.2-1.8-0.4-3.6-0.6-5.4c-3.9-35.1-4.9-70.5-5.4-105.8
		c-0.6-40.9-1.1-81.9-1.6-122.8c0-0.1,0-0.1,0-0.2c0.2-2.7,4.5-2.6,4.5,0.2c0,0.7,0,1.4,0,2c0.3,20.2,0.5,40.3,0.8,60.5
		c1.1,83.4-0.8,168,22.6,248.9c1.7,5.7,3.4,11.4,5.2,17.1c0.6,1.9,1.2,3.8,1.8,5.6c22.6,68.7,55.2,134.1,69.2,205.5
		C365.7,737.8,368.3,766.8,366,795.4z"/>
	<path d="M276.7,56.4c-0.2-0.8-0.5-1.5-0.8-2.3c-4.3-12.2-11.9-22.9-22.3-30.7c-22.4-16.9-52.8-20.1-80-18
		c-18,1.4-36.1,5.5-51.9,14.5c-13.5,7.6-24.5,18.7-32.9,31.7c-16.6,25.7-23,56.9-26.7,86.9c-4.8,38.9-6.6,78.4-7.8,117.6
		c-1.1,41.3-0.9,82.6,1.3,123.8c0.8,14.7,2.3,29.1,5.9,43.2c0.6,2.2,1.2,4.4,1.9,6.6c0.9,2.8,1.8,5.6,2.9,8.3
		c6.9,17.8,15.4,34.6,18.1,53.7c2.7,19.2,2,38.8,4,58.1c2.1,20.2,5.4,40.3,6.9,60.6c2.8,37.3-0.8,74.7-5.8,111.7
		c-3.3,24.2-7.3,48.8-10.6,73.4h-4.5c6-44.8,14.4-89.4,16.8-134.5c1.1-19.9,0.9-39.7-1.1-59.5c-2-20.9-5.5-41.6-7.1-62.6
		c-0.6-7.9-0.8-15.9-1.1-23.8c-0.1-2.7-0.2-5.4-0.4-8.1c-0.6-10.1-1.8-20.1-4.6-29.9c-5.1-17.7-14.4-33.9-19.4-51.7
		c-0.2-0.7-0.4-1.4-0.6-2c-0.1-0.3-0.2-0.6-0.2-0.9c-4.8-19.3-5.4-39.5-6.1-59.3c-0.8-21.7-1.2-43.5-1.2-65.2
		c0.1-42.8,1.9-85.6,5.4-128.2C59.6,110.3,69,35.2,132.2,9.9c28.2-11.3,63-12.9,92.4-5.1c25.6,6.9,47.1,23.1,55.9,48.5
		c0.2,0.6,0.4,1.2,0.6,1.8C282,58,277.6,59.2,276.7,56.4z"/>
</g>
<path d="M267.1,400.9c-1,1.1-2.1,2.1-3.3,3c-0.4,0.3-0.8,0.6-1.3,0.9c-7.4,4.9-17.7,7.3-26.4,5.1c-4.8-1.2-8.8-4.4-12.1-7.8
	c-3.9-4-7.1-8.7-10-13.5c-6.9-11.3-13.3-22.9-19.9-34.4c-3.1-5.4-6.2-10.9-9.5-16.2c-2.9-4.6-6.2-9.1-10.7-12.2
	c-16.5-11.5-38.5,1-47.8,16c-6.2,9.9-9.3,21.3-12,32.6c-2.7,11.2-4.7,22.7-9.2,33.3c-4.1,9.6-10.7,18.5-20.8,22.3
	c-6.5,2.5-14.2,2.7-20.5-0.3c-2.3-1.1-4.3-2.5-6.1-4.4c-0.6-0.6-0.7-1.4-0.6-2c0.4-1.5,2.4-2.6,3.7-1.1c0.3,0.4,0.7,0.7,1,1
	c1.2,1.1,2.5,2,4,2.7c7.9,3.7,18.1,1,24.4-4.5c8.1-7.1,12-17.6,14.8-27.8c3-11.1,4.9-22.5,8.4-33.5c3.2-10.5,7.8-21,15.5-28.9
	c6.7-6.9,15.6-12.2,25.1-13.7c4.6-0.7,9.3-0.7,13.9,0.6c4.9,1.4,9.3,4.2,12.9,7.8c4,4,7,8.7,9.8,13.5c3.3,5.6,6.5,11.2,9.7,16.8
	c3.3,5.8,6.7,11.6,10,17.4c3,5.3,6,10.6,9.3,15.7c3,4.6,6.3,9,10.5,12.5c3.2,2.7,6.5,4.2,10.8,4.5c4.4,0.2,8.8-0.6,13-2
	c3.4-1.2,6.7-3,9.2-5.5c0.3-0.2,0.5-0.5,0.7-0.8C265.8,395.6,269,398.8,267.1,400.9z"/>
<path d="M188.3,97.2c-1.4,2.3-4.8,0.5-4.1-1.7c0,0,0,0,0-0.1c0.1-0.2,0.2-0.3,0.2-0.5c0-0.1,0.1-0.2,0.2-0.3
	c3.9-6.8,3.7-16,0.7-23.1c-0.1-0.2-0.2-0.3-0.2-0.5c-0.5-1.1-0.3-2.4,0.8-3.1c0.5-0.3,1.2-0.4,1.8-0.2l0,0c0.5,0.2,1,0.5,1.3,1
	c0,0.1,0.1,0.2,0.1,0.3c0.9,2,1.6,4.2,2.1,6.4h0C192.8,82.8,192.1,90.8,188.3,97.2z"/>
<path d="M295.5,114.5c-0.1,0-0.2,0.1-0.3,0.1c-2.5,0.7-3.7-2.6-2-3.9c0.2-0.1,0.4-0.2,0.6-0.3c0.1,0,0.2-0.1,0.3-0.1
	c1.7-0.5,3.3-1.2,4.8-2.1c6.4-3.9,10.2-11.1,11.6-18.3c0.2-0.8,0.3-1.6,0.4-2.4c0.8-6.9-0.8-13.8-5.1-19.4
	c-4.8-6.3-12.4-10.5-20.5-10.5c-5.2,0-10.3,1.3-15.3,2.7c-5.1,1.4-10.2,2.7-15.5,3.3c-10.6,1.1-21.3-0.5-31.9-0.9
	c-5.2-0.2-10.5-0.1-15.7,0.8c-5.1,0.9-10.3,2.5-15.3,0.5c-7.6-3.1-11.6-11.3-19.4-14.1c-7-2.5-14.9-1.5-21.3,2.2
	c-7.1,4.1-11.6,11.4-13.1,19.3c0,0,0,0,0,0c-1.6,8.1-0.2,16.8,4.5,23.5c0,0,0,0.1,0.1,0.1c0.1,0.2,0.2,0.3,0.2,0.5c0,0,0,0,0,0
	c0.3,1-0.2,2.1-1,2.6c-1.1,0.6-2.4,0.2-3.1-0.8c0,0,0,0,0,0c-1.3-1.9-2.4-3.9-3.2-6c-3.5-8.5-3.3-18.5,0.1-27
	c1.7-4.1,3.9-8.1,7.1-11.3c3-3,6.6-5.3,10.5-6.8c7.6-3,16.5-3,23.8,0.9c4,2.1,7,5.4,10.3,8.5c3.3,3.1,6.7,5.3,11.4,5
	c2.8-0.2,5.5-1,8.2-1.5c2.8-0.5,5.7-0.8,8.6-0.9c5.6-0.2,11.2,0.2,16.9,0.6c5.5,0.4,11.1,0.8,16.7,0.7c5.7-0.1,11.1-1,16.6-2.5
	c3.6-0.9,7.2-2,10.8-2.7c1.5-0.3,3-0.6,4.5-0.7c5-0.6,10-0.4,14.9,1.5c8.3,3.2,14.9,9.8,18.2,18.1
	C319.5,88.1,311.7,109.7,295.5,114.5z"/>
<path d="M85.7,508.6c-1.3,2.1-2.6,4.3-3.8,6.4c-0.6,1-1.2,2-1.7,3c-14.5,25.3-27.1,51.7-37.5,78.9c-10.5,27.5-19,55.8-25.2,84.6
	c-6.2,28.7-10.3,57.9-12,87.2c-0.5,8.9-0.8,17.8-0.9,26.8H0c0.1-11.3,0.6-22.6,1.4-33.9c2.1-29.9,6.7-59.7,13.4-88.9
	c6.8-29.4,15.9-58.2,27.1-86.2c11.1-27.5,24.2-54.2,39.5-79.6c0.1-0.2,0.2-0.4,0.3-0.5C83.3,503.8,87.2,506.1,85.7,508.6z"/>
<circle cx="164.1" cy="84.3" r="8.7"/>
<circle cx="281.7" cy="90.7" r="8.7"/>
<path d="M394.3,795.4h-4.6c-1.9-18.2-3.3-36.5-4.7-54.8c-2.4-31.2-4.7-62.4-10.3-93.2c-5.5-30.1-14.2-60-28.8-87.1
	c-12.5-23.2-30.3-45.4-54.9-56.2c-1.2-0.6-2.5-1.1-3.8-1.6c-2.7-1-1.5-5.4,1.2-4.3c0.2,0.1,0.5,0.2,0.7,0.3c3,1.2,6,2.5,8.8,4
	c26.4,13.8,44.4,39.4,56.9,65.7c13.8,29,21.6,60.4,26.4,92.1c4.9,32.3,6.9,65,9.5,97.5C391.8,770.3,393,782.9,394.3,795.4z"/>
</svg>
