<?xml version="1.0" encoding="utf-8"?>
<!-- Generator: Adobe Illustrator 27.9.2, SVG Export Plug-In . SVG Version: 6.00 Build 0)  -->
<svg version="1.1" id="Calque_1" xmlns="http://www.w3.org/2000/svg" xmlns:xlink="http://www.w3.org/1999/xlink" x="0px" y="0px"
	 viewBox="0 0 911.6 697.9" style="enable-background:new 0 0 911.6 697.9;" xml:space="preserve">
<style type="text/css">
	.st0{fill:#4DC7E8;}
</style>
<path class="st0" d="M84.8,557.9c36.1-14.4,84.7-10.9,106,20.4c0.9,1.4,3,0.7,3-0.9c-0.3-39.7,36.2-75.1,76.3-80.1
	c39.4-4.9,78.7,14.1,106.9,42.4c-15.8-20.2-13.6-52.1,1.4-73.7c16.7-24.1,44.9-37.5,72.9-45.9c31.2-9.4,66.1-13.4,96-2
	c1.7,0.6,3-1.5,1.7-2.7c-27.5-26.1-37.4-69.9-22.2-104.9c16.3-37.7,60.1-61.1,100.5-54.4c1.5,0.2,2.5-1.4,1.6-2.6
	c-20.9-27.8-32-64.3-22.5-97.6c7.9-27.6,30.2-50.7,57.5-59.6c26-8.5,55.9-4,78.3,11.7c1.2,0.8,2.8-0.2,2.6-1.6
	c-7.3-47.2,31.6-95,78.9-104.2c30.3-5.9,61.5,1.9,87.9,18.1v677.8H3.1c-5.1-20.6-3.9-43.1,3.4-63.1
	C19.5,599.5,49.8,571.9,84.8,557.9z"/>
</svg>
