<?xml version="1.0" encoding="utf-8"?>
<!-- Generator: Adobe Illustrator 27.9.2, SVG Export Plug-In . SVG Version: 6.00 Build 0)  -->
<svg version="1.1" id="Calque_1" xmlns="http://www.w3.org/2000/svg" xmlns:xlink="http://www.w3.org/1999/xlink" x="0px" y="0px"
	 viewBox="0 0 879.8 635.6" style="enable-background:new 0 0 879.8 635.6;" xml:space="preserve">
<style type="text/css">
	.st0{fill:#4DC7E8;}
</style>
<path class="st0" d="M875.4,619c-24.8-67.2-102.8-109.8-172.7-94.3c2.6-41.3-9.3-84.8-38.8-113.9s-77.8-40-114-20
	c17.6-20.3,22.6-49.8,16-75.9s-24-48.6-45.6-64.6c-37.7-28.1-96.1-34.6-129.3-1.3c20.6-19.7,27.4-51.4,20.5-79.1
	c-6.9-27.7-25.9-51.4-49.2-67.9c-53.2-37.8-130.2-38.1-183.6-0.6C166.8,58.5,133,22.4,91,7.6C61.9-2.6,29.3-2.4,0,7.4v628.2h879.8
	C879,630,877.3,624.3,875.4,619z"/>
</svg>
