<?xml version="1.0" encoding="utf-8"?>
<!-- Generator: Adobe Illustrator 27.9.2, SVG Export Plug-In . SVG Version: 6.00 Build 0)  -->
<svg version="1.1" id="Calque_1" xmlns="http://www.w3.org/2000/svg" xmlns:xlink="http://www.w3.org/1999/xlink" x="0px" y="0px"
	 viewBox="0 0 248.7 542.7" style="enable-background:new 0 0 248.7 542.7;" xml:space="preserve">
<style type="text/css">
	.st0{fill:#FFFFFF;}
	.st1{fill:#3AE5FF;}
	.st2{fill:#EFEFEF;}
	.st3{fill:#3A3A3A;}
	.st4{fill:#666666;}
</style>
<path d="M217.4,110.5c0.1,0.7-0.2,1.1-0.7,1.3c-0.6,0.3-1.6,0.1-2-0.5c-0.2-0.2-0.3-0.5-0.3-0.8c-0.1-0.8-0.2-1.6-0.2-2.4
	c-0.2-2.4-0.5-4.8-0.8-7.2c-2.6-21.1-7-43-19.1-60.9c-6.4-9.4-14.8-16.8-24.7-22.4c-10.2-5.7-21.2-9.8-32.6-12.2
	c-22.1-4.6-46-2.7-66.4,7.4C52.8,21.7,38,36.6,29.5,54.7c-4.2,9-6.9,18.8-7.4,28.7c-0.7,12.8,1.5,25.7,3,38.4
	c0.1,0.4,0.1,0.8,0.1,1.2c0.2,1.9-2.8,1.9-3,0c0,0,0-0.1,0-0.1c-0.4-3.3-0.8-6.5-1.2-9.8c-1.5-12.6-3.1-25.3-1.1-37.9
	c1.6-10.1,5.3-19.8,10.4-28.6C40.9,28.4,57.6,14.2,77.1,6.7c22-8.5,46.8-8.6,69.3-2c11.4,3.3,22.7,8.3,32.4,15.2
	c9.1,6.5,16.4,15,21.8,24.8c10.8,19.5,14.4,42.2,16.5,64.2C217.3,109.4,217.3,110,217.4,110.5z"/>
<g>
	<path d="M221.3,444.6c3,13.4,6,26.8,8.5,40.3c0,0.1,0,0.2,0.1,0.3c1.5,8,2.9,16,4,24.1c1.5,11.1,2.9,22.3,4.2,33.4h2.9
		c-2.3-20-4.6-40-8.4-59.8c-4.2-21.9-9.5-43.6-14.1-65.4c-4.8-22.7-7.8-45.5-8.6-68.7c-1.6-45.6,3.7-91,6.9-136.3
		c0.8-10.7,1.4-21.5,1.9-32.2c0-0.4,0-0.8,0-1.2c0-1-0.7-1.4-1.4-1.4c0,0,0,0,0,0c-0.4,0-0.9,0.2-1.2,0.5c-0.2,0.2-0.3,0.5-0.3,0.9
		c0,0.8-0.1,1.7-0.1,2.5c-1.9,43.9-7.4,87.6-8.7,131.5c-0.7,22.3-0.3,44.7,2.2,66.9C211.5,401.8,216.5,423.2,221.3,444.6z"/>
	<path d="M12.1,542.7c0.3-2.2,0.5-4.4,0.8-6.6c2.7-19,7.6-37,15.2-54.5c1.3-3.1,2.7-6.2,4-9.3c0.4-1,0.8-2,1.2-2.9
		c14.4-35,25.6-71.9,22.8-110.1c-1.7-22.3-6.2-44.4-9.4-66.5c-3.3-22.9-6.3-45.8-9.2-68.8c-1.3-10.7-2.6-21.3-3.9-32
		c0-0.3-0.1-0.7-0.1-1c-0.2-1.9-3.2-1.9-3,0c0,0.1,0,0.1,0,0.2c5.6,46.1,11.5,92.1,18.7,137.9c1.8,11.5,3.6,23,4.2,34.6
		c0.6,11.1-0.1,22.2-1.6,33.2c-3.1,21.6-9.8,42.6-17.8,62.9c-3.8,9.7-8.1,19.1-12,28.7c-3.6,8.8-6.2,17.9-8.3,27.1
		c-2,8.9-3.5,18-4.5,27.1H12.1z"/>
</g>
<path d="M175.9,174.6c0.4,0.3,0.8,0.5,1.3,0.8c1,0.6,2-0.2,2.2-1.1C178.2,174.3,177,174.3,175.9,174.6z M68.8,178.2
	c0.1-0.1,0.1-0.2,0.2-0.2c0.1-0.1,0.2-0.1,0.2-0.2l0,0c0.4-0.4,0.8-0.7,1.1-1.1C69.7,176.9,69.2,177.4,68.8,178.2z M175.9,174.6
	c0.4,0.3,0.8,0.5,1.3,0.8c1,0.6,2-0.2,2.2-1.1C178.2,174.3,177,174.3,175.9,174.6z M68.8,178.2c0.1-0.1,0.1-0.2,0.2-0.2
	c0.1-0.1,0.2-0.1,0.2-0.2l0,0c0.4-0.4,0.8-0.7,1.1-1.1C69.7,176.9,69.2,177.4,68.8,178.2z M233.7,137.1c-2.6-5.6-6.8-10.5-11.9-14.1
	c-5.3-3.6-11.6-5.5-18-5.8c-6.5-0.3-13,1.1-18.8,4c-5.9,2.9-10.4,7.2-14.5,12.2c-0.5,0.5-0.9,1.1-1.4,1.7c0,0,0,0,0,0
	c-0.1,0.2-0.3,0.3-0.4,0.5c0,0,0,0,0,0c-3.2,3.8-6.6,7.8-10.9,10.2c-2.5,1.4-5.3,2-8.1,1.7c-3.8-0.4-7.3-2.3-11-3.4
	c-13.2-3.6-26.7,1.5-39.6,3.7c-6.4,1.1-13.1,1.6-19.4-0.4c-7.2-2.2-12.5-7.7-18.7-11.6c-11.2-7-26.4-9.3-38.4-2.9
	c-8.9,4.7-14,13.8-14.9,23.6c0,0,0,0,0,0c-0.1,1.4-0.2,2.9-0.1,4.3c0,1.2,0.1,2.5,0.3,3.7c1.3,9.9,6.9,19,15.8,23.9
	c2.1,1.2,4.4,2.1,6.8,2.8c1,0.3,2.1,0.6,3.1,0.8c8,1.7,16.6,0.9,24.1-2.2c5.1-2.1,9.8-5.3,13.4-9.5c0,0,0,0,0,0
	c0.1-0.1,0.2-0.2,0.2-0.3c0,0,0,0,0,0c0-0.1,0.1-0.1,0.1-0.2c0.2-0.4,0.5-0.6,0.8-0.8c0.6-0.3,1.4-0.4,2.1-0.8
	c1.2-0.7,2.4-1,3.8-0.7c3.2,0.7,4.9,3.2,6.3,5.9c3.1,6.3,4.2,13.4,5,20.2c0.9,7.5,1.9,15,3.1,22.5c1.4,8.6,2.9,17.3,4.4,25.9
	c3,17.2,6.3,34.3,9.9,51.4c3.6,17,7.3,34,11.4,50.9c0.7,3,1.6,6.1,3.5,8.6c1.6,2.2,5.2,5.2,8,3.4c1.5-0.9,1.8-2.8,2.2-4.4
	c0.5-2.1,1.1-4.3,1.6-6.4c1.1-4.2,2.1-8.5,3.1-12.7c4.1-16.9,7.9-33.9,11.5-50.9c3.6-17,6.9-34.1,10.1-51.2
	c2.9-16.2,5-32.9,10.7-48.4c1.3-3.4,2.8-6.8,4.3-10.1c0.8-1.6,1.6-3.8,3.3-4.6c2-1,4.8,0.1,6.8,0.7c3.9,1.1,7.8,2.4,11.7,3.5
	c3.4,0.9,6.8,1.7,10.3,1.7c3.1,0,6.1-0.5,9-1.4c0.4-0.1,0.8-0.3,1.3-0.4c1-0.4,2.1-0.8,3.1-1.3c4.2-2,8-4.9,11-8.4
	c0.1-0.1,0.2-0.3,0.3-0.4c1.4-1.7,2.7-3.6,3.7-5.6v0c0,0,0,0,0,0c1.7-3.3,2.8-7,3.2-10.8C237.6,149,236.3,142.7,233.7,137.1z
	 M232.1,162.4c-2.8,6.7-8.3,12.2-14.9,15.3c0,0,0,0,0,0c-0.4,0.2-0.8,0.4-1.2,0.5c-3.8,1.6-8,2.4-12.1,2.2
	c-3.6-0.2-7.2-1.2-10.6-2.2c-3.8-1.1-7.5-2.4-11.3-3.4c-0.8-0.2-1.7-0.4-2.6-0.5c-1.2-0.1-2.4-0.1-3.5,0.3c-0.2,0.1-0.5,0.2-0.7,0.3
	c-1.8,0.9-3,2.6-3.9,4.3c-7.1,13.5-10.3,28.4-13,43.2c-2.9,16.6-6,33.3-9.3,49.9c-3.3,16.7-6.9,33.4-10.7,50
	c-1.9,8.3-3.9,16.6-5.9,24.9c-1,4.1-2,8.3-3.1,12.4c-0.2,1-0.5,1.9-0.7,2.9c-0.3,1-0.5,1.4-1.6,1c-1.3-0.5-2.3-1.5-3.1-2.6
	c-1.8-2.5-2.4-5.6-3.2-8.6c-1-4.1-2-8.3-2.9-12.5c-1.9-8.3-3.8-16.7-5.6-25c-3.6-16.7-7-33.5-10.1-50.2c-3.1-16.6-6.1-33.3-8.5-50
	c-1-6.8-1.4-13.6-2.8-20.3c-0.7-3.3-1.5-6.6-2.8-9.8c-1.2-2.9-2.5-5.9-5-7.8c-2.2-1.7-5-2.7-7.7-2.2l-0.1,0
	c-1.3,0.3-2.3,1.1-3.6,1.5c-0.5,0.1-0.9,0.3-1.2,0.5c-0.6,0.4-1.1,0.9-1.5,1.6v0l0,0c0,0,0,0,0,0c-7.3,8.6-19.1,12.4-30.2,11.5
	c-11.1-1-21.3-7.1-25.7-17.6c-4-9.6-3.2-21.8,3.2-30.1c8-10.3,22.4-11.7,34.1-7.9c3.2,1,6.2,2.4,9,4.2c3.1,1.9,6,4.3,9,6.4
	c0.5,0.4,1.1,0.7,1.6,1.1c1.6,1.1,3.3,2,5,2.8c3.8,1.8,7.7,2.9,12.1,3.1c13.2,0.7,25.8-4.9,38.9-5.7c3.2-0.2,6.4-0.2,9.6,0.5
	c3.6,0.7,6.9,2.2,10.3,3.2c3.1,0.9,6.4,1.2,9.5,0.4c2.7-0.7,5.1-2.1,7.3-3.8c1.3-1,2.4-2.1,3.6-3.2c1.8-1.8,3.5-3.8,5.2-5.8l0,0
	c1.2-1.4,2.3-2.7,3.5-4.1c4.2-4.7,9.1-8.5,15-10.7c11.8-4.3,25.6-2.4,34.7,6.6C232.9,137.6,236.8,151,232.1,162.4z M68.8,178.2
	c0.1-0.1,0.1-0.2,0.2-0.2c0.1-0.1,0.2-0.1,0.2-0.2l0,0c0.4-0.4,0.8-0.7,1.1-1.1C69.7,176.9,69.2,177.4,68.8,178.2z M175.9,174.6
	c0.4,0.3,0.8,0.5,1.3,0.8c1,0.6,2-0.2,2.2-1.1C178.2,174.3,177,174.3,175.9,174.6z M68.8,178.2c0.1-0.1,0.1-0.2,0.2-0.2
	c0.1-0.1,0.2-0.1,0.2-0.2l0,0c0.4-0.4,0.8-0.7,1.1-1.1C69.7,176.9,69.2,177.4,68.8,178.2z M203.9,180.5c-3.6-0.2-7.2-1.2-10.6-2.2
	c-3.8-1.1-7.5-2.4-11.3-3.4c-0.8-0.2-1.7-0.4-2.6-0.5c-1.2-0.1-2.4-0.1-3.5,0.3c-0.2,0.1-0.5,0.2-0.7,0.3c-1.8,0.9-3,2.6-3.9,4.3
	c-7.1,13.5-10.3,28.4-13,43.2c-2.9,16.6-6,33.3-9.3,49.9c-3.3,16.7-6.9,33.4-10.7,50c-1.9,8.3-3.9,16.6-5.9,24.9
	c-1,4.1-2,8.3-3.1,12.4c-0.2,1-0.5,1.9-0.7,2.9c-0.3,1-0.5,1.4-1.6,1c-1.3-0.5-2.3-1.5-3.1-2.6c-1.8-2.5-2.4-5.6-3.2-8.6
	c-1-4.1-2-8.3-2.9-12.5c-1.9-8.3-3.8-16.7-5.6-25c-3.6-16.7-7-33.5-10.1-50.2c-3.1-16.6-6.1-33.3-8.5-50c-1-6.8-1.4-13.6-2.8-20.3
	c-0.7-3.3-1.5-6.6-2.8-9.8c-1.2-2.9-2.5-5.9-5-7.8c-2.2-1.7-5-2.7-7.7-2.2c-0.8,1.6-1.9,3.1-3.1,4.5c0.6-0.3,1.4-0.4,2.1-0.8
	c1.2-0.7,2.4-1,3.8-0.7c3.2,0.7,4.9,3.2,6.3,5.9c3.1,6.3,4.2,13.4,5,20.2c0.9,7.5,1.9,15,3.1,22.5c1.4,8.6,2.9,17.3,4.4,25.9
	c3,17.2,6.3,34.3,9.9,51.4c3.6,17,7.3,34,11.4,50.9c0.7,3,1.6,6.1,3.5,8.6c1.6,2.2,5.2,5.2,8,3.4c1.5-0.9,1.8-2.8,2.2-4.4
	c0.5-2.1,1.1-4.3,1.6-6.4c1.1-4.2,2.1-8.5,3.1-12.7c4.1-16.9,7.9-33.9,11.5-50.9c3.6-17,6.9-34.1,10.1-51.2
	c2.9-16.2,5-32.9,10.7-48.4c1.3-3.4,2.8-6.8,4.3-10.1c0.8-1.6,1.6-3.8,3.3-4.6c2-1,4.8,0.1,6.8,0.7c3.9,1.1,7.8,2.4,11.7,3.5
	c3.4,0.9,6.8,1.7,10.3,1.7c3.1,0,6.1-0.5,9-1.4c0.4-0.1,0.8-0.3,1.3-0.4c0-0.8,0.1-1.6,0.1-2.5c0-0.4,0.1-0.7,0.3-0.9
	C212.2,179.9,208.1,180.7,203.9,180.5z"/>
<path class="st0" d="M69.8,145.8c-0.5-0.3-1.1-0.7-1.6-1.1c-3-2.1-5.8-4.5-9-6.4c-2.8-1.8-5.9-3.2-9-4.2
	c-11.6-3.8-26.1-2.4-34.1,7.9c-6.5,8.4-7.2,20.5-3.2,30.1c4.4,10.5,14.6,16.6,25.7,17.6c11.1,0.9,22.9-2.8,30.2-11.5c0,0,0,0,0,0
	l0,0v0c0.4-0.7,0.9-1.2,1.5-1.6C77.6,168.3,75.5,154.4,69.8,145.8z M41.1,170.8c-4.9,0-8.9-4-8.9-8.9s4-9,8.9-9s8.9,4,8.9,9
	S46,170.8,41.1,170.8z"/>
<path class="st0" d="M224.4,129.1c-9.1-9.1-22.9-10.9-34.7-6.6c-6,2.2-10.8,6-15,10.7c-1.2,1.3-2.3,2.7-3.5,4.1l0,0
	c-1.3,2.6-2.1,5.3-2.6,8.2c-1.6,9.6,0.9,22.2,10.1,27.5c0.6,0.4,0.8,1,0.7,1.5c0.9,0.1,1.8,0.3,2.6,0.5c3.8,1,7.5,2.3,11.3,3.4
	c3.4,1,7,2.1,10.6,2.2c4.2,0.2,8.3-0.6,12.1-2.2c0.3-0.4,0.8-0.5,1.2-0.5c0,0,0,0,0,0c6.6-3.1,12.1-8.6,14.9-15.3
	C236.8,151,232.9,137.6,224.4,129.1z M202.1,161.9c-4.9,0-8.9-4-8.9-9s4-9,8.9-9s8.9,4,8.9,9S207,161.9,202.1,161.9z"/>
<g>
	<path class="st1" d="M170.4,169.1c-5-7.2-6.4-17.3-4.4-26.1c-1.1,1.1-2.3,2.2-3.6,3.2c-2.2,1.7-4.6,3.1-7.3,3.8
		c-3.2,0.8-6.4,0.6-9.5-0.4c-3.5-1-6.7-2.6-10.3-3.2c-3.1-0.6-6.4-0.7-9.6-0.5c-13.1,0.8-25.6,6.5-38.9,5.7
		c-4.4-0.2-8.4-1.3-12.1-3.1c3.7,8,4.6,18.2,0.6,26c2.8-0.5,5.6,0.5,7.7,2.2c2.5,2,3.8,4.9,5,7.8c1.3,3.1,2.1,6.4,2.8,9.8
		c1.3,6.7,1.8,13.6,2.8,20.3c2.3,16.7,5.4,33.4,8.5,50c3.1,16.8,6.5,33.5,10.1,50.2c1.8,8.3,3.7,16.7,5.6,25c1,4.2,1.9,8.3,2.9,12.5
		c0.7,3,1.4,6.1,3.2,8.6c0.8,1.1,1.8,2.1,3.1,2.6c1.1,0.4,1.3,0,1.6-1c0.2-1,0.5-1.9,0.7-2.9c1-4.1,2.1-8.3,3.1-12.4
		c2-8.3,4-16.6,5.9-24.9c3.8-16.6,7.4-33.3,10.7-50c3.3-16.6,6.3-33.2,9.3-49.9c2.6-14.9,5.9-29.8,13-43.2c0.9-1.7,2.1-3.5,3.9-4.3
		c0.2-0.1,0.5-0.2,0.7-0.3C173.8,173.2,171.9,171.3,170.4,169.1z M119.7,190.7c-1.1-2.1-3.2-3.4-5.5-3.2c-2.1,0.1-4.2,1.7-5,3.8
		c-0.3,0.8-1,1.3-1.8,1c-0.7-0.2-1.3-1.1-1.1-1.8c1.2-3.3,4.2-5.7,7.7-6c3.4-0.3,6.8,1.7,8.3,4.7
		C123.2,190.9,120.6,192.4,119.7,190.7z M147.5,189.5c-0.4,0.6-1.4,1-2.1,0.5c-3.6-2.6-9.3-2-12.1,1.7c-0.5,0.7-1.3,1-2,0.5
		c-0.7-0.4-1-1.4-0.5-2.1c3.6-4.9,11.1-6.4,16.1-2.8C147.6,187.9,147.9,188.7,147.5,189.5z"/>
</g>
<g>
	<path class="st2" d="M229.9,485.2c-4.9,2.1-10,3.6-15.2,4.6c-19.2,3.4-41.3-2.9-52.3-19.9c-6.5-10.1-6.8-22.3-10.2-33.4
		c-2.8-9.2-9.8-19.9-20.6-19.7c-9.6,0.2-16,9.1-20.4,16.6c-2.5,4.2-4.6,8.6-7,12.8c-2.6,4.5-5.7,8.8-9.1,12.7
		c-12.7,14.7-33.3,26.7-53,19.1c-3.7-1.4-7-3.3-9.9-5.6c0.4-1,0.8-2,1.2-2.9c14.4-35,25.6-71.9,22.8-110.1
		c-1.7-22.3-6.2-44.4-9.4-66.5c-3.3-22.9-6.3-45.8-9.2-68.8c-1.3-10.7-2.6-21.3-3.9-32c8,1.7,16.6,0.9,24.1-2.2
		c5.1-2.1,9.8-5.3,13.4-9.5c0,0,0,0,0,0c0.1-0.1,0.2-0.2,0.2-0.3c0,0,0,0,0,0c0.3-0.3,0.7-0.6,1-0.9c0.6-0.3,1.4-0.4,2.1-0.8
		c1.2-0.7,2.4-1,3.8-0.7c3.2,0.7,4.9,3.2,6.3,5.9c3.1,6.3,4.2,13.4,5,20.2c0.9,7.5,1.9,15,3.1,22.5c1.4,8.6,2.8,17.3,4.4,25.9
		c3,17.2,6.3,34.3,9.9,51.4c3.6,17,7.3,34,11.4,50.9c0.7,3,1.6,6.1,3.5,8.6c1.6,2.2,5.2,5.2,8,3.4c1.5-0.9,1.8-2.8,2.2-4.4
		c0.5-2.2,1.1-4.3,1.6-6.4c1.1-4.2,2.1-8.5,3.1-12.7c4.1-16.9,7.9-33.9,11.5-50.9c3.6-17,6.9-34.1,10.1-51.2
		c2.9-16.2,5-32.9,10.7-48.4c1.3-3.4,2.8-6.8,4.3-10.1c0.8-1.6,1.6-3.8,3.3-4.6c2-1,4.8,0.1,6.8,0.7c3.9,1.1,7.8,2.4,11.7,3.5
		c3.4,0.9,6.8,1.7,10.3,1.7c3.1,0,6.1-0.5,9-1.4c0.4-0.1,0.8-0.3,1.3-0.4c-1.9,43.9-7.4,87.6-8.7,131.5c-0.7,22.3-0.3,44.7,2.2,66.9
		c2.5,21.8,7.4,43.2,12.2,64.6c2.8,12.5,5.6,25,8,37.6c0,0,0,0,0,0c0.2,0.9,0.4,1.8,0.5,2.7C229.8,485,229.9,485.1,229.9,485.2z"/>
</g>
<path d="M75.3,174.5c-0.8,1.6-1.9,3.1-3.1,4.5c-0.3,0.3-0.6,0.6-0.9,1c0,0,0,0,0,0c0,0-0.1,0.1-0.1,0.1c-0.6,0.6-1.3,0.5-1.9,0.1
	c-0.1,0-0.1-0.1-0.2-0.1c-0.5-0.5-0.8-1.2-0.3-1.8c0,0,0,0,0,0c0,0,0,0,0,0l0,0v0c0.1-0.1,0.1-0.2,0.2-0.2c0.1-0.1,0.2-0.1,0.2-0.2
	l0,0c0.4-0.4,0.8-0.7,1.1-1.1c7.2-8.3,5.1-22.2-0.6-30.8c-0.1-0.1-0.1-0.2-0.2-0.3c-1.1-1.6,1.5-3.1,2.6-1.5c1,1.4,1.8,3,2.6,4.6
	C78.4,156.6,79.3,166.8,75.3,174.5z"/>
<path d="M179.4,174.4c-0.2,0.9-1.2,1.7-2.2,1.1c-0.4-0.2-0.9-0.5-1.3-0.8c-2.2-1.5-4-3.4-5.5-5.5c-5-7.2-6.4-17.3-4.4-26.1
	c0.6-2.6,1.5-5.1,2.6-7.4c0,0,0,0,0,0c0.1-0.2,0.2-0.4,0.4-0.5c0,0,0,0,0,0c1.1-0.8,2.9,0.5,2.1,2c0,0,0,0.1,0,0.1l0,0
	c-1.3,2.6-2.1,5.3-2.6,8.2c-1.6,9.6,0.9,22.2,10.1,27.5C179.3,173.2,179.5,173.8,179.4,174.4z"/>
<g>
	<path class="st2" d="M214.1,108.1c-9.2-1.9-19.1-1-27.7,2.6c-5.8,2.4-10.9,6.2-16.2,9.6c-5.3,3.5-10.9,6.4-17,8.4
		c-11.9,4-24.5,4.9-36.9,5.1c-6.4,0.1-12.8,0.1-19.2-0.1c-7-0.2-13.8-0.9-20.4-3.2c-6.3-2.2-12.2-5.2-18.5-7.3
		c-5.9-1.9-12-3.2-18.1-3.4c-5-0.2-10.1,0.4-14.9,1.9c-1.6-12.7-3.7-25.6-3-38.4c0.5-9.9,3.2-19.8,7.4-28.7
		c8.5-18,23.3-33,41.2-41.9C91,2.7,114.9,0.8,137,5.4c11.4,2.4,22.4,6.5,32.6,12.2c9.9,5.6,18.3,13,24.7,22.4
		c12.1,17.9,16.5,39.8,19.1,60.9C213.6,103.3,213.9,105.7,214.1,108.1z"/>
</g>
<g>
	<path class="st1" d="M35.9,123.3c3-11.5,12.5-21.1,24-24.2c11.5-3.1,24.5,0.5,32.8,9c2.8,2.9,5.3,6.4,9,7.8
		c2.8,1.1,5.9,0.9,8.9,0.6c6.3-0.5,12.5-1,18.8-1.5c4.1-0.3,8.3-0.7,11.7-3c2.4-1.6,4.1-4.1,6-6.2c12.6-13.9,37.7-13.3,49.7,1.1
		c2.5,3,4.5,6.6,5,10.5c1.4,12-12.1,20.8-24.2,21.3c-12.1,0.5-23.9-3.9-36-3.5C125,136,110,145.5,93.6,148
		c-22.9,3.5-47.4-8.6-58.6-28.8c1.5-1.2,3.1-2.3,4.6-3.5"/>
	<path d="M37.3,123.7c3.1-11.7,12.9-21.2,24.8-23.6c6.1-1.2,12.4-0.5,18.2,1.7c2.8,1.1,5.5,2.6,7.9,4.4c2.6,2,4.6,4.4,6.9,6.8
		c2.2,2.3,4.7,4.3,7.9,5c3.8,0.8,7.7,0.2,11.5-0.2c4-0.3,7.9-0.6,11.9-1c3.6-0.3,7.2-0.4,10.7-1.4c3.2-0.9,5.9-2.6,8.1-5.1
		c2-2.2,3.9-4.6,6.3-6.5c4.1-3.2,9-5.2,14.1-6.1c10.1-1.7,21.4,1.1,28.7,8.6c4.2,4.3,7.4,10.3,5.6,16.4c-1.5,5.1-5.8,8.9-10.3,11.2
		c-12.7,6.7-27,1.5-40.4,0.1c-7.3-0.7-14.5,0.1-21.6,2c-6.9,1.9-13.4,4.5-20.2,6.8c-6.4,2.1-12.9,3.9-19.6,4.2
		c-5.9,0.2-11.8-0.5-17.5-2.1c-11.4-3.3-21.8-10-29.2-19.3c-1.8-2.3-3.4-4.7-4.8-7.2c-0.2,0.7-0.4,1.4-0.5,2.1
		c1.5-1.2,3.1-2.3,4.6-3.5c1.5-1.2,0-3.8-1.5-2.6c-1.5,1.2-3.1,2.3-4.6,3.5c-0.7,0.5-1,1.3-0.5,2.1c6.1,10.9,15.8,19.5,27.1,24.6
		c11.5,5.3,24.4,6.9,36.8,4.2c14.4-3.1,27.8-10.9,42.7-11.9c7.9-0.5,15.7,1.2,23.5,2.4c6.9,1,14.1,1.8,20.9-0.1
		c10.8-3,21.9-12.8,17.9-25.1c-3.7-11.5-15.7-18.3-27.1-19.6c-11-1.2-22.6,2.5-29.9,10.9c-2.3,2.7-4.4,5.5-7.9,6.7
		c-3.4,1.2-7.1,1.3-10.7,1.6c-4.3,0.3-8.6,0.7-12.9,1c-3.8,0.3-8.1,1.2-11.7-0.2c-3.1-1.2-5.3-4-7.5-6.4c-2.2-2.4-4.7-4.5-7.4-6.2
		c-5.5-3.4-11.9-5.3-18.4-5.5c-12.8-0.3-24.8,6.9-31.2,18c-1.5,2.6-2.7,5.5-3.4,8.4C34,124.8,36.8,125.6,37.3,123.7L37.3,123.7z"/>
</g>
<g>
	<path class="st1" d="M234.2,165.6c-0.2,0.1-0.3,0.3-0.5,0.4c1.7-3.3,2.8-7,3.2-10.8c0.7-6.2-0.6-12.5-3.3-18.1
		c-2.6-5.6-6.8-10.5-11.9-14.1c-5.3-3.6-11.6-5.5-18-5.8c-6.5-0.3-13,1.1-18.8,4c-5.9,2.9-10.4,7.2-14.5,12.2
		c-0.5,0.5-0.9,1.1-1.4,1.7c0,0,0,0,0,0c-0.2,0.1-0.3,0.3-0.4,0.5c0,0,0,0,0,0c-3.2,3.8-6.6,7.8-10.9,10.2c-2.5,1.4-5.3,2-8.1,1.7
		c-3.8-0.4-7.3-2.3-11-3.4c-13.2-3.6-26.7,1.5-39.6,3.7c-6.4,1.1-13.1,1.6-19.4-0.4c-7.2-2.2-12.5-7.7-18.7-11.6
		c-11.2-7-26.4-9.3-38.4-2.9c-8.9,4.7-14,13.8-14.9,23.6c-1.5-6.2-0.4-13.1,2.6-18.8c2-3.9,4.9-7.4,8.6-9.7c4.7-3,10.4-4.5,16-4.9
		c5.9-0.4,11.9,0.3,17.6,1.8c6,1.5,11.7,4,17.4,6.4c6.1,2.5,12.1,4.4,18.7,5.1c6.4,0.7,12.9,0.6,19.3,0.7c12,0.1,24.1-0.2,35.9-2.6
		c5.8-1.2,11.4-2.9,16.8-5.3c5.7-2.5,10.8-6,15.9-9.5c4.6-3.1,9.4-5.9,14.8-7.6c4.6-1.4,9.4-2,14.3-1.9c3,0.1,6,0.4,9,1.1
		c0.4,0.6,1.4,0.8,2,0.5c5.6,1.6,10.8,4.3,15,8.2C243.8,131.1,248.2,154,234.2,165.6z"/>
</g>
<path d="M245.4,151.3c-1.5,8.8-6.9,16.5-15.2,20.2c-0.1,0-0.1,0.1-0.2,0.1c-1.7,0.5-3-1.9-1.3-2.7c1.8-0.8,3.5-1.7,5-2.9v0
	c0,0,0,0,0,0c0.2-0.1,0.3-0.2,0.5-0.4c14.1-11.5,9.6-34.4-2.5-45.6c-4.3-3.9-9.5-6.6-15-8.2c-0.7-0.2-1.3-0.4-2-0.5
	c-3-0.7-6-1.1-9-1.1c-4.8-0.1-9.6,0.5-14.3,1.9c-5.4,1.6-10.1,4.5-14.8,7.6c-5.2,3.4-10.2,6.9-15.9,9.5c-5.4,2.4-11.1,4.1-16.8,5.3
	c-11.8,2.4-23.9,2.6-35.9,2.6c-6.4,0-12.9,0-19.3-0.7c-6.6-0.7-12.6-2.6-18.7-5.1c-5.7-2.4-11.4-4.9-17.4-6.4
	c-5.8-1.5-11.7-2.2-17.6-1.8c-5.5,0.4-11.3,1.9-16,4.9c-3.7,2.4-6.6,5.9-8.6,9.7c-2.9,5.7-4.1,12.5-2.6,18.8c0,0,0,0,0,0
	c0.5,2.2,1.4,4.4,2.6,6.3c1,1.6-1.4,3-2.5,1.7c0,0-0.1-0.1-0.1-0.2c-1.2-1.9-2.1-4-2.7-6.1c-2.6-9-0.1-19.2,5.6-26.6
	c3.1-4,7.2-6.8,11.7-8.7c0.9-0.4,1.9-0.7,2.9-1c4.8-1.5,9.9-2,14.9-1.9c6.2,0.2,12.3,1.5,18.1,3.4c6.3,2.1,12.2,5.1,18.5,7.3
	c6.6,2.3,13.5,3,20.4,3.2c6.4,0.2,12.8,0.2,19.2,0.1c12.4-0.2,25.1-1.2,36.9-5.1c6.1-2,11.7-4.9,17-8.4c5.2-3.5,10.3-7.2,16.2-9.6
	c8.6-3.6,18.5-4.5,27.7-2.6c1,0.2,2.1,0.5,3.1,0.7c9.1,2.5,17.3,8,22.6,16.2C244.7,132.8,246.9,142.3,245.4,151.3z"/>
<path d="M119.7,190.7c-1.1-2.1-3.2-3.4-5.5-3.2c-2.1,0.1-4.2,1.7-5,3.8c-0.3,0.8-1,1.3-1.8,1c-0.7-0.2-1.3-1.1-1.1-1.8
	c1.2-3.3,4.2-5.7,7.7-6c3.4-0.3,6.8,1.7,8.3,4.7C123.2,190.9,120.6,192.4,119.7,190.7z"/>
<path d="M147.5,189.5c-0.4,0.6-1.4,1-2.1,0.5c-3.6-2.6-9.3-2-12.1,1.7c-0.5,0.7-1.3,1-2,0.5c-0.7-0.4-1-1.4-0.5-2.1
	c3.6-4.9,11.1-6.4,16.1-2.8C147.6,187.9,147.9,188.7,147.5,189.5z"/>
<path d="M50,161.9c0,4.9-4,8.9-8.9,8.9s-8.9-4-8.9-8.9s4-9,8.9-9S50,156.9,50,161.9z"/>
<circle cx="202.1" cy="152.9" r="8.9"/>
<circle cx="50" cy="152.9" r="50"/>
<path d="M90.3,152.6l-6.8-5.8c3.7-4.3,17.5-18.5,39.7-19.6c25.2-1.2,41.3,15.4,44.3,18.7l-6.7,6c-2.5-2.8-16.1-16.7-37.1-15.7
	C105,137.1,93.4,149,90.3,152.6z"/>
<circle class="st3" cx="50" cy="152.9" r="43.1"/>
<circle cx="198.7" cy="143.8" r="50"/>
<circle class="st3" cx="198.7" cy="143.8" r="43.1"/>
<path class="st4" d="M7.6,145.6l49.7,49.7c3.7-0.6,7.2-1.7,10.5-3.3l-57-57C9.3,138.4,8.2,141.9,7.6,145.6z"/>
<path class="st4" d="M24.6,118.2c-4.4,3.2-8.1,7.2-11,11.8L73,189.3c4.6-2.9,8.6-6.6,11.8-11L24.6,118.2z"/>
<path class="st4" d="M33.8,113.1l56.1,56.1c0.7-1.8,1.3-3.6,1.8-5.4l-52.5-52.5C37.3,111.7,35.5,112.3,33.8,113.1z"/>
<path class="st4" d="M156.4,135.7l50.4,50.4c3.7-0.7,7.1-1.8,10.4-3.4l-57.4-57.4C158.2,128.6,157.1,132.1,156.4,135.7z"/>
<path class="st4" d="M173.8,108.6c-4.4,3.1-8.2,7.1-11.2,11.6l59.6,59.6c4.5-3,8.5-6.8,11.6-11.2L173.8,108.6z"/>
<path class="st4" d="M183,103.6l55.9,55.9c0.7-1.8,1.3-3.6,1.7-5.5l-52.1-52.1C186.6,102.4,184.8,102.9,183,103.6z"/>
<g>
	<path d="M229.9,485.2c-4.9,2.1-10,3.6-15.2,4.6c-19.2,3.4-41.3-2.9-52.3-19.9c-6.5-10.1-6.8-22.3-10.2-33.4
		c-2.8-9.2-9.8-19.9-20.6-19.7c-9.6,0.2-16,9.1-20.4,16.6c-2.5,4.2-4.6,8.6-7,12.8c-2.6,4.5-5.7,8.8-9.1,12.7
		c-12.7,14.7-33.3,26.7-53,19.1c-3.7-1.4-7-3.3-9.9-5.6l0,0c0.4-1,0.8-2,1.2-2.9c4.3,3.5,9.2,6.1,14.8,7.2
		c10.4,2.2,20.9-1.1,29.7-6.7c9.3-5.9,17.1-14.3,22.8-23.8c5.1-8.3,8.7-17.6,15.5-24.8c6.3-6.7,15.5-9.9,24.2-5.6
		c9.6,4.8,14,15.7,16.3,25.6c2.6,11.5,4.1,23.3,12.5,32.2c7.1,7.5,17,12,27.1,13.6c11.2,1.8,22.8-0.5,33.1-5
		c0.2,0.9,0.4,1.8,0.5,2.7C229.8,485,229.9,485.1,229.9,485.2z"/>
</g>
<g>
	<path class="st0" d="M238,542.7c-1.2-11.2-2.6-22.3-4.2-33.4c-1.1-8.1-2.5-16.1-4-24.1c-4.9,2.1-10,3.6-15.2,4.6
		c-19.2,3.4-41.3-2.9-52.3-19.9c-6.5-10.1-6.8-22.3-10.2-33.4c-2.8-9.2-9.8-19.9-20.6-19.7c-9.6,0.2-16,9.1-20.4,16.6
		c-2.5,4.2-4.6,8.6-7,12.8c-2.6,4.5-5.7,8.8-9.1,12.7c-12.7,14.7-33.3,26.7-53,19.1c-3.7-1.4-7-3.3-9.9-5.6c-1.3,3.1-2.6,6.2-4,9.3
		c-7.6,17.6-12.5,35.6-15.2,54.5c-0.3,2.2-0.6,4.4-0.8,6.6H238z"/>
</g>
</svg>
