<?xml version="1.0" encoding="utf-8"?>
<!-- Generator: Adobe Illustrator 27.9.2, SVG Export Plug-In . SVG Version: 6.00 Build 0)  -->
<svg version="1.1" id="Calque_1" xmlns="http://www.w3.org/2000/svg" xmlns:xlink="http://www.w3.org/1999/xlink" x="0px" y="0px"
	 viewBox="0 0 983.9 695.7" style="enable-background:new 0 0 983.9 695.7;" xml:space="preserve">
<style type="text/css">
	.st0{fill:#FFFCF5;}
	.st1{fill:#915539;}
	.st2{fill:#7A4530;}
	.st3{fill:#3AE5FF;}
	.st4{fill:#EFEFEF;}
	.st5{fill:#FFFFFF;}
	.st6{fill:#FFE757;}
</style>
<path d="M666.7,413.9c-0.1-1-0.3-2-0.5-3c-1.7-9.6-5.2-18.7-11.4-27c-10.6-14.2-25.9-21.9-42.5-25.3c-1-0.2-1.9-0.4-2.9-0.5
	c-7.2-1.2-14.6-1.7-21.9-1.6c-1.2,0-2.4,0-3.6,0.1c-6.2,0.2-12.4,0.9-18.3,1.8c-41.8,6.5-80.1,25.3-114.6,49.2
	c-34.2,23.7-67.3,51.2-108.7,61c-19.7,4.7-40.7,5.2-59.9-1.8c-18.1-6.5-33.1-19.6-44-35.2c-0.8-1.2-1.6-2.4-2.4-3.6
	c-0.6-1-1.2-1.9-1.8-2.9c-19.5-31.9-23.7-70.7-26.2-107.6c-0.1-0.9-0.1-1.8-0.2-2.7c-0.2-2.4-0.3-4.8-0.5-7.1
	c-2.9-46.2-2.4-92.6,1.5-138.7c2-23.4,4.8-46.7,8.6-69.8c1.7-10.6,4-21.2,5.4-31.9c1.3-9.9,1.5-20.2-2.3-29.5
	c-6.5-15.8-22.8-24.3-38.1-29.5C166.1,2.8,148.7,0,131.5,0C97.9,0,63.3,11.4,41.8,38.4c-24.2,30.2-28.5,70.9-32.5,108
	c-5,46.5-7.4,93.1-8.5,139.8c-0.5,22.5-0.9,45-0.7,67.6c0.2,18.6,1.1,37.3,3.8,55.8c0,0,0,0,0,0c0.1,0.5,0.1,1,0.2,1.5
	c0.2,1.5,0.5,3,0.7,4.5c3.3,19.6,8.9,38.7,17.8,56.4c0.2,0.5,0.7,0.7,1.1,0.8c14.8,32.4,32.4,63.5,53.7,92.1
	c23.5,31.6,51.6,59.9,84.2,82.1c32.1,21.9,68.6,37.8,107,44.3c22.1,3.7,44.5,4.6,66.9,4.4c20.3-0.1,40.7-1.3,60.9-3.8
	c39.9-5.1,79.4-15.6,114.8-34.9c33.5-18.2,62-44.1,85.4-74c23.2-29.6,41.8-62.9,56.4-97.5c5.9-14,11.3-30.1,13.5-46.2
	c0.1-1.1,0.3-2.1,0.4-3.1C667.6,428.6,667.6,421.1,666.7,413.9z M649.9,485c-7.2,17.1-15.6,33.8-24.8,50
	c-18.6,32.5-41.6,62.8-69.9,87.5c-29.7,26-64.9,44.1-102.7,55c-38.8,11.1-79.3,15.1-119.5,15.2c-22.6,0.1-45.2-0.9-67.5-5
	c-18.8-3.5-37.3-9.2-54.8-16.9c-35.3-15.3-67.1-38-94.3-65.1c-28.4-28.4-51.8-61.4-71.2-96.5c-9.4-17.1-17.9-34.7-25.6-52.6
	c-0.2-0.5-0.6-0.8-1.1-0.8c-5-12.9-8.4-26.4-10.8-40c-0.3-2-0.7-3.9-0.9-5.9C4,390.2,3.2,370,3,350.2c-0.3-45,0.9-90.1,3.5-135
	c1.3-23,3.2-45.9,5.7-68.8c2.1-19.8,4.4-39.7,9.5-58.9c4.8-18,12.2-35.7,24.6-49.9c11.2-12.9,26-22.2,42.1-27.8
	C120.4-1.1,158.2,1,189.2,14c8.2,3.4,16.2,8,22.1,14.7c6.7,7.6,9.4,17.2,9.4,27.2c0,10.8-2.5,21.4-4.4,31.9
	c-1.9,11.2-3.7,22.4-5.2,33.6c-6.1,44.4-9,89.3-8.6,134.2c0.2,22.7,1.2,45.4,3,68c1.7,21.1,3.9,42.4,9.4,62.9c0.3,1.2,0.7,2.4,1,3.6
	c0.4,1.4,0.8,2.8,1.3,4.2c3.6,11.3,8.5,22.4,14.7,32.5l0,0c0.2,0.3,0.4,0.6,0.6,0.9c11.3,18.2,27,33.3,47.5,41.2
	c36.4,14,77.5,1.8,110-16.7c36.2-20.6,67.2-49.2,104.6-67.8c19.1-9.5,39.3-16.6,60.1-21.2c9.8-2.2,19.9-3.6,30.1-4h0
	c7.2-0.2,14.5,0.1,21.7,1.2c16.3,2.4,32.1,9,43.1,21.6c11.8,13.6,15.5,31.7,14.4,49.3C662.9,450,657.1,468.1,649.9,485z"/>
<g>
	<path class="st0" d="M664.1,431.5c-1.2,18.5-7,36.5-14.2,53.5c-7.2,17.1-15.6,33.8-24.8,50c-18.6,32.5-41.6,62.8-69.9,87.5
		c-29.7,26-64.9,44.1-102.7,55c-38.8,11.1-79.3,15.1-119.5,15.2c-22.6,0.1-45.2-0.9-67.5-5c-18.8-3.5-37.3-9.2-54.8-16.9
		c-35.3-15.3-67.1-38-94.3-65.1c-28.4-28.4-51.8-61.4-71.2-96.5c-9.4-17.1-17.9-34.7-25.6-52.6c-0.2-0.5-0.6-0.8-1.1-0.8
		c-5-12.9-8.4-26.4-10.8-40c2,2.2,4.3,4.2,6.7,5.9c3.8,2.7,8.6,5,13.4,4.8c5-0.2,9.2-3.6,12.5-7.1c3.9-4,6.8-8.9,9.1-14
		c7.9-17.5,9.6-37.6,17.4-55.1c0.5,21.8,3.2,43.6,8.4,64.8c5.6,22.7,13.9,44.6,24.8,65.3c11,21.1,24.5,41.1,39.8,59.3
		c14.9,17.7,31.8,33.8,50.1,47.9c18.4,14.1,38.3,26.2,59.3,36.1c10.5,5,21.3,9.3,32.3,13.1c5.5,1.9,11,3.6,16.6,5.2
		c5.4,1.5,11.2,3.5,16.9,3.1c5.3-0.3,10-3,12.1-7.9c2-4.6,1.6-10-0.4-14.5c-2.4-5.4-6.7-9.7-11-13.6c-4.4-4.2-8.9-8.3-13.2-12.6
		c-17.2-17-33.5-35-48.3-54.2c-14.9-19.1-28.5-39.4-40.2-60.6c-11.6-21.1-21.4-43.3-28.8-66.3c-1.4-4.4-2.7-8.9-3.9-13.3
		c3.2,1.6,6.7,2.8,10.5,3.2c8.6,1,18.4-1.7,23.9-8.7c0.6-0.7,1.1-1.5,1.6-2.3c3.6,11.3,8.5,22.4,14.7,32.5l0,0
		c0.1,0.4,0.2,0.7,0.6,0.9c11.3,18.2,27,33.3,47.5,41.2c36.4,14,77.5,1.8,110-16.7c36.2-20.6,67.2-49.2,104.6-67.8
		c19.1-9.5,39.3-16.6,60.1-21.2c9.8-2.2,19.9-3.6,30.1-4h0c7.2-0.2,14.5,0.1,21.7,1.2c16.3,2.4,32.1,9,43.1,21.6
		C661.5,395.8,665.2,413.9,664.1,431.5z"/>
</g>
<g>
	<path class="st1" d="M325,634.6c-3.6,12.6-20.3,6.2-28.8,3.7c-10.9-3.2-21.6-6.9-32.1-11.3c-21.1-8.7-41.2-19.8-59.9-32.7
		c-18.8-13-36.2-28.1-51.8-44.9c-16-17.2-30-36.2-42-56.5c-11.7-19.8-21.1-40.8-27.8-62.7c-6.9-22.3-10.9-45.4-12.2-68.7
		c-0.3-5.7-0.5-11.5-0.5-17.2c1.5-2.7,3.1-5.3,5.1-7.8c6.2-8.2,14.9-15.2,25.1-17.4c10.9-2.3,21.6,2,29.7,9.1
		c18.4,16.1,22,42,36.6,60.8c3.2,4.2,7,8,11.4,10.9c6,22.7,14.4,44.6,24.7,65.7c10.4,21.4,22.8,41.7,36.6,61.1
		c13.8,19.4,29,37.8,45.3,55.2c8.1,8.7,16.5,17.1,25.1,25.2C316.7,614.2,328.3,623,325,634.6z"/>
</g>
<path d="M327.2,637.3c-2.1,5-6.8,7.6-12.1,7.9c-5.7,0.3-11.5-1.6-16.9-3.1c-5.6-1.6-11.1-3.3-16.6-5.2c-11-3.8-21.8-8.2-32.3-13.1
	c-21-9.8-40.9-22-59.3-36.1c-18.4-14.1-35.2-30.1-50.1-47.9c-15.3-18.2-28.8-38.2-39.8-59.3c-10.8-20.7-19.2-42.7-24.8-65.3
	c-5.2-21.2-7.9-43-8.4-64.8c-0.1-2.1-0.1-4.2-0.1-6.3c0,0,0-0.1,0-0.1c0-0.5,0.2-0.8,0.5-1c0.9-0.7,2.5-0.3,2.5,1.1v0.4
	c0,5.7,0.2,11.5,0.5,17.2c1.3,23.3,5.4,46.4,12.2,68.7c6.8,21.9,16.2,43,27.8,62.7c11.9,20.2,26,39.3,42,56.5
	c15.6,16.8,33,31.8,51.8,44.9c18.7,13,38.9,24,59.9,32.7c10.5,4.3,21.2,8.1,32.1,11.3c8.5,2.5,25.2,8.9,28.8-3.7
	c3.3-11.7-8.2-20.5-15.6-27.5c-8.6-8.2-17-16.6-25.1-25.2c-16.3-17.4-31.5-35.8-45.3-55.2c-13.8-19.4-26.1-39.7-36.6-61.1
	c-10.3-21-18.7-43-24.7-65.7c0-0.2-0.1-0.3-0.1-0.5c-0.5-1.9,2.4-2.7,2.9-0.8c0.3,1.1,0.6,2.3,0.9,3.4c1.2,4.5,2.5,8.9,3.9,13.3
	c7.3,23,17.1,45.1,28.8,66.3c11.7,21.3,25.3,41.5,40.2,60.6c14.9,19.1,31.1,37.2,48.3,54.2c4.3,4.3,8.7,8.5,13.2,12.6
	c4.3,4,8.6,8.2,11,13.6C328.8,627.3,329.2,632.6,327.2,637.3z"/>
<g>
	<path class="st2" d="M476.5,117.9c-0.5,6.8-2.7,13.5-4.6,20c-1.8,6.2-3.8,12.3-5.9,18.4c-4.2,12.2-8.8,24.1-13.9,35.9
		c-10.3,23.5-22.5,46.2-36.4,67.8c-13.9,21.6-29.6,42.1-46.9,61.2c-19.1,21-40.2,40-61.5,58.7c-9.6,8.4-19,17.2-28.7,25.5
		c-8.4,7.2-17.6,13.9-28.2,17.2c-5.2,1.6-10.6,2.5-16.1,2.5c-19.5-31.9-23.7-70.7-26.2-107.6c0.3,0.1,0.6,0.2,1,0.1
		c24.7-6.1,48.8-14.6,71.5-26.1c22.6-11.4,43.7-25.8,61.9-43.4c18.1-17.6,33-38.2,46.9-59.2c14-21.3,27.2-43.2,42.2-63.8
		c3.8-5.2,7.7-10.3,11.8-15.3c2-2.4,4-4.8,6.1-7.2c2-2.3,4.1-4.5,6.8-5.9c5.3-2.8,11.2-0.6,15.1,3.4
		C475.9,104.9,477,111.4,476.5,117.9z"/>
</g>
<path d="M475.4,136.7c-7.3,24.9-16.7,49.3-27.9,72.7c-11.3,23.5-24.6,46.2-39.6,67.5c-15.1,21.5-32,41.8-50.4,60.5
	C347,348,336.2,358.1,325.1,368c-10.6,9.5-21.5,18.7-32.1,28.3c-8.6,7.8-17.2,16-27.2,22.2c-9.1,5.7-19.2,9-29.8,9.5
	c-0.9,0.1-1.8,0.1-2.7,0.1c-0.3,0-0.6-0.1-0.8-0.2c-0.3-0.2-0.5-0.5-0.6-0.9l0,0c-0.2-0.8,0.3-1.8,1.4-1.8c0.3,0,0.6,0,0.8,0
	c5.5-0.1,10.9-0.9,16.1-2.5c10.7-3.4,19.8-10,28.2-17.2c9.7-8.3,19.1-17.1,28.7-25.5c21.3-18.7,42.4-37.7,61.5-58.7
	c17.3-19.1,33-39.5,46.9-61.2c13.9-21.6,26.1-44.2,36.4-67.8c5.1-11.8,9.8-23.8,13.9-35.9c2.1-6.1,4.1-12.2,5.9-18.4
	c1.9-6.5,4.1-13.2,4.6-20c0.5-6.4-0.6-13-5.3-17.8c-3.9-4.1-9.8-6.2-15.1-3.4c-2.7,1.4-4.8,3.7-6.8,5.9c-2.1,2.3-4.1,4.7-6.1,7.2
	c-4.1,5-8,10.1-11.8,15.3c-15.1,20.6-28.2,42.5-42.2,63.8c-13.9,21-28.7,41.6-46.9,59.2c-18.2,17.6-39.3,32-61.9,43.4
	c-22.7,11.5-46.8,20-71.5,26.1c-0.4,0.1-0.7,0-1-0.1c-1-0.5-1.2-2.1-0.2-2.7c0.1-0.1,0.2-0.1,0.4-0.1c6.1-1.5,12.2-3.2,18.2-5
	c24.9-7.5,49-17.7,71.2-31.1c22.2-13.5,42-30.2,58.8-50c16.8-19.8,30.7-41.8,44.7-63.6c13.9-21.7,27.9-43.4,44.8-63
	c3.8-4.4,8.2-9,14.4-9.5c5.4-0.4,10.7,2.6,14,6.7C483.4,109.8,478.9,124.7,475.4,136.7z"/>
<g>
	<path class="st3" d="M805.6,193.5c-4.1,6.3-10.9,10.2-17.7,12.8c-7.6,2.9-15.7,5-23.6,7c-8.3,2.2-16.6,4.1-24.9,5.8
		c-16.8,3.4-33.7,5.8-50.8,7.3c-7.2,0.6-15,0.5-21.8,3.3c-3.3,1.3-6.1,3.4-8.3,6.1c-2.4,2.9-4.1,6.3-5.8,9.7
		c-14.8,28.6-27.2,58.3-36.6,89.1c-2.3,7.6-4.5,15.3-6.4,23c0,0.2-0.1,0.3-0.1,0.4c-7.2-1.2-14.6-1.7-21.9-1.6
		c16.3-26.1,28.8-54.4,37.8-83.9c2.3-7.7,4.8-15.5,6.2-23.4c0.7-4,1.1-8,0.5-12c-0.5-3.8-2-7.4-4-10.7c-2.1-3.4-4.6-6.4-7.1-9.5
		c-2.8-3.5-5.7-7-8.5-10.5c-5.6-6.9-11.1-13.8-16.7-20.6c-11.1-13.8-22.2-27.5-33.3-41.3c-9.3-11.6-21-24.1-21.9-39.7
		c-0.4-6.8,1.3-13.8,6-18.9c4.4-4.7,10.6-7,16.9-7.7c6.7-0.8,13.4,0,20,1.3c7.5,1.5,14.9,3.6,22.3,5.6c14.3,4,29.1,8.4,44.2,7.7
		c7.2-0.3,14.2-2,20.7-5.2c6.2-3,11.5-7.4,17.2-11.2c5.5-3.7,11.7-6.8,18.5-6.6c6.9,0.2,13.4,3.7,18.5,8.2
		c11.6,10.3,15.9,25.9,23.1,39.1c6.8,12.7,16.1,24,27.1,33.2c5.4,4.5,11.2,8.4,17.2,12c5.4,3.2,11.4,6.6,14.6,12.2
		C810.4,180.7,809.2,187.8,805.6,193.5z"/>
</g>
<path d="M810.2,191.1c-6.2,14.6-23,18.9-36.8,22.8c-16.7,4.7-33.7,8.4-50.8,11.2c-8.5,1.4-17.2,2.5-25.8,3.4
	c-4.2,0.4-8.5,0.8-12.7,1.2c-3.7,0.3-7.3,0.5-10.9,1.2c-3.6,0.7-7.2,1.9-10.1,4.3c-2.8,2.4-4.7,5.6-6.4,8.8
	c-3.9,7.3-7.5,14.7-11.1,22.2c-14,29.6-25.1,60.4-33.2,92.1c0,0.1,0,0.1-0.1,0.2c-0.6,1.5-2.9,0.9-2.9-0.5c0-0.1,0-0.3,0.1-0.4
	c2-7.7,4.1-15.4,6.4-23c9.4-30.8,21.8-60.5,36.6-89.1c1.7-3.3,3.4-6.7,5.8-9.7c2.2-2.8,5.1-4.8,8.3-6.1c6.8-2.8,14.6-2.7,21.8-3.3
	c17.1-1.5,34-3.9,50.8-7.3c8.4-1.7,16.7-3.6,24.9-5.8c7.9-2.1,15.9-4.1,23.6-7c6.9-2.6,13.7-6.4,17.7-12.8
	c3.6-5.7,4.8-12.8,1.3-18.8c-3.3-5.6-9.2-9-14.6-12.2c-6.1-3.6-11.9-7.5-17.2-12c-11-9.2-20.3-20.6-27.1-33.2
	c-7.1-13.3-11.5-28.8-23.1-39.1c-5.1-4.5-11.6-8-18.5-8.2c-6.8-0.2-13,2.9-18.5,6.6c-5.7,3.8-11,8.2-17.2,11.2
	c-6.5,3.2-13.5,4.8-20.7,5.2c-15,0.7-29.8-3.7-44.2-7.7c-7.4-2.1-14.8-4.1-22.3-5.6c-6.6-1.3-13.3-2.1-20-1.3
	c-6.3,0.7-12.5,3-16.9,7.7c-4.7,5-6.4,12.1-6,18.9c0.9,15.6,12.5,28.1,21.9,39.7c11.1,13.8,22.2,27.5,33.3,41.3
	c5.6,6.9,11.1,13.8,16.7,20.6c2.8,3.5,5.7,7,8.5,10.5c2.5,3.1,5,6.1,7.1,9.5c2,3.3,3.5,6.8,4,10.7c0.6,4,0.2,8-0.5,12
	c-1.5,7.9-3.9,15.7-6.2,23.4c-9,29.4-21.5,57.7-37.8,83.9c-0.5,0.8-1,1.5-1.4,2.3c-0.3,0.5-0.7,0.7-1.2,0.7h0c-1,0-2.1-1.1-1.4-2.2
	c0.1-0.2,0.3-0.5,0.4-0.7c4-6.4,7.8-12.8,11.4-19.4c7.7-14.1,14.3-28.8,19.9-43.9c2.7-7.4,5.2-14.9,7.5-22.4
	c2.4-7.8,4.9-15.9,6.2-24c0.6-4.2,0.7-8.5-0.6-12.6c-1.2-3.8-3.4-7.1-5.7-10.2c-5.3-7-11.1-13.8-16.6-20.7
	c-11.2-13.9-22.5-27.8-33.7-41.7c-5.6-7-11.3-13.9-16.9-20.9c-4.8-6-9.7-12.1-13.1-19.1c-6-12-7.5-28.5,3.1-38.5
	c9.7-9.3,24.7-8.9,37-6.7c15.4,2.9,30.2,8.3,45.5,11.5c14.3,3,29.6,3.7,42.9-3.5c11.6-6.3,21.7-18.1,36-17.4
	c14.9,0.7,25.8,13.1,32.4,25.4c3.8,7,6.7,14.4,10.3,21.5c3.3,6.4,7.2,12.5,11.7,18.2c4.6,5.7,9.7,11,15.2,15.8
	c5.5,4.7,11.5,8.7,17.7,12.3c5.4,3.2,11.1,6.7,14.7,12C812.7,177.8,812.9,184.9,810.2,191.1z"/>
<g>
	<path class="st3" d="M981.1,511.7c-0.2,4.4-3.4,7.2-6.9,9.3c-13.8,8.4-30,11.3-45.8,14c-15.8,2.7-31.8,5.2-46.4,12.1
		c-14.1,6.7-26.5,16.9-35.8,29.3c-7.1,9.5-16.7,26.1-31.1,22.5c-6.8-1.7-11.8-7.7-14.3-14c-3.4-8.2-2.7-17.4-2.2-26.1
		c0.5-8.2,0.8-16.3-0.2-24.5c-0.9-7.6-2.5-15-4.9-22.2c-4.7-14.4-12.3-27.9-22.2-39.5c-20.6-23.9-51.7-38.8-83.4-38.8
		c-7.1,0-14.2,0.8-21.2,2.2c0.8-7.5,0.9-15-0.1-22.3c34.4,2.6,68.2,12,98.9,27.7c7.6,3.9,15.1,8.1,22.3,12.7
		c6.9,4.4,13.8,9.2,21.8,11.4c7,2,14.2,1.5,20.8-1.4c6.4-2.8,11.8-7.4,16.2-12.8c4.5-5.6,8.1-11.9,10.5-18.7
		c2.9-8,4.6-16.4,6.4-24.7c3.3-15.7,6.7-32.3,18.4-44c9.7-9.7,24.8-16,37.4-7.9c12.9,8.2,16.6,25.5,18.3,39.6
		c1.9,15.7,1.5,31.7,4.6,47.2c1.5,7.5,3.8,14.9,7.6,21.6c3.7,6.6,8.7,12.2,13.8,17.8c5,5.5,10.2,11,13.9,17.6
		C979.4,503.6,981.2,507.6,981.1,511.7z"/>
</g>
<path d="M979.7,520.8c-2.9,2.5-6.4,4.4-9.9,6.1c-3.7,1.8-7.5,3.3-11.4,4.6c-15.6,5.1-32,6.6-47.9,9.9c-7.9,1.6-15.7,3.7-23.1,6.8
	c-7.4,3.1-14.5,7.2-20.8,12.1c-6.4,4.9-12.2,10.7-17.1,17.1c-4.2,5.5-8,11.4-12.9,16.4c-4.6,4.7-10.3,8.5-17,8.8
	c-7,0.2-13.1-3.6-17.3-9c-10.9-14.1-5.7-32.8-6.1-49.1c-0.7-31-15.2-61.4-38.9-81.4c-12.5-10.5-27.2-18.4-43.1-22.6
	c-15.6-4.1-32-4.5-47.8-1c-0.3,0.1-0.7,0.1-1.1,0.2c-1.9,0.4-2.7-2.5-0.8-2.9c0.7-0.2,1.5-0.3,2.2-0.5c7-1.5,14.1-2.2,21.2-2.2
	c31.7-0.1,62.8,14.9,83.4,38.8c9.9,11.5,17.5,25,22.2,39.5c2.4,7.2,4,14.7,4.9,22.2c0.9,8.2,0.7,16.3,0.2,24.5
	c-0.6,8.6-1.2,17.8,2.2,26.1c2.6,6.3,7.5,12.3,14.3,14c14.4,3.6,23.9-13,31.1-22.5c9.4-12.5,21.7-22.7,35.8-29.3
	c14.6-6.9,30.6-9.5,46.4-12.1c15.7-2.7,32-5.6,45.8-14c3.5-2.1,6.7-4.9,6.9-9.3c0.2-4.1-1.7-8.1-3.6-11.6
	c-3.6-6.6-8.8-12.1-13.9-17.6c-5.1-5.5-10.1-11.2-13.8-17.8c-3.7-6.7-6.1-14.1-7.6-21.6c-3-15.6-2.7-31.5-4.6-47.2
	c-1.7-14.1-5.4-31.3-18.3-39.6c-12.6-8.1-27.7-1.8-37.4,7.9c-11.7,11.8-15.1,28.3-18.4,44c-1.7,8.3-3.4,16.7-6.4,24.7
	c-2.5,6.7-6,13.1-10.5,18.7c-4.4,5.4-9.8,10-16.2,12.8c-6.6,2.8-13.9,3.3-20.8,1.4c-8-2.2-14.9-7-21.8-11.4
	c-7.2-4.6-14.6-8.9-22.3-12.7c-30.7-15.6-64.6-25.1-98.9-27.7c-0.1,0-0.2,0-0.3,0c-1.8-0.1-1.9-2.9-0.2-3c0.1,0,0.1,0,0.2,0
	c8.3,0.6,16.6,1.6,24.8,3c34.2,5.8,67.4,18.4,96.8,37c7,4.4,13.9,9.5,22,11.8c7.2,2.1,14.8,1.5,21.4-2c13.3-7,21.1-21.2,25.1-35.1
	c4.7-16.5,6-34.2,13.7-49.8c6.1-12.4,18.2-23.8,32.3-25.8c6.7-1,13.6,0.5,19.2,4.4c6,4.1,10.2,10.2,13,16.8
	c6.2,14.4,6.7,30.7,7.7,46.1c1,15.6,2.2,32,10,46c7.4,13.3,20.7,22.4,27.9,35.8C984,505.9,986.4,514.8,979.7,520.8z"/>
<g>
	<path class="st4" d="M211.1,121.4c-6.1,44.4-9,89.3-8.6,134.2c0.2,22.7,1.2,45.4,3,68c1.7,21.1,3.9,42.4,9.4,62.9
		c0.3,1.2,0.7,2.4,1,3.6c-3.1,8.2-12.1,12.2-20.4,12.3c-10.1,0.2-18.7-5.5-25.2-13c-7.4-8.7-12-19.3-16.7-29.6
		c-5-10.9-10.2-21.9-18.7-30.6c-7.4-7.6-17.2-13.4-28-13.7c-10.4-0.3-20,4.5-27.5,11.4c-5.1,4.7-9.1,10.1-12.2,15.9
		c-0.3,0.2-0.5,0.5-0.5,1c-7.5,14.4-10.5,31.4-15.2,47c-3.2,10.6-7.3,21.9-16.1,29.1c-1.8,1.5-3.8,3-6.2,3.4
		c-2.1,0.4-4.2,0.1-6.2-0.6c-4.7-1.5-8.8-4.6-12.1-8.1c-1.5-1.5-2.8-3.1-4-4.8C4,390.2,3.2,370,3,350.2c-0.3-45,0.9-90.1,3.5-135
		c1.3-23,3.2-45.9,5.7-68.8c2.1-19.8,4.4-39.7,9.5-58.9c4.8-18,12.2-35.7,24.6-49.9c11.2-12.9,26-22.2,42.1-27.8
		C120.4-1.1,158.2,1,189.2,14c8.2,3.4,16.2,8,22.1,14.7c6.7,7.6,9.4,17.2,9.4,27.2c0,10.8-2.5,21.4-4.4,31.9
		C214.4,99,212.7,110.2,211.1,121.4z"/>
</g>
<path d="M218.9,390.9c-0.4,1.2-1,2.3-1.6,3.4c-0.5,0.8-1,1.6-1.6,2.3c-5.5,7-15.3,9.6-23.9,8.7c-3.7-0.4-7.2-1.5-10.5-3.2
	c-1.3-0.6-2.5-1.4-3.7-2.2c-4.4-2.9-8.2-6.7-11.4-10.9c-14.6-18.8-18.2-44.7-36.6-60.8c-8.1-7.1-18.9-11.4-29.7-9.1
	c-10.2,2.2-18.9,9.2-25.1,17.4c-1.9,2.5-3.6,5.1-5.1,7.8c-1.1,1.9-2,3.9-2.9,5.9c-7.7,17.5-9.5,37.6-17.4,55.1
	c-2.3,5.1-5.2,10-9.1,14c-3.3,3.5-7.5,6.9-12.5,7.1c-4.8,0.2-9.6-2.1-13.4-4.8c-2.4-1.7-4.7-3.7-6.7-5.9c-1.4-1.5-2.7-3.1-3.8-4.8
	c0,0-0.1-0.1-0.1-0.1c-0.3-0.5-0.3-1-0.1-1.3c0,0,0,0,0,0c0.5-0.9,2-1.3,2.7-0.2c0.1,0.2,0.2,0.4,0.4,0.5c1.2,1.7,2.6,3.3,4,4.8
	c3.4,3.4,7.5,6.6,12.1,8.1c2,0.6,4.2,1,6.2,0.6c2.3-0.5,4.4-1.9,6.2-3.4c8.8-7.3,12.9-18.6,16.1-29.1c4.7-15.6,7.6-32.5,15.2-47
	c0.2-0.3,0.3-0.7,0.5-1c3.1-5.8,7.1-11.2,12.2-15.9c7.5-6.9,17.2-11.7,27.5-11.4c10.8,0.3,20.6,6.1,28,13.7
	c8.4,8.7,13.7,19.7,18.7,30.6c4.7,10.3,9.3,21,16.7,29.6c6.4,7.5,15,13.1,25.2,13c8.3-0.1,17.3-4.1,20.4-12.3c0,0,0,0,0,0
	C216.7,388.3,219.6,389.1,218.9,390.9z"/>
<g>
	<path class="st3" d="M258.4,86.5c-1.8-15.8-18.5-30.1-34.5-24c-4.8,1.8-9,5.1-13.9,6.8c-2.3,0.8-4.7,1.2-7.2,0.8
		c-2.8-0.5-5.4-1.8-8.1-2.7c-11.8-4-24.5-1.9-36.3,0.6c-3,0.6-6,1.3-9.1,2c-2.7,0.6-5.7,1.2-8.5,0.5c-1.6-0.4-2.9-1.2-4.2-2.3
		c0-0.1-0.1-0.2-0.1-0.3c-0.2-0.5-0.7-0.8-1.3-1l0,0c-1.8-1.8-3.4-4-5.3-5.6c-7-6-16.7-8-25.7-6.1c-8.5,1.8-15.5,7.4-19.1,15.2
		c1.5-7.9,6-15.2,13.1-19.3c6.4-3.7,14.3-4.7,21.3-2.2c7.8,2.8,11.8,11,19.4,14.1c5,2,10.2,0.5,15.3-0.5c5.2-1,10.5-1,15.7-0.8
		c10.6,0.4,21.3,2,31.9,0.9c5.3-0.5,10.4-1.9,15.5-3.3c5-1.4,10.1-2.7,15.3-2.7c8,0.1,15.6,4.2,20.5,10.5
		C257.6,72.8,259.2,79.6,258.4,86.5z"/>
</g>
<g>
	<g>
		<path class="st5" d="M251.5,78.9c-3.7-7-10.9-12.9-19.1-13.2c-9.8-0.4-16.8,8.5-26.5,9.1h-0.1c-1.5,3.6-2.1,7.5-2.2,11.3
			c-0.1,3.9,0.5,7.8,1.9,11.5c1.4,3.7,4,7.1,6.5,10c1.6,1.9,3.4,3.7,5.2,5.3c0.3,0,0.6,0,0.9,0.1c3.7,1,7.6,1.2,11.4,0.6
			c3.9-0.6,7.7-1.9,11.1-3.9c0.2-0.1,0.4-0.2,0.6-0.3c3.4-2,6.3-4.7,8.6-7.9c2.2-3.2,3.8-6.9,4.1-10.8
			C254.4,86.6,253.4,82.5,251.5,78.9z M229.3,98.5c-4.8,0-8.7-3.9-8.7-8.7c0-4.8,3.9-8.7,8.7-8.7c4.8,0,8.7,3.9,8.7,8.7
			C238,94.6,234.1,98.5,229.3,98.5z"/>
	</g>
</g>
<g>
	<g>
		<path class="st5" d="M132.9,70.7c-2-1.9-3.7-4-5.7-5.9c-3.1-2.8-7-4.5-11-5.3c-7.8-1.6-16.6,0.5-22.3,6.2
			c-5.9,5.8-7.8,14.7-6.1,22.6c0.4,2,1.1,3.9,1.9,5.7c0,0,0,0.1,0.1,0.1c0.1,0.2,0.2,0.3,0.2,0.5c0,0,0,0,0,0c0.8,1.6,1.8,3.1,3,4.4
			c1.7,1.9,3.7,3.4,5.7,5c0,0,0.1,0,0.1,0.1c2.5,1.8,5.3,3,8.3,3.6c10.1,2,20.5-3.8,24.7-13c0,0,0,0,0-0.1c0.1-0.2,0.2-0.3,0.2-0.5
			c0-0.1,0.1-0.2,0.2-0.3C136.1,87,136,77.8,132.9,70.7z M111.7,92.1c-4.8,0-8.7-3.9-8.7-8.7c0-4.8,3.9-8.7,8.7-8.7
			c4.8,0,8.7,3.9,8.7,8.7C120.4,88.2,116.5,92.1,111.7,92.1z"/>
	</g>
</g>
<g>
	<path class="st3" d="M327.7,192.5c-0.5,0.1-1,0-1.6,0c-0.1,0-0.3,0-0.5,0c0,0-0.1,0-0.1,0c0,0-0.1,0-0.1,0c0,0,0,0,0,0
		c-0.2,0-0.5-0.1-0.7-0.1c-0.7-0.1-1.5-0.3-2.2-0.4c-1.9-0.4-3.8-0.9-5.7-1.5c-5-1.4-9.9-3-14.8-4.6c-12.3-4.1-24.4-8.6-36.5-13.2
		c-10.5-4-20.7-8.1-30.7-12.6c-4.3-1.9-8.4-4.2-12.6-6.3c-9.2-4.6-18.7-8.3-28.5-11.6c-9.6-3.2-19.3-6.1-29.2-8.2
		c-9.7-2.1-19.7-3.4-29.6-2.2c-4.8,0.6-9.5,1.6-14,3.4c-1.1,0.5-1.9,1.5-1.6,2.8c0.3,1.1,1.6,2,2.8,1.6c18.9-7.5,39.6-2.2,58.2,3.2
		c9.8,2.9,19.5,6.1,29,10c4.7,2,9.3,4.1,13.8,6.5c1.8,1,3.6,2,5.5,2.9c9.3,4.5,19,8.3,28.5,12.1c12.2,4.8,24.4,9.4,36.8,13.7
		c8.2,2.8,16.4,5.8,24.9,7.9c-0.2,0.1-0.3,0.2-0.5,0.3c-0.1,0-0.2,0.1-0.2,0.1c0,0,0,0,0,0l0,0c0,0-0.1,0-0.2,0
		c-0.6,0.2-1.2,0.4-1.9,0.6c-1.6,0.4-2.5,0.5-4,0.6c-1.7,0.1-3.4,0.2-5,0.1c-8.6-0.2-17.1-1.8-25.5-3.6c-9.8-2.1-19.5-4.7-29.2-7.5
		c-4.2-1.2-8.5-2.3-12.6-3.9c-3.8-1.5-7.4-3.4-11-5.3c-8-4.2-15.8-8.9-24-12.7c-3.9-1.8-7.9-3.3-12.1-4c-5.9-1-11.9-0.9-17.9-0.1
		c-12.1,1.6-23.8,5.8-36.1,6.9c-10,0.9-20.5-0.4-28.4-7c-3.3-2.8-6-6.3-7.3-10.4c-1.4-4.4-0.9-9,0-13.4c1.6-7.8,5-16.9,1.9-24.7
		c8.7,2.1,18.4-0.5,25-6.8c2.5-2.4,4.6-5.3,5.9-8.5c3.8-6.5,4.5-14.5,2.8-21.8c5.2,1.8,11.1,0,16.2-1.2c5.8-1.3,11.6-2.6,17.5-3.2
		c5.7-0.6,11.6-0.7,17.3,0.6c3.9,0.9,7.6,2.8,11.5,3.6c-2.6,7.2-2.8,15.4-0.6,22.8c1.2,3.9,3.3,7.4,5.8,10.6c2.8,3.7,6,7.1,9.6,10
		c7.1,5.7,15.5,9.4,23.2,14.2c3.4,2.1,6.8,4,10.3,5.8c10.7,5.8,21.6,11.4,32.3,17.2c11,6,22.1,12,32.6,19c2,1.4,4.1,2.8,6,4.2
		c0,0,0.2,0.2,0.3,0.3c0,0,0,0,0.1,0l0,0c0.2,0.1,0.3,0.3,0.5,0.4c0.4,0.3,0.9,0.7,1.3,1.1c0.7,0.6,1.4,1.2,2.1,1.9
		c0.6,0.6,1.1,1.1,1.7,1.7c0.1,0.1,0.4,0.5,0.5,0.6c0,0,0,0,0,0c0.3,0.4,0.5,0.8,0.8,1.2c0.8,1.4,1.6,2.9,1.7,4.5
		C329.6,191.3,329.2,192.3,327.7,192.5z"/>
</g>
<path d="M324.8,196.4c-0.1,0.1-0.2,0.3-0.3,0.4c-1.6,1.9-3.7,3.1-6.1,3.9c-6.8,2.1-14.6,1.3-21.5,0.4c-9.9-1.3-19.7-3.5-29.4-6
	c-5-1.3-10.1-2.7-15.1-4.1c-4.4-1.3-9-2.4-13.3-4.1c-8.5-3.3-16.5-8.1-24.5-12.4c-2.1-1.1-4.2-2.3-6.3-3.4c-1.5-0.8-3-1.5-4.5-2.2
	c-4.4-2.1-9-3.7-13.9-4.3c-12.5-1.5-24.7,2.3-36.7,4.9c-11.5,2.5-24.3,4.5-35.6,0c-8.8-3.5-17-10.4-19.2-19.9
	c-2.3-10.1,2.8-19.5,3.4-29.4c0.3-4.6-1-8.6-4.6-11.7c-0.2-0.2-0.4-0.3-0.6-0.5c-0.1-0.1-0.2-0.1-0.2-0.2c-1.7-1.4-3.5-2.6-5.1-4.2
	c-1.6-1.6-3.1-3.4-4.2-5.3c-0.4-0.6-0.7-1.3-1-1.9c0,0,0,0,0,0c-3.7-7.4-4.2-16.6-1.3-24.3c0.2-0.5,0.4-1.1,0.7-1.6c0,0,0,0,0,0
	c3.6-7.8,10.6-13.3,19.1-15.2c8.9-1.9,18.7,0,25.7,6.1c1.8,1.6,3.5,3.7,5.3,5.6l0,0c0.5,0.5,0.9,0.9,1.4,1.3c1.2,1,2.6,1.9,4.2,2.3
	c2.8,0.7,5.7,0.1,8.5-0.5c3-0.6,6-1.3,9.1-2c11.9-2.5,24.5-4.6,36.3-0.6c2.7,0.9,5.3,2.1,8.1,2.7c2.5,0.5,4.9,0.1,7.2-0.8
	c4.9-1.7,9.1-5,13.9-6.8c16-6.1,32.7,8.2,34.5,24c0.3,2.3,0.2,4.5-0.2,6.8c-1.6,8.9-7.5,15.9-15.1,20.2c-5.6,3.2-12,4.9-18.4,4.8
	c-2.6,0-5.2-0.4-7.7-1c-2.5-0.7-1.8-4.2,0.3-4.4c0.3,0,0.6,0,0.9,0.1c3.7,1,7.6,1.2,11.4,0.6c3.9-0.6,7.7-1.9,11.1-3.9
	c0.2-0.1,0.4-0.2,0.6-0.3c3.4-2,6.3-4.7,8.6-7.9c2.2-3.2,3.8-6.9,4.1-10.8c0.3-4.1-0.6-8.2-2.6-11.9c-3.7-7-10.9-12.9-19.1-13.2
	c-9.8-0.4-16.8,8.5-26.5,9.1h-0.1c-1.6,0.1-3.1-0.1-4.6-0.4c-3.9-0.9-7.6-2.7-11.5-3.6c-5.7-1.3-11.5-1.2-17.3-0.6
	c-5.9,0.7-11.7,2-17.5,3.2c-5.2,1.1-11,3-16.2,1.2h0c-0.2-0.1-0.4-0.2-0.7-0.3c-2-0.8-3.7-2.1-5.2-3.6c-2-1.9-3.7-4-5.7-5.9
	c-3.1-2.8-7-4.5-11-5.3c-7.8-1.6-16.6,0.5-22.3,6.2c-5.9,5.8-7.8,14.7-6.1,22.6c0.4,2,1.1,3.9,1.9,5.7c0.1,0.2,0.2,0.4,0.3,0.6
	c0,0,0,0,0,0c0.8,1.6,1.8,3.1,3,4.4c1.7,1.9,3.7,3.4,5.7,5c1.9,1.5,3.7,3.1,5,5.2c0.5,0.8,1,1.7,1.3,2.5c3.1,7.8-0.3,16.9-1.9,24.7
	c-0.9,4.4-1.4,9,0,13.4c1.3,4.1,4,7.6,7.3,10.4c7.9,6.6,18.4,8,28.4,7c12.2-1.1,23.9-5.3,36.1-6.9c5.9-0.8,11.9-1,17.9,0.1
	c4.2,0.7,8.2,2.2,12.1,4c8.2,3.8,16,8.5,24,12.7c3.6,1.9,7.2,3.8,11,5.3c4.1,1.6,8.4,2.7,12.6,3.9c9.6,2.8,19.3,5.4,29.2,7.5
	c8.3,1.8,16.9,3.4,25.5,3.6c1.7,0,3.4,0,5-0.1c1.5-0.1,2.4-0.2,4-0.6c0.7-0.2,1.3-0.4,1.9-0.6c0.1,0,0.1,0,0.2,0l0,0c0,0,0,0,0,0
	c0,0,0.1,0,0.2-0.1c0.2-0.1,0.3-0.2,0.5-0.3c0.1,0,0.1-0.1,0.2-0.1c0.3-0.1,0.5-0.3,0.8-0.5c0.1,0,0.1-0.1,0.1-0.1c0,0,0,0,0,0
	c0,0,0-0.1,0.1-0.1c0.2-0.2,0.3-0.3,0.5-0.5c0.1-0.1,0.3-0.3,0.4-0.4c0,0-0.1,0.1-0.1,0.2c0.7-1,1.9-1.5,3.1-0.8
	C325,193.9,325.5,195.5,324.8,196.4z"/>
<path d="M330.3,196.4c-1.8,0.8-3.9,0.7-5.8,0.4c-0.7-0.1-1.4-0.3-2.1-0.4c-1.1-0.2-2.3-0.5-3.4-0.8c-8.4-2-16.7-5-24.9-7.9
	c-12.4-4.3-24.6-8.9-36.8-13.7c-9.6-3.8-19.2-7.6-28.5-12.1c-1.9-0.9-3.7-1.9-5.5-2.9c-4.5-2.4-9.1-4.5-13.8-6.5
	c-9.4-4-19.2-7.2-29-10c-18.6-5.4-39.4-10.7-58.2-3.2c-1.1,0.5-2.5-0.5-2.8-1.6c-0.3-1.3,0.4-2.3,1.6-2.8c4.5-1.8,9.2-2.8,14-3.4
	c9.9-1.2,19.9,0.1,29.6,2.2c9.9,2.1,19.6,5,29.2,8.2c9.7,3.2,19.3,7,28.5,11.6c4.2,2.1,8.3,4.4,12.6,6.3c10,4.5,20.2,8.5,30.7,12.6
	c12.1,4.6,24.2,9.1,36.5,13.2c4.9,1.6,9.8,3.2,14.8,4.6c1.9,0.5,3.8,1,5.7,1.5c0.7,0.2,1.5,0.3,2.2,0.4c0.2,0,0.5,0.1,0.7,0.1
	c0,0,0,0,0,0c0,0,0.1,0,0.1,0c0,0,0.1,0,0.1,0c0.2,0,0.4,0,0.5,0c0.5,0,1.1,0.1,1.6,0c1.6-0.2,1.9-1.2,1.8-2.6
	c-0.1-1.6-0.9-3.2-1.7-4.5c-0.3-0.4-0.5-0.8-0.8-1.2c0,0,0,0,0,0c-0.1-0.1-0.4-0.5-0.5-0.6c-0.5-0.6-1.1-1.2-1.7-1.7
	c-0.7-0.6-1.4-1.3-2.1-1.9c-0.4-0.4-0.9-0.7-1.3-1.1c-0.2-0.1-0.3-0.3-0.5-0.4l0,0c0,0,0,0-0.1,0c-0.1-0.1-0.3-0.2-0.3-0.3
	c-2-1.5-4-2.9-6-4.2c-10.5-7-21.5-13-32.6-19c-10.7-5.8-21.5-11.4-32.3-17.2c-3.5-1.9-7-3.7-10.3-5.8c-7.7-4.8-16.1-8.5-23.2-14.2
	c-3.6-2.9-6.8-6.3-9.6-10c-2.4-3.2-4.6-6.7-5.8-10.6c-2.2-7.3-2-15.5,0.6-22.8c0.4-1,0.8-2,1.2-3c0.5-1.1,2.1-1.4,3.1-0.8
	c1.1,0.7,1.3,2,0.8,3.1c-0.2,0.4-0.3,0.7-0.5,1.1c-1.5,3.6-2.1,7.5-2.2,11.3c-0.1,3.9,0.5,7.8,1.9,11.5c1.4,3.7,4,7.1,6.5,10
	c1.6,1.9,3.4,3.7,5.2,5.3c1.6,1.5,3.4,2.8,5.2,4c0.7,0.5,1.5,1,2.2,1.4c3.5,2.2,7.2,4.1,10.8,6.1c4.2,2.4,8.2,5,12.4,7.3
	c4.5,2.5,9.2,4.9,13.7,7.4c11.6,6.1,23.2,12.2,34.5,18.6c9.9,5.6,20,11.2,28.8,18.4c3.5,2.9,6.5,6,8.1,10.3
	C334.6,190,334.3,194.6,330.3,196.4z"/>
<path d="M136,96.3c-1.4,3.2-3.4,6.1-5.9,8.5c-6.6,6.3-16.3,8.9-25,6.8c-3-0.7-5.9-2-8.5-3.8c-0.1-0.1-0.2-0.1-0.2-0.2
	c-0.8-0.7-1.2-1.9-0.6-2.9c0.6-0.9,2-1.5,3-0.9c0,0,0.1,0,0.1,0.1c2.5,1.8,5.3,3,8.3,3.6c10.1,2,20.5-3.8,24.7-13c0,0,0,0,0-0.1
	c0.1-0.2,0.2-0.3,0.2-0.5c0-0.1,0.1-0.2,0.2-0.3c0.6-0.9,2-1,2.9-0.5C136.3,93.9,136.4,95.2,136,96.3z"/>
<path d="M136,96.3c-1.4,2.3-4.8,0.5-4.1-1.7c0,0,0,0,0-0.1c0.1-0.2,0.2-0.3,0.2-0.5c0-0.1,0.1-0.2,0.2-0.3c3.9-6.8,3.7-16,0.7-23.1
	c-0.1-0.2-0.2-0.3-0.2-0.5c-0.5-1.1-0.3-2.4,0.8-3.1c0.5-0.3,1.2-0.4,1.8-0.2l0,0c0.5,0.2,1,0.5,1.3,1c0,0.1,0.1,0.2,0.1,0.3
	c0.9,2,1.6,4.2,2.1,6.4h0C140.5,81.9,139.8,89.9,136,96.3z"/>
<path d="M243.1,113.6c-0.1,0-0.2,0.1-0.3,0.1c-2.5,0.7-3.7-2.6-2-3.9c0.2-0.1,0.4-0.2,0.6-0.3c0.1,0,0.2-0.1,0.3-0.1
	c1.7-0.5,3.3-1.2,4.8-2.1c6.4-3.9,10.2-11.1,11.6-18.3c0.2-0.8,0.3-1.6,0.4-2.4c0.8-6.9-0.8-13.8-5.1-19.4
	c-4.8-6.3-12.4-10.5-20.5-10.5c-5.2,0-10.3,1.3-15.3,2.7c-5.1,1.4-10.2,2.7-15.5,3.3c-10.6,1.1-21.3-0.5-31.9-0.9
	c-5.2-0.2-10.5-0.1-15.7,0.8c-5.1,0.9-10.3,2.5-15.3,0.5c-7.6-3.1-11.6-11.3-19.4-14.1c-7-2.5-14.9-1.5-21.3,2.2
	c-7.1,4.1-11.6,11.4-13.1,19.3c0,0,0,0,0,0c-1.6,8.1-0.2,16.8,4.5,23.5c0,0,0,0.1,0.1,0.1c0.1,0.2,0.2,0.3,0.2,0.5c0,0,0,0,0,0
	c0.3,1-0.2,2.1-1,2.6c-1.1,0.6-2.4,0.2-3.1-0.8c0,0,0,0,0,0c-1.3-1.9-2.4-3.9-3.2-6c-3.5-8.5-3.3-18.5,0.1-27
	c1.7-4.1,3.9-8.1,7.1-11.3c3-3,6.6-5.3,10.5-6.8c7.6-3,16.5-3,23.8,0.9c4,2.1,7,5.4,10.3,8.5c3.3,3.1,6.7,5.3,11.4,5
	c2.8-0.2,5.5-1,8.2-1.5c2.8-0.5,5.7-0.8,8.6-0.9c5.6-0.2,11.2,0.2,16.9,0.6c5.5,0.4,11.1,0.8,16.7,0.7c5.7-0.1,11.1-1,16.6-2.5
	c3.6-0.9,7.2-2,10.8-2.7c1.5-0.3,3-0.6,4.5-0.7c5-0.6,10-0.4,14.9,1.5c8.3,3.2,14.9,9.8,18.2,18.1
	C267.1,87.2,259.3,108.8,243.1,113.6z"/>
<g>
	<circle class="st5" cx="113.1" cy="83.9" r="13.6"/>
</g>
<g>
	<circle class="st5" cx="229.2" cy="91.7" r="13.3"/>
</g>
<circle cx="128" cy="83.4" r="8.7"/>
<circle cx="245.6" cy="89.7" r="8.7"/>
<path d="M597.4,81.1c-3.4,3.9-3.5,9.2-3.4,14.1c0,5.4,0.5,10.8,1.3,16.2c1.5,10.8,4.6,21.3,8.9,31.3c2.5,5.6,5.4,11.1,8.7,16.3
	c1,1.6,3.6,0.1,2.6-1.5c-11.1-17.5-17.5-37.8-18.4-58.5c-0.1-2.8-0.2-5.7,0-8.5c0.2-2.5,0.7-5.2,2.5-7.2
	C600.8,81.8,598.7,79.7,597.4,81.1L597.4,81.1z"/>
<path d="M703.6,68.8c-2.2,13-5.3,25.8-9.3,38.4c-2,6.3-4.3,12.5-6.8,18.6c-2.3,5.6-4.7,11.1-7.7,16.4c-3.2,5.6-7.2,10.8-12.4,14.9
	c-1.5,1.2,0.6,3.3,2.1,2.1c9.4-7.4,14.9-18.4,19.4-29.2c5.2-12.3,9.5-25,12.8-38c1.9-7.4,3.4-14.8,4.7-22.3
	C706.8,67.7,704,66.9,703.6,68.8L703.6,68.8z"/>
<path d="M786.1,158.6c-10.1,2.6-20.1,5.1-30.2,7.5c-5,1.2-9.9,2.3-14.9,3.5c-4.5,1-9,2.2-13.6,2.6c-4.8,0.4-9.7,0.1-14-2.4
	c-1.7-1-3.2,1.6-1.5,2.6c7.9,4.7,17.5,2.9,26,1c10.4-2.4,20.9-4.8,31.3-7.4c5.9-1.5,11.8-2.9,17.7-4.4
	C788.8,161.1,788,158.2,786.1,158.6L786.1,158.6z"/>
<path d="M838.7,586.6c-13.6-16.6-19.6-39.1-16.8-60.4c0.8-6,2.3-11.9,4.5-17.5c0.7-1.8-2.2-2.6-2.9-0.8c-8,20.8-6.6,44.8,3,64.9
	c2.7,5.7,6.1,11,10.1,15.9C837.8,590.2,839.9,588.1,838.7,586.6L838.7,586.6z"/>
<path d="M968.7,518.9c-20.9-15.8-46-25.7-72-28.7c-7.3-0.8-14.7-1.1-22-0.8c-1.9,0.1-1.9,3.1,0,3c25.8-1,51.7,5.1,74.3,17.4
	c6.3,3.4,12.4,7.4,18.1,11.7C968.8,522.6,970.3,520,968.7,518.9L968.7,518.9z"/>
<path d="M922.6,360.4c3.1,12,5.8,25.2,0.1,36.8c-2.6,5.3-6.3,9.9-10.1,14.3c-4.2,4.9-8.5,9.6-12.9,14.3c-5,5.3-10.2,10.5-15.5,15.5
	c-1.4,1.3,0.7,3.5,2.1,2.1c9.8-9.3,19.1-19,27.8-29.2c3.9-4.6,7.9-9.3,10.7-14.7c3-5.7,4.3-11.9,4.2-18.3
	c-0.1-7.4-1.7-14.7-3.5-21.8C925,357.8,922.1,358.6,922.6,360.4L922.6,360.4z"/>
<g>
	<circle class="st6" cx="431.4" cy="97.4" r="41.9"/>
	<path d="M431.4,141.4c-24.2,0-43.9-19.7-43.9-43.9s19.7-43.9,43.9-43.9s43.9,19.7,43.9,43.9S455.6,141.4,431.4,141.4z M431.4,57.5
		c-22,0-39.9,17.9-39.9,39.9s17.9,39.9,39.9,39.9s39.9-17.9,39.9-39.9S453.4,57.5,431.4,57.5z"/>
</g>
<path d="M431.4,131c-18.5,0-33.6-15.1-33.6-33.6s15.1-33.6,33.6-33.6s33.6,15.1,33.6,33.6S449.9,131,431.4,131z M431.4,67.9
	c-16.3,0-29.6,13.3-29.6,29.6s13.3,29.6,29.6,29.6s29.6-13.3,29.6-29.6S447.7,67.9,431.4,67.9z"/>
<path d="M423.2,114c-1-5.1-1.8-10.3-2.3-15.4c-0.2-2.6-0.5-5.1-0.6-7.7c-0.1-2.1,0.1-4,2.2-4.9c1.6-0.7,3.5-0.7,5.2-0.7
	c2,0,4.4,0,6.1,1.2c3.7,2.5,1.9,7.6-0.8,10.1c-3.6,3.4-8.9,4.5-13.6,3.2c0,1,0,1.9,0,2.9c4.5-0.6,9.3-1.7,13.9-1.5
	c3.4,0.2,8.3,2.4,7.8,6.6c-0.4,3.2-4,4.7-6.7,5.3c-3.7,0.8-8.2,0.9-11.4-1.3c-1.6-1.1-3.1,1.5-1.5,2.6c3.3,2.2,7.5,2.5,11.3,2
	c3.2-0.4,6.5-1.4,8.9-3.6c2.4-2.3,3-5.9,1.5-8.9c-1.8-3.5-5.5-5.3-9.3-5.7c-2.5-0.2-5,0.1-7.4,0.4c-2.6,0.4-5.3,0.7-7.9,1.1
	c-1.5,0.2-1.3,2.5,0,2.9c5.2,1.4,10.9,0.4,15.2-2.9c4-3.1,6.5-8.4,4-13.2c-2.4-4.6-8.8-4.8-13.3-4.2c-2.2,0.3-4.4,1-5.8,2.8
	c-1.8,2.3-1.4,5.3-1.3,8c0.5,7.2,1.4,14.5,2.8,21.6C420.7,116.7,423.6,115.9,423.2,114L423.2,114z"/>
<path d="M433.2,121.5c-2.8-16.7-4.4-33.5-4.9-50.4c-0.1-1.9-3.1-1.9-3,0c0.5,17.1,2.2,34.2,5,51.2
	C430.6,124.2,433.5,123.4,433.2,121.5L433.2,121.5z"/>
</svg>
